<svg width="86" height="98" viewBox="0 0 86 98" fill="none" xmlns="http://www.w3.org/2000/svg">
<g id="Before-its-late-sticker 1" clip-path="url(#clip0_311_625)">
<g id="Group">
<path id="Vector" d="M81.391 31.1527L77.3064 25.5994L76.8501 16.7503L71.944 16.1634L69.3199 8.03659L64.7333 10.1586L61.5615 3.25082L57.591 7.6754L53.5977 2.84448L50.0608 7.90114L45.9534 3.02508L42.5534 9.2556L38.0125 6.72727L34.4984 13.0029L30.0715 10.4295L27.4702 18.3756L23.1802 16.976L20.6702 24.8319L16.1292 24.3353L14.8514 33.365L10.2648 35.487L9.73996 45.0585L5.47284 49.9346L7.07016 58.242L4.65137 66.8202L8.43929 71.8317L9.48895 81.629L14.2581 81.9902L16.8822 90.3427L21.4688 88.2207L24.6406 93.9546L28.5883 89.9364L32.5588 95.5348L36.2326 89.7558L40.4313 94.2255L43.74 88.3562L48.0527 91.3811L51.2474 84.8797L55.5373 87.2275L58.2756 79.507L62.8849 81.4484L65.1668 72.9153L69.6165 73.0959L71.1454 65.1046L75.7319 62.9826L76.2339 53.1853L80.4098 48.6704L79.1319 38.9635L81.391 31.1527Z" fill="#FF1180" stroke="#3AFE14" stroke-width="5" stroke-miterlimit="10"/>
<g id="Group_2">
<g id="Group_3">
<path id="Vector_2" d="M19.392 58.8287C19.6658 60.6347 19.3235 62.3955 18.0685 63.1178L12.9799 66.0976L11.3369 55.0814L16.1745 52.237C17.4295 51.5146 18 52.4176 18.251 54.0881C18.3651 54.8105 18.2966 55.6231 18.1141 56.3907C18.7302 56.8422 19.2094 57.6548 19.392 58.8287ZM13.9839 57.7903L15.9007 56.6616C16.106 56.5261 16.357 56.3907 16.2658 55.8037C16.1745 55.2168 15.9235 55.3523 15.7181 55.4877L13.8242 56.6164L13.9839 57.7903ZM17.2926 59.7317C17.2013 59.1447 16.9503 59.2802 16.745 59.4156L14.4403 60.7701L14.6228 61.944L16.9275 60.5895C17.1101 60.4541 17.3611 60.3186 17.2926 59.7317Z" fill="#18181D"/>
<path id="Vector_3" d="M21.012 52.8693L21.1718 53.9077L24.9825 51.6954L25.3704 54.3592L21.5597 56.5715L21.7194 57.6099L25.5301 55.3976L26.0093 58.558L20.1449 61.9893L18.502 50.9731L24.3664 47.5417L24.8456 50.7022L21.012 52.8693Z" fill="#18181D"/>
<path id="Vector_4" d="M27.1729 49.6184L27.3554 50.7923L30.687 48.8509L31.2118 52.3273L27.8803 54.2687L28.3138 57.1583L26.2601 58.3773L24.6172 47.361L30.4816 43.9297L31.0065 47.4061L27.1729 49.6184Z" fill="#18181D"/>
<path id="Vector_5" d="M31.3717 49.3926C30.8013 45.555 31.5771 43.1621 34.0187 41.7174C36.4603 40.2726 37.7838 41.5368 38.3543 45.3293C38.9247 49.1669 38.1489 51.6049 35.7073 53.0497C33.2657 54.4493 31.9422 53.2303 31.3717 49.3926ZM36.2778 46.5031C36.118 45.3744 35.7529 44.4263 34.5207 45.1487C33.2885 45.871 33.2429 46.9998 33.4254 48.1736C33.608 49.3475 33.9731 50.2505 35.1825 49.5732C36.3919 48.896 36.4603 47.677 36.2778 46.5031Z" fill="#18181D"/>
<path id="Vector_6" d="M44.4473 44.2908L45.9077 46.8643L43.4661 48.3091L42.3023 46.1871L41.0929 46.9095L41.4808 49.4829L39.4271 50.702L37.7842 39.6857L42.1426 37.1122C43.3976 36.3898 44.5385 37.6088 44.9036 40.092C45.1318 41.7174 44.9493 43.2524 44.4473 44.2908ZM40.5681 43.433L42.4849 42.3043C42.6902 42.1688 42.9412 42.0334 42.8271 41.2659C42.713 40.4983 42.462 40.6789 42.2567 40.7692L40.3399 41.898L40.5681 43.433Z" fill="#18181D"/>
<path id="Vector_7" d="M47.0482 37.6991L47.2079 38.7376L51.0186 36.5253L51.4065 39.189L47.5958 41.4013L47.7555 42.4397L51.5663 40.2275L52.0455 43.3879L46.181 46.8192L44.5381 35.8029L50.4025 32.3716L50.8817 35.532L47.0482 37.6991Z" fill="#18181D"/>
<path id="Vector_8" d="M57.4994 40.092L55.4457 41.311L53.8027 30.2947L55.8564 29.0757L57.4994 40.092Z" fill="#18181D"/>
<path id="Vector_9" d="M63.4323 28.4438L61.0591 29.8434L62.1772 37.3832L60.1235 38.6022L59.0054 31.0624L56.6323 32.462L56.1074 28.9855L62.9302 25.0125L63.4323 28.4438Z" fill="#18181D"/>
<path id="Vector_10" d="M66.125 30.8366C66.1935 31.3784 66.5129 31.6041 67.8136 30.8366C69.0458 30.1142 69.2056 29.8433 69.1371 29.437C69.0686 28.9855 68.8861 29.0307 67.5626 29.7079C65.0297 31.0172 63.9572 30.7463 63.5693 28.218C63.2042 25.7799 64.2539 24.0643 66.4445 22.8001C68.6123 21.536 69.9814 21.852 70.415 24.6512L68.3613 25.8702C68.27 25.2833 67.768 25.4188 66.7639 26.0508C65.8056 26.6378 65.6002 26.8184 65.6686 27.2699C65.7371 27.6762 65.9197 27.5407 67.1519 26.9538C69.3653 25.8251 70.7801 25.3736 71.1908 28.218C71.6472 31.2429 70.4834 32.778 68.2015 34.0873C65.9197 35.3966 64.5277 35.3966 64.0485 32.1459L66.125 30.8366Z" fill="#18181D"/>
<path id="Vector_11" d="M25.9635 70.8383L23.5904 72.2379L24.7085 79.7777L22.6548 80.9967L21.5367 73.4569L19.1635 74.8565L18.6387 71.3801L25.4615 67.407L25.9635 70.8383Z" fill="#18181D"/>
<path id="Vector_12" d="M26.3512 72.7799C25.7807 68.9422 26.5566 66.5493 28.9982 65.1046C31.4398 63.6598 32.7633 64.924 33.3338 68.7165C33.9042 72.5541 33.1284 74.9921 30.6868 76.4369C28.2452 77.8817 26.9217 76.6175 26.3512 72.7799ZM31.2801 69.9355C31.0975 68.8068 30.7552 67.8586 29.523 68.581C28.2908 69.3034 28.2452 70.4321 28.4277 71.606C28.6103 72.7799 28.9754 73.6828 30.1848 73.0056C31.3942 72.2832 31.4398 71.1093 31.2801 69.9355Z" fill="#18181D"/>
<path id="Vector_13" d="M33.4938 68.626C32.9233 64.7884 33.6992 62.3955 36.1408 60.9508C38.5824 59.506 39.9059 60.7702 40.4763 64.5627C41.0468 68.4003 40.271 70.8383 37.8294 72.2831C35.3878 73.6827 34.0643 72.4637 33.4938 68.626ZM38.4227 65.7365C38.2401 64.6078 37.8978 63.6597 36.6656 64.3821C35.4334 65.1044 35.3878 66.2332 35.5703 67.407C35.7529 68.5809 36.118 69.4839 37.3274 68.8066C38.5367 68.1294 38.5824 66.9104 38.4227 65.7365Z" fill="#18181D"/>
<path id="Vector_14" d="M49.9238 61.2667L50.4486 64.7432L44.7211 68.0842L43.0781 57.0679L45.1318 55.8489L46.2499 63.3887L49.9238 61.2667Z" fill="#18181D"/>
<path id="Vector_15" d="M55.3088 59.7318L52.9357 61.1314L52.8444 63.3437L50.5625 64.653L51.2242 52.3274L54.282 50.5215L58.2296 60.1833L55.9477 61.4926L55.3088 59.7318ZM54.3504 57.2035L53.2095 54.2237L53.0726 57.971L54.3504 57.2035Z" fill="#18181D"/>
<path id="Vector_16" d="M62.7701 49.3024L60.397 50.702L61.5151 58.2418L59.4614 59.4609L58.3433 51.921L55.9701 53.3206L55.4453 49.8442L62.2681 45.8711L62.7701 49.3024Z" fill="#18181D"/>
<path id="Vector_17" d="M65.0296 47.6772L65.1893 48.7156L69.0001 46.5033L69.388 49.1671L65.5773 51.3794L65.737 52.4178L69.5477 50.2055L70.0269 53.3659L64.1625 56.7972L62.5195 45.7809L68.384 42.3496L68.8632 45.51L65.0296 47.6772Z" fill="#18181D"/>
</g>
</g>
<path id="Vector_18" d="M42.074 80.0939C41.6633 77.385 40.9331 76.0757 39.4727 76.9787C40.4995 75.7596 41.4807 74.6309 41.0015 71.606C41.572 73.8634 42.3478 75.1727 43.6941 74.8567C42.1425 75.4436 42.0512 77.6559 42.074 80.0939Z" fill="#18181D"/>
<path id="Vector_19" d="M44.949 26.954C44.5383 24.2451 43.8081 22.9358 42.3477 23.8388C43.3745 22.6197 44.3557 21.491 43.8765 18.4661C44.447 20.7235 45.2228 22.0328 46.5691 21.7168C45.0175 22.3037 44.9034 24.516 44.949 26.954Z" fill="#18181D"/>
</g>
</g>
<defs>
<clipPath id="clip0_311_625">
<rect width="85.388" height="97.2504" fill="white" transform="translate(0.612305)"/>
</clipPath>
</defs>
</svg>
