<svg width="670" height="489" viewBox="0 0 670 489" fill="none" xmlns="http://www.w3.org/2000/svg">
<g clip-path="url(#clip0_290_747)">
<path d="M171.914 189.028L168.814 190.685L177.629 196.197L171.914 189.028ZM171.914 189.028L168.814 190.685L177.629 196.197L171.914 189.028ZM465.505 207.836L440.817 235.545L445.991 235.439L469.449 209.224L465.505 207.836ZM171.914 189.028L168.814 190.685L177.629 196.197L171.914 189.028ZM177.67 196.042L171.955 188.873L168.855 190.53L168.463 190.756L205.507 236.499L208.958 234.771L177.67 196.042ZM342.694 345.886L330.37 359.663L319.711 371.565L309.612 359.075L281.294 324.128L274.491 321.642L318.014 375.421L318.127 375.617L319.499 377.312L321.122 375.591L346.328 347.191L342.694 345.886ZM458.499 144.772L387.177 109.245L270.332 105.462L196.852 136.845L167.867 186.783L166.905 188.515L168.659 190.643L205.704 236.386L208.221 239.382L224.19 259.082L230.88 261.372L211.672 237.653L209.155 234.657L177.825 196.084L172.11 188.915L171.615 188.285L171.894 187.862L174.377 183.553L198.841 141.192L199.72 139.769L201.993 138.72L271.32 109.209L386.492 113.041L453.416 146.395L455.884 147.719L456.564 148.896L479.225 191.945L479.452 192.338L472.08 200.643L468.71 204.549L465.898 207.609L441.209 235.318L437.488 239.295L398.336 283.193L390.923 291.653L380.698 303.174L378.124 305.966L375.033 309.449L378.977 310.837L380.92 308.539L383.494 305.747L400.811 286.343L408.379 277.925L442.817 239.231L446.187 235.325L469.645 209.111L472.457 206.051L483.116 194.149L484.026 193.232L458.499 144.772ZM171.914 189.028L168.814 190.685L177.629 196.197L171.914 189.028ZM465.505 207.836L440.817 235.545L445.991 235.439L469.449 209.224L465.505 207.836ZM171.914 189.028L168.814 190.685L177.629 196.197L171.914 189.028ZM465.505 207.836L440.817 235.545L445.991 235.439L469.449 209.224L465.505 207.836ZM171.914 189.028L168.814 190.685L177.629 196.197L171.914 189.028ZM171.914 189.028L168.814 190.685L177.629 196.197L171.914 189.028Z" fill="#FF1180"/>
<path d="M380.499 183.732C378.732 184.751 376.655 185.686 374.506 186.271C375.745 186.603 376.943 187.09 378.14 187.577L364.797 187.815L297.024 189.222L286.83 189.475L261.31 189.933L259.131 190.013L257.789 188.824L198.686 141.15L196.88 139.837L199.341 136.849L201.797 138.833L260.322 186.186L277.167 185.891L287.361 185.638L370.656 183.913L380.499 183.732Z" fill="#FF1180"/>
<path d="M458.135 147.991L456.368 149.009L404.204 180.135L401.218 181.987C400.526 181.471 399.835 180.954 399.143 180.437C398.72 180.157 398.493 179.765 398.07 179.486L400.86 177.746L453.22 146.508L456.207 144.655L458.135 147.991Z" fill="#FF1180"/>
<path d="M482.414 194.292L471.687 200.87L466.345 204.081L461.984 206.726L416.692 233.889L412.528 236.421L394.888 247.116L393.907 247.682L393.401 247.712L390.292 247.542L253.806 241.481L250.036 241.3L249.613 241.021L249.19 240.742L225.129 225.838L222.012 223.842L177.67 196.042L168.855 190.53L168.009 189.972L170.005 186.858L171.584 187.779L172.699 188.575L223.74 220.492L227.012 222.529L249.183 236.429L251.186 237.629L252.818 237.734L391.483 243.716L392.96 243.78L395.316 242.422L408.006 234.712L412.17 232.18L457.266 205.131L461.627 202.485L478.873 192.017L480.444 191.111L482.414 194.292Z" fill="#FF1180"/>
<path d="M270.795 274.72L265.767 273.041L249.19 240.742L248.623 239.761L249.183 236.429L257.438 188.896L257.728 187.813L261.373 188.458L261.114 190.046L252.818 237.734L252.599 239.168L253.806 241.481L270.795 274.72Z" fill="#FF1180"/>
<path d="M339.059 344.58L330.411 359.508L321.277 375.632L319.518 378.477L318.168 375.463L309.766 359.117L294.168 328.738L299.351 330.459L319.846 370.44L335.425 343.275L339.059 344.58Z" fill="#FF1180"/>
<path d="M395.447 246.271L395.168 246.693L394.889 247.116L361.61 305.023L357.935 303.873L390.292 247.542L391.575 245.233L391.484 243.716L390.961 228.321L390.871 224.317L390.462 209.118L390.131 198.583C390.884 200.111 391.636 201.64 392.192 203.281C392.648 201.579 393.259 199.919 393.983 198.455L394.484 215.171L394.815 225.706L394.905 229.709L395.358 242.267L395.447 246.271Z" fill="#FF1180"/>
<path d="M273.321 279.542L268.138 277.822L265.767 273.041L270.795 274.72L273.321 279.542Z" fill="#3AFE14"/>
<path d="M268.138 277.822L235.069 266.805L230.529 261.444L265.767 273.041L268.138 277.822Z" fill="#3AFE14"/>
<path d="M235.068 266.805L228.337 264.67L223.839 259.153L230.529 261.444L235.068 266.805Z" fill="#3AFE14"/>
<path d="M274.646 321.683L98.604 259.423L217.572 257.143L223.839 259.153L228.337 264.67L217.083 260.825L119.432 262.849L269.993 316.125L274.646 321.683Z" fill="#3AFE14"/>
<path d="M281.449 324.169L274.645 321.683L269.993 316.125L276.838 318.457L281.449 324.169Z" fill="#3AFE14"/>
<path d="M294.169 328.738L281.449 324.169L276.838 318.457L291.684 323.761L294.169 328.738Z" fill="#3AFE14"/>
<path d="M299.351 330.459L294.168 328.738L291.684 323.761L296.826 325.636L299.351 330.459Z" fill="#3AFE14"/>
<path d="M337.308 339.966L335.425 343.275L299.352 330.459L296.826 325.636L337.308 339.966Z" fill="#3AFE14"/>
<path d="M340.983 341.116L339.059 344.581L335.425 343.275L337.308 339.966L340.983 341.116Z" fill="#3AFE14"/>
<path d="M349.295 344.173L346.483 347.233L342.694 345.886L345.351 342.784L349.295 344.173Z" fill="#3AFE14"/>
<path d="M345.351 342.784L342.693 345.886L339.059 344.581L340.983 341.116L345.351 342.784Z" fill="#3AFE14"/>
<path d="M357.976 303.718L356.052 307.182L273.321 279.542L270.795 274.72L357.976 303.718Z" fill="#3AFE14"/>
<path d="M361.61 305.023L359.728 308.333L356.052 307.182L357.976 303.718L361.61 305.023Z" fill="#3AFE14"/>
<path d="M375.032 309.449L372.22 312.509L359.728 308.333L361.61 305.023L375.032 309.449Z" fill="#3AFE14"/>
<path d="M378.976 310.837L376.164 313.898L372.22 312.509L375.032 309.449L378.976 310.837Z" fill="#3AFE14"/>
<path d="M454.321 385.248L346.483 347.233L349.295 344.173L440.119 376.302L379.84 315.048L376.165 313.898L378.977 310.837L381.878 311.78L454.321 385.248Z" fill="#3AFE14"/>
<path d="M398.336 283.193L390.923 291.653L400.811 286.343L408.379 277.925L398.336 283.193ZM378.124 305.966L380.962 308.385L383.536 305.592L380.698 303.174L378.124 305.966Z" fill="#FF1180"/>
<path d="M619.06 240.026L423.478 345.478L380.92 308.539L383.495 305.747L423.906 340.784L603.513 244.151L473.184 246.705L400.657 286.302L408.225 277.883L472.238 242.803L619.06 240.026Z" fill="#3AFE14"/>
<path d="M412.17 232.18L408.006 234.712L412.528 236.421L416.692 233.889L412.17 232.18ZM394.815 225.706L391.026 224.359L391.116 228.362L394.905 229.709L394.815 225.706ZM461.627 202.485L457.266 205.131L462.026 206.572L466.387 203.926L461.627 202.485ZM468.358 204.621L465.546 207.681L469.532 208.915L472.344 205.854L468.358 204.621ZM437.488 239.295L442.662 239.19L446.032 235.284L440.858 235.39L437.488 239.295ZM287.361 185.638L277.167 185.891L286.831 189.475L297.024 189.222L287.361 185.638Z" fill="#FF1180"/>
<path d="M568.829 236.682L442.662 239.19L446.033 235.284L545.822 233.336L469.491 209.069L472.148 205.968L568.829 236.682Z" fill="#3AFE14"/>
<path d="M223.74 220.492L221.857 223.801L225.13 225.838L227.012 222.529L223.74 220.492ZM209 234.616L205.549 236.344L208.066 239.34L211.517 237.612L209 234.616ZM167.867 186.783L166.905 188.515L168.659 190.643L169.051 190.417L172.151 188.76L172.937 188.307L171.78 187.666L174.263 183.357L167.867 186.783Z" fill="#FF1180"/>
<path d="M207.87 239.453L182.689 252.273L182.379 252.19L37.4153 255.464L167.867 186.783L166.709 188.628L168.463 190.756L53.4685 251.309L181.742 248.371L205.507 236.499L207.87 239.453Z" fill="#3AFE14"/>
<path d="M421.838 186.186L421.5 183.111C414.064 183.606 408.364 182.576 404.049 180.093C403.048 179.493 401.933 178.697 401.128 177.984C400.974 177.942 400.86 177.746 400.705 177.705C396.34 173.55 393.806 166.902 393.226 157.295L390.076 157.28C388.956 173.23 382.865 181.713 370.46 184.026C368.001 184.528 365.119 184.751 362.124 184.778C361.97 184.736 361.773 184.849 361.463 184.766L361.45 187.913C361.605 187.955 361.801 187.842 362.111 187.925C362.927 187.978 363.743 188.03 364.559 188.083C379.44 188.92 387.572 195.742 390.379 209.428C390.852 211.379 391.129 213.443 391.168 215.775L394.205 215.593C393.375 197.628 401.531 188.87 421.838 186.186ZM393.983 198.455C393.259 199.919 392.648 201.579 392.192 203.281C391.636 201.639 390.925 199.957 390.131 198.583C387.337 193.523 383.354 189.803 377.985 187.535C376.788 187.049 375.59 186.562 374.351 186.23C376.5 185.645 378.577 184.709 380.344 183.69C385.882 180.366 389.626 175.068 391.616 167.642C392.933 172.637 395.047 176.52 397.915 179.444C398.297 179.878 398.565 180.116 398.988 180.395C399.68 180.912 400.371 181.429 401.063 181.946C403.602 183.621 406.575 184.915 410.024 185.674C402.203 188.221 396.922 192.444 393.983 198.455Z" fill="#FF1180"/>
<path d="M241.994 92.8947L241.842 90.3665C236.161 90.5027 231.587 89.6086 228.315 87.5711C227.468 87.0127 226.777 86.4958 226.127 85.8242C225.972 85.7827 226.013 85.628 225.859 85.5865C222.453 82.1868 220.713 76.9118 220.565 69.4103L218.076 69.4067C216.743 81.8173 211.697 88.2587 202.029 89.6477C200.118 89.9648 197.783 90.0026 195.491 89.8858C195.336 89.8443 195.181 89.8028 194.985 89.916L194.828 92.3611C194.982 92.4026 195.137 92.4441 195.334 92.3309C195.995 92.3422 196.656 92.3535 197.275 92.5195C208.924 93.6509 215.095 99.1182 216.861 109.872C217.108 111.431 217.313 113.144 217.363 114.815L219.852 114.819C219.379 101.095 225.985 94.4086 241.994 92.8947ZM219.874 101.725C219.233 102.88 218.746 104.076 218.373 105.469C217.889 104.178 217.405 102.888 216.879 101.752C214.807 97.7146 211.784 94.7488 207.696 92.6586C206.808 92.2549 205.92 91.8512 204.991 91.6022C206.747 91.2436 208.276 90.4927 209.805 89.7417C214.279 87.2926 217.185 83.2625 219.07 77.4665C220.017 81.3681 221.522 84.4245 223.699 86.8318C223.967 87.0695 224.194 87.4619 224.462 87.6996C224.999 88.175 225.381 88.6089 225.959 88.9297C227.92 90.2842 230.119 91.3708 232.906 92.1178C226.615 93.9142 222.285 97.0652 219.874 101.725Z" fill="#FF1180"/>
</g>
<defs>
<clipPath id="clip0_290_747">
<rect width="600" height="345" fill="white" transform="translate(89.8687 0.232056) rotate(15)"/>
</clipPath>
</defs>
</svg>
