<svg width="140" height="140" viewBox="0 0 140 140" fill="none" xmlns="http://www.w3.org/2000/svg">
<path d="M86.9549 106.564C86.5703 107.096 86.204 107.643 85.7971 108.157C85.2165 108.891 84.6089 109.604 84.0079 110.321C83.7531 110.625 83.4852 110.919 83.2066 111.237C83.4241 111.258 83.6649 111.281 83.9593 111.309C83.7876 110.674 84.2389 110.481 84.6113 110.209C84.8623 110.026 85.07 109.778 85.2781 109.543C85.616 109.16 85.9385 108.763 86.267 108.372C87.1201 107.358 87.9731 106.344 88.8253 105.33C88.9909 105.133 89.1519 104.932 89.3568 104.761C89.2812 104.905 89.2051 105.049 89.1291 105.194C89.1603 105.222 89.1921 105.25 89.2233 105.278C90.0451 104.742 90.3354 103.619 91.3177 103.261C91.6612 103.88 91.6481 103.928 90.9775 104.383C90.9248 104.294 90.873 104.209 90.7647 104.027C90.7185 104.264 90.7185 104.436 90.6495 104.574C90.5617 104.749 90.4063 105.038 90.2999 105.029C89.9289 104.999 89.7479 105.22 89.5547 105.445C89.4889 105.522 89.4669 105.637 89.4249 105.734C89.5309 105.707 89.6391 105.687 89.7418 105.65C89.8081 105.626 89.8655 105.577 89.9266 105.539C89.9761 105.593 90.0255 105.646 90.075 105.7C89.9532 105.761 89.8071 105.798 89.7171 105.889C89.6223 105.985 89.5813 106.134 89.5169 106.26C89.5556 106.295 89.5948 106.33 89.6335 106.366C89.8188 106.173 90.0041 105.98 90.1879 105.788C90.4544 106.086 90.2019 106.535 89.3185 107.308C89.2042 107.185 89.0871 107.06 88.9559 106.919C88.7165 107.331 88.5121 107.683 88.2573 108.122C88.535 108.024 88.7357 107.953 89.0399 107.846C88.85 108.082 88.7025 108.265 88.5616 108.44C87.9633 108.243 87.3837 108.668 87.1453 109.427C87.1089 109.542 86.9992 109.632 86.9357 109.741C86.8545 109.881 86.6898 110.065 86.7281 110.167C86.9115 110.657 86.5638 110.738 86.2245 110.923C86.2399 110.753 86.2497 110.642 86.26 110.53C85.8783 110.944 85.161 111.059 85.2366 111.828C85.2483 111.947 84.8866 112.172 84.6668 112.229C84.3499 112.311 84.0709 112.27 83.9131 112.708C83.81 112.995 83.376 113.162 83.0927 113.38C83.1221 113.389 83.2313 113.421 83.3979 113.47C83.2071 113.659 83.0442 113.82 82.8827 113.98C82.2299 113.426 82.2411 113.325 82.8832 112.791C83.0148 112.682 83.0526 112.46 83.1436 112.268C82.7838 112.159 82.4632 112.061 82.0745 111.943C82.046 112.062 81.9667 112.29 81.9919 112.302C82.4963 112.547 82.1963 112.925 82.1561 113.366C81.9774 113.243 81.8388 113.148 81.7007 113.052C81.7861 112.951 81.8719 112.85 81.9401 112.77C81.8607 112.573 81.7665 112.339 81.7072 112.192C81.367 112.494 80.9885 112.83 80.5536 113.216C80.5251 112.882 80.5069 112.664 80.4873 112.434C80.4757 112.424 80.4542 112.399 80.4271 112.384C79.8923 112.084 79.5204 112.244 79.204 112.752C78.7863 113.423 78.3201 114.064 77.8707 114.715C77.6962 114.968 77.8259 115.134 78.0168 115.291C78.2571 115.489 78.3463 115.628 77.958 115.799C77.7116 115.907 77.5343 116.17 77.321 116.358C76.9999 116.641 76.6537 116.9 76.3573 117.208C76.1091 117.464 75.9271 117.783 75.6956 118.058C75.5766 118.199 75.3937 118.422 75.2742 118.402C74.6787 118.304 74.6475 118.778 74.4785 119.112C74.2373 119.59 74.0221 120.082 73.7622 120.549C73.7127 120.638 73.5083 120.645 73.3735 120.681C73.3511 120.687 73.3049 120.632 73.2913 120.64C72.5162 121.113 71.8722 120.469 71.1601 120.361C70.9127 120.841 70.5823 120.913 70.1138 120.692C69.6779 120.485 69.2635 120.317 68.9308 119.911C68.6807 119.606 68.2187 119.479 67.8631 119.253C67.5359 119.046 67.2125 118.829 66.9139 118.584C66.7949 118.486 66.7477 118.302 66.6656 118.159C66.5788 118.007 66.5671 117.749 66.2643 117.914C66.2139 117.941 65.9773 117.749 65.9829 117.738C66.1896 117.333 65.8121 117.166 65.6198 117.157C65.0439 117.129 64.8629 116.625 64.5007 116.351C64.2501 116.161 64.0639 115.886 63.9179 115.572C64.1699 115.79 64.4219 116.008 64.6739 116.227C64.6972 116.203 64.7201 116.18 64.7434 116.157C64.378 115.761 64.084 115.229 63.6346 114.994C61.9826 114.127 61.1137 112.475 59.7748 111.299C58.1583 109.878 56.6243 108.364 55.0489 106.896C54.6578 106.531 54.2289 106.206 53.85 105.831C53.6503 105.632 53.4846 105.38 53.367 105.123C53.1019 104.544 52.3851 104.598 52.0491 104.138C51.9222 103.964 51.799 103.784 51.7075 103.591C51.5904 103.343 51.5297 103.076 51.1569 103.091C51.0374 103.096 50.8913 102.975 50.7929 102.876C49.6486 101.734 48.5337 100.562 47.3652 99.4453C46.4641 98.5843 45.4929 97.7961 44.5615 96.9659C42.5609 95.1827 40.5659 93.3935 38.569 91.6057C37.792 90.9099 37.0071 90.2225 36.2441 89.5113C35.6243 88.9341 35.0461 88.3125 34.4222 87.7403C33.9789 87.3334 33.4749 86.9927 33.0259 86.5909C32.6792 86.2806 32.374 85.9231 32.0539 85.5834C31.4925 84.9884 30.9334 84.391 30.3743 83.7937C29.6538 83.0237 28.9449 82.2416 28.2062 81.4893C28.027 81.3068 27.7246 81.2499 27.5249 81.081C27.348 80.9312 27.2239 80.7128 27.0965 80.5121C26.9569 80.2914 26.8827 80.0151 26.7073 79.8331C25.3287 78.4037 23.9343 76.9897 22.5413 75.5738C21.2081 74.2186 19.8734 72.8644 18.535 71.5143C18.0501 71.0252 17.5475 70.5539 17.0603 70.0672C16.0243 69.0321 14.9855 67.9994 13.9631 66.9513C13.3755 66.3493 12.8431 65.7029 12.0577 65.3161C11.7819 65.1802 11.6414 64.792 11.381 64.5969C10.7841 64.1494 10.1882 63.672 9.51993 63.3593C9.09526 63.161 8.54179 63.2371 8.04153 63.1895C8.00046 63.3827 7.97106 63.5222 7.94119 63.6617C7.90433 63.6617 7.86746 63.6613 7.83106 63.6613C7.80026 63.5348 7.76899 63.4079 7.72559 63.2301C7.62666 63.3159 7.56693 63.3682 7.45633 63.4643C7.39799 63.2076 7.34899 62.9921 7.28459 62.7097C6.96446 62.6388 6.86786 62.3639 6.82073 61.9658C6.78433 61.6564 6.52299 61.3755 6.37226 61.0764C6.27006 60.8739 6.18653 60.6615 6.16459 60.4165C6.90426 60.9126 6.96586 61.8665 7.61826 62.5226C7.81146 62.2617 7.99719 62.0461 8.13673 61.8039C8.18153 61.726 8.14419 61.5389 8.07559 61.4684C7.73119 61.1142 7.35739 60.7889 7.00739 60.4398C6.75166 60.1846 6.46093 60.0833 6.11186 59.9713C5.71519 59.8439 5.38246 59.3922 5.11926 59.0137C4.90319 58.7024 4.82106 58.2946 4.69926 57.9231C4.66986 57.8335 4.70533 57.6347 4.73473 57.6296C4.88453 57.6044 5.10013 57.5633 5.18786 57.6431C5.58359 58.0015 5.95086 58.3926 6.31486 58.7846C6.78059 59.2858 7.23606 59.7963 7.68966 60.3082C7.81613 60.451 7.91413 60.6186 8.03593 60.766C8.17079 60.9289 8.31826 61.0811 8.47879 61.2579C8.93519 60.424 8.90673 60.4464 8.39853 59.8019C7.81006 59.0562 7.40966 58.2139 7.42553 57.2315C7.43113 56.8979 7.61733 56.6897 7.86933 56.4475C8.33599 55.9986 8.78726 56.2375 9.28146 56.2044C9.95719 56.1591 10.3935 56.5828 10.9666 56.686C11.2681 56.7401 11.4533 56.784 11.668 56.5021C13.0106 54.7433 14.3854 53.0087 15.7257 51.2479C16.5554 50.1573 17.3123 49.0107 18.1593 47.9346C18.6573 47.3023 19.2691 46.76 19.8253 46.1724C19.9009 46.0926 20.0069 45.9835 20.0003 45.8948C19.9719 45.4995 20.0647 45.2508 20.5291 45.2634C20.5883 45.2648 20.7297 45.0338 20.7017 44.9601C20.5571 44.5783 20.7573 44.5606 21.0555 44.4733C21.2776 44.4085 21.6043 44.2554 21.4433 43.8302C21.3999 43.7155 21.5968 43.4397 21.7499 43.3328C22.2002 43.0183 22.7275 42.84 22.6949 42.0947C22.6827 41.8152 23.0799 41.5161 23.2945 41.229C23.9964 40.2906 24.7095 39.3605 25.3992 38.4137C25.7977 37.8667 26.1594 37.2932 26.5402 36.7332C26.5757 36.6814 26.6214 36.6319 26.6723 36.5955C27.2556 36.1755 27.2393 36.1275 26.7166 35.6855C26.5075 35.5087 26.3456 35.2212 26.2705 34.9538C26.1767 34.6201 25.9723 34.5861 25.7231 34.6416C25.3516 34.7237 24.9895 34.8483 24.6754 34.9393C24.7599 34.7503 24.8639 34.517 24.9909 34.2323C25.8449 34.1063 26.2434 33.2449 26.9257 32.7642C27.292 32.5061 27.5753 32.0362 28.2361 32.1916C28.0214 32.4935 27.8506 32.7339 27.6616 32.9999C27.5323 32.9532 27.4035 32.907 27.313 32.8743C26.9905 33.2239 26.6844 33.5557 26.3783 33.8879C26.4067 33.9295 26.4357 33.9705 26.4641 34.0121C26.6088 33.978 26.7857 33.9855 26.8935 33.9029C27.5291 33.4166 28.3149 33.4073 29.0392 33.2164C29.3934 33.1231 29.5987 32.9901 29.686 32.6116C29.8167 32.0465 29.9847 31.4851 30.2017 30.9479C30.2819 30.7487 30.5451 30.6236 30.7243 30.4645C30.8643 30.3403 31.1429 30.177 31.121 30.0963C30.9516 29.477 31.4197 29.1807 31.7239 28.8106C32.0847 28.3719 32.4902 28.0205 32.5261 27.342C32.5467 26.9547 32.9886 26.5473 33.3255 26.2425C33.4385 26.1403 33.7777 26.1973 33.9723 26.0321C34.0633 26.2057 34.2607 26.4031 34.2285 26.5496C33.9686 27.7275 33.6578 28.8881 32.4216 29.4718C32.1463 29.6016 31.9941 29.7747 32.3063 30.0547C32.395 30.1341 32.4099 30.3035 32.4417 30.4355C32.4757 30.5779 32.4902 30.7253 32.5341 31.0035C32.1925 31.115 31.8084 31.2358 31.4285 31.3674C31.3315 31.401 31.2391 31.4594 31.1607 31.5252C31.1429 31.5401 31.1877 31.6815 31.2106 31.6834C31.2979 31.6904 31.3879 31.6671 31.4766 31.6507C32.0273 31.5508 32.5751 31.43 33.1291 31.353C34.327 31.1868 35.5273 31.0361 36.728 30.8929C38.506 30.6805 40.2868 30.4929 42.0634 30.2703C43.5194 30.0879 44.9689 29.848 46.4263 29.6777C47.1109 29.5974 47.8085 29.6357 48.4983 29.5904C48.7937 29.5708 49.0839 29.4723 49.3775 29.4145C49.8325 29.3249 50.2884 29.2395 50.7303 29.0365C49.2183 29.1937 47.7063 29.351 46.1948 29.5083C46.1906 29.4602 46.1859 29.4121 46.1817 29.3645C47.2439 28.8909 48.4194 29.2828 49.4983 28.9902C50.6146 28.6878 51.7537 28.8615 52.8714 28.6795C52.8775 28.7219 52.884 28.7644 52.8901 28.8068C52.31 28.8787 51.7304 28.9511 51.1503 29.0229C51.1564 29.0663 51.1625 29.1093 51.1685 29.1527C52.4864 29.0225 53.8047 28.8918 55.1226 28.7616C55.1338 28.7121 55.145 28.6627 55.1562 28.6132C54.0301 28.9333 53.1337 28.4382 52.2106 27.9123C52.1835 28.0145 52.1583 28.1087 52.1555 28.1204C51.9185 28.1512 51.7299 28.1694 51.5437 28.2011C51.2679 28.2483 50.9926 28.3523 50.7187 28.3481C50.1358 28.3388 49.5539 28.2497 48.971 28.2422C48.4096 28.2347 47.8477 28.3061 47.2859 28.3117C46.5131 28.3197 45.7379 28.259 44.9675 28.3005C44.3006 28.3365 43.6211 28.1853 42.9645 28.4121C42.8917 28.4373 42.8049 28.4279 42.7251 28.4256C42.1861 28.4125 41.6467 28.4051 41.1081 28.3794C40.62 28.3565 40.1333 28.3056 39.6451 28.2846C39.5355 28.28 39.3689 28.3122 39.3199 28.3868C39.01 28.8615 38.6231 28.6333 38.3021 28.4704C38.0692 28.3523 37.9735 28.2273 37.7033 28.469C37.5363 28.6183 37.0892 28.6165 36.8629 28.4993C36.5175 28.3206 36.259 28.3565 35.9421 28.5539C35.8572 28.4643 35.7844 28.3565 35.6841 28.287C35.0279 27.8306 35.0331 27.4727 35.7265 27.0522C35.9729 26.9029 36.2464 26.7997 36.4993 26.6602C36.5703 26.621 36.6109 26.5281 36.7308 26.3788C36.357 26.4059 36.1064 26.4222 35.8563 26.4427C35.342 26.4852 35.0139 26.1543 34.712 25.8272C34.4777 25.5733 34.6369 25.1902 35.0186 25.1459C36.0345 25.0273 37.0533 24.7889 38.0804 25.0768C38.1112 25.0857 38.1448 25.0973 38.1751 25.0931C38.5429 25.0432 38.8775 24.9303 39.2821 25.1104C39.5681 25.2378 39.976 25.0866 40.3297 25.0665C41.3135 25.0115 42.2991 24.9811 43.2805 24.9004C44.0696 24.8355 44.8536 24.7058 45.6413 24.6162C47.2821 24.4295 48.9225 24.2405 50.5651 24.0711C52.1257 23.9106 53.6871 23.7515 55.2514 23.6339C56.8157 23.5163 58.3907 23.3287 59.9465 23.4187C60.6367 23.4589 61.3265 23.1602 61.9467 23.387C62.4376 23.5667 62.7181 23.2671 63.0951 23.2213C64.3607 23.0678 65.6338 22.9773 66.8975 23.3259C67.1141 23.3856 67.3913 23.2246 67.7142 23.1476C67.878 23.3879 68.0833 23.2713 68.4394 23.1495C68.9989 22.9586 69.6504 22.9927 70.2613 23.0043C72.3169 23.044 74.3721 23.0981 76.4264 23.1807C78.7243 23.2727 81.0212 23.3959 83.3181 23.5163C84.6551 23.5863 85.9907 23.6852 87.3277 23.758C89.9285 23.8999 92.5306 24.0119 95.1295 24.1803C96.0269 24.2387 96.914 24.4445 97.81 24.5509C98.2575 24.6041 98.7144 24.5709 99.1652 24.6031C100.586 24.7049 102.008 24.7987 103.425 24.9345C104.479 25.0353 105.529 25.1823 106.577 25.3372C107.009 25.4011 107.43 25.5383 107.856 25.6424C107.883 25.5999 107.908 25.5579 107.934 25.5155C107.699 25.0651 107.44 24.6255 107.236 24.1612C107.069 23.7799 106.975 23.3674 106.833 22.9735C106.691 22.5769 106.933 22.2773 107.202 22.1676C107.395 22.0883 107.793 22.2301 107.955 22.4061C108.32 22.8032 108.616 23.2694 108.9 23.7328C109.169 24.1715 109.401 24.6349 109.621 25.1001C109.911 25.7115 110.486 26.0134 110.996 26.3695C111.266 26.558 111.394 26.6509 111.144 26.9495C111.057 27.0531 111.026 27.3065 111.092 27.4204C111.87 28.7644 112.616 30.1317 113.482 31.4179C114.373 32.7418 115.397 33.9761 116.343 35.2646C116.778 35.8582 117.33 36.3907 117.454 37.1709C117.466 37.2447 117.519 37.33 117.578 37.3758C118.561 38.1224 119.019 39.2611 119.695 40.2327C120.573 41.4951 121.434 42.7728 122.223 44.0916C123.085 45.5327 123.832 47.0423 124.676 48.4946C125.308 49.5824 126.013 50.6287 126.689 51.6913C127.535 53.0199 128.385 54.3466 129.233 55.6738C129.316 55.8021 129.405 55.9263 129.508 56.0779C130.021 55.7139 130.476 55.363 130.962 55.0611C131.14 54.95 131.391 54.9322 131.61 54.9252C131.654 54.9238 131.763 55.1777 131.741 55.2944C131.687 55.5762 131.575 55.8474 131.485 56.1222C131.25 56.84 131.542 57.4914 131.758 58.1984C131.638 58.1984 131.515 58.1616 131.444 58.2069C131.337 58.2755 131.173 58.4453 131.197 58.4957C131.424 58.9801 131.512 59.5606 132.126 59.8593C131.93 59.9536 131.788 60.0199 131.648 60.0903C131.475 60.1767 131.183 60.1981 131.418 60.5131C131.439 60.5402 131.405 60.6307 131.372 60.6718C131.073 61.0428 130.769 61.4091 130.442 61.8067C130.551 62.1647 130.551 62.1646 130.112 62.8119C130.218 62.9113 130.329 63.0149 130.561 63.2319C130.333 63.2319 130.161 63.2767 130.123 63.2245C129.891 62.9048 129.687 63.0961 129.521 63.2604C128.996 63.7816 128.518 64.3524 127.969 64.8466C127.469 65.2983 126.901 65.6754 126.319 66.1187C126.337 65.9759 126.352 65.863 126.369 65.729C125.691 65.7136 126.414 66.4491 125.839 66.5009C125.775 66.2732 125.709 66.0347 125.679 65.9251C126.469 65.0225 127.192 64.1774 127.938 63.3532C128.753 62.4521 129.583 61.5641 130.424 60.6867C130.572 60.5327 130.805 60.4608 130.999 60.3512C130.576 59.8472 130.288 59.899 129.149 60.7026C129.029 60.5892 128.904 60.4706 128.758 60.3325C128.645 60.3983 128.518 60.4604 128.404 60.5416C126.753 61.719 125.244 63.0452 123.871 64.5502C122.324 66.248 120.658 67.8374 119.054 69.4843C117.958 70.6099 116.874 71.7467 115.797 72.8905C114.657 74.1024 113.559 75.3555 112.392 76.5413C111.115 77.8409 109.77 79.0753 108.473 80.3563C107.518 81.2999 106.602 82.284 105.648 83.2295C104.998 83.8726 104.312 84.4783 103.645 85.1041C103.584 85.162 103.546 85.245 103.497 85.3164C103.533 85.3538 103.568 85.3916 103.604 85.4289C104.923 84.3028 106.241 83.1772 107.652 81.9737C107.638 82.2388 107.63 82.4213 107.62 82.614C107.931 82.6877 108.01 82.8977 107.736 83.1651C107.16 83.7284 106.567 84.2772 105.966 84.8148C104.945 85.728 103.895 86.6105 102.891 87.5415C102.325 88.0656 101.611 88.5775 101.351 89.2458C101.004 90.132 100.068 90.2766 99.6869 91.1549C99.6034 90.9165 99.5707 90.8226 99.5077 90.642C99.2161 91.0252 98.6131 91.0728 98.7853 91.7653C98.8283 91.9375 98.5137 92.217 98.3345 92.4219C97.7045 93.1424 97.0703 93.8602 96.4161 94.5592C96.291 94.6932 96.0759 94.7716 95.8887 94.8126C95.4739 94.9046 95.2727 95.1781 95.1253 95.578C95.2415 95.5892 95.3255 95.5976 95.4631 95.6111C94.9204 95.9523 94.4159 96.2686 93.9119 96.5855C93.8881 96.5734 93.8639 96.5612 93.8401 96.5491C93.9329 96.3825 94.0258 96.2159 94.1187 96.0498C94.1061 96.0129 94.093 95.9761 94.0804 95.9392C93.9493 96.0125 93.8083 96.0722 93.6898 96.1613C93.3902 96.3863 93.2805 96.8286 92.798 96.8641C92.6603 96.8739 92.5287 97.1268 92.4158 97.2841C91.832 98.0966 91.2473 98.9086 90.6793 99.7323C90.474 100.03 90.3149 100.359 90.1231 100.694C90.2887 100.611 90.4427 100.534 90.5972 100.457C90.6224 100.486 90.6481 100.517 90.6733 100.547C90.5715 100.692 90.4698 100.837 90.3699 100.979C90.8072 101.538 90.8086 101.591 90.1679 101.907C89.956 102.012 89.8384 102.465 89.4772 102.145C89.3713 102.359 89.2294 102.563 89.1678 102.788C89.0721 103.137 89.3237 103.614 88.7469 103.775C88.6573 103.801 88.6199 104.012 88.5691 104.116C88.3866 104.167 88.2186 104.214 87.9213 104.298C88.1458 104.402 88.2368 104.444 88.3189 104.482C88.0417 105.313 87.7295 106.106 86.9367 106.579C87.0823 106.33 87.4845 106.088 86.9357 105.722C86.911 105.912 86.9133 106.094 86.883 106.099C86.3496 106.198 86.5237 106.567 86.6641 106.985C86.7612 106.848 86.8583 106.706 86.9549 106.564ZM94.8317 94.471C94.6521 94.6867 94.4724 94.9023 94.2927 95.1179C94.4878 95.1976 94.6945 95.3596 94.8751 95.3339C95.0436 95.3101 95.2004 95.102 95.3315 94.9484C95.4711 94.7842 95.5742 94.5886 95.6405 94.4874C95.5597 94.2377 95.4991 94.0501 95.4216 93.8102C95.0847 93.898 94.8219 94.059 94.8173 94.4841L94.8317 94.471ZM24.8644 75.9687C25.241 76.321 25.6176 76.6729 25.9937 77.0252C26.0306 76.9879 26.0675 76.9501 26.1048 76.9127C25.5667 76.3438 25.0287 75.775 24.4906 75.2066C24.4505 75.2425 24.4103 75.2789 24.3702 75.3148C24.541 75.5416 24.7123 75.7684 24.8831 75.9952C24.3707 75.4838 23.8517 74.9793 23.3477 74.4599C22.6645 73.7562 21.9902 73.0441 21.3182 72.3291C21.1847 72.1873 20.9547 71.9847 20.9859 71.8685C21.0774 71.5307 20.8809 71.3906 20.6905 71.2175C20.5281 71.0696 20.3681 70.9193 20.1884 70.7527C20.3102 70.7019 20.3769 70.6738 20.4731 70.6337C20.2327 70.4032 20.1352 69.9398 19.6975 70.3593C19.1734 69.8894 18.6423 69.4194 18.1215 68.9388C18.059 68.8814 18.0119 68.7577 18.0259 68.6765C18.0618 68.4721 17.5564 67.8668 17.4621 67.9807C17.1868 68.3125 17.0762 67.9662 16.9749 67.8752C16.4817 67.4305 16.0271 66.9438 15.5409 66.4916C15.0975 66.0795 14.9515 66.1285 14.7377 66.7692C15.4545 67.4594 16.1643 68.1977 16.9343 68.8674C17.5531 69.4059 18.2223 69.8712 18.6708 70.5926C18.9377 71.0224 19.291 71.4154 19.6671 71.757C20.2579 72.2937 20.9281 72.743 21.5151 73.2834C22.3341 74.0376 23.1209 74.8281 23.8956 75.628C24.4327 76.1828 24.9101 76.7951 25.4426 77.3542C26.0819 78.0257 26.76 78.6609 27.404 79.3282C27.6084 79.5401 27.7344 79.8275 27.9379 80.0408C28.0849 80.1948 28.3 80.2839 28.4853 80.402C28.4708 80.4379 28.4559 80.4734 28.4414 80.5093C28.5949 80.4888 28.7485 80.4687 28.9655 80.4398C28.8059 80.9438 29.1465 81.1193 29.4331 81.389C30.7607 82.6392 32.0483 83.9319 33.3554 85.2035C33.9037 85.7374 34.4586 86.2656 35.0223 86.7827C35.3747 87.1057 35.7424 87.4132 36.1185 87.7081C36.238 87.8019 36.406 87.8336 36.5516 87.8934C36.5096 87.7067 36.4284 87.6092 36.3407 87.5182C35.4181 86.5634 34.4922 85.6119 33.5724 84.6543C32.7758 83.825 32.0123 82.9621 31.1854 82.1646C30.4924 81.4963 29.7112 80.9209 29.0014 80.269C28.1376 79.4757 27.2878 78.6646 26.4707 77.8237C25.9009 77.2389 25.3973 76.5893 24.8644 75.9687ZM18.7025 61.7157C19.3143 62.1567 19.9224 62.5963 20.5319 63.0336C23.4103 65.0986 26.3269 67.1132 29.1568 69.243C31.8322 71.2567 34.4329 73.3712 37.036 75.4791C39.6769 77.6174 42.3168 79.7599 44.89 81.9784C47.4114 84.1521 49.8735 86.3963 52.3133 88.662C54.1501 90.3677 55.9229 92.1433 57.7005 93.9115C58.7201 94.926 59.6796 96.0013 60.6909 97.0242C61.5981 97.9421 62.5589 98.8073 63.4619 99.729C65.0789 101.38 66.667 103.059 68.2737 104.72C69.5776 106.067 70.8885 107.407 72.2017 108.745C72.5834 109.133 72.7514 109.106 73.0883 108.678C74.0249 107.488 74.9611 106.298 75.9121 105.12C76.4749 104.424 77.1222 103.789 77.6309 103.057C78.3374 102.041 79.323 101.28 80.0272 100.261C80.5471 99.5101 81.1878 98.8405 81.787 98.1451C82.9135 96.8371 84.0457 95.5337 85.1815 94.234C85.4354 93.9433 85.7266 93.6852 85.9786 93.3931C86.6725 92.5876 87.2909 91.7047 88.0567 90.9757C89.3129 89.7792 90.327 88.3348 91.7751 87.3366C91.8012 87.3189 91.8222 87.2923 91.8423 87.2671C92.098 86.9521 92.3463 86.6306 92.6123 86.3245C92.7247 86.1952 92.8918 86.1135 93.0038 85.9842C93.5946 85.3043 94.1588 84.6001 94.7687 83.9384C95.0249 83.6607 95.3726 83.4666 95.6997 83.2188C95.8953 82.9607 96.0959 82.6382 96.3535 82.3704C96.627 82.0862 96.9691 81.8692 97.2551 81.5952C97.9869 80.8957 98.6551 80.1196 99.4447 79.4948C99.9231 79.1163 100.246 78.5251 100.892 78.3557C100.975 78.3342 101.084 78.2395 101.1 78.162C101.241 77.4872 101.846 77.2142 102.281 76.8077C103.095 76.0471 103.97 75.3512 104.782 74.5882C105.27 74.13 105.679 73.59 106.135 73.0963C107.558 71.554 108.945 69.9757 110.423 68.4875C112.101 66.7963 113.823 65.142 115.601 63.5567C116.798 62.4904 118.125 61.5701 119.397 60.5882C119.671 60.3764 119.958 60.1799 120.245 59.9718C119.72 59.1803 119.234 58.4579 118.76 57.7276C118.002 56.5595 117.24 55.3942 116.504 54.2126C115.78 53.0502 115.102 51.8593 114.376 50.6982C113.53 49.3467 112.665 48.0069 111.781 46.6806C111.561 46.3516 111.193 46.1239 110.963 45.8001C110.282 44.8387 109.602 43.8737 108.983 42.8717C108.095 41.4321 107.232 39.9746 106.417 38.493C106.021 37.7748 105.739 36.9908 105.445 36.2217C105.268 35.7607 105.028 35.5259 104.491 35.5479C103.814 35.5754 103.132 35.5185 102.454 35.4681C100.892 35.3519 99.3332 35.1479 97.7699 35.1064C94.87 35.0294 91.9673 35.0691 89.067 35.0112C86.5237 34.9603 83.9822 34.8161 81.4393 34.7601C77.8502 34.6803 74.2601 34.6295 70.6705 34.5949C68.8958 34.5777 67.1197 34.6127 65.3449 34.6467C64.0975 34.6705 62.8492 34.7037 61.6046 34.7853C60.0273 34.8889 58.4537 35.0532 56.8773 35.1783C55.8151 35.2627 54.7502 35.3155 53.6881 35.3981C51.645 35.5572 49.601 35.7131 47.5603 35.8993C46.5649 35.9903 45.5751 36.1447 44.5829 36.2721C43.3206 36.4341 42.0606 36.6151 40.7959 36.7533C39.8495 36.8569 38.8957 36.89 37.9493 36.9894C37.7285 37.0127 37.4593 37.1228 37.3202 37.2852C36.7518 37.9493 36.1974 38.6293 35.6897 39.3405C34.887 40.4651 34.1539 41.6397 33.3409 42.7565C32.4305 44.0076 31.4668 45.22 30.5204 46.445C29.8092 47.3657 29.0807 48.2734 28.3733 49.1969C26.4637 51.6912 24.5695 54.1977 22.6524 56.6864C21.3784 58.3403 20.0741 59.9718 18.7025 61.7157ZM82.0689 25.9957C82.0684 25.9686 82.0679 25.9415 82.0675 25.9145C81.8066 25.8655 81.5448 25.8216 81.2853 25.7656C80.8677 25.6751 80.4556 25.5309 80.0337 25.4917C79.5456 25.4459 79.0491 25.5033 78.5567 25.4907C77.4283 25.4618 76.3004 25.4109 75.1715 25.382C73.7851 25.3465 72.3986 25.3124 71.0117 25.3008C70.1087 25.2933 69.2052 25.3451 68.3027 25.3353C67.5364 25.3269 66.7711 25.2597 66.0043 25.235C65.2231 25.2098 64.441 25.1995 63.6593 25.1944C63.2837 25.1921 62.9066 25.2 62.5323 25.2322C61.7455 25.2999 60.962 25.4072 60.1747 25.4599C59.2311 25.5229 58.2908 25.4468 57.336 25.5486C55.5211 25.7427 53.6871 25.7586 51.8601 25.8356C50.7681 25.8818 49.6743 25.9439 48.5832 25.921C48.0377 25.9093 47.5145 25.928 46.9709 25.9971C46.0347 26.1156 45.0781 26.0638 44.1345 26.1366C43.4102 26.1926 42.6929 26.3326 41.9719 26.432C40.9793 26.5687 39.9634 26.5603 39.0175 26.9771C38.8341 27.0578 38.5849 26.9887 38.3361 26.9887C38.1173 27.1371 37.8382 27.3261 37.4705 27.5749C37.8214 27.6061 38.1126 27.6505 38.4038 27.6537C39.0245 27.6612 39.6503 27.6001 40.2653 27.6593C40.6685 27.6981 41.0633 28.042 41.425 27.5707C41.4549 27.5315 41.5468 27.5305 41.6103 27.5277C42.1684 27.5035 42.7265 27.4764 43.2851 27.4624C43.7541 27.4507 44.2269 27.489 44.6921 27.4437C45.121 27.4022 45.5102 27.5753 45.954 27.5366C47.333 27.4157 48.7218 27.4045 50.1073 27.3611C51.0117 27.3327 51.9203 27.3677 52.8201 27.2935C54.0077 27.1955 55.1823 27.1516 56.3481 27.454C56.4521 27.4811 56.6323 27.4908 56.6757 27.433C56.9645 27.0461 57.3715 27.2104 57.7308 27.1829C58.4518 27.1278 59.1742 27.0746 59.8966 27.0611C60.1878 27.0555 60.4519 27.2062 60.7837 27.1031C61.1421 26.9915 61.6485 26.8926 61.9159 27.0624C62.3023 27.3079 62.5067 27.1446 62.8161 27.0265C63.0933 26.9206 63.4106 26.8893 63.7116 26.88C64.8059 26.8473 65.9007 26.8333 66.9951 26.8226C67.3287 26.8193 67.7707 26.7209 67.9723 26.8917C68.3162 27.1829 68.3857 26.747 68.6326 26.7685C69.2691 26.8231 69.9173 26.7577 70.5599 26.7232C71.7485 26.6597 72.9357 26.5743 74.1243 26.5165C75.4781 26.4507 76.8548 26.5286 78.1792 26.3009C78.8904 26.1786 79.3841 26.2855 79.8536 26.6588C79.9777 26.5594 80.051 26.4525 80.1392 26.4385C80.3777 26.4002 80.6241 26.3774 80.8644 26.3923C81.5173 26.4329 82.1683 26.5342 82.8211 26.5431C84.0121 26.5594 85.2035 26.5193 86.3949 26.5165C87.7193 26.5132 89.0437 26.5305 90.3681 26.5249C90.5496 26.5239 90.7311 26.4451 90.9127 26.4021C90.9033 26.3592 90.8945 26.3158 90.8851 26.2729C87.6637 26.0661 84.4461 25.7203 81.2074 26.2103C81.2065 26.1394 81.2055 26.0685 81.2041 25.9975C81.4935 25.9957 81.7809 25.9957 82.0689 25.9957ZM109.951 32.9523C109.884 33.0111 109.817 33.0699 109.75 33.1287C110.591 34.6173 111.896 35.7677 112.86 37.1695C113.821 38.5672 114.817 39.9523 115.925 41.2333C117.033 42.5147 117.824 44.0585 119.257 45.1612C118.827 44.2087 118.214 43.4513 117.623 42.6781C117.037 41.9104 116.454 41.139 115.884 40.3596C115.359 39.6438 114.852 38.9153 114.337 38.1924C114.302 38.2172 114.266 38.2419 114.231 38.2667C114.239 38.1281 114.246 37.9895 114.257 37.8182C113.671 37.8574 113.607 37.5261 113.739 37.0846C113.337 37.0893 112.956 36.6991 112.841 36.288C112.782 36.0743 112.642 35.8666 112.492 35.6967C111.963 35.0957 111.416 34.5105 110.872 33.9229C110.569 33.5963 110.258 33.2757 109.951 32.9523ZM81.4468 102.09C85.5007 97.5846 89.3493 92.9763 93.3053 88.4534C93.2077 88.445 93.1289 88.4622 93.0845 88.5108C91.4209 90.3191 89.7577 92.1274 88.101 93.9418C87.2409 94.8836 86.3785 95.8239 85.5437 96.788C84.6663 97.8012 83.8357 98.8544 82.9532 99.8624C82.7054 100.145 82.34 100.323 82.0423 100.565C81.8649 100.71 81.6433 100.862 81.5705 101.059C81.4701 101.33 81.4921 101.647 81.4468 102.09ZM111.732 31.6699C111.768 31.647 111.806 31.6246 111.843 31.6017C110.96 30.2769 110.079 28.9511 109.191 27.6295C109.153 27.5744 109.053 27.5315 108.983 27.5333C108.588 27.5441 108.192 27.5697 107.682 27.5968C109.066 28.9879 110.398 30.3287 111.732 31.6699ZM54.4217 28.4335C55.8431 28.7873 57.1927 28.5997 58.5479 28.3976C58.5279 27.8567 58.3743 27.4811 57.9217 27.2995C57.8531 27.272 57.7504 27.3275 57.5941 27.3588C57.7364 27.4381 57.8111 27.4801 57.8857 27.5221C56.664 27.5058 55.5953 28.0457 54.4217 28.4335ZM116.593 64.9021C116.622 64.9371 116.651 64.9721 116.68 65.0071C118.36 63.7845 120.039 62.5623 121.719 61.3396C121.537 61.2649 121.348 61.2542 121.216 61.3363C120.492 61.7862 119.745 62.2113 119.076 62.7354C118.214 63.413 117.417 64.176 116.593 64.9021ZM125.83 59.5863C125.399 59.408 125.221 59.465 125.128 59.8098C125.094 59.9387 124.938 60.0717 124.806 60.1314C124.328 60.3456 124.222 59.8323 123.979 59.6409C123.878 60.3265 123.78 60.9877 123.682 61.649C123.706 61.6723 123.73 61.6961 123.753 61.7195C124.426 61.0279 125.099 60.3367 125.83 59.5863ZM65.5587 24.2284C66.0291 24.2662 66.4598 24.3105 66.8915 24.3315C67.0697 24.3399 67.2639 24.3306 67.4244 24.2652C67.4977 24.2354 67.5639 23.9661 67.5383 23.9493C67.374 23.8411 67.1864 23.7123 67.0016 23.7048C66.6511 23.6908 66.2983 23.7585 65.946 23.7837C65.6105 23.8075 65.5027 23.9792 65.5587 24.2284ZM18.8318 65.0781C18.8211 64.9138 18.8579 64.7617 18.7996 64.7019C18.4342 64.3253 18.0609 63.9534 17.6595 63.6169C17.5545 63.5292 17.3408 63.5712 17.177 63.5534C17.2405 63.7056 17.2619 63.9095 17.3749 64.0014C17.8061 64.351 18.2662 64.6651 18.8318 65.0781ZM108.433 31.3283C108.073 30.7118 107.883 30.1005 107.234 29.7892C107.181 30.4827 107.574 30.9918 108.433 31.3283ZM69.2906 24.0515C68.0861 23.7533 67.8229 23.7869 67.6829 24.2639C68.2588 24.5215 68.7922 24.3875 69.2906 24.0515ZM108.732 30.3585C108.693 30.3935 108.654 30.4285 108.614 30.4635C109.027 30.9218 109.439 31.3801 109.852 31.8379C109.91 31.7842 109.968 31.731 110.026 31.6773C109.595 31.2377 109.164 30.7981 108.732 30.3585ZM111.312 33.6537C111.354 33.6177 111.395 33.5813 111.437 33.5454C111.033 33.0246 110.628 32.5043 110.224 31.9834C110.173 32.0227 110.122 32.0619 110.071 32.1015C110.485 32.6186 110.898 33.1361 111.312 33.6537ZM61.6228 106.408C61.6783 106.351 61.7339 106.295 61.7899 106.239C61.4151 105.866 61.0409 105.493 60.6661 105.12C60.6246 105.161 60.5831 105.202 60.5415 105.242C60.9023 105.631 61.2625 106.02 61.6228 106.408ZM62.5617 107.417C62.5981 107.382 62.6345 107.348 62.6705 107.313C62.5813 106.946 62.3723 106.708 61.9299 106.711C62.1408 106.946 62.3513 107.182 62.5617 107.417ZM100.606 89.1053C100.433 88.9924 100.326 88.8701 100.221 88.872C100.142 88.8734 100.066 89.0334 99.9889 89.1226C100.097 89.1931 100.198 89.2934 100.316 89.3214C100.374 89.3354 100.464 89.2164 100.606 89.1053ZM89.109 101.855C89.1482 101.885 89.1874 101.915 89.2266 101.945C89.4679 101.67 89.7091 101.395 89.9499 101.121C89.9065 101.085 89.8627 101.048 89.8193 101.012C89.5827 101.293 89.3461 101.574 89.109 101.855Z" fill="#FF1180"/>
<path d="M116.131 74.2601C116.155 73.926 116.821 73.0164 117.119 72.9371C117.193 72.9175 117.288 73.002 117.372 72.9992C117.459 72.9968 117.572 72.9698 117.621 72.91C117.667 72.8559 117.654 72.7425 117.647 72.6571C117.64 72.5666 117.57 72.4145 117.594 72.4C117.691 72.3421 117.845 72.2665 117.922 72.3057C118.407 72.5535 118.319 72.2156 118.354 71.9342C118.381 71.7205 118.447 71.4788 118.579 71.3178C118.917 70.9066 119.287 70.5174 119.677 70.1548C119.818 70.0237 120.053 69.9952 120.237 69.9234C120.181 70.3368 120.129 70.7177 120.078 71.0985C120.119 71.1265 120.161 71.1544 120.203 71.182C120.481 70.9094 120.759 70.6369 121.135 70.2701C120.979 70.195 120.817 70.117 120.664 70.0438C120.791 69.9341 120.983 69.754 121.19 69.5953C121.31 69.5034 121.457 69.4446 121.591 69.3708C121.626 69.5085 121.662 69.6466 121.708 69.824C121.823 69.697 121.925 69.5832 122.036 69.4604C122.199 69.5659 122.354 69.6653 122.529 69.7773C122.424 69.9075 122.272 70.0335 122.202 70.195C122.019 70.622 121.818 70.9519 121.26 70.7368C121.194 70.7111 120.95 70.9071 120.962 70.9556C121.141 71.6603 120.481 71.8456 120.186 72.253C120.075 72.4056 119.972 72.5628 119.863 72.7164C119.79 72.82 119.728 72.9898 119.634 73.0108C119.223 73.1032 119.164 73.4682 118.966 73.7417C118.779 74.0002 118.463 74.1644 118.211 74.3782C117.955 74.5961 117.775 74.9125 117.32 74.7795C117.199 74.7441 116.957 75.0418 116.805 75.2163C116.693 75.3437 116.638 75.5201 116.546 75.6965C116.637 75.6965 116.722 75.6965 116.911 75.6965C116.401 76.1753 115.949 76.5981 115.498 77.0209C115.481 77.005 115.463 76.9892 115.446 76.9733C115.651 76.7288 115.856 76.4847 116.061 76.2402C116.029 76.194 115.997 76.1478 115.965 76.102C115.701 76.2434 115.444 76.4044 115.168 76.5202C114.946 76.614 114.7 76.6532 114.464 76.7167C114.436 76.6807 114.408 76.6448 114.38 76.6093C114.531 76.4175 114.681 76.2257 114.892 75.956C114.7 75.9765 114.599 76.0078 114.506 75.991C114.421 75.976 114.3 75.9247 114.279 75.8612C114.258 75.8006 114.324 75.6643 114.388 75.6284C114.789 75.4048 115.086 75.1183 115.317 74.6964C115.444 74.4645 115.858 74.3908 116.143 74.2452C115.993 74.4668 116.044 74.64 116.312 74.6409C116.467 74.6414 116.694 74.5485 116.76 74.4276C116.858 74.2475 116.842 74.0053 116.872 73.8018C116.638 73.9484 116.385 74.1043 116.131 74.2601Z" fill="#FF1180"/>
<path d="M112.131 79.014C111.873 79.4149 111.654 79.8508 111.343 80.205C111.112 80.4677 110.76 80.625 110.389 80.8798C110.401 81.0422 110.423 81.3282 110.44 81.5499C110.076 81.7268 109.713 81.9032 109.35 82.0796C109.371 82.1332 109.393 82.1869 109.415 82.2406C109.521 82.22 109.627 82.1995 109.758 82.1748C109.483 82.885 109.23 83.5566 108.295 83.6116C107.858 83.6373 107.535 84.1833 107.62 84.6126C107.521 84.6383 107.421 84.664 107.317 84.6906C107.378 84.7582 107.432 84.8184 107.428 84.8133C107.199 84.9734 106.937 85.0723 106.825 85.2608C106.718 85.4396 106.311 85.6953 106.781 85.9048C106.385 86.1685 106.006 86.4219 105.626 86.6758C105.647 86.7196 105.668 86.7635 105.689 86.8078C105.789 86.8312 105.888 86.8545 106.02 86.8858C105.718 87.1709 105.937 87.2703 106.211 87.3636C106.145 87.4462 106.107 87.5456 106.049 87.5587C105.074 87.7771 104.703 88.7062 104.076 89.311C103.695 89.6792 103.663 89.5187 103.427 89.1272C103.2 89.5168 103.024 89.864 102.801 90.179C102.707 90.3134 102.516 90.3797 102.31 90.4016C102.998 89.4599 103.573 88.4444 104.546 87.7743C104.712 88.2811 104.979 87.7374 105.146 87.8616C105.249 87.5876 105.336 87.3543 105.436 87.0864C105.111 87.3398 104.822 87.5643 104.533 87.7888C104.919 87.3011 105.3 86.8092 105.693 86.3281C105.987 85.9683 106.299 85.623 106.603 85.2716C106.559 85.2291 106.514 85.1862 106.469 85.1437C106.292 85.2594 106.115 85.3752 105.937 85.4909C105.909 85.4606 105.882 85.4298 105.854 85.3994C106.787 84.4894 107.72 83.5799 108.623 82.6993C108.489 82.4454 108.396 82.2672 108.345 82.1706C108.636 81.9018 108.892 81.6647 109.185 81.3936C108.898 81.199 108.753 81.1014 108.594 80.9936C109.205 80.4383 109.773 79.9212 110.304 79.4392C110.41 79.5451 110.519 79.6538 110.628 79.763C110.686 79.5358 110.744 79.309 110.801 79.0882C110.818 79.0999 110.925 79.1783 111.037 79.2478C111.3 79.4112 111.546 79.5297 111.768 79.1634C111.821 79.0756 112.015 79.0728 112.145 79.0313L112.131 79.014Z" fill="#FF1180"/>
<path d="M112.145 79.029C111.922 78.9604 111.7 78.8923 111.397 78.799C111.769 78.2394 112.15 77.6052 112.602 77.0275C112.722 76.8735 113.063 76.8926 113.371 76.8147C113.352 77.0639 113.343 77.1829 113.338 77.2501C113.681 77.1628 114.023 77.0765 114.365 76.9897C114.38 77.0168 114.396 77.0438 114.412 77.0709C114.058 77.3654 113.704 77.6598 113.302 77.9944C113.489 78.1092 113.593 78.1736 113.74 78.2637C113.647 78.5456 113.619 78.9054 113.429 79.1238C113.242 79.3389 112.889 79.4108 112.714 79.4948C112.469 79.2922 112.3 79.1527 112.131 79.0136C112.131 79.0141 112.145 79.029 112.145 79.029Z" fill="#FF1180"/>
<path d="M136.838 54.0814C136.805 54.2219 136.766 54.3903 136.726 54.5611C136.138 54.3819 136.063 54.4692 136.097 55.0404C136.107 55.2051 135.934 55.4534 135.777 55.5388C135.533 55.6718 135.231 55.6979 134.954 55.7693C134.916 55.7306 134.877 55.6919 134.838 55.6531C135.015 55.4427 135.196 55.235 135.369 55.0213C135.455 54.9139 135.532 54.7982 135.602 54.6792C135.607 54.6703 135.488 54.563 135.473 54.5728C135.373 54.6377 135.285 54.7203 135.195 54.7996C135.059 54.9195 134.925 55.0418 134.689 55.2537C135.276 53.9405 136.542 53.4612 137.352 52.3809C137.588 52.5671 137.913 52.7467 138.108 53.0197C138.183 53.1233 137.956 53.4416 137.833 53.7482C137.655 53.5191 137.565 53.4015 137.513 53.3343C137.212 53.4215 136.964 53.4934 136.715 53.5657C136.705 53.6068 136.695 53.6479 136.685 53.6889C136.96 53.7417 137.234 53.7944 137.509 53.8471C137.515 53.8896 137.521 53.9325 137.527 53.975C137.31 54.0086 137.094 54.0417 136.838 54.0814Z" fill="#FF1180"/>
<path d="M95.988 99.0089C95.8438 98.832 95.7565 98.7247 95.6585 98.6043C95.3715 98.8185 95.0953 99.0248 94.819 99.231C94.7779 99.1862 94.7369 99.1419 94.6958 99.0971C95.2315 98.1698 96.3296 97.7704 96.8765 96.7535C96.9904 96.9658 97.0385 97.0554 97.0977 97.1665C97.2331 97.1091 97.3619 97.054 97.5555 96.9719C97.4524 96.8011 97.3623 96.6518 97.2513 96.4679C97.311 96.4049 97.4025 96.3078 97.4977 96.207C97.6125 96.4254 97.7077 96.6065 97.8505 96.8776C97.2961 97.5114 96.6647 98.2342 95.988 99.0089Z" fill="#FF1180"/>
<path d="M11.5023 67.5728C10.778 67.7501 10.5638 67.2727 10.3281 66.9769C9.71352 66.205 9.18059 65.3683 8.61499 64.5572C8.66166 64.5255 8.70832 64.4933 8.75452 64.4615C9.65286 65.4789 10.5512 66.4962 11.5023 67.5728Z" fill="#FF1180"/>
<path d="M17.3038 74.626C17.0542 74.4486 16.7793 74.2974 16.5604 74.0879C16.1246 73.6707 15.7004 73.2376 15.3065 72.7808C14.9108 72.3216 14.558 71.8255 14.186 71.3458C14.2276 71.3136 14.2691 71.2818 14.3106 71.2496C15.3555 72.3146 16.4008 73.3795 17.4457 74.444C17.3986 74.5051 17.351 74.5658 17.3038 74.626Z" fill="#FF1180"/>
<path d="M23.2671 31.4053C23.7972 31.0982 24.2014 31.115 24.6634 31.5205C23.7907 31.6507 22.9768 31.7917 22.1574 31.8803C21.9726 31.9004 21.7677 31.7413 21.5227 31.6456C22.0944 31.2125 22.8555 31.1327 23.2671 31.4053Z" fill="#FF1180"/>
<path d="M125.235 67.0619C125.131 67.2033 125.063 67.305 124.986 67.3988C124.809 67.6144 124.648 67.8501 124.437 68.0274C124.361 68.0918 124.164 68.0129 124.021 67.9999C124.032 67.9485 124.043 67.8967 124.053 67.8454C124.148 67.8818 124.242 67.9187 124.501 68.0185C124.132 67.4693 123.991 67.0343 124.606 66.7333C125.05 66.5149 125.068 66.983 125.235 67.0619Z" fill="#FF1180"/>
<path d="M19.1393 75.9486C19.9112 76.4391 20.7083 76.8992 21.2613 77.6515C21.2099 77.714 21.1581 77.7765 21.1068 77.8391C20.4082 77.2655 19.7096 76.6915 19.011 76.118C19.0539 76.0615 19.0964 76.0051 19.1393 75.9486Z" fill="#FF1180"/>
<path d="M23.6404 36.0103C23.0832 36.4854 22.526 36.9604 21.9683 37.4355C21.9282 37.3912 21.8885 37.3473 21.8484 37.303C22.2693 36.6786 22.8335 36.21 23.4873 35.8372C23.5382 35.895 23.5891 35.9529 23.6404 36.0103Z" fill="#FF1180"/>
<path d="M93.3976 102.351C93.211 102.411 93.0145 102.452 92.8409 102.539C92.692 102.613 92.5469 102.721 92.4396 102.847C92.0578 103.296 91.9561 103.309 91.4456 102.88C91.9066 102.876 92.3294 102.866 92.454 102.313C92.4746 102.222 92.7354 102.151 92.8918 102.135C93.0388 102.119 93.1946 102.187 93.3468 102.217C93.3636 102.262 93.3808 102.306 93.3976 102.351Z" fill="#FF1180"/>
<path d="M132.797 58.3916C132.666 58.5909 132.507 58.8676 132.311 59.115C132.234 59.2116 132.073 59.241 131.95 59.3012C131.927 59.1602 131.846 58.9978 131.89 58.8816C132.109 58.2918 132.272 58.2386 132.797 58.3916Z" fill="#FF1180"/>
<path d="M35.3806 30.5284C34.9088 30.6703 34.5238 30.7855 34.0679 30.9227C34.0287 30.8887 33.9148 30.7888 33.7576 30.6507C34.0614 30.3987 34.2756 30.0258 34.753 30.3996C34.8827 30.5018 35.1114 30.4785 35.3806 30.5284Z" fill="#FF1180"/>
<path d="M93.5217 101.062C93.1969 100.621 93.5884 100.337 93.9048 100.01C93.9048 100.243 93.8502 100.476 93.9244 100.656C93.9716 100.77 94.2096 100.806 94.3617 100.877C94.3435 100.913 94.3253 100.949 94.3071 100.985C94.0635 101.009 93.8199 101.033 93.5217 101.062Z" fill="#FF1180"/>
<path d="M101.843 91.0579C101.951 90.9253 102.128 90.6659 102.155 90.6808C102.368 90.7979 102.578 90.9468 102.724 91.1367C102.755 91.1769 102.515 91.4242 102.4 91.5763C102.348 91.5432 102.297 91.5101 102.245 91.4769C102.304 91.2935 102.362 91.1097 102.466 90.7867C102.227 90.9715 102.109 91.0625 101.992 91.1531C101.942 91.1213 101.892 91.0896 101.843 91.0579Z" fill="#FF1180"/>
<path d="M13.3057 70.3145C13.6151 70.4811 13.9235 70.6467 14.2315 70.8129C14.1751 70.8927 14.1186 70.9725 14.0621 71.0523C13.9273 71.0523 13.7411 71.1087 13.6678 71.0415C13.4433 70.8353 13.1577 70.6215 13.3057 70.3145Z" fill="#FF1180"/>
<path d="M92.9137 101.197C92.8437 101.425 92.7742 101.653 92.6976 101.902C92.4825 102.066 92.2272 102.261 91.9715 102.456C91.9332 102.424 91.8954 102.392 91.8572 102.36C92.189 101.958 92.5208 101.556 92.8526 101.154C92.8736 101.168 92.8936 101.183 92.9137 101.197Z" fill="#FF1180"/>
<path d="M103.509 87.533C103.96 87.1541 104.411 86.7747 104.861 86.3958C104.834 86.3696 104.808 86.3435 104.781 86.3174C104.4 86.7668 104.019 87.2167 103.638 87.6661C103.595 87.6213 103.552 87.5769 103.509 87.533Z" fill="#FF1180"/>
<path d="M74.4758 123.69C74.7432 123.32 74.9794 122.993 75.2155 122.665C75.2332 122.674 75.251 122.684 75.2687 122.694C75.1595 123.005 75.0778 123.331 74.9243 123.619C74.8814 123.7 74.628 123.67 74.4758 123.69Z" fill="#656565"/>
<path d="M101.239 92.9623C101.035 93.1909 100.83 93.4191 100.593 93.6842C100.334 92.9814 100.919 93.0887 101.239 92.9623Z" fill="#FF1180"/>
<path d="M29.7808 30.7412C29.7402 31.2452 29.4644 31.1561 29.2409 31.1225C29.1891 31.1145 29.1545 30.9881 29.1125 30.9162C29.3207 30.8611 29.5293 30.8065 29.7808 30.7412Z" fill="#FF1180"/>
<path d="M21.6368 39.3736C21.2742 39.3918 20.9224 39.3661 20.9966 38.7916C21.2383 39.011 21.4376 39.1925 21.6368 39.3736Z" fill="#FF1180"/>
<path d="M42.2323 29.7752C41.851 29.8476 41.4698 29.9204 41.0885 29.9927C41.0806 29.953 41.0726 29.9134 41.0647 29.8737C41.439 29.7757 41.8137 29.6772 42.188 29.5792C42.2024 29.6446 42.2174 29.7099 42.2323 29.7752Z" fill="#FF1180"/>
<path d="M12.2678 69.0871C12.0722 68.8067 11.8767 68.5262 11.6812 68.2457C11.7264 68.2126 11.7712 68.179 11.8165 68.1459C12.0106 68.4221 12.2048 68.6989 12.3994 68.9751C12.3555 69.0125 12.3116 69.0498 12.2678 69.0871Z" fill="#FF1180"/>
<path d="M76.8549 118.266C76.6939 118.524 76.5329 118.781 76.3714 119.038C76.3331 119.014 76.2949 118.991 76.2566 118.967C76.4055 118.706 76.5539 118.445 76.7027 118.183C76.7531 118.211 76.804 118.238 76.8549 118.266Z" fill="#656565"/>
<path d="M134.386 56.2272C134.495 56.4376 134.604 56.6481 134.713 56.8586C134.65 56.8884 134.587 56.9183 134.523 56.9482C134.432 56.7284 134.341 56.509 134.25 56.2892C134.295 56.2692 134.341 56.2482 134.386 56.2272Z" fill="#FF1180"/>
<path d="M72.7225 79.5966C72.5788 79.9162 72.8803 80.354 72.4575 80.599C72.3077 80.6858 72.1551 80.7679 71.9544 80.8799C72.1681 80.9289 72.3357 80.9676 72.5209 81.0101C72.2773 81.1412 72.0813 81.2705 71.8671 81.3545C71.7267 81.4096 71.5521 81.4418 71.4079 81.4119C70.6669 81.2593 70.3887 81.368 69.9823 82.0372C69.8689 81.9602 69.7569 81.8842 69.6472 81.8095C69.2165 82.2001 68.8781 82.209 68.4647 81.8459C67.3335 80.8528 66.2191 79.8397 65.0687 78.8695C64.092 78.0458 63.0639 77.2833 62.0783 76.4704C61.2556 75.7914 60.4613 75.0778 59.6195 74.3489C59.353 74.7409 59.0833 75.1315 58.8196 75.5254C58.4449 76.0854 58.0799 76.6519 57.6996 77.2082C57.1116 78.0673 56.4807 78.8994 55.9267 79.78C54.9836 81.2794 53.8795 82.6313 52.521 83.7714C52.5084 83.7816 52.4981 83.797 52.4837 83.8022C52.1729 83.9086 51.8364 84.1424 51.5564 84.0878C51.1854 84.0154 51.2624 83.5511 51.3487 83.3038C51.5284 82.7886 51.2302 82.6024 50.8881 82.3947C50.7295 82.2981 50.5801 82.1866 50.4247 82.0802C50.3459 82.2407 50.3001 82.4502 50.2269 82.46C50.0393 82.4857 49.8283 81.922 49.9142 81.6168C49.8185 81.5874 49.7219 81.5575 49.5469 81.5038C49.9567 80.9261 50.2208 80.2933 50.8877 79.9722C51.2895 79.7786 51.7235 79.597 52.0413 79.3012C52.3605 79.0044 52.5541 78.5718 52.8323 78.1546C52.6251 78.1191 52.4925 78.0967 52.2489 78.0552C52.5691 77.5082 52.8369 77.0042 53.151 76.531C53.3591 76.2179 53.5327 75.9757 53.4049 75.5333C53.3041 75.1856 53.4791 74.7582 53.5285 74.3876C53.4959 74.4175 53.4081 74.4968 53.3204 74.5762C53.2882 74.5519 53.256 74.5281 53.2238 74.5038C53.6657 73.9252 54.1039 73.3437 54.551 72.7692C54.9374 72.2727 55.3201 71.7715 55.7331 71.2974C55.9771 71.0174 55.8936 70.8456 55.6757 70.6011C54.0157 68.7405 52.346 66.8878 50.7355 64.9852C50.2427 64.4033 49.9417 63.6622 49.5231 63.0136C49.238 62.5716 48.9216 62.1456 48.5819 61.7438C47.5515 60.5248 46.4623 59.3526 45.4827 58.0944C45.1327 57.645 44.9353 57.0169 44.8448 56.4424C44.7603 55.9062 44.9708 55.3775 45.3185 54.8922C45.7077 54.349 46.2709 54.4218 46.8729 54.2094C46.6998 53.9948 46.5211 53.774 46.3428 53.5533C46.2863 53.5631 46.2303 53.5724 46.1739 53.5822C46.1305 53.7633 46.0871 53.9444 46.0213 54.2192C45.9051 54.033 45.7175 53.8566 45.7128 53.6756C45.71 53.5748 46.0143 53.3746 46.1748 53.3802C46.4772 53.3904 46.8991 53.3102 46.9126 53.8216C47.0601 53.8044 47.2145 53.7358 47.2892 53.7857C48.1325 54.3527 48.9501 54.958 49.8031 55.5096C50.2287 55.7844 50.7439 55.9226 51.1621 56.2058C51.8131 56.6468 52.4165 57.1588 53.0549 57.653C53.3531 57.352 53.6853 57.4122 54.0568 57.652C54.25 57.7766 54.5043 57.8098 54.7339 57.8732C54.8669 57.9101 55.0279 57.8882 55.1385 57.9554C55.72 58.3068 56.28 58.6946 56.8657 59.0385C57.5405 59.4347 58.2507 59.773 58.9139 60.187C59.2881 60.4203 59.6185 60.7358 59.9312 61.0512C60.1235 61.2449 60.1706 61.2636 60.3596 61.026C60.6279 60.6891 61.0559 60.4749 61.3088 60.13C61.9491 59.256 62.5249 58.3348 63.1358 57.4388C63.371 57.0934 63.6631 56.784 63.8745 56.4256C64.7341 54.9673 65.5723 53.4964 66.4501 51.975C66.5546 52.1113 66.6526 52.2396 66.787 52.4156C66.9041 52.1556 67.0236 51.8896 67.1673 51.5704C67.2308 51.7674 67.2994 51.9811 67.3731 52.2102C67.7381 52.423 68.1795 52.6288 68.551 52.9233C68.7045 53.0451 68.7839 53.3648 68.7605 53.5794C68.7283 53.8758 68.5631 54.1567 68.4619 54.4465C68.3242 54.8399 68.4353 54.8534 68.8123 54.9533C69.6724 55.1815 69.5744 54.3387 69.9249 54.0209C70.1881 53.7824 70.2884 53.3666 70.4746 53.0376C70.5227 52.9522 70.6207 52.8953 70.6958 52.8253C70.7443 52.9074 70.8176 52.984 70.8367 53.0726C70.9137 53.4231 71.1233 53.5393 71.4504 53.4413C71.5321 53.6 71.6035 53.739 71.694 53.914C71.6067 53.9336 71.5363 53.9654 71.4677 53.9621C71.127 53.9458 70.868 54.006 70.7089 54.3802C70.6029 54.6294 70.3537 54.8175 70.1414 55.0644C70.3047 55.4685 70.1993 55.7228 69.7867 55.8969C69.7611 56.1162 69.7177 56.2978 69.7256 56.4774C69.7326 56.6375 69.7475 56.8564 69.8488 56.9371C69.9515 57.0192 70.1638 56.966 70.3281 56.9688C70.4592 56.9712 70.5908 56.9693 70.7154 56.9693C69.7681 58.6768 68.8665 60.3344 67.9317 61.9734C67.4053 62.8964 66.8318 63.7929 66.2629 64.6908C66.0735 64.9899 65.8481 65.2699 65.6115 65.534C65.3707 65.8024 65.3716 66.0306 65.6199 66.2872C66.4692 67.166 67.2331 68.1166 68.2547 68.8371C69.2165 69.5156 69.7139 70.5316 69.706 71.7384C69.7046 71.9222 69.6024 72.1411 69.4773 72.2816C69.1829 72.612 68.8464 72.9046 68.4992 73.2396C69.0592 74.1352 70.1232 74.3746 70.8437 75.2169C70.5852 75.1091 70.448 75.0517 70.3201 74.9985C70.4135 75.2006 70.5082 75.4045 70.6225 75.6523C70.6435 75.6467 70.7471 75.6201 70.8554 75.5921C70.9217 75.7022 70.9646 75.8777 71.0561 75.9085C71.6445 76.1059 71.8513 76.5847 72.0538 77.105C72.1252 77.2889 72.3445 77.4373 72.5279 77.5512C72.9582 77.819 72.7174 78.2162 72.7571 78.5592C72.7939 78.8788 72.8294 79.1985 72.8714 79.5676C72.8798 79.5658 72.7949 79.5863 72.7109 79.6064C72.7566 79.149 72.4864 78.9843 72.1443 78.8858C72.0967 78.939 72.0487 78.9918 72.0011 79.045C72.2414 79.2293 72.4817 79.4127 72.7225 79.5966Z" fill="#FF1180"/>
<path d="M97.8612 76.4913C97.5859 76.4694 97.5112 76.4633 97.298 76.4465C97.5304 76.8105 97.6979 77.1129 97.9051 77.385C98.1272 77.6767 98.046 77.7975 97.731 77.8227C97.731 77.9991 97.7908 78.2012 97.7175 78.3225C97.6018 78.5129 97.4044 78.5437 97.2583 78.3034C97.1351 78.1009 97.0096 77.9109 96.7202 78.0775C96.6736 78.1041 96.5541 78.0612 96.5028 78.0131C95.7986 77.3598 94.9996 76.7751 94.4303 76.0186C93.9179 75.3377 93.2058 74.9364 92.6453 74.3461C92.5711 74.2677 92.5277 74.1608 92.4591 74.0759C92.4106 74.0157 92.3345 73.9177 92.2869 73.9261C91.3153 74.1025 91.1865 73.2032 91.0213 72.7081C90.7334 71.8433 90.1491 71.281 89.5835 70.6608C89.4211 70.483 89.289 70.2772 89.1934 70.1507C88.9577 70.1087 88.779 70.077 88.5218 70.0313C88.6642 69.8535 88.7365 69.7629 88.8205 69.6579C88.6763 69.5459 88.5531 69.4498 88.5242 69.4274C87.8144 69.7956 87.4886 69.0569 86.8278 69.0788C86.664 69.3336 86.4027 69.6915 86.1918 70.077C85.3168 71.6772 84.4735 73.2956 83.585 74.8883C83.0702 75.8114 82.5135 76.7135 81.9255 77.5913C81.7911 77.7919 81.4584 77.8792 81.2003 77.9711C80.9665 78.0542 80.7094 78.0724 80.3813 78.1345C80.294 78.1345 80.1116 78.1345 79.8974 78.1345C79.5161 77.3519 79.4466 76.5366 80.0649 75.7195C80.2147 75.5216 80.1624 75.1707 80.203 74.8883C80.1442 74.8594 80.0733 74.8137 80.0658 74.8225C79.602 75.3583 78.7834 75.4213 78.4101 76.0895C78.2248 76.4213 77.7288 76.4391 77.4329 76.1815C77.3764 76.1325 77.2962 76.0881 77.2243 76.083C76.578 76.0387 76.3353 75.7195 76.4571 75.0979C76.5024 74.8659 76.4566 74.6139 76.5173 74.3881C76.6134 74.0301 76.7987 73.7212 77.1762 73.5672C77.2864 73.5219 77.3853 73.4183 77.4586 73.3185C77.83 72.8121 78.1996 72.3035 78.5538 71.785C78.796 71.4299 78.6313 71.0859 78.111 71.0673C78.5114 70.8223 78.5641 70.3281 79.0541 70.3024C79.0448 70.1624 79.0354 70.0229 79.0266 69.8829C78.9706 69.8651 78.9146 69.8479 78.8586 69.8301C79.9375 68.1739 81.0132 66.5154 82.0958 64.862C82.6969 63.9436 82.6983 63.9511 81.8966 63.1503C81.3972 62.6519 81.1891 61.9943 80.9212 61.362C80.5656 60.5215 80.1811 59.6881 79.728 58.8975C79.5362 58.5625 79.1232 58.3604 78.8404 58.0692C78.6005 57.8223 78.3928 57.5419 78.1917 57.2609C78.047 57.0584 77.9019 56.8433 77.8221 56.6113C77.7563 56.4214 77.7866 56.1983 77.774 55.9897C77.4716 55.7228 76.8724 55.7634 76.8304 55.0825C76.8192 54.8963 76.4137 54.7629 76.2723 54.5501C76.0408 54.2015 75.87 53.8113 75.6876 53.4319C75.5756 53.1995 75.4897 52.9545 75.3833 52.6932C75.6026 52.6489 75.8126 52.6059 76.024 52.563C76.0926 52.0207 75.1812 51.9829 75.4566 51.261C75.5854 51.4411 75.6768 51.5555 75.7529 51.6791C75.8999 51.9185 76.0394 52.0553 76.3848 52.0861C76.69 52.1136 77.1445 52.0837 77.3106 52.6083C77.4236 52.9653 77.7694 53.2537 78.0265 53.5593C78.2552 53.8309 78.5272 53.9737 78.8604 53.6984C78.9253 53.9397 78.9822 54.1515 79.0392 54.3639C79.105 54.3639 79.1712 54.3639 79.237 54.3639C78.937 53.9 79.0966 53.6625 79.5301 53.5402C79.5735 53.5281 79.5674 53.3829 79.6104 53.3162C79.734 53.123 79.8712 52.9382 79.993 52.7646C79.9356 52.5728 79.8577 52.3115 79.79 52.0861C80.071 51.9881 80.2824 51.9148 80.4933 51.8415C80.491 51.7846 80.4891 51.7277 80.4868 51.6707C80.9945 51.8285 81.5186 51.9475 82.0053 52.1537C82.5046 52.3656 82.7739 52.8122 82.9942 53.3442C83.0581 53.3391 83.1911 53.3283 83.4249 53.3097C83.3171 53.5061 83.2499 53.6293 83.1556 53.8015C83.647 53.9821 83.5383 54.7937 84.0969 54.7955C84.7297 55.5301 85.3126 56.2058 85.9052 56.8941C86.1316 56.7523 86.4648 56.9711 86.6272 57.2894C86.7513 57.5321 86.44 57.9689 86.9837 58.0361C87.5227 58.1028 87.7966 58.0519 87.9226 57.4681C88.002 57.1013 88.2386 56.7859 88.4178 56.7126C88.9796 56.4821 88.9927 55.8945 89.346 55.5408C89.6941 55.1922 89.9186 54.7227 90.2233 54.3261C90.437 54.0479 90.6559 53.7437 91.109 53.9159C91.1944 53.9485 91.3489 53.8183 91.4637 53.7497C91.6158 53.6592 91.76 53.5551 91.992 53.5388C91.9112 53.7829 91.8305 54.0269 91.7498 54.271C91.7904 54.2967 91.831 54.3223 91.8716 54.348C92.4176 53.9392 92.9216 53.4455 93.5222 53.1468C94.0551 52.8817 94.581 52.479 95.2801 52.6316C95.73 52.7296 96.2186 52.7151 96.5574 52.2863C96.843 51.9246 97.214 52.1752 97.5444 52.1649C97.578 52.164 97.6844 52.4449 97.6442 52.5537C97.5406 52.8355 97.3488 53.0847 97.2387 53.3647C97.0903 53.7418 96.9853 54.1361 96.8616 54.523C96.9097 54.5487 96.9573 54.5739 97.0054 54.5995C97.1206 54.5417 97.2354 54.4833 97.3507 54.4255C97.3815 54.4488 97.4123 54.4721 97.4436 54.4955C97.2844 54.7783 97.1244 55.0601 96.9657 55.3434C96.786 55.6649 96.5686 55.972 96.436 56.3122C95.8672 57.7733 95.0052 59.0511 94.0313 60.2635C93.2935 61.1823 92.5585 62.1031 91.8291 63.0289C91.6718 63.2287 91.6378 63.3892 91.8496 63.6477C92.2986 64.1956 92.6472 64.8247 93.063 65.4015C93.468 65.9629 93.9137 66.4944 94.3272 67.0502C94.9567 67.8963 95.5774 68.7484 96.1887 69.608C96.2512 69.6957 96.2414 69.8521 96.2284 69.9725C96.1901 70.3285 96.1229 70.6818 96.0902 71.0383C96.0818 71.1307 96.1369 71.2507 96.2013 71.3244C96.4636 71.6254 96.6423 71.9035 96.2788 72.2727C96.177 72.3763 96.128 72.6297 96.1784 72.7697C96.4472 73.5131 96.5084 74.3246 97.0903 74.9681C97.4314 75.3452 97.5738 75.901 97.8612 76.4913ZM93.3812 74.8827C93.4559 74.8958 93.5306 74.9089 93.6052 74.9224C93.6692 74.7367 93.7331 74.5505 93.7966 74.3647C93.6692 74.3582 93.4368 74.3255 93.4312 74.3489C93.3896 74.5206 93.3924 74.7035 93.3812 74.8827Z" fill="#FF1180"/>
<path d="M69.3167 53.7119C69.6237 53.3073 69.9308 52.9031 70.2378 52.4985C70.2845 52.5354 70.3307 52.5727 70.3774 52.6096C70.0694 53.0189 69.7619 53.4277 69.4539 53.8369C69.4081 53.7954 69.3624 53.7534 69.3167 53.7119Z" fill="#FF1180"/>
<path d="M76.1104 51.0216C76.1804 51.2447 76.2509 51.4677 76.3209 51.6913C76.012 51.5513 75.7012 51.4155 76.1104 51.0216Z" fill="#FF1180"/>
</svg>
