<svg width="360" height="278" viewBox="0 0 360 278" fill="none" xmlns="http://www.w3.org/2000/svg">
<g clip-path="url(#clip0_311_406)">
<path d="M93.9536 107.815L92.1959 108.754L97.194 111.88L93.9536 107.815ZM93.9536 107.815L92.1959 108.754L97.194 111.88L93.9536 107.815ZM260.422 118.479L246.423 134.19L249.357 134.13L262.658 119.266L260.422 118.479ZM93.9536 107.815L92.1959 108.754L97.194 111.88L93.9536 107.815ZM97.2175 111.792L93.9771 107.727L92.2194 108.667L91.9968 108.795L113.001 134.731L114.958 133.751L97.2175 111.792ZM190.787 196.754L183.799 204.566L177.756 211.314L172.029 204.233L155.973 184.417L152.115 183.008L176.793 213.501L176.858 213.612L177.636 214.573L178.556 213.597L192.848 197.495L190.787 196.754ZM256.45 82.7214L216.01 62.5776L149.758 60.4327L108.094 78.2269L91.6592 106.542L91.1137 107.524L92.1081 108.731L113.113 134.667L114.54 136.366L123.595 147.536L127.388 148.834L116.497 135.386L115.07 133.687L97.3053 111.816L94.0649 107.751L93.7842 107.393L93.9425 107.154L95.3502 104.71L109.222 80.6916L109.72 79.8849L111.009 79.2901L150.318 62.5572L215.621 64.73L253.568 83.6415L254.966 84.3924L255.352 85.0599L268.201 109.469L268.33 109.692L264.15 114.401L262.239 116.615L260.645 118.351L246.646 134.062L244.536 136.317L222.336 161.207L218.133 166.004L212.336 172.536L210.876 174.12L209.123 176.094L211.36 176.882L212.462 175.579L213.921 173.995L223.74 162.993L228.031 158.22L247.558 136.28L249.469 134.066L262.769 119.202L264.364 117.467L270.408 110.718L270.923 110.199L256.45 82.7214ZM93.9536 107.815L92.1959 108.754L97.194 111.88L93.9536 107.815ZM260.422 118.479L246.423 134.19L249.357 134.13L262.658 119.266L260.422 118.479ZM93.9536 107.815L92.1959 108.754L97.194 111.88L93.9536 107.815ZM260.422 118.479L246.423 134.19L249.357 134.13L262.658 119.266L260.422 118.479ZM93.9536 107.815L92.1959 108.754L97.194 111.88L93.9536 107.815ZM93.9536 107.815L92.1959 108.754L97.194 111.88L93.9536 107.815Z" fill="#FF1180"/>
<path d="M212.223 104.812C211.221 105.39 210.044 105.92 208.825 106.252C209.528 106.44 210.207 106.716 210.886 106.992L203.32 107.127L164.893 107.925L159.113 108.069L144.642 108.328L143.407 108.373L142.646 107.699L109.134 80.668L108.11 79.9235L109.505 78.229L110.898 79.3543L144.082 106.204L153.633 106.036L159.413 105.893L206.642 104.915L212.223 104.812Z" fill="#FF1180"/>
<path d="M256.243 84.5464L255.241 85.1242L225.664 102.772L223.97 103.823C223.578 103.53 223.186 103.237 222.794 102.944C222.554 102.785 222.426 102.563 222.186 102.404L223.768 101.418L253.456 83.7057L255.149 82.6552L256.243 84.5464Z" fill="#FF1180"/>
<path d="M270.01 110.8L263.928 114.529L260.899 116.35L258.426 117.85L232.745 133.251L230.384 134.687L220.382 140.751L219.826 141.072L219.539 141.089L217.776 140.993L140.387 137.556L138.25 137.454L138.01 137.295L137.77 137.137L124.128 128.687L122.36 127.555L97.2179 111.792L92.2198 108.667L91.7399 108.35L92.8717 106.585L93.7672 107.107L94.3992 107.558L123.34 125.655L125.195 126.81L137.767 134.692L138.902 135.372L139.827 135.432L218.452 138.823L219.289 138.86L220.625 138.09L227.82 133.718L230.181 132.282L255.751 116.945L258.223 115.445L268.002 109.51L268.893 108.996L270.01 110.8Z" fill="#FF1180"/>
<path d="M150.02 156.403L147.169 155.451L137.77 137.137L137.448 136.581L137.766 134.692L142.447 107.74L142.611 107.126L144.678 107.492L144.531 108.392L139.827 135.432L139.703 136.245L140.387 137.556L150.02 156.403Z" fill="#FF1180"/>
<path d="M188.727 196.014L183.823 204.478L178.644 213.621L177.647 215.234L176.882 213.525L172.118 204.256L163.273 187.032L166.212 188.007L177.833 210.677L186.666 195.274L188.727 196.014Z" fill="#FF1180"/>
<path d="M220.699 140.272L220.54 140.511L220.382 140.751L201.513 173.585L199.429 172.933L217.776 140.993L218.503 139.684L218.451 138.823L218.155 130.094L218.104 127.824L217.872 119.206L217.684 113.233C218.111 114.099 218.538 114.966 218.853 115.896C219.112 114.931 219.458 113.99 219.869 113.16L220.153 122.638L220.34 128.611L220.391 130.881L220.648 138.002L220.699 140.272Z" fill="#FF1180"/>
<path d="M151.452 159.137L148.513 158.162L147.169 155.451L150.02 156.403L151.452 159.137Z" fill="#3AFE14"/>
<path d="M148.514 158.162L129.763 151.915L127.189 148.875L147.17 155.451L148.514 158.162Z" fill="#3AFE14"/>
<path d="M129.763 151.915L125.946 150.704L123.396 147.576L127.189 148.875L129.763 151.915Z" fill="#3AFE14"/>
<path d="M152.203 183.031L52.3865 147.73L119.842 146.436L123.396 147.577L125.946 150.704L119.565 148.525L64.1961 149.672L149.565 179.88L152.203 183.031Z" fill="#3AFE14"/>
<path d="M156.061 184.441L152.204 183.031L149.565 179.88L153.447 181.202L156.061 184.441Z" fill="#3AFE14"/>
<path d="M163.273 187.032L156.061 184.441L153.446 181.202L161.864 184.21L163.273 187.032Z" fill="#3AFE14"/>
<path d="M166.212 188.007L163.273 187.032L161.864 184.21L164.78 185.273L166.212 188.007Z" fill="#3AFE14"/>
<path d="M187.733 193.398L186.665 195.274L166.211 188.007L164.779 185.273L187.733 193.398Z" fill="#3AFE14"/>
<path d="M189.817 194.05L188.726 196.014L186.665 195.274L187.733 193.398L189.817 194.05Z" fill="#3AFE14"/>
<path d="M194.529 195.783L192.935 197.518L190.787 196.754L192.293 194.996L194.529 195.783Z" fill="#3AFE14"/>
<path d="M192.293 194.996L190.787 196.754L188.726 196.014L189.817 194.05L192.293 194.996Z" fill="#3AFE14"/>
<path d="M199.453 172.845L198.362 174.809L151.453 159.137L150.021 156.403L199.453 172.845Z" fill="#3AFE14"/>
<path d="M201.513 173.585L200.446 175.461L198.362 174.809L199.453 172.845L201.513 173.585Z" fill="#3AFE14"/>
<path d="M209.124 176.094L207.529 177.83L200.446 175.461L201.513 173.585L209.124 176.094Z" fill="#3AFE14"/>
<path d="M211.359 176.882L209.765 178.617L207.529 177.83L209.123 176.094L211.359 176.882Z" fill="#3AFE14"/>
<path d="M254.081 219.073L192.936 197.518L194.53 195.783L246.028 214.001L211.85 179.269L209.766 178.617L211.36 176.882L213.005 177.416L254.081 219.073Z" fill="#3AFE14"/>
<path d="M222.336 161.207L218.133 166.004L223.74 162.993L228.031 158.22L222.336 161.207ZM210.876 174.119L212.485 175.491L213.945 173.908L212.336 172.536L210.876 174.119Z" fill="#FF1180"/>
<path d="M347.489 136.731L236.592 196.523L212.462 175.579L213.921 173.995L236.835 193.862L338.673 139.07L264.776 140.518L223.652 162.97L227.943 158.196L264.239 138.306L347.489 136.731Z" fill="#3AFE14"/>
<path d="M230.181 132.282L227.82 133.718L230.384 134.687L232.745 133.252L230.181 132.282ZM220.341 128.611L218.192 127.848L218.243 130.118L220.391 130.882L220.341 128.611ZM258.223 115.445L255.75 116.945L258.449 117.762L260.922 116.262L258.223 115.445ZM262.04 116.656L260.446 118.391L262.705 119.091L264.3 117.356L262.04 116.656ZM244.536 136.317L247.47 136.257L249.381 134.042L246.447 134.102L244.536 136.317ZM159.413 105.893L153.633 106.036L159.112 108.069L164.892 107.925L159.413 105.893Z" fill="#FF1180"/>
<path d="M319.007 134.835L247.47 136.257L249.381 134.042L305.962 132.938L262.682 119.178L264.188 117.42L319.007 134.835Z" fill="#3AFE14"/>
<path d="M123.339 125.655L122.272 127.531L124.127 128.687L125.195 126.81L123.339 125.655ZM114.981 133.664L113.025 134.644L114.452 136.342L116.409 135.362L114.981 133.664ZM91.6588 106.542L91.1133 107.524L92.1077 108.731L92.3303 108.602L94.088 107.663L94.5333 107.406L93.8778 107.043L95.2854 104.599L91.6588 106.542Z" fill="#FF1180"/>
<path d="M114.341 136.407L100.063 143.675L99.8878 143.628L17.6923 145.485L91.6594 106.542L91.0026 107.588L91.997 108.795L26.7946 143.129L99.5267 141.463L113.002 134.731L114.341 136.407Z" fill="#3AFE14"/>
<path d="M235.663 106.204L235.471 104.46C231.255 104.74 228.023 104.156 225.576 102.749C225.008 102.409 224.376 101.957 223.92 101.553C223.832 101.529 223.768 101.418 223.68 101.394C221.205 99.039 219.768 95.2692 219.439 89.822L217.653 89.8136C217.018 98.8573 213.565 103.667 206.531 104.979C205.137 105.264 203.503 105.39 201.804 105.405C201.717 105.381 201.605 105.446 201.43 105.399L201.422 107.183C201.51 107.206 201.621 107.142 201.797 107.189C202.26 107.219 202.722 107.249 203.185 107.279C211.623 107.754 216.234 111.622 217.825 119.382C218.093 120.488 218.25 121.658 218.273 122.98L219.994 122.878C219.524 112.691 224.149 107.725 235.663 106.204ZM219.869 113.16C219.458 113.99 219.112 114.931 218.853 115.896C218.538 114.966 218.135 114.011 217.684 113.233C216.1 110.364 213.842 108.254 210.798 106.969C210.119 106.693 209.44 106.417 208.737 106.228C209.955 105.897 211.133 105.366 212.135 104.788C215.275 102.903 217.398 99.8993 218.526 95.6886C219.273 98.5213 220.472 100.723 222.098 102.381C222.315 102.627 222.467 102.762 222.707 102.92C223.099 103.213 223.491 103.506 223.883 103.799C225.323 104.749 227.008 105.483 228.964 105.913C224.53 107.357 221.535 109.752 219.869 113.16Z" fill="#FF1180"/>
<path d="M133.689 53.3067L133.603 51.8732C130.382 51.9504 127.788 51.4434 125.933 50.2882C125.453 49.9715 125.061 49.6784 124.693 49.2976C124.605 49.2741 124.628 49.1864 124.54 49.1628C122.61 47.2352 121.623 44.2442 121.539 39.9909L120.128 39.9888C119.372 47.0257 116.511 50.678 111.029 51.4656C109.945 51.6454 108.622 51.6668 107.322 51.6006C107.234 51.577 107.146 51.5535 107.035 51.6177L106.946 53.0041C107.033 53.0276 107.121 53.0512 107.233 52.987C107.607 52.9934 107.982 52.9998 108.333 53.0939C114.938 53.7354 118.437 56.8354 119.439 62.933C119.579 63.8166 119.695 64.788 119.723 65.7358L121.135 65.7379C120.866 57.9564 124.612 54.165 133.689 53.3067ZM121.147 58.3137C120.784 58.9684 120.508 59.6467 120.296 60.4362C120.022 59.7045 119.747 58.9728 119.449 58.3288C118.274 56.0396 116.56 54.358 114.242 53.1728C113.739 52.9439 113.235 52.715 112.708 52.5738C113.704 52.3705 114.571 51.9447 115.438 51.5189C117.975 50.1302 119.623 47.8451 120.691 44.5588C121.228 46.771 122.082 48.504 123.316 49.8689C123.468 50.0037 123.597 50.2262 123.749 50.361C124.053 50.6306 124.269 50.8766 124.597 51.0585C125.709 51.8265 126.956 52.4426 128.537 52.8662C124.969 53.8847 122.514 55.6714 121.147 58.3137Z" fill="#FF1180"/>
</g>
<defs>
<clipPath id="clip0_311_406">
<rect width="340.204" height="195.617" fill="white" transform="translate(47.4336 0.766357) rotate(15)"/>
</clipPath>
</defs>
</svg>
