<svg width="64" height="64" viewBox="0 0 64 64" fill="none" xmlns="http://www.w3.org/2000/svg">
<path d="M39.7508 48.7151C39.575 48.9583 39.4075 49.2081 39.2215 49.4432C38.9561 49.7787 38.6784 50.1045 38.4036 50.4324C38.2871 50.5715 38.1647 50.7057 38.0373 50.851C38.1367 50.8606 38.2468 50.8712 38.3814 50.884C38.3029 50.5937 38.5092 50.5058 38.6794 50.3814C38.7942 50.2976 38.8891 50.1843 38.9843 50.0766C39.1387 49.9016 39.2861 49.7203 39.4363 49.5415C39.8263 49.0779 40.2163 48.6146 40.6058 48.1508C40.6816 48.0608 40.7552 47.969 40.8488 47.8907C40.8143 47.9567 40.7795 48.0226 40.7447 48.0885C40.759 48.1013 40.7735 48.1141 40.7878 48.1269C41.1635 47.8822 41.2962 47.3687 41.7452 47.2049C41.9023 47.488 41.8963 47.5097 41.5897 47.7177C41.5656 47.6774 41.5419 47.6382 41.4924 47.5554C41.4713 47.6633 41.4713 47.7423 41.4397 47.8052C41.3996 47.8852 41.3286 48.0173 41.28 48.0134C41.1104 47.9995 41.0276 48.1007 40.9393 48.2035C40.9092 48.2387 40.8992 48.291 40.88 48.3355C40.9284 48.3232 40.9779 48.314 41.0248 48.2971C41.0551 48.2863 41.0813 48.2639 41.1093 48.2466C41.1319 48.2711 41.1545 48.2954 41.1771 48.32C41.1215 48.3477 41.0547 48.3646 41.0135 48.4064C40.9702 48.4503 40.9514 48.5182 40.922 48.5758C40.9397 48.592 40.9576 48.6082 40.9753 48.6244C41.06 48.5361 41.1447 48.4478 41.2288 48.3601C41.3506 48.4966 41.2352 48.7018 40.8313 49.0549C40.7791 48.9988 40.7255 48.9416 40.6656 48.8772C40.5561 49.0658 40.4627 49.2266 40.3462 49.4274C40.4731 49.3824 40.5649 49.3499 40.704 49.3009C40.6171 49.4088 40.5497 49.4927 40.4853 49.5724C40.2118 49.4824 39.9468 49.677 39.8378 50.0237C39.8212 50.0763 39.7711 50.1175 39.742 50.1674C39.7049 50.2314 39.6296 50.3153 39.6471 50.362C39.7309 50.586 39.572 50.6231 39.4169 50.7076C39.424 50.6297 39.4284 50.579 39.4331 50.528C39.2586 50.7174 38.9307 50.7699 38.9653 51.1213C38.9706 51.1759 38.8053 51.2787 38.7048 51.3047C38.56 51.342 38.4324 51.3235 38.3603 51.5238C38.3131 51.6548 38.1147 51.7312 37.9852 51.831C37.9987 51.8349 38.0486 51.8496 38.1248 51.8718C38.0375 51.9582 37.9631 52.032 37.8892 52.1051C37.5908 51.8519 37.5959 51.8058 37.8895 51.5618C37.9496 51.5117 37.9669 51.4101 38.0085 51.3226C37.844 51.2725 37.6975 51.2279 37.5197 51.1737C37.5067 51.2283 37.4705 51.3327 37.482 51.3382C37.7126 51.4502 37.5754 51.6228 37.5571 51.8244C37.4754 51.7681 37.412 51.7246 37.3489 51.681C37.3879 51.6347 37.4272 51.5887 37.4583 51.5518C37.422 51.4619 37.3789 51.3549 37.3519 51.2877C37.1963 51.4257 37.0233 51.5793 36.8245 51.7557C36.8115 51.603 36.8032 51.5035 36.7942 51.3986C36.7889 51.3939 36.7791 51.3826 36.7667 51.3755C36.5222 51.2382 36.3522 51.3113 36.2075 51.5439C36.0166 51.8506 35.8035 52.1435 35.598 52.4411C35.5183 52.5568 35.5776 52.6327 35.6648 52.7046C35.7747 52.7951 35.8154 52.8586 35.6379 52.9365C35.5253 52.986 35.4442 53.1061 35.3467 53.1921C35.2 53.3218 35.0417 53.4402 34.9062 53.5806C34.7927 53.6979 34.7095 53.8438 34.6037 53.9693C34.5493 54.0337 34.4657 54.1357 34.4111 54.1267C34.1388 54.0817 34.1245 54.2984 34.0473 54.4512C33.937 54.6698 33.8387 54.8947 33.7199 55.1082C33.6972 55.149 33.6038 55.152 33.5421 55.1686C33.5319 55.1714 33.5108 55.146 33.5046 55.1496C33.1503 55.3659 32.8559 55.0715 32.5303 55.0223C32.4172 55.2418 32.2662 55.2746 32.052 55.1733C31.8528 55.079 31.6633 55.002 31.5112 54.8166C31.3969 54.6771 31.1857 54.6191 31.0231 54.5158C30.8736 54.4211 30.7257 54.3217 30.5892 54.2097C30.5348 54.1651 30.5132 54.0808 30.4757 54.0153C30.436 53.9462 30.4307 53.8282 30.2922 53.9035C30.2692 53.9159 30.161 53.828 30.1636 53.8231C30.2581 53.6379 30.0855 53.5616 29.9976 53.5573C29.7344 53.5447 29.6516 53.3141 29.486 53.1889C29.3715 53.1021 29.2864 52.9764 29.2196 52.8328C29.3348 52.9327 29.45 53.0323 29.5652 53.1321C29.5759 53.1215 29.5863 53.1108 29.597 53.1001C29.4299 52.9192 29.2955 52.6762 29.0901 52.5685C28.3349 52.1723 27.9377 51.4171 27.3256 50.8793C26.5866 50.2299 25.8854 49.5377 25.1652 48.8665C24.9864 48.6999 24.7904 48.5514 24.6171 48.3797C24.5258 48.289 24.4501 48.1736 24.3963 48.0561C24.2752 47.7913 23.9475 47.8163 23.7939 47.6059C23.7359 47.5266 23.6795 47.444 23.6377 47.3557C23.5842 47.2424 23.5564 47.1206 23.386 47.1272C23.3314 47.1294 23.2646 47.0743 23.2196 47.0291C22.6965 46.5069 22.1868 45.9712 21.6527 45.4607C21.2407 45.0671 20.7968 44.7067 20.371 44.3272C19.4564 43.5121 18.5444 42.6942 17.6315 41.8769C17.2763 41.5588 16.9175 41.2446 16.5687 40.9194C16.2854 40.6555 16.0211 40.3714 15.7359 40.1098C15.5332 39.9238 15.3028 39.7681 15.0976 39.5844C14.9391 39.4425 14.7995 39.2791 14.6532 39.1238C14.3965 38.8518 14.141 38.5787 13.8854 38.3057C13.556 37.9537 13.232 37.5961 12.8943 37.2522C12.8123 37.1688 12.6741 37.1428 12.5828 37.0656C12.5019 36.9971 12.4452 36.8972 12.387 36.8055C12.3232 36.7046 12.2892 36.5783 12.209 36.4951C11.5788 35.8417 10.9414 35.1953 10.3046 34.548C9.69511 33.9285 9.08498 33.3094 8.47314 32.6922C8.25148 32.4687 8.02172 32.2532 7.799 32.0307C7.3254 31.5575 6.85052 31.0854 6.38311 30.6063C6.11452 30.3311 5.87111 30.0356 5.51207 29.8587C5.38599 29.7967 5.32178 29.6192 5.20274 29.53C4.92988 29.3254 4.65746 29.1072 4.35196 28.9642C4.15783 28.8736 3.90482 28.9083 3.67612 28.8866C3.65735 28.9749 3.64391 29.0387 3.63026 29.1025C3.6134 29.1025 3.59655 29.1023 3.57991 29.1023C3.56583 29.0445 3.55154 28.9864 3.5317 28.9051C3.48647 28.9444 3.45916 28.9683 3.4086 29.0122C3.38194 28.8949 3.35954 28.7963 3.3301 28.6673C3.18375 28.6348 3.13959 28.5092 3.11804 28.3272C3.1014 28.1858 2.98194 28.0574 2.91303 27.9206C2.86631 27.828 2.82812 27.731 2.8181 27.619C3.15623 27.8457 3.18439 28.2818 3.48263 28.5817C3.57095 28.4625 3.65586 28.3639 3.71964 28.2532C3.74012 28.2176 3.72306 28.132 3.6917 28.0998C3.53426 27.9379 3.36338 27.7892 3.20338 27.6296C3.08647 27.5129 2.95356 27.4666 2.79399 27.4154C2.61266 27.3572 2.46055 27.1507 2.34023 26.9777C2.24146 26.8354 2.20391 26.6489 2.14823 26.4791C2.13479 26.4382 2.151 26.3473 2.16444 26.3449C2.23292 26.3334 2.33148 26.3146 2.37159 26.3511C2.5525 26.515 2.72039 26.6937 2.88679 26.8729C3.0997 27.1021 3.30791 27.3354 3.51527 27.5695C3.57308 27.6347 3.61788 27.7113 3.67356 27.7787C3.73522 27.8532 3.80263 27.9227 3.87602 28.0036C4.08466 27.6224 4.07164 27.6326 3.83932 27.338C3.57031 26.9971 3.38727 26.612 3.39452 26.163C3.39708 26.0104 3.4822 25.9153 3.5974 25.8046C3.81074 25.5993 4.01703 25.7086 4.24295 25.6934C4.55186 25.6727 4.75132 25.8664 5.0133 25.9136C5.15111 25.9383 5.2358 25.9584 5.33394 25.8295C5.9477 25.0255 6.57618 24.2325 7.18887 23.4276C7.56818 22.929 7.9142 22.4049 8.3014 21.9129C8.52903 21.6239 8.80871 21.376 9.063 21.1074C9.09756 21.0709 9.14599 21.021 9.143 20.9804C9.12999 20.7998 9.17244 20.686 9.38471 20.6918C9.4118 20.6924 9.47644 20.5868 9.46364 20.5531C9.39751 20.3786 9.48903 20.3705 9.62535 20.3306C9.7269 20.301 9.87623 20.231 9.80263 20.0367C9.78279 19.9842 9.87282 19.8581 9.94279 19.8092C10.1487 19.6655 10.3897 19.584 10.3748 19.2433C10.3692 19.1155 10.5508 18.9787 10.6489 18.8475C10.9698 18.4185 11.2958 17.9934 11.6111 17.5605C11.7932 17.3105 11.9586 17.0483 12.1327 16.7923C12.1489 16.7686 12.1698 16.746 12.193 16.7294C12.4597 16.5374 12.4522 16.5154 12.2133 16.3134C12.1177 16.2325 12.0437 16.1011 12.0093 15.9788C11.9665 15.8263 11.873 15.8107 11.7591 15.8361C11.5893 15.8737 11.4237 15.9306 11.2802 15.9722C11.3188 15.8858 11.3664 15.7792 11.4244 15.649C11.8148 15.5914 11.997 15.1976 12.3089 14.9779C12.4763 14.8599 12.6058 14.6451 12.9079 14.7161C12.8098 14.8542 12.7317 14.964 12.6453 15.0856C12.5862 15.0643 12.5273 15.0432 12.4859 15.0282C12.3385 15.188 12.1986 15.3397 12.0586 15.4916C12.0716 15.5106 12.0849 15.5294 12.0979 15.5483C12.164 15.5328 12.2449 15.5362 12.2941 15.4984C12.5847 15.2761 12.944 15.2719 13.2751 15.1846C13.437 15.1419 13.5308 15.0811 13.5707 14.9081C13.6305 14.6498 13.7073 14.3931 13.8065 14.1476C13.8432 14.0565 13.9635 13.9993 14.0454 13.9266C14.1094 13.8698 14.2368 13.7952 14.2267 13.7583C14.1493 13.4752 14.3633 13.3397 14.5024 13.1705C14.6673 12.97 14.8527 12.8094 14.8691 12.4992C14.8785 12.3221 15.0805 12.1359 15.2345 11.9966C15.2861 11.9498 15.4412 11.9759 15.5302 11.9003C15.5718 11.9797 15.662 12.0699 15.6473 12.1369C15.5285 12.6754 15.3864 13.2059 14.8213 13.4728C14.6954 13.5321 14.6259 13.6113 14.7686 13.7393C14.8091 13.7755 14.816 13.853 14.8305 13.9134C14.846 13.9784 14.8527 14.0458 14.8727 14.173C14.7165 14.224 14.541 14.2792 14.3673 14.3394C14.3229 14.3547 14.2807 14.3814 14.2449 14.4115C14.2368 14.4183 14.2572 14.483 14.2677 14.4838C14.3076 14.487 14.3488 14.4763 14.3893 14.4689C14.641 14.4232 14.8915 14.368 15.1447 14.3328C15.6923 14.2568 16.241 14.1879 16.7899 14.1224C17.6027 14.0254 18.4168 13.9396 19.229 13.8378C19.8946 13.7544 20.5572 13.6448 21.2234 13.5669C21.5364 13.5302 21.8553 13.5477 22.1706 13.527C22.3057 13.518 22.4384 13.473 22.5725 13.4466C22.7805 13.4056 22.989 13.3666 23.191 13.2738C22.4998 13.3457 21.8086 13.4176 21.1176 13.4895C21.1157 13.4675 21.1136 13.4455 21.1116 13.4238C21.5972 13.2072 22.1346 13.3864 22.6278 13.2527C23.1381 13.1144 23.6588 13.1938 24.1698 13.1106C24.1725 13.13 24.1755 13.1494 24.1783 13.1688C23.9131 13.2017 23.6482 13.2347 23.383 13.2676C23.3858 13.2874 23.3885 13.3071 23.3913 13.3269C23.9938 13.2674 24.5964 13.2076 25.1989 13.1481C25.204 13.1255 25.2091 13.1029 25.2143 13.0803C24.6995 13.2266 24.2897 13.0003 23.8677 12.7599C23.8553 12.8066 23.8438 12.8497 23.8425 12.855C23.7341 12.8691 23.648 12.8774 23.5628 12.8919C23.4368 12.9135 23.3109 12.961 23.1857 12.9591C22.9192 12.9548 22.6532 12.9141 22.3867 12.9107C22.1301 12.9073 21.8732 12.9399 21.6164 12.9425C21.2631 12.9461 20.9088 12.9184 20.5566 12.9374C20.2517 12.9538 19.9411 12.8847 19.6409 12.9883C19.6076 12.9999 19.568 12.9956 19.5315 12.9945C19.2851 12.9886 19.0385 12.9851 18.7923 12.9734C18.5691 12.963 18.3466 12.9397 18.1235 12.9301C18.0733 12.928 17.9972 12.9427 17.9748 12.9768C17.8331 13.1938 17.6563 13.0895 17.5095 13.015C17.4031 12.961 17.3593 12.9039 17.2358 13.0144C17.1594 13.0826 16.9551 13.0818 16.8516 13.0282C16.6937 12.9465 16.5755 12.963 16.4307 13.0532C16.3919 13.0122 16.3586 12.963 16.3127 12.9312C16.0128 12.7225 16.0151 12.5589 16.3321 12.3667C16.4448 12.2984 16.5698 12.2513 16.6854 12.1875C16.7178 12.1696 16.7364 12.1271 16.7912 12.0588C16.6203 12.0712 16.5058 12.0787 16.3914 12.0881C16.1563 12.1075 16.0064 11.9562 15.8683 11.8067C15.7612 11.6906 15.834 11.5155 16.0085 11.4952C16.4729 11.441 16.9386 11.332 17.4082 11.4636C17.4223 11.4677 17.4376 11.473 17.4515 11.4711C17.6196 11.4483 17.7725 11.3967 17.9575 11.479C18.0883 11.5372 18.2747 11.4681 18.4364 11.459C18.8862 11.4338 19.3367 11.4199 19.7853 11.383C20.1461 11.3534 20.5045 11.294 20.8646 11.2531C21.6147 11.1678 22.3645 11.0814 23.1155 11.0039C23.8289 10.9305 24.5427 10.8578 25.2578 10.804C25.9729 10.7503 26.6929 10.6645 27.4041 10.7057C27.7196 10.724 28.035 10.5875 28.3185 10.6912C28.5429 10.7733 28.6711 10.6363 28.8435 10.6154C29.422 10.5452 30.004 10.5039 30.5817 10.6632C30.6807 10.6905 30.8074 10.6169 30.9551 10.5817C31.0299 10.6916 31.1238 10.6383 31.2866 10.5826C31.5424 10.4953 31.8402 10.5109 32.1194 10.5162C33.0592 10.5344 33.9987 10.5591 34.9378 10.5969C35.9882 10.6389 37.0383 10.6952 38.0883 10.7503C38.6995 10.7823 39.31 10.8275 39.9212 10.8608C41.1101 10.9256 42.2997 10.9768 43.4877 11.0538C43.898 11.0805 44.3035 11.1746 44.7131 11.2232C44.9177 11.2475 45.1266 11.2324 45.3327 11.2471C45.982 11.2936 46.6321 11.3365 47.2802 11.3986C47.7619 11.4447 48.2419 11.5119 48.7208 11.5827C48.9184 11.6119 49.111 11.6746 49.3058 11.7222C49.3177 11.7028 49.3295 11.6836 49.3414 11.6642C49.2339 11.4583 49.1155 11.2574 49.0223 11.0451C48.9457 10.8708 48.9028 10.6822 48.8382 10.5022C48.7731 10.3208 48.8836 10.1839 49.0065 10.1337C49.095 10.0975 49.2768 10.1623 49.3508 10.2427C49.5176 10.4243 49.6531 10.6374 49.7828 10.8492C49.9057 11.0498 50.0117 11.2616 50.1126 11.4743C50.2451 11.7538 50.5077 11.8918 50.7411 12.0546C50.8646 12.1408 50.9228 12.1832 50.8085 12.3198C50.7688 12.3671 50.7547 12.483 50.7848 12.535C51.1407 13.1494 51.4818 13.7745 51.8775 14.3624C52.285 14.9676 52.753 15.5319 53.1852 16.1209C53.3843 16.3923 53.6367 16.6357 53.6932 16.9924C53.6985 17.0261 53.7228 17.0651 53.7502 17.086C54.1994 17.4274 54.4087 17.9479 54.7176 18.3921C55.1189 18.9691 55.5125 19.5532 55.8732 20.1561C56.2675 20.8149 56.6088 21.505 56.9947 22.1689C57.2838 22.6662 57.6059 23.1445 57.9151 23.6303C58.3018 24.2376 58.6901 24.8441 59.0782 25.4508C59.1157 25.5095 59.1564 25.5663 59.2036 25.6356C59.438 25.4692 59.646 25.3088 59.8681 25.1707C59.9498 25.12 60.0644 25.1119 60.1647 25.1087C60.1845 25.108 60.2344 25.2241 60.2244 25.2774C60.1999 25.4063 60.1484 25.5302 60.1073 25.6559C60.0002 25.984 60.1335 26.2818 60.2321 26.605C60.1775 26.605 60.1209 26.5881 60.0887 26.6088C60.0399 26.6402 59.965 26.7178 59.9756 26.7409C60.0793 26.9623 60.1196 27.2277 60.4006 27.3642C60.3108 27.4073 60.2457 27.4376 60.1817 27.4698C60.103 27.5093 59.9692 27.5191 60.077 27.6631C60.0864 27.6755 60.0708 27.7169 60.0556 27.7356C59.9191 27.9052 59.78 28.0727 59.6305 28.2545C59.6804 28.4181 59.6804 28.4181 59.4796 28.714C59.5283 28.7594 59.5788 28.8068 59.6849 28.906C59.5808 28.906 59.5023 28.9265 59.485 28.9026C59.3785 28.7565 59.2853 28.8439 59.2096 28.919C58.9696 29.1573 58.7509 29.4182 58.5002 29.6441C58.2713 29.8506 58.0119 30.023 57.7459 30.2257C57.7542 30.1604 57.7608 30.1088 57.7685 30.0475C57.4585 30.0405 57.7894 30.3767 57.5264 30.4004C57.4974 30.2963 57.4671 30.1873 57.4532 30.1371C57.8146 29.7246 58.1448 29.3382 58.4857 28.9615C58.8584 28.5495 59.2379 28.1435 59.6224 27.7425C59.69 27.6721 59.7967 27.6392 59.8852 27.5891C59.6917 27.3587 59.5603 27.3824 59.0393 27.7497C58.9847 27.6979 58.9273 27.6437 58.8608 27.5806C58.8094 27.6106 58.7511 27.639 58.6988 27.6761C57.9441 28.2144 57.2544 28.8207 56.6269 29.5087C55.9193 30.2848 55.1579 31.0114 54.4247 31.7642C53.9238 32.2788 53.428 32.7985 52.9359 33.3214C52.4145 33.8754 51.9125 34.4482 51.3794 34.9903C50.7953 35.5844 50.1807 36.1487 49.5878 36.7343C49.1509 37.1656 48.7323 37.6155 48.2961 38.0478C47.9991 38.3417 47.6853 38.6186 47.3807 38.9047C47.3525 38.9312 47.3352 38.9691 47.3128 39.0018C47.3292 39.0188 47.3455 39.0361 47.3619 39.0532C47.9648 38.5384 48.5674 38.0239 49.2121 37.4737C49.2062 37.5948 49.2021 37.6783 49.1978 37.7664C49.3399 37.8001 49.3762 37.8961 49.2509 38.0183C48.9873 38.2758 48.7163 38.5267 48.4416 38.7724C47.9748 39.1899 47.495 39.5934 47.0359 40.019C46.7774 40.2585 46.451 40.4926 46.3317 40.798C46.1734 41.2032 45.7455 41.2693 45.5712 41.6708C45.533 41.5618 45.518 41.5189 45.4892 41.4363C45.3559 41.6115 45.0803 41.6333 45.159 41.9498C45.1786 42.0286 45.0348 42.1563 44.9529 42.25C44.6649 42.5794 44.375 42.9075 44.0759 43.2271C44.0187 43.2883 43.9204 43.3241 43.8348 43.3429C43.6452 43.3849 43.5532 43.5099 43.4858 43.6928C43.5389 43.6979 43.5773 43.7017 43.6403 43.7079C43.3922 43.8639 43.1616 44.0085 42.9312 44.1534C42.9203 44.1478 42.9092 44.1423 42.8983 44.1367C42.9408 44.0606 42.9832 43.9844 43.0257 43.9085C43.0199 43.8916 43.0139 43.8747 43.0082 43.8579C42.9482 43.8914 42.8838 43.9187 42.8296 43.9594C42.6927 44.0623 42.6425 44.2645 42.4219 44.2807C42.359 44.2852 42.2988 44.4008 42.2472 44.4727C41.9803 44.8441 41.713 45.2153 41.4534 45.5919C41.3595 45.7278 41.2868 45.8784 41.1991 46.0315C41.2748 45.9936 41.3452 45.9584 41.4159 45.923C41.4274 45.9366 41.4391 45.9505 41.4506 45.9641C41.4041 46.0305 41.3576 46.0968 41.312 46.1617C41.5119 46.4175 41.5125 46.4418 41.2196 46.5862C41.1227 46.634 41.069 46.8411 40.9039 46.695C40.8554 46.7927 40.7906 46.8857 40.7624 46.989C40.7187 47.1483 40.8337 47.3662 40.57 47.4402C40.529 47.4517 40.512 47.5481 40.4887 47.5957C40.4053 47.6192 40.3285 47.6407 40.1926 47.6789C40.2952 47.7265 40.3368 47.7457 40.3744 47.763C40.2476 48.1429 40.1049 48.5056 39.7425 48.7219C39.809 48.6078 39.9929 48.4972 39.742 48.33C39.7307 48.417 39.7318 48.5 39.7179 48.5026C39.4741 48.5476 39.5537 48.7161 39.6179 48.9073C39.6623 48.8446 39.7066 48.7799 39.7508 48.7151ZM43.3516 43.1867C43.2695 43.2853 43.1874 43.3839 43.1052 43.4824C43.1944 43.5189 43.2889 43.5929 43.3715 43.5812C43.4485 43.5703 43.5202 43.4752 43.5801 43.405C43.6439 43.3299 43.6911 43.2405 43.7213 43.1942C43.6844 43.0801 43.6567 42.9943 43.6213 42.8847C43.4673 42.9248 43.3472 42.9984 43.345 43.1927L43.3516 43.1867ZM11.3666 34.7285C11.5387 34.8896 11.7109 35.0504 11.8828 35.2115C11.8997 35.1944 11.9165 35.1771 11.9336 35.1601C11.6876 34.9 11.4417 34.64 11.1957 34.3801C11.1773 34.3966 11.159 34.4132 11.1407 34.4296C11.2187 34.5333 11.297 34.637 11.3751 34.7407C11.1409 34.5068 10.9036 34.2762 10.6732 34.0388C10.3609 33.7171 10.0527 33.3915 9.74546 33.0647C9.68444 32.9999 9.57927 32.9073 9.59356 32.8542C9.63538 32.6997 9.54556 32.6357 9.45852 32.5566C9.38428 32.4889 9.31111 32.4202 9.22898 32.3441C9.28466 32.3208 9.31516 32.308 9.35911 32.2897C9.24924 32.1843 9.20466 31.9724 9.00455 32.1642C8.76498 31.9494 8.5222 31.7346 8.28412 31.5148C8.25554 31.4886 8.23399 31.4321 8.24039 31.395C8.25682 31.3015 8.02578 31.0248 7.98268 31.0769C7.85682 31.2286 7.80626 31.0703 7.75996 31.0287C7.53447 30.8254 7.32668 30.6028 7.10439 30.3961C6.90172 30.2078 6.83495 30.2302 6.73724 30.5231C7.06492 30.8386 7.3894 31.1761 7.7414 31.4822C8.02428 31.7284 8.3302 31.9411 8.53522 32.2709C8.65724 32.4674 8.81874 32.647 8.99068 32.8032C9.26076 33.0485 9.56711 33.2539 9.83548 33.501C10.2099 33.8457 10.5696 34.2071 10.9237 34.5728C11.1692 34.8264 11.3875 35.1063 11.6309 35.3619C11.9232 35.6689 12.2331 35.9592 12.5275 36.2643C12.621 36.3611 12.6786 36.4926 12.7716 36.59C12.8388 36.6604 12.9371 36.7012 13.0218 36.7552C13.0152 36.7716 13.0084 36.7878 13.0018 36.8042C13.072 36.7948 13.1421 36.7857 13.2414 36.7724C13.1684 37.0028 13.3241 37.0831 13.4551 37.2064C14.062 37.7779 14.6506 38.3688 15.2482 38.9502C15.4988 39.1942 15.7525 39.4357 16.0102 39.6721C16.1713 39.8197 16.3394 39.9603 16.5113 40.0951C16.5659 40.138 16.6427 40.1525 16.7093 40.1798C16.6901 40.0945 16.653 40.0499 16.6129 40.0083C16.1911 39.5718 15.7679 39.1368 15.3474 38.6991C14.9832 38.32 14.6342 37.9255 14.2562 37.5609C13.9394 37.2554 13.5823 36.9924 13.2578 36.6944C12.8629 36.3317 12.4744 35.9609 12.1009 35.5765C11.8404 35.3092 11.6102 35.0122 11.3666 34.7285ZM8.54972 28.2129C8.8294 28.4145 9.10738 28.6154 9.38599 28.8153C10.7018 29.7593 12.0352 30.6803 13.3288 31.6539C14.5519 32.5745 15.7408 33.5411 16.9307 34.5047C18.138 35.4822 19.3448 36.4616 20.5211 37.4758C21.6738 38.4695 22.7993 39.4954 23.9146 40.5312C24.7543 41.3109 25.5648 42.1226 26.3773 42.931C26.8435 43.3947 27.2821 43.8863 27.7444 44.3539C28.1591 44.7735 28.5984 45.169 29.0112 45.5904C29.7504 46.3449 30.4763 47.1125 31.2108 47.8718C31.8069 48.4877 32.4061 49.1001 33.0065 49.7118C33.181 49.8895 33.2578 49.8769 33.4118 49.6813C33.84 49.1375 34.2679 48.5935 34.7027 48.055C34.96 47.7365 35.2559 47.4466 35.4884 47.1119C35.8114 46.6472 36.2619 46.2993 36.5839 45.8338C36.8215 45.4903 37.1144 45.1842 37.3883 44.8663C37.9033 44.2683 38.4209 43.6725 38.9401 43.0784C39.0562 42.9455 39.1893 42.8275 39.3045 42.6939C39.6217 42.3257 39.9044 41.9221 40.2545 41.5889C40.8288 41.0419 41.2923 40.3816 41.9543 39.9253C41.9663 39.9172 41.9759 39.905 41.985 39.8935C42.1019 39.7495 42.2154 39.6025 42.337 39.4626C42.3884 39.4035 42.4648 39.3662 42.516 39.3071C42.7861 38.9962 43.044 38.6743 43.3228 38.3718C43.44 38.2449 43.5989 38.1561 43.7484 38.0429C43.8378 37.9249 43.9296 37.7775 44.0473 37.655C44.1723 37.5251 44.3287 37.4259 44.4595 37.3007C44.794 36.9809 45.0995 36.6261 45.4604 36.3404C45.6791 36.1674 45.8265 35.8971 46.1222 35.8197C46.16 35.8099 46.2097 35.7666 46.2171 35.7312C46.2818 35.4227 46.5583 35.2979 46.7571 35.1121C47.1291 34.7643 47.5294 34.4463 47.9006 34.0975C48.1235 33.888 48.3106 33.6411 48.5188 33.4154C49.1692 32.7104 49.8035 31.9889 50.4789 31.3086C51.2463 30.5354 52.0332 29.7792 52.8463 29.0545C53.3932 28.567 54.0002 28.1463 54.5815 27.6975C54.707 27.6006 54.8379 27.5108 54.9691 27.4156C54.7294 27.0538 54.5068 26.7236 54.2901 26.3897C53.9436 25.8558 53.5953 25.3231 53.2588 24.7829C52.928 24.2515 52.6182 23.7071 52.286 23.1763C51.8993 22.5585 51.504 21.946 51.0997 21.3397C50.9994 21.1893 50.8311 21.0852 50.7262 20.9371C50.4147 20.4977 50.1036 20.0565 49.821 19.5985C49.4148 18.9403 49.0203 18.2741 48.6476 17.5968C48.467 17.2684 48.3379 16.91 48.2033 16.5585C48.1224 16.3477 48.0128 16.2404 47.7674 16.2504C47.4579 16.263 47.146 16.237 46.836 16.2139C46.122 16.1608 45.4095 16.0676 44.6948 16.0486C43.3691 16.0134 42.0422 16.0315 40.7163 16.0051C39.5537 15.9818 38.3919 15.9159 37.2294 15.8903C35.5887 15.8538 33.9475 15.8306 32.3065 15.8148C31.4952 15.8069 30.6833 15.8229 29.872 15.8385C29.3017 15.8494 28.7311 15.8645 28.1621 15.9018C27.441 15.9492 26.7217 16.0243 26.001 16.0815C25.5155 16.1201 25.0287 16.1442 24.5431 16.1819C23.6091 16.2547 22.6747 16.3259 21.7418 16.4111C21.2868 16.4527 20.8343 16.5233 20.3808 16.5815C19.8037 16.6555 19.2277 16.7383 18.6496 16.8015C18.2169 16.8488 17.7809 16.864 17.3482 16.9094C17.2473 16.9201 17.1242 16.9704 17.0607 17.0447C16.8008 17.3482 16.5474 17.6591 16.3153 17.9842C15.9483 18.4983 15.6132 19.0353 15.2416 19.5458C14.8253 20.1177 14.3848 20.672 13.9522 21.232C13.6271 21.6529 13.294 22.0678 12.9706 22.49C12.0977 23.6303 11.2317 24.7761 10.3554 25.9138C9.77298 26.6698 9.17671 27.4156 8.54972 28.2129ZM37.5172 11.8837C37.517 11.8713 37.5168 11.859 37.5165 11.8466C37.3973 11.8242 37.2776 11.8041 37.159 11.7785C36.9681 11.7371 36.7797 11.6712 36.5868 11.6533C36.3637 11.6324 36.1367 11.6586 35.9116 11.6529C35.3958 11.6396 34.8802 11.6164 34.3641 11.6032C33.7303 11.587 33.0965 11.5714 32.4625 11.566C32.0497 11.5626 31.6367 11.5863 31.2241 11.5818C30.8738 11.578 30.5239 11.5473 30.1734 11.536C29.8163 11.5244 29.4587 11.5198 29.1014 11.5174C28.9297 11.5163 28.7573 11.52 28.5862 11.5347C28.2265 11.5656 27.8683 11.6147 27.5084 11.6388C27.0771 11.6676 26.6472 11.6328 26.2107 11.6793C25.3811 11.7681 24.5427 11.7753 23.7075 11.8105C23.2083 11.8316 22.7082 11.86 22.2095 11.8496C21.9601 11.8442 21.7209 11.8528 21.4724 11.8843C21.0444 11.9385 20.6071 11.9148 20.1757 11.9481C19.8447 11.9737 19.5168 12.0377 19.1872 12.0832C18.7334 12.1457 18.269 12.1418 17.8366 12.3323C17.7527 12.3692 17.6388 12.3377 17.5251 12.3377C17.425 12.4055 17.2975 12.4919 17.1293 12.6056C17.2898 12.6199 17.4229 12.6402 17.556 12.6417C17.8397 12.6451 18.1258 12.6171 18.407 12.6442C18.5913 12.6619 18.7718 12.8192 18.9371 12.6037C18.9508 12.5858 18.9928 12.5854 19.0218 12.5841C19.277 12.573 19.5321 12.5606 19.7875 12.5542C20.0019 12.5489 20.218 12.5664 20.4307 12.5457C20.6267 12.5267 20.8047 12.6058 21.0075 12.5881C21.6379 12.5329 22.2728 12.5278 22.9062 12.5079C23.3196 12.4949 23.735 12.5109 24.1463 12.477C24.6892 12.4322 25.2262 12.4121 25.7591 12.5504C25.8067 12.5627 25.889 12.5672 25.9089 12.5408C26.0409 12.3639 26.2269 12.439 26.3912 12.4264C26.7208 12.4012 27.0511 12.3769 27.3813 12.3707C27.5144 12.3682 27.6352 12.4371 27.7868 12.3899C27.9507 12.339 28.1821 12.2937 28.3044 12.3714C28.481 12.4836 28.5745 12.4089 28.7159 12.355C28.8426 12.3065 28.9877 12.2922 29.1253 12.288C29.6256 12.273 30.126 12.2666 30.6263 12.2617C30.7788 12.2602 30.9809 12.2152 31.073 12.2933C31.2303 12.4264 31.262 12.2272 31.3749 12.237C31.6659 12.2619 31.9622 12.2321 32.256 12.2163C32.7993 12.1873 33.342 12.1482 33.8854 12.1218C34.5043 12.0917 35.1336 12.1273 35.7391 12.0232C36.0642 11.9673 36.2899 12.0162 36.5045 12.1868C36.5612 12.1414 36.5947 12.0926 36.6351 12.0862C36.7441 12.0687 36.8567 12.0582 36.9666 12.065C37.265 12.0836 37.5626 12.1299 37.8611 12.1339C38.4055 12.1414 38.9501 12.1231 39.4948 12.1218C40.1002 12.1203 40.7057 12.1282 41.3111 12.1256C41.3941 12.1252 41.4771 12.0891 41.5601 12.0695C41.5558 12.0499 41.5518 12.03 41.5475 12.0104C40.0748 11.9159 38.6039 11.7578 37.1234 11.9818C37.1229 11.9494 37.1225 11.917 37.1219 11.8846C37.2541 11.8837 37.3856 11.8837 37.5172 11.8837ZM50.2634 15.0639C50.2327 15.0907 50.202 15.1176 50.1713 15.1445C50.5559 15.825 51.1526 16.3509 51.5931 16.9918C52.0324 17.6307 52.4876 18.2639 52.9941 18.8495C53.5008 19.4353 53.8626 20.141 54.5175 20.6451C54.321 20.2097 54.0407 19.8634 53.7706 19.5099C53.5025 19.159 53.2362 18.8064 52.9753 18.4501C52.7355 18.1228 52.5039 17.7898 52.2686 17.4594C52.2523 17.4707 52.2359 17.482 52.2197 17.4933C52.2233 17.4299 52.227 17.3666 52.2316 17.2883C51.9639 17.3062 51.9345 17.1547 51.9951 16.9529C51.8114 16.9551 51.6371 16.7767 51.5846 16.5888C51.5573 16.4911 51.4933 16.3961 51.4248 16.3185C51.1829 16.0437 50.9329 15.7762 50.6843 15.5076C50.5459 15.3583 50.4038 15.2117 50.2634 15.0639ZM37.2328 46.6696C39.086 44.6101 40.8454 42.5034 42.6538 40.4358C42.6092 40.432 42.5732 40.4399 42.5529 40.4621C41.7924 41.2887 41.0321 42.1154 40.2747 42.9448C39.8816 43.3753 39.4873 43.8052 39.1057 44.2459C38.7046 44.7091 38.3249 45.1906 37.9215 45.6514C37.8082 45.7807 37.6411 45.8617 37.505 45.9727C37.424 46.0388 37.3226 46.1083 37.2893 46.1982C37.2435 46.3223 37.2535 46.467 37.2328 46.6696ZM51.0773 14.4776C51.0942 14.4672 51.1112 14.4569 51.1281 14.4465C50.7247 13.8408 50.3217 13.2347 49.9157 12.6306C49.8986 12.6054 49.8528 12.5858 49.821 12.5866C49.6401 12.5915 49.4594 12.6033 49.226 12.6156C49.8585 13.2516 50.4678 13.8645 51.0773 14.4776ZM24.8785 12.9982C25.5283 13.1599 26.1452 13.0741 26.7648 12.9817C26.7556 12.7345 26.6854 12.5627 26.4785 12.4798C26.4471 12.4672 26.4002 12.4926 26.3287 12.5068C26.3938 12.5431 26.4279 12.5623 26.462 12.5815C25.9035 12.574 25.415 12.8209 24.8785 12.9982ZM53.2996 29.6695C53.3128 29.6855 53.326 29.7015 53.3395 29.7175C54.1073 29.1586 54.8751 28.5999 55.6431 28.0409C55.5596 28.0068 55.4732 28.0019 55.4129 28.0394C55.082 28.2451 54.7404 28.4394 54.4349 28.679C54.0405 28.9888 53.6765 29.3376 53.2996 29.6695ZM57.5221 27.2394C57.3254 27.1579 57.2439 27.184 57.2015 27.3416C57.1857 27.4005 57.1146 27.4613 57.054 27.4886C56.8358 27.5865 56.7874 27.3519 56.676 27.2644C56.6297 27.5778 56.5851 27.8801 56.5406 28.1824C56.5512 28.193 56.5621 28.2039 56.5728 28.2146C56.8806 27.8984 57.188 27.5825 57.5221 27.2394ZM29.9697 11.0758C30.1847 11.0931 30.3816 11.1134 30.5789 11.123C30.6604 11.1268 30.7492 11.1225 30.8226 11.0927C30.8561 11.079 30.8864 10.9559 30.8746 10.9482C30.7995 10.8987 30.7138 10.8399 30.6293 10.8364C30.4691 10.83 30.3078 10.861 30.1467 10.8725C29.9933 10.8834 29.9441 10.9619 29.9697 11.0758ZM8.60882 29.7499C8.60391 29.6749 8.62076 29.6053 8.5941 29.578C8.42706 29.4058 8.25639 29.2358 8.07292 29.082C8.02492 29.0419 7.92722 29.0611 7.85234 29.053C7.88135 29.1225 7.89116 29.2158 7.94279 29.2578C8.13991 29.4176 8.35026 29.5611 8.60882 29.7499ZM49.5695 14.3215C49.405 14.0396 49.3179 13.7602 49.0214 13.6179C48.9969 13.9349 49.1765 14.1676 49.5695 14.3215ZM31.6757 10.995C31.1251 10.8586 31.0048 10.874 30.9408 11.092C31.204 11.2098 31.4479 11.1486 31.6757 10.995ZM49.7062 13.8782C49.6883 13.8942 49.6704 13.9102 49.6522 13.9262C49.8408 14.1356 50.0294 14.3451 50.2182 14.5544C50.2447 14.5299 50.2711 14.5056 50.2978 14.481C50.1007 14.2801 49.9033 14.0791 49.7062 13.8782ZM50.8853 15.3845C50.9045 15.3681 50.9235 15.3514 50.9427 15.335C50.7579 15.0969 50.573 14.8591 50.3882 14.621C50.365 14.6389 50.3415 14.6568 50.3183 14.675C50.5073 14.9113 50.6963 15.1479 50.8853 15.3845ZM28.1704 48.6436C28.1958 48.6178 28.2212 48.592 28.2468 48.5662C28.0755 48.3957 27.9044 48.2255 27.7331 48.055C27.7141 48.0736 27.6951 48.0921 27.6761 48.1105C27.841 48.2884 28.0057 48.4661 28.1704 48.6436ZM28.5996 49.105C28.6163 49.089 28.6329 49.0733 28.6493 49.0573C28.6086 48.8898 28.513 48.7806 28.3108 48.7823C28.4072 48.8898 28.5034 48.9973 28.5996 49.105ZM45.9914 40.7338C45.9121 40.6822 45.8634 40.6263 45.8154 40.6272C45.7794 40.6278 45.7446 40.701 45.7092 40.7417C45.7587 40.7739 45.8048 40.8198 45.8587 40.8326C45.8854 40.839 45.9264 40.7846 45.9914 40.7338ZM40.7355 46.5621C40.7535 46.5758 40.7714 46.5896 40.7893 46.6033C40.8996 46.4776 41.0099 46.3522 41.12 46.2265C41.1001 46.2101 41.0801 46.1935 41.0602 46.177C40.9521 46.3055 40.8439 46.4337 40.7355 46.5621Z" fill="#3AFE14"/>
<path d="M53.0886 33.9475C53.0994 33.7947 53.4039 33.379 53.5402 33.3427C53.5737 33.3337 53.6174 33.3723 53.6558 33.3711C53.6953 33.37 53.7469 33.3576 53.7697 33.3303C53.7904 33.3056 53.7847 33.2537 53.7815 33.2147C53.7781 33.1733 53.7463 33.1038 53.7574 33.0971C53.8015 33.0707 53.8717 33.0361 53.9069 33.0541C54.129 33.1673 54.0884 33.0129 54.1047 32.8842C54.1168 32.7865 54.1471 32.676 54.2075 32.6024C54.3622 32.4145 54.5309 32.2366 54.7093 32.0708C54.7737 32.0109 54.8814 31.9978 54.9655 31.965C54.9399 32.154 54.9162 32.3281 54.8925 32.5022C54.9115 32.515 54.9307 32.5278 54.9497 32.5403C55.077 32.4158 55.2042 32.2912 55.3757 32.1235C55.3045 32.0891 55.2304 32.0535 55.1607 32.02C55.2187 31.9699 55.3064 31.8875 55.4011 31.815C55.4561 31.773 55.5229 31.7461 55.5843 31.7124C55.6006 31.7753 55.617 31.8385 55.6379 31.9195C55.6904 31.8615 55.7371 31.8095 55.7877 31.7534C55.8625 31.8016 55.9334 31.847 56.0131 31.8982C55.9651 31.9577 55.8956 32.0153 55.8638 32.0891C55.78 32.2843 55.688 32.4352 55.4331 32.3368C55.403 32.3251 55.2912 32.4147 55.2968 32.4369C55.3787 32.759 55.0768 32.8437 54.942 33.0299C54.8914 33.0997 54.8443 33.1716 54.7946 33.2418C54.7611 33.2891 54.7327 33.3668 54.6896 33.3764C54.5017 33.4186 54.4748 33.5855 54.3843 33.7105C54.2988 33.8287 54.1546 33.9038 54.0394 34.0015C53.9221 34.1011 53.8397 34.2457 53.6319 34.1849C53.5765 34.1687 53.4662 34.3048 53.3964 34.3846C53.3454 34.4429 53.32 34.5235 53.278 34.6041C53.3196 34.6041 53.3584 34.6041 53.445 34.6041C53.2117 34.823 53.0054 35.0163 52.7991 35.2096C52.7912 35.2023 52.7831 35.1951 52.7752 35.1878C52.869 35.076 52.9627 34.9645 53.0566 34.8527C53.0418 34.8315 53.0273 34.8104 53.0126 34.7895C52.8917 34.8542 52.7743 34.9278 52.6482 34.9807C52.5465 35.0235 52.4341 35.0415 52.3263 35.0705C52.3135 35.0541 52.3009 35.0376 52.2881 35.0214C52.3568 34.9337 52.4253 34.8461 52.5219 34.7227C52.4343 34.7321 52.388 34.7464 52.3455 34.7387C52.3067 34.7319 52.2514 34.7085 52.2416 34.6794C52.2322 34.6517 52.2621 34.5894 52.2915 34.573C52.475 34.4708 52.6105 34.3398 52.7163 34.147C52.7745 34.0409 52.9638 34.0072 53.0939 33.9407C53.0254 34.042 53.0484 34.1211 53.1713 34.1216C53.2419 34.1218 53.3458 34.0793 53.3759 34.0241C53.4205 33.9417 53.4132 33.831 53.4271 33.738C53.32 33.805 53.2044 33.8762 53.0886 33.9475Z" fill="#3AFE14"/>
<path d="M51.2596 36.1207C51.1417 36.304 51.0418 36.5032 50.8995 36.6652C50.7939 36.7853 50.6331 36.8572 50.4633 36.9736C50.469 37.0479 50.4791 37.1786 50.4867 37.28C50.3203 37.3608 50.1544 37.4415 49.9884 37.5221C49.9982 37.5466 50.008 37.5712 50.018 37.5957C50.0667 37.5863 50.1153 37.5769 50.1748 37.5656C50.0494 37.8903 49.9338 38.1973 49.5063 38.2225C49.3064 38.2342 49.159 38.4838 49.1976 38.6801C49.1523 38.6918 49.1065 38.7036 49.0593 38.7157C49.0871 38.7466 49.1118 38.7742 49.1097 38.7718C49.0054 38.845 48.8852 38.8902 48.834 38.9764C48.7854 39.0581 48.5992 39.175 48.814 39.2708C48.6333 39.3913 48.4599 39.5072 48.2862 39.6232C48.2958 39.6433 48.3052 39.6633 48.3148 39.6836C48.3604 39.6943 48.4059 39.7049 48.4663 39.7192C48.3282 39.8496 48.4285 39.895 48.5535 39.9377C48.5234 39.9754 48.5059 40.0209 48.4795 40.0269C48.0336 40.1267 47.8642 40.5514 47.5777 40.8279C47.4034 40.9962 47.3889 40.9229 47.2808 40.7439C47.1769 40.922 47.0964 41.0807 46.9949 41.2247C46.9516 41.2862 46.8646 41.3165 46.7703 41.3265C47.0849 40.896 47.3478 40.4318 47.7923 40.1254C47.8683 40.3571 47.9905 40.1086 48.0669 40.1653C48.1136 40.0401 48.1535 39.9334 48.1992 39.811C48.0505 39.9268 47.9184 40.0294 47.7866 40.132C47.963 39.9091 48.1369 39.6842 48.3167 39.4643C48.4513 39.2998 48.5936 39.142 48.7327 38.9813C48.7124 38.9619 48.692 38.9423 48.6717 38.9229C48.5906 38.9758 48.5096 39.0287 48.4285 39.0816C48.4157 39.0677 48.4031 39.0536 48.3903 39.0398C48.8168 38.6238 49.2432 38.208 49.656 37.8054C49.595 37.6894 49.5523 37.6079 49.5291 37.5637C49.662 37.4408 49.7791 37.3325 49.9131 37.2085C49.7817 37.1196 49.7158 37.075 49.643 37.0257C49.922 36.7718 50.1821 36.5354 50.4244 36.3151C50.4731 36.3635 50.523 36.4132 50.5729 36.4631C50.5994 36.3592 50.6258 36.2556 50.6516 36.1546C50.6598 36.16 50.7086 36.1958 50.7598 36.2276C50.8801 36.3023 50.9923 36.3565 51.0937 36.189C51.118 36.1489 51.207 36.1476 51.266 36.1286L51.2596 36.1207Z" fill="#3AFE14"/>
<path d="M51.2663 36.1275C51.1646 36.0961 51.063 36.065 50.9246 36.0223C51.0946 35.7665 51.2684 35.4766 51.4752 35.2125C51.5302 35.1421 51.6862 35.1509 51.8267 35.1152C51.8182 35.2292 51.8142 35.2836 51.8118 35.3143C51.9686 35.2744 52.1248 35.2349 52.2809 35.1952C52.2882 35.2076 52.2952 35.22 52.3025 35.2324C52.1408 35.367 51.9791 35.5016 51.7954 35.6545C51.8807 35.707 51.9283 35.7365 51.9955 35.7776C51.9528 35.9065 51.9402 36.071 51.8534 36.1708C51.7676 36.2692 51.6066 36.302 51.5266 36.3404C51.4144 36.2478 51.3369 36.184 51.2597 36.1205C51.2597 36.1207 51.2663 36.1275 51.2663 36.1275Z" fill="#3AFE14"/>
<path d="M62.5545 24.7229C62.5395 24.7872 62.5216 24.8642 62.5033 24.9423C62.2347 24.8603 62.2001 24.9002 62.2159 25.1613C62.2204 25.2366 62.1412 25.3501 62.0695 25.3892C61.9582 25.45 61.8202 25.4619 61.6934 25.4946C61.6757 25.4769 61.658 25.4592 61.6403 25.4414C61.7214 25.3452 61.8037 25.2503 61.8829 25.1526C61.9226 25.1035 61.9575 25.0506 61.9893 24.9962C61.9917 24.9922 61.9373 24.9431 61.9305 24.9476C61.8848 24.9772 61.8445 25.015 61.8035 25.0513C61.7414 25.1061 61.6802 25.162 61.5723 25.2588C61.8406 24.6585 62.4194 24.4394 62.7895 23.9456C62.8973 24.0307 63.046 24.1128 63.1354 24.2376C63.1693 24.285 63.0658 24.4305 63.0093 24.5706C62.9282 24.4659 62.8868 24.4121 62.8631 24.3814C62.7258 24.4213 62.6121 24.4541 62.4983 24.4872C62.4937 24.506 62.4892 24.5248 62.4845 24.5435C62.6101 24.5676 62.7358 24.5917 62.8614 24.6159C62.8642 24.6353 62.867 24.6549 62.8698 24.6743C62.7706 24.6897 62.6716 24.7048 62.5545 24.7229Z" fill="#3AFE14"/>
<path d="M43.8803 45.2612C43.8143 45.1803 43.7745 45.1313 43.7297 45.0762C43.5985 45.1742 43.4722 45.2684 43.3459 45.3627C43.3271 45.3423 43.3083 45.322 43.2896 45.3015C43.5345 44.8776 44.0364 44.695 44.2865 44.2302C44.3385 44.3272 44.3605 44.3682 44.3876 44.419C44.4494 44.3927 44.5083 44.3675 44.5969 44.33C44.5497 44.2519 44.5085 44.1837 44.4578 44.0996C44.4851 44.0708 44.5269 44.0264 44.5704 43.9803C44.6229 44.0802 44.6664 44.163 44.7317 44.2869C44.4782 44.5766 44.1896 44.9071 43.8803 45.2612Z" fill="#3AFE14"/>
<path d="M5.25825 30.8904C4.92715 30.9715 4.82923 30.7533 4.7215 30.618C4.44054 30.2652 4.19691 29.8826 3.93835 29.5119C3.95969 29.4974 3.98102 29.4826 4.00214 29.4681C4.41281 29.9332 4.82347 30.3983 5.25825 30.8904Z" fill="#3AFE14"/>
<path d="M7.91039 34.1148C7.79625 34.0337 7.6706 33.9646 7.57055 33.8688C7.37129 33.6781 7.17737 33.4801 6.99732 33.2712C6.81641 33.0613 6.65513 32.8345 6.48511 32.6152C6.50409 32.6005 6.52308 32.586 6.54207 32.5713C7.01972 33.0581 7.49759 33.5449 7.97524 34.0316C7.95369 34.0595 7.93193 34.0872 7.91039 34.1148Z" fill="#3AFE14"/>
<path d="M10.6363 14.3566C10.8787 14.2163 11.0634 14.2239 11.2746 14.4093C10.8757 14.4688 10.5036 14.5333 10.129 14.5738C10.0445 14.583 9.95087 14.5102 9.83887 14.4665C10.1002 14.2685 10.4481 14.232 10.6363 14.3566Z" fill="#3AFE14"/>
<path d="M57.2501 30.6568C57.2027 30.7215 57.1718 30.768 57.1366 30.8109C57.0558 30.9094 56.9817 31.0172 56.8855 31.0982C56.8505 31.1277 56.7605 31.0916 56.6954 31.0856C56.7003 31.0622 56.7052 31.0385 56.7102 31.015C56.7535 31.0317 56.7966 31.0485 56.9145 31.0942C56.746 30.8431 56.6816 30.6443 56.9625 30.5067C57.1658 30.4068 57.1739 30.6208 57.2501 30.6568Z" fill="#3AFE14"/>
<path d="M8.74946 34.7194C9.10232 34.9436 9.46669 35.1539 9.71949 35.4978C9.69602 35.5264 9.67234 35.555 9.64888 35.5836C9.32952 35.3214 9.01016 35.059 8.6908 34.7968C8.71042 34.771 8.72984 34.7452 8.74946 34.7194Z" fill="#3AFE14"/>
<path d="M10.807 16.4618C10.5523 16.679 10.2976 16.8962 10.0426 17.1134C10.0243 17.0931 10.0061 17.073 9.98779 17.0528C10.1802 16.7673 10.4381 16.5531 10.737 16.3827C10.7603 16.4091 10.7835 16.4356 10.807 16.4618Z" fill="#3AFE14"/>
<path d="M42.6961 46.7888C42.6108 46.8166 42.5209 46.8353 42.4416 46.875C42.3735 46.9089 42.3072 46.958 42.2581 47.0158C42.0836 47.2208 42.0371 47.227 41.8037 47.0307C42.0145 47.029 42.2078 47.0246 42.2647 46.7715C42.2741 46.7299 42.3934 46.6977 42.4648 46.6901C42.532 46.6828 42.6033 46.7137 42.6728 46.7278C42.6805 46.7483 42.6884 46.7686 42.6961 46.7888Z" fill="#3AFE14"/>
<path d="M60.7073 26.6934C60.6474 26.7844 60.5746 26.911 60.4848 27.024C60.4496 27.0682 60.3762 27.0816 60.3201 27.1091C60.3095 27.0447 60.2725 26.9705 60.2924 26.9174C60.3926 26.6477 60.4669 26.6234 60.7073 26.6934Z" fill="#3AFE14"/>
<path d="M16.1741 13.9558C15.9584 14.0207 15.7824 14.0734 15.574 14.1361C15.5561 14.1205 15.504 14.0749 15.4321 14.0117C15.571 13.8965 15.6689 13.7261 15.8872 13.8969C15.9465 13.9437 16.051 13.933 16.1741 13.9558Z" fill="#3AFE14"/>
<path d="M42.7528 46.1998C42.6043 45.998 42.7833 45.8681 42.928 45.7188C42.928 45.8254 42.903 45.9319 42.9369 46.014C42.9585 46.0663 43.0673 46.0827 43.1368 46.1151C43.1285 46.1315 43.1202 46.148 43.1118 46.1644C43.0005 46.1753 42.8891 46.1864 42.7528 46.1998Z" fill="#3AFE14"/>
<path d="M46.5568 41.6264C46.606 41.5658 46.6871 41.4472 46.6995 41.454C46.7968 41.5076 46.893 41.5756 46.9595 41.6624C46.9736 41.6808 46.864 41.7939 46.8113 41.8634C46.7876 41.8483 46.7641 41.8331 46.7404 41.818C46.7673 41.7341 46.7942 41.6501 46.8416 41.5024C46.7323 41.5869 46.6786 41.6285 46.6248 41.6699C46.602 41.6554 46.5794 41.6409 46.5568 41.6264Z" fill="#3AFE14"/>
<path d="M6.08248 32.1438C6.22392 32.22 6.36493 32.2957 6.50573 32.3716C6.47992 32.4081 6.45411 32.4446 6.42829 32.4811C6.36664 32.4811 6.28152 32.5069 6.24803 32.4762C6.14541 32.3819 6.01485 32.2842 6.08248 32.1438Z" fill="#3AFE14"/>
<path d="M42.4748 46.2615C42.4428 46.3656 42.411 46.4698 42.376 46.5839C42.2777 46.6588 42.161 46.7479 42.0441 46.8369C42.0266 46.8224 42.0093 46.8079 41.9918 46.7934C42.1435 46.6095 42.2952 46.4256 42.4469 46.2417C42.4565 46.2483 42.4656 46.2549 42.4748 46.2615Z" fill="#3AFE14"/>
<path d="M47.3184 40.0151C47.5244 39.8419 47.7305 39.6684 47.9366 39.4952C47.9242 39.4832 47.9121 39.4713 47.8997 39.4594C47.7256 39.6648 47.5515 39.8704 47.3775 40.0759C47.3578 40.0554 47.338 40.0351 47.3184 40.0151Z" fill="#3AFE14"/>
<path d="M34.046 56.5439C34.1683 56.3747 34.2762 56.2252 34.3842 56.0754C34.3923 56.0797 34.4004 56.0842 34.4085 56.0884C34.3586 56.231 34.3212 56.3799 34.251 56.5115C34.2314 56.5486 34.1156 56.5347 34.046 56.5439Z" fill="#3AFE14"/>
<path d="M46.2809 42.4971C46.1875 42.6016 46.0938 42.7059 45.9854 42.8271C45.8668 42.5058 46.1344 42.5549 46.2809 42.4971Z" fill="#3AFE14"/>
<path d="M13.6141 14.0531C13.5955 14.2835 13.4694 14.2428 13.3673 14.2274C13.3436 14.2238 13.3278 14.166 13.3086 14.1331C13.4037 14.1079 13.4991 14.083 13.6141 14.0531Z" fill="#3AFE14"/>
<path d="M9.89113 17.9993C9.72537 18.0076 9.56452 17.9959 9.59844 17.7333C9.70894 17.8335 9.80004 17.9165 9.89113 17.9993Z" fill="#3AFE14"/>
<path d="M19.3062 13.6114C19.1319 13.6445 18.9576 13.6778 18.7833 13.7109C18.7797 13.6927 18.7761 13.6746 18.7725 13.6565C18.9436 13.6117 19.1149 13.5667 19.286 13.5219C19.2926 13.5517 19.2994 13.5816 19.3062 13.6114Z" fill="#3AFE14"/>
<path d="M5.60813 31.5826C5.51874 31.4544 5.42935 31.3262 5.33997 31.198C5.36066 31.1829 5.38114 31.1675 5.40183 31.1523C5.49058 31.2786 5.57933 31.4051 5.66829 31.5314C5.64823 31.5485 5.62818 31.5656 5.60813 31.5826Z" fill="#3AFE14"/>
<path d="M35.1336 54.0644C35.06 54.1821 34.9864 54.2997 34.9126 54.4174C34.8951 54.4066 34.8776 54.3959 34.8601 54.385C34.9282 54.2655 34.996 54.1461 35.0641 54.0266C35.0871 54.0392 35.1103 54.0518 35.1336 54.0644Z" fill="#3AFE14"/>
<path d="M61.4333 25.7039C61.4832 25.8001 61.5331 25.8963 61.5831 25.9925C61.554 26.0062 61.5252 26.0198 61.4962 26.0335C61.4546 25.933 61.4128 25.8327 61.3712 25.7322C61.3921 25.7231 61.4128 25.7135 61.4333 25.7039Z" fill="#3AFE14"/>
<path d="M33.2446 36.3869C33.1789 36.533 33.3167 36.7331 33.1234 36.8451C33.0549 36.8848 32.9852 36.9224 32.8934 36.9736C32.9911 36.996 33.0677 37.0137 33.1524 37.0331C33.041 37.093 32.9514 37.1521 32.8535 37.1905C32.7893 37.2157 32.7095 37.2304 32.6436 37.2168C32.3048 37.147 32.1777 37.1967 31.9919 37.5026C31.94 37.4674 31.8888 37.4327 31.8387 37.3985C31.6418 37.5771 31.4871 37.5811 31.2981 37.4152C30.781 36.9612 30.2716 36.498 29.7457 36.0545C29.2992 35.678 28.8292 35.3294 28.3786 34.9578C28.0025 34.6474 27.6394 34.3212 27.2546 33.988C27.1328 34.1672 27.0095 34.3457 26.8889 34.5258C26.7176 34.7818 26.5508 35.0408 26.3769 35.2951C26.1081 35.6878 25.8197 36.0682 25.5665 36.4707C25.1353 37.1562 24.6306 37.7742 24.0096 38.2954C24.0038 38.3001 23.9991 38.3071 23.9925 38.3095C23.8504 38.3581 23.6966 38.465 23.5686 38.44C23.399 38.407 23.4342 38.1947 23.4737 38.0816C23.5558 37.8461 23.4195 37.761 23.2631 37.666C23.1906 37.6219 23.1223 37.5709 23.0513 37.5223C23.0152 37.5956 22.9943 37.6914 22.9608 37.6959C22.8751 37.7076 22.7786 37.4499 22.8179 37.3104C22.7742 37.297 22.73 37.2833 22.65 37.2588C22.8373 36.9947 22.9581 36.7054 23.2629 36.5586C23.4466 36.4701 23.645 36.3871 23.7903 36.2519C23.9362 36.1162 24.0247 35.9184 24.1519 35.7277C24.0572 35.7115 23.9966 35.7012 23.8852 35.6823C24.0316 35.4322 24.154 35.2018 24.2976 34.9855C24.3927 34.8424 24.4721 34.7316 24.4136 34.5294C24.3676 34.3705 24.4476 34.1751 24.4702 34.0057C24.4552 34.0193 24.4151 34.0556 24.375 34.0919C24.3603 34.0808 24.3456 34.0699 24.3309 34.0588C24.5329 33.7943 24.7332 33.5284 24.9376 33.2658C25.1142 33.0388 25.2892 32.8097 25.478 32.593C25.5895 32.465 25.5513 32.3865 25.4517 32.2747C24.6929 31.4241 23.9296 30.5772 23.1934 29.7074C22.9681 29.4414 22.8305 29.1026 22.6391 28.8061C22.5088 28.6041 22.3641 28.4093 22.2088 28.2256C21.7378 27.6684 21.2399 27.1325 20.7921 26.5574C20.6321 26.3519 20.5418 26.0648 20.5005 25.8022C20.4618 25.557 20.5581 25.3153 20.717 25.0935C20.8949 24.8451 21.1524 24.8784 21.4276 24.7814C21.3485 24.6832 21.2668 24.5823 21.1853 24.4814C21.1594 24.4859 21.1338 24.4902 21.108 24.4946C21.0882 24.5774 21.0684 24.6602 21.0383 24.7858C20.9852 24.7007 20.8994 24.6201 20.8973 24.5373C20.896 24.4912 21.0351 24.3997 21.1085 24.4023C21.2467 24.407 21.4396 24.3703 21.4457 24.6041C21.5132 24.5962 21.5838 24.5648 21.6179 24.5876C22.0034 24.8468 22.3772 25.1235 22.7671 25.3757C22.9617 25.5014 23.1972 25.5645 23.3884 25.694C23.686 25.8956 23.9618 26.1296 24.2536 26.3555C24.39 26.2179 24.5418 26.2455 24.7117 26.3551C24.8 26.4121 24.9162 26.4272 25.0212 26.4562C25.082 26.4731 25.1556 26.4631 25.2062 26.4938C25.472 26.6544 25.728 26.8317 25.9957 26.9889C26.3042 27.17 26.6289 27.3247 26.932 27.5139C27.1031 27.6206 27.2542 27.7648 27.3971 27.909C27.485 27.9976 27.5065 28.0061 27.5929 27.8975C27.7156 27.7435 27.9112 27.6456 28.0269 27.4879C28.3196 27.0883 28.5828 26.6672 28.8621 26.2576C28.9696 26.0998 29.1031 25.9583 29.1998 25.7945C29.5927 25.1278 29.9759 24.4554 30.3772 23.7599C30.4249 23.8222 30.4697 23.8809 30.5312 23.9613C30.5847 23.8425 30.6393 23.7209 30.705 23.575C30.7341 23.665 30.7654 23.7627 30.7991 23.8674C30.966 23.9647 31.1678 24.0588 31.3376 24.1934C31.4078 24.2491 31.444 24.3952 31.4334 24.4934C31.4186 24.6288 31.3431 24.7572 31.2968 24.8897C31.2339 25.0696 31.2847 25.0758 31.457 25.1214C31.8502 25.2257 31.8054 24.8404 31.9656 24.6952C32.086 24.5862 32.1318 24.3961 32.2169 24.2457C32.2389 24.2066 32.2837 24.1806 32.3181 24.1486C32.3402 24.1862 32.3737 24.2211 32.3825 24.2617C32.4177 24.4219 32.5135 24.475 32.663 24.4302C32.7004 24.5027 32.733 24.5663 32.7744 24.6463C32.7345 24.6553 32.7023 24.6698 32.6709 24.6683C32.5152 24.6608 32.3968 24.6883 32.324 24.8594C32.2756 24.9734 32.1617 25.0593 32.0646 25.1722C32.1393 25.3569 32.0911 25.4732 31.9025 25.5528C31.8908 25.653 31.8709 25.736 31.8745 25.8182C31.8777 25.8913 31.8846 25.9914 31.9309 26.0283C31.9778 26.0658 32.0749 26.0415 32.15 26.0428C32.2099 26.0439 32.2701 26.043 32.327 26.043C31.894 26.8236 31.4818 27.5814 31.0545 28.3306C30.8138 28.7526 30.5517 29.1624 30.2916 29.5728C30.205 29.7096 30.102 29.8376 29.9938 29.9583C29.8837 30.081 29.8841 30.1853 29.9976 30.3026C30.3859 30.7043 30.7351 31.1389 31.2021 31.4683C31.6418 31.7785 31.8692 32.2429 31.8656 32.7946C31.8649 32.8786 31.8182 32.9787 31.761 33.0429C31.6264 33.1939 31.4726 33.3277 31.3139 33.4809C31.5699 33.8903 32.0563 33.9997 32.3857 34.3848C32.2675 34.3355 32.2048 34.3092 32.1463 34.2849C32.189 34.3773 32.2323 34.4705 32.2846 34.5838C32.2942 34.5812 32.3415 34.5691 32.391 34.5563C32.4213 34.6066 32.4409 34.6868 32.4828 34.7009C32.7518 34.7912 32.8463 35.01 32.9389 35.2479C32.9715 35.332 33.0718 35.3998 33.1556 35.4519C33.3523 35.5743 33.2422 35.7559 33.2604 35.9127C33.2772 36.0588 33.2934 36.2049 33.3126 36.3737C33.3165 36.3728 33.2776 36.3822 33.2392 36.3914C33.2601 36.1823 33.1366 36.107 32.9802 36.062C32.9585 36.0863 32.9365 36.1104 32.9148 36.1347C33.0246 36.219 33.1345 36.3028 33.2446 36.3869Z" fill="#3AFE14"/>
<path d="M44.7366 34.9675C44.6107 34.9574 44.5766 34.9547 44.4791 34.947C44.5853 35.1134 44.6619 35.2516 44.7566 35.376C44.8582 35.5093 44.821 35.5646 44.677 35.5761C44.677 35.6567 44.7043 35.7491 44.6709 35.8046C44.6179 35.8916 44.5277 35.9057 44.4609 35.7958C44.4046 35.7032 44.3472 35.6164 44.215 35.6926C44.1936 35.7047 44.139 35.6851 44.1155 35.6631C43.7936 35.3645 43.4284 35.0972 43.1681 34.7514C42.9339 34.4401 42.6084 34.2566 42.3521 33.9868C42.3182 33.9509 42.2984 33.9021 42.267 33.8632C42.2448 33.8357 42.2101 33.7909 42.1883 33.7948C41.7441 33.8754 41.6853 33.4643 41.6097 33.238C41.4781 32.8427 41.211 32.5856 40.9525 32.3021C40.8782 32.2208 40.8178 32.1267 40.7741 32.0689C40.6664 32.0497 40.5847 32.0352 40.4671 32.0143C40.5322 31.933 40.5653 31.8916 40.6037 31.8436C40.5377 31.7924 40.4814 31.7485 40.4682 31.7382C40.1437 31.9066 39.9948 31.5688 39.6927 31.5789C39.6178 31.6954 39.4984 31.859 39.4019 32.0352C39.002 32.7667 38.6165 33.5066 38.2103 34.2347C37.975 34.6566 37.7205 35.069 37.4517 35.4703C37.3902 35.562 37.2381 35.6019 37.1201 35.6439C37.0133 35.6819 36.8957 35.6902 36.7457 35.7186C36.7058 35.7186 36.6224 35.7186 36.5245 35.7186C36.3502 35.3608 36.3184 34.9882 36.6011 34.6146C36.6696 34.5242 36.6457 34.3637 36.6642 34.2347C36.6374 34.2214 36.6049 34.2005 36.6015 34.2046C36.3895 34.4495 36.0153 34.4783 35.8446 34.7838C35.7599 34.9355 35.5332 34.9436 35.3979 34.8258C35.3721 34.8034 35.3354 34.7831 35.3025 34.7808C35.0071 34.7605 34.8961 34.6146 34.9518 34.3304C34.9725 34.2244 34.9516 34.1092 34.9793 34.006C35.0233 33.8423 35.108 33.7011 35.2806 33.6307C35.3309 33.61 35.3761 33.5627 35.4096 33.517C35.5794 33.2855 35.7484 33.053 35.9103 32.816C36.021 32.6536 35.9457 32.4964 35.7079 32.4879C35.8909 32.3759 35.915 32.15 36.139 32.1382C36.1348 32.0742 36.1305 32.0104 36.1264 31.9464C36.1008 31.9383 36.0752 31.9304 36.0496 31.9223C36.5429 31.1652 37.0346 30.407 37.5295 29.6512C37.8043 29.2314 37.8049 29.2348 37.4384 28.8687C37.2102 28.6408 37.115 28.3403 36.9926 28.0512C36.83 27.667 36.6542 27.286 36.4471 26.9246C36.3594 26.7714 36.1706 26.679 36.0413 26.5459C35.9317 26.4331 35.8367 26.3048 35.7448 26.1764C35.6786 26.0838 35.6123 25.9855 35.5758 25.8795C35.5457 25.7926 35.5596 25.6907 35.5538 25.5953C35.4156 25.4733 35.1417 25.4918 35.1225 25.1806C35.1174 25.0955 34.932 25.0344 34.8673 24.9372C34.7615 24.7778 34.6834 24.5995 34.6 24.426C34.5488 24.3198 34.5096 24.2078 34.4609 24.0883C34.5612 24.068 34.6572 24.0484 34.7538 24.0288C34.7852 23.7809 34.3686 23.7636 34.4944 23.4336C34.5533 23.5159 34.5951 23.5682 34.6299 23.6247C34.6971 23.7342 34.7609 23.7967 34.9187 23.8108C35.0583 23.8234 35.2661 23.8097 35.342 24.0495C35.3936 24.2127 35.5517 24.3445 35.6693 24.4843C35.7738 24.6084 35.8982 24.6737 36.0505 24.5478C36.0801 24.6581 36.1062 24.755 36.1322 24.852C36.1623 24.852 36.1926 24.852 36.2226 24.852C36.0855 24.64 36.1584 24.5314 36.3566 24.4755C36.3765 24.47 36.3737 24.4036 36.3933 24.3731C36.4498 24.2848 36.5126 24.2003 36.5682 24.121C36.542 24.0333 36.5064 23.9138 36.4754 23.8108C36.6039 23.766 36.7005 23.7325 36.7969 23.699C36.7959 23.673 36.795 23.6469 36.794 23.6209C37.0261 23.693 37.2656 23.7474 37.4881 23.8417C37.7164 23.9386 37.8395 24.1427 37.9402 24.3859C37.9694 24.3836 38.0302 24.3787 38.1371 24.3701C38.0878 24.4599 38.0571 24.5163 38.014 24.595C38.2386 24.6775 38.1889 25.0485 38.4443 25.0494C38.7336 25.3852 39 25.6941 39.271 26.0087C39.3744 25.9439 39.5268 26.0439 39.601 26.1894C39.6577 26.3004 39.5154 26.5 39.764 26.5308C40.0104 26.5613 40.1356 26.538 40.1932 26.2711C40.2295 26.1035 40.3376 25.9592 40.4196 25.9258C40.6764 25.8204 40.6824 25.5518 40.8439 25.3901C41.003 25.2307 41.1056 25.0161 41.2449 24.8348C41.3426 24.7076 41.4427 24.5685 41.6498 24.6472C41.6889 24.6622 41.7595 24.6027 41.812 24.5713C41.8815 24.5299 41.9474 24.4823 42.0535 24.4749C42.0166 24.5864 41.9797 24.698 41.9427 24.8096C41.9613 24.8213 41.9799 24.8331 41.9984 24.8448C42.248 24.6579 42.4784 24.4322 42.753 24.2957C42.9966 24.1745 43.237 23.9904 43.5566 24.0602C43.7623 24.105 43.9856 24.0983 44.1405 23.9023C44.2711 23.737 44.4407 23.8515 44.5917 23.8468C44.6071 23.8464 44.6557 23.9748 44.6374 24.0245C44.59 24.1534 44.5023 24.2673 44.452 24.3953C44.3841 24.5677 44.3361 24.7479 44.2796 24.9248C44.3016 24.9365 44.3233 24.948 44.3453 24.9598C44.398 24.9333 44.4505 24.9067 44.5032 24.8802C44.5173 24.8909 44.5313 24.9015 44.5456 24.9122C44.4729 25.0415 44.3997 25.1703 44.3272 25.2998C44.245 25.4468 44.1456 25.5872 44.085 25.7427C43.825 26.4107 43.431 26.9948 42.9857 27.549C42.6485 27.9691 42.3125 28.39 41.979 28.8132C41.9071 28.9045 41.8915 28.9779 41.9884 29.0961C42.1936 29.3466 42.353 29.6341 42.5431 29.8978C42.7282 30.1544 42.932 30.3974 43.121 30.6515C43.4088 31.0383 43.6925 31.4278 43.972 31.8208C44.0006 31.8609 43.9961 31.9324 43.9901 31.9874C43.9726 32.1502 43.9419 32.3117 43.927 32.4747C43.9231 32.5169 43.9483 32.5717 43.9777 32.6054C44.0976 32.743 44.1793 32.8702 44.0132 33.0389C43.9666 33.0863 43.9442 33.2021 43.9673 33.2661C44.0902 33.606 44.1181 33.977 44.3841 34.2711C44.5401 34.4435 44.6052 34.6976 44.7366 34.9675ZM42.6886 34.2321C42.7227 34.2381 42.7568 34.244 42.791 34.2502C42.8202 34.1653 42.8494 34.0802 42.8784 33.9953C42.8202 33.9923 42.714 33.9774 42.7114 33.988C42.6924 34.0666 42.6937 34.1502 42.6886 34.2321Z" fill="#3AFE14"/>
<path d="M31.6876 24.5539C31.828 24.369 31.9684 24.1842 32.1087 23.9993C32.1301 24.0161 32.1512 24.0332 32.1725 24.05C32.0317 24.2371 31.8911 24.424 31.7503 24.6111C31.7294 24.5921 31.7085 24.5729 31.6876 24.5539Z" fill="#3AFE14"/>
<path d="M34.7934 23.3241C34.8254 23.4261 34.8576 23.528 34.8896 23.6302C34.7484 23.5662 34.6063 23.5042 34.7934 23.3241Z" fill="#3AFE14"/>
</svg>
