<svg width="358" height="273" viewBox="0 0 358 273" fill="none" xmlns="http://www.w3.org/2000/svg">
<path d="M220.415 226.44C219.385 227.865 218.404 229.329 217.314 230.706C215.759 232.672 214.131 234.581 212.521 236.502C211.839 237.317 211.121 238.104 210.375 238.955C210.958 239.011 211.603 239.074 212.391 239.149C211.931 237.447 213.14 236.932 214.138 236.204C214.81 235.712 215.366 235.049 215.924 234.417C216.829 233.392 217.693 232.33 218.573 231.282C220.858 228.566 223.143 225.851 225.425 223.134C225.869 222.606 226.3 222.069 226.849 221.61C226.646 221.996 226.443 222.382 226.239 222.769C226.323 222.844 226.408 222.919 226.491 222.994C228.693 221.56 229.47 218.551 232.101 217.591C233.021 219.25 232.986 219.377 231.19 220.596C231.049 220.36 230.91 220.13 230.62 219.645C230.496 220.277 230.496 220.74 230.311 221.109C230.076 221.577 229.66 222.351 229.375 222.329C228.381 222.247 227.896 222.84 227.379 223.442C227.203 223.649 227.144 223.955 227.031 224.216C227.315 224.144 227.605 224.09 227.88 223.991C228.058 223.927 228.211 223.796 228.375 223.695C228.508 223.839 228.64 223.981 228.773 224.125C228.446 224.287 228.055 224.386 227.814 224.631C227.56 224.889 227.45 225.286 227.278 225.624C227.381 225.719 227.486 225.814 227.59 225.909C228.086 225.391 228.583 224.874 229.075 224.36C229.789 225.16 229.113 226.362 226.746 228.431C226.44 228.102 226.126 227.767 225.775 227.39C225.134 228.495 224.586 229.437 223.904 230.614C224.648 230.35 225.185 230.16 226 229.872C225.491 230.505 225.096 230.996 224.719 231.464C223.116 230.936 221.564 232.076 220.925 234.107C220.828 234.416 220.534 234.657 220.364 234.95C220.146 235.325 219.705 235.816 219.808 236.09C220.299 237.402 219.368 237.62 218.459 238.115C218.5 237.659 218.526 237.361 218.554 237.062C217.531 238.172 215.61 238.48 215.813 240.539C215.844 240.859 214.875 241.461 214.286 241.614C213.438 241.832 212.69 241.724 212.268 242.897C211.991 243.665 210.829 244.112 210.07 244.697C210.149 244.72 210.441 244.806 210.888 244.936C210.376 245.442 209.94 245.875 209.508 246.304C207.759 244.82 207.789 244.55 209.509 243.12C209.861 242.826 209.963 242.231 210.206 241.719C209.243 241.425 208.384 241.164 207.343 240.846C207.266 241.166 207.054 241.777 207.121 241.81C208.473 242.466 207.669 243.477 207.561 244.659C207.083 244.329 206.711 244.074 206.341 243.819C206.57 243.547 206.8 243.277 206.983 243.061C206.77 242.535 206.518 241.907 206.359 241.514C205.448 242.322 204.434 243.222 203.269 244.256C203.193 243.361 203.144 242.779 203.091 242.164C203.06 242.136 203.003 242.07 202.93 242.029C201.498 241.224 200.501 241.652 199.654 243.015C198.535 244.812 197.286 246.529 196.083 248.272C195.615 248.95 195.963 249.395 196.474 249.816C197.118 250.346 197.356 250.719 196.316 251.175C195.656 251.465 195.181 252.169 194.61 252.672C193.75 253.432 192.823 254.126 192.029 254.949C191.364 255.636 190.876 256.491 190.256 257.226C189.938 257.604 189.448 258.201 189.128 258.149C187.533 257.885 187.449 259.155 186.996 260.05C186.35 261.331 185.774 262.649 185.078 263.9C184.945 264.139 184.398 264.156 184.036 264.254C183.976 264.27 183.853 264.121 183.816 264.142C181.74 265.41 180.015 263.685 178.108 263.396C177.445 264.682 176.56 264.875 175.305 264.281C174.138 263.729 173.028 263.277 172.136 262.191C171.466 261.374 170.229 261.034 169.276 260.429C168.4 259.874 167.534 259.291 166.734 258.635C166.415 258.374 166.289 257.88 166.069 257.496C165.836 257.091 165.805 256.4 164.994 256.841C164.859 256.914 164.225 256.399 164.24 256.37C164.794 255.285 163.783 254.837 163.268 254.812C161.725 254.739 161.24 253.387 160.27 252.654C159.599 252.145 159.1 251.409 158.709 250.567C159.384 251.152 160.059 251.736 160.734 252.321C160.796 252.259 160.858 252.196 160.92 252.134C159.941 251.074 159.154 249.65 157.95 249.019C153.525 246.697 151.198 242.272 147.611 239.121C143.281 235.316 139.173 231.26 134.953 227.327C133.905 226.351 132.756 225.481 131.741 224.475C131.206 223.944 130.763 223.267 130.448 222.579C129.738 221.027 127.818 221.174 126.918 219.941C126.578 219.476 126.248 218.992 126.003 218.475C125.689 217.811 125.526 217.097 124.528 217.136C124.208 217.149 123.816 216.826 123.553 216.561C120.488 213.501 117.501 210.362 114.371 207.371C111.958 205.065 109.356 202.954 106.861 200.73C101.503 195.954 96.1588 191.161 90.81 186.372C88.7288 184.509 86.6263 182.667 84.5825 180.762C82.9225 179.216 81.3738 177.551 79.7025 176.019C78.515 174.929 77.165 174.016 75.9625 172.94C75.0338 172.109 74.2163 171.151 73.3588 170.241C71.855 168.647 70.3575 167.047 68.86 165.447C66.93 163.385 65.0313 161.29 63.0525 159.275C62.5725 158.786 61.7625 158.634 61.2275 158.181C60.7538 157.78 60.4213 157.195 60.08 156.657C59.7063 156.066 59.5075 155.326 59.0375 154.839C55.345 151.01 51.61 147.222 47.8788 143.43C44.3075 139.8 40.7325 136.172 37.1475 132.556C35.8488 131.246 34.5025 129.984 33.1975 128.68C30.4225 125.907 27.64 123.141 24.9013 120.334C23.3275 118.721 21.9013 116.99 19.7975 115.954C19.0588 115.59 18.6825 114.55 17.985 114.027C16.3863 112.829 14.79 111.55 13 110.712C11.8625 110.181 10.38 110.385 9.04002 110.257C8.93002 110.775 8.85127 111.149 8.77127 111.522C8.67252 111.522 8.57377 111.521 8.47627 111.521C8.39377 111.182 8.31002 110.842 8.19377 110.366C7.92877 110.596 7.76877 110.736 7.47252 110.994C7.31627 110.306 7.18502 109.729 7.01252 108.972C6.15502 108.782 5.89627 108.046 5.77002 106.98C5.67252 106.151 4.97252 105.399 4.56877 104.597C4.29502 104.055 4.07127 103.486 4.01252 102.83C5.99377 104.159 6.15877 106.714 7.90627 108.471C8.42377 107.772 8.92127 107.195 9.29502 106.546C9.41502 106.337 9.31502 105.836 9.13127 105.647C8.20877 104.699 7.20752 103.827 6.27002 102.892C5.58502 102.209 4.80627 101.937 3.87127 101.637C2.80877 101.296 1.91752 100.086 1.21252 99.0724C0.633771 98.2387 0.413771 97.1462 0.0875206 96.1512C0.00877065 95.9112 0.103771 95.3787 0.182521 95.365C0.583771 95.2975 1.16127 95.1874 1.39627 95.4012C2.45627 96.3612 3.44002 97.4087 4.41502 98.4587C5.66252 99.8012 6.88252 101.169 8.09752 102.54C8.43627 102.922 8.69877 103.371 9.02502 103.766C9.38627 104.202 9.78127 104.61 10.2113 105.084C11.4338 102.85 11.3575 102.91 9.99627 101.184C8.42002 99.1862 7.34752 96.93 7.39002 94.2987C7.40502 93.405 7.90377 92.8475 8.57877 92.1987C9.82877 90.9962 11.0375 91.6362 12.3613 91.5475C14.1713 91.4262 15.34 92.5612 16.875 92.8374C17.6825 92.9824 18.1788 93.1 18.7538 92.345C22.35 87.6337 26.0325 82.9875 29.6225 78.2712C31.845 75.35 33.8725 72.2787 36.1413 69.3962C37.475 67.7025 39.1138 66.25 40.6038 64.6762C40.8063 64.4624 41.09 64.17 41.0725 63.9325C40.9963 62.8737 41.245 62.2075 42.4888 62.2412C42.6475 62.245 43.0263 61.6262 42.9513 61.4287C42.5638 60.4062 43.1 60.3587 43.8988 60.125C44.4938 59.9512 45.3688 59.5412 44.9375 58.4025C44.8213 58.095 45.3488 57.3562 45.7588 57.07C46.965 56.2275 48.3775 55.75 48.29 53.7537C48.2575 53.005 49.3213 52.2037 49.8963 51.435C51.7763 48.9212 53.6863 46.43 55.5338 43.8937C56.6013 42.4287 57.57 40.8925 58.59 39.3925C58.685 39.2537 58.8075 39.1212 58.9438 39.0237C60.5063 37.8987 60.4625 37.77 59.0625 36.5862C58.5025 36.1125 58.0688 35.3425 57.8675 34.6262C57.6163 33.7325 57.0688 33.6412 56.4013 33.79C55.4063 34.01 54.4363 34.3437 53.595 34.5875C53.8213 34.0812 54.1 33.4562 54.44 32.6937C56.7275 32.3562 57.795 30.0487 59.6225 28.7612C60.6038 28.07 61.3625 26.8112 63.1325 27.2275C62.5575 28.0362 62.1 28.68 61.5938 29.3925C61.2475 29.2675 60.9025 29.1437 60.66 29.0562C59.7963 29.9925 58.9763 30.8812 58.1563 31.7712C58.2325 31.8825 58.31 31.9925 58.3863 32.1037C58.7738 32.0125 59.2475 32.0325 59.5363 31.8112C61.2388 30.5087 63.3438 30.4837 65.2838 29.9725C66.2325 29.7225 66.7825 29.3662 67.0163 28.3525C67.3663 26.8387 67.8163 25.335 68.3975 23.8962C68.6125 23.3625 69.3175 23.0275 69.7975 22.6012C70.1725 22.2687 70.9188 21.8312 70.86 21.615C70.4063 19.9562 71.66 19.1625 72.475 18.1712C73.4413 16.9962 74.5275 16.055 74.6238 14.2375C74.6788 13.2 75.8625 12.1087 76.765 11.2925C77.0675 11.0187 77.9763 11.1712 78.4975 10.7287C78.7413 11.1937 79.27 11.7225 79.1838 12.115C78.4875 15.27 77.655 18.3787 74.3438 19.9425C73.6063 20.29 73.1988 20.7537 74.035 21.5037C74.2725 21.7162 74.3125 22.17 74.3975 22.5237C74.4888 22.905 74.5275 23.3 74.645 24.045C73.73 24.3437 72.7013 24.6675 71.6838 25.02C71.4238 25.11 71.1763 25.2662 70.9663 25.4425C70.9188 25.4825 71.0388 25.8612 71.1 25.8662C71.3338 25.885 71.575 25.8225 71.8125 25.7787C73.2875 25.5112 74.755 25.1875 76.2388 24.9812C79.4475 24.5362 82.6625 24.1325 85.8788 23.7487C90.6413 23.18 95.4113 22.6775 100.17 22.0812C104.07 21.5925 107.953 20.95 111.856 20.4937C113.69 20.2787 115.559 20.3812 117.406 20.26C118.198 20.2075 118.975 19.9437 119.761 19.7887C120.98 19.5487 122.201 19.32 123.385 18.7762C119.335 19.1975 115.285 19.6187 111.236 20.04C111.225 19.9112 111.213 19.7825 111.201 19.655C114.046 18.3862 117.195 19.4362 120.085 18.6525C123.075 17.8425 126.126 18.3075 129.12 17.82C129.136 17.9337 129.154 18.0475 129.17 18.1612C127.616 18.3537 126.064 18.5475 124.51 18.74C124.526 18.8562 124.543 18.9712 124.559 19.0875C128.089 18.7387 131.62 18.3887 135.15 18.04C135.18 17.9075 135.21 17.775 135.24 17.6425C132.224 18.5 129.823 17.1737 127.35 15.765C127.278 16.0387 127.21 16.2912 127.203 16.3225C126.568 16.405 126.063 16.4537 125.564 16.5387C124.825 16.665 124.088 16.9437 123.354 16.9325C121.793 16.9075 120.234 16.6687 118.673 16.6487C117.169 16.6287 115.664 16.82 114.159 16.835C112.089 16.8562 110.013 16.6937 107.949 16.805C106.163 16.9012 104.343 16.4962 102.584 17.1037C102.389 17.1712 102.156 17.1462 101.943 17.14C100.499 17.105 99.0538 17.085 97.6113 17.0162C96.3038 16.955 95 16.8187 93.6925 16.7625C93.3988 16.75 92.9525 16.8362 92.8213 17.0362C91.9913 18.3075 90.955 17.6962 90.095 17.26C89.4713 16.9437 89.215 16.6087 88.4913 17.2562C88.0438 17.6562 86.8463 17.6512 86.24 17.3375C85.315 16.8587 84.6225 16.955 83.7738 17.4837C83.5463 17.2437 83.3513 16.955 83.0825 16.7687C81.325 15.5462 81.3388 14.5875 83.1963 13.4612C83.8563 13.0612 84.5888 12.785 85.2663 12.4112C85.4563 12.3062 85.565 12.0575 85.8863 11.6575C84.885 11.73 84.2138 11.7737 83.5438 11.8287C82.1663 11.9425 81.2875 11.0562 80.4788 10.18C79.8513 9.49996 80.2775 8.47371 81.3 8.35496C84.0213 8.03746 86.75 7.39871 89.5013 8.16996C89.5838 8.19371 89.6738 8.22496 89.755 8.21371C90.74 8.07996 91.6363 7.77746 92.72 8.25996C93.4863 8.60121 94.5788 8.19621 95.5263 8.14246C98.1613 7.99496 100.801 7.91371 103.43 7.69746C105.544 7.52371 107.644 7.17621 109.754 6.93621C114.149 6.43621 118.543 5.92996 122.943 5.47621C127.123 5.04621 131.305 4.61996 135.495 4.30496C139.685 3.98996 143.904 3.48746 148.071 3.72871C149.92 3.83621 151.768 3.03621 153.429 3.64371C154.744 4.12496 155.495 3.32246 156.505 3.19996C159.895 2.78871 163.305 2.54621 166.69 3.47996C167.27 3.63996 168.013 3.20871 168.878 3.00246C169.316 3.64621 169.866 3.33371 170.82 3.00746C172.319 2.49621 174.064 2.58746 175.7 2.61871C181.206 2.72496 186.711 2.86996 192.214 3.09121C198.369 3.33746 204.521 3.66746 210.674 3.98996C214.255 4.17746 217.833 4.44246 221.414 4.63746C228.38 5.01746 235.35 5.31746 242.311 5.76871C244.715 5.92496 247.091 6.47621 249.491 6.76121C250.69 6.90371 251.914 6.81496 253.121 6.90121C256.926 7.17371 260.735 7.42496 264.533 7.78871C267.355 8.05871 270.168 8.45246 272.974 8.86746C274.131 9.03871 275.26 9.40621 276.401 9.68496C276.471 9.57121 276.54 9.45871 276.61 9.34496C275.98 8.13871 275.286 6.96121 274.74 5.71746C274.291 4.69621 274.04 3.59121 273.661 2.53621C273.28 1.47371 273.928 0.671207 274.648 0.377457C275.166 0.164957 276.231 0.544959 276.665 1.01621C277.643 2.07996 278.436 3.32871 279.196 4.56996C279.916 5.74496 280.538 6.98621 281.129 8.23246C281.905 9.86996 283.444 10.6787 284.811 11.6325C285.535 12.1375 285.876 12.3862 285.206 13.1862C284.974 13.4637 284.891 14.1425 285.068 14.4475C287.153 18.0475 289.151 21.71 291.47 25.155C293.858 28.7012 296.6 32.0075 299.133 35.4587C300.299 37.0487 301.778 38.475 302.109 40.565C302.14 40.7625 302.283 40.9912 302.443 41.1137C305.075 43.1137 306.301 46.1637 308.111 48.7662C310.463 52.1475 312.769 55.57 314.883 59.1025C317.193 62.9625 319.193 67.0062 321.454 70.8962C323.148 73.81 325.035 76.6125 326.846 79.4587C329.113 83.0175 331.388 86.5712 333.661 90.1262C333.881 90.47 334.12 90.8025 334.396 91.2087C335.77 90.2337 336.989 89.2937 338.29 88.485C338.769 88.1875 339.44 88.14 340.028 88.1212C340.144 88.1174 340.436 88.7975 340.378 89.11C340.234 89.865 339.933 90.5912 339.691 91.3275C339.064 93.25 339.845 94.9949 340.423 96.8887C340.103 96.8887 339.771 96.79 339.583 96.9112C339.296 97.095 338.858 97.5499 338.92 97.685C339.528 98.9825 339.764 100.537 341.41 101.337C340.884 101.59 340.503 101.767 340.128 101.956C339.666 102.187 338.883 102.245 339.514 103.089C339.569 103.161 339.478 103.404 339.389 103.514C338.589 104.507 337.774 105.489 336.898 106.554C337.19 107.512 337.19 107.512 336.014 109.246C336.299 109.512 336.595 109.79 337.216 110.371C336.606 110.371 336.146 110.491 336.045 110.351C335.421 109.495 334.875 110.007 334.431 110.447C333.025 111.844 331.744 113.372 330.275 114.696C328.934 115.906 327.414 116.916 325.855 118.104C325.904 117.721 325.943 117.419 325.988 117.06C324.171 117.019 326.11 118.989 324.569 119.127C324.399 118.517 324.221 117.879 324.14 117.585C326.258 115.167 328.193 112.904 330.19 110.696C332.374 108.282 334.598 105.904 336.85 103.554C337.246 103.141 337.871 102.949 338.39 102.655C337.256 101.305 336.486 101.444 333.434 103.596C333.114 103.292 332.778 102.975 332.388 102.605C332.086 102.781 331.745 102.947 331.439 103.165C327.016 106.319 322.975 109.871 319.299 113.902C315.153 118.45 310.691 122.707 306.395 127.119C303.46 130.134 300.555 133.179 297.671 136.242C294.616 139.489 291.675 142.845 288.551 146.021C285.129 149.502 281.528 152.809 278.054 156.24C275.494 158.767 273.041 161.404 270.485 163.936C268.745 165.659 266.906 167.281 265.121 168.957C264.956 169.112 264.855 169.335 264.724 169.526C264.82 169.626 264.915 169.727 265.011 169.827C268.544 166.811 272.075 163.796 275.853 160.572C275.818 161.282 275.794 161.771 275.769 162.287C276.601 162.485 276.814 163.047 276.08 163.764C274.535 165.272 272.948 166.742 271.338 168.182C268.603 170.629 265.791 172.992 263.101 175.486C261.586 176.89 259.674 178.261 258.975 180.051C258.048 182.425 255.54 182.812 254.519 185.165C254.295 184.526 254.208 184.275 254.039 183.791C253.258 184.817 251.643 184.945 252.104 186.8C252.219 187.261 251.376 188.01 250.896 188.559C249.209 190.489 247.51 192.411 245.758 194.284C245.423 194.642 244.846 194.852 244.345 194.962C243.234 195.209 242.695 195.941 242.3 197.012C242.611 197.042 242.836 197.065 243.205 197.101C241.751 198.015 240.4 198.862 239.05 199.711C238.986 199.679 238.921 199.646 238.858 199.614C239.106 199.167 239.355 198.721 239.604 198.276C239.57 198.177 239.535 198.079 239.501 197.98C239.15 198.176 238.773 198.336 238.455 198.575C237.653 199.177 237.359 200.362 236.066 200.457C235.698 200.484 235.345 201.161 235.043 201.582C233.479 203.759 231.913 205.934 230.391 208.14C229.841 208.936 229.415 209.819 228.901 210.716C229.345 210.494 229.758 210.287 230.171 210.08C230.239 210.16 230.308 210.241 230.375 210.321C230.103 210.71 229.83 211.099 229.563 211.479C230.734 212.977 230.738 213.12 229.021 213.966C228.454 214.246 228.139 215.46 227.171 214.604C226.888 215.176 226.508 215.721 226.343 216.326C226.086 217.26 226.76 218.536 225.215 218.97C224.975 219.037 224.875 219.602 224.739 219.881C224.25 220.019 223.8 220.145 223.004 220.369C223.605 220.647 223.849 220.76 224.069 220.861C223.326 223.087 222.49 225.212 220.366 226.48C220.756 225.811 221.834 225.164 220.364 224.184C220.298 224.694 220.304 225.18 220.223 225.195C218.794 225.459 219.26 226.446 219.636 227.566C219.896 227.199 220.156 226.82 220.415 226.44ZM241.514 194.047C241.033 194.625 240.551 195.202 240.07 195.78C240.593 195.994 241.146 196.427 241.63 196.359C242.081 196.295 242.501 195.737 242.853 195.326C243.226 194.886 243.503 194.362 243.68 194.091C243.464 193.422 243.301 192.92 243.094 192.277C242.191 192.512 241.488 192.944 241.475 194.082L241.514 194.047ZM54.1013 144.487C55.11 145.431 56.1188 146.374 57.1263 147.317C57.225 147.217 57.3238 147.116 57.4238 147.016C55.9825 145.492 54.5413 143.969 53.1 142.446C52.9925 142.542 52.885 142.64 52.7775 142.736C53.235 143.344 53.6938 143.951 54.1513 144.559C52.7788 143.189 51.3888 141.837 50.0388 140.446C48.2088 138.561 46.4025 136.654 44.6025 134.739C44.245 134.359 43.6288 133.816 43.7125 133.505C43.9575 132.6 43.4313 132.225 42.9213 131.761C42.4863 131.365 42.0575 130.962 41.5763 130.516C41.9025 130.38 42.0813 130.305 42.3388 130.197C41.695 129.58 41.4338 128.339 40.2613 129.462C38.8575 128.204 37.435 126.945 36.04 125.657C35.8725 125.504 35.7463 125.172 35.7838 124.955C35.88 124.407 34.5263 122.786 34.2738 123.091C33.5363 123.98 33.24 123.052 32.9688 122.809C31.6475 121.617 30.43 120.314 29.1275 119.102C27.94 117.999 27.5488 118.13 26.9763 119.846C28.8963 121.695 30.7975 123.672 32.86 125.466C34.5175 126.909 36.31 128.155 37.5113 130.087C38.2263 131.239 39.1725 132.291 40.18 133.206C41.7625 134.644 43.5575 135.847 45.13 137.295C47.3238 139.315 49.4313 141.432 51.5063 143.575C52.945 145.061 54.2238 146.701 55.65 148.199C57.3625 149.997 59.1788 151.699 60.9038 153.486C61.4513 154.054 61.7888 154.824 62.3338 155.395C62.7275 155.807 63.3038 156.046 63.8 156.362C63.7613 156.459 63.7213 156.554 63.6825 156.65C64.0938 156.595 64.505 156.541 65.0863 156.464C64.6588 157.814 65.5713 158.284 66.3388 159.006C69.895 162.355 73.3438 165.817 76.845 169.224C78.3138 170.654 79.8 172.069 81.31 173.454C82.2538 174.319 83.2388 175.142 84.2463 175.932C84.5663 176.184 85.0163 176.269 85.4063 176.429C85.2938 175.929 85.0763 175.667 84.8413 175.424C82.37 172.866 79.89 170.317 77.4263 167.752C75.2925 165.531 73.2475 163.22 71.0325 161.084C69.1763 159.294 67.0838 157.752 65.1825 156.006C62.8688 153.881 60.5925 151.709 58.4038 149.456C56.8775 147.89 55.5288 146.15 54.1013 144.487ZM37.5963 106.31C39.235 107.491 40.8638 108.669 42.4963 109.84C50.2063 115.371 58.0188 120.767 65.5988 126.472C72.765 131.866 79.7313 137.53 86.7038 143.176C93.7775 148.904 100.849 154.642 107.741 160.585C114.495 166.407 121.09 172.419 127.625 178.487C132.545 183.056 137.294 187.812 142.055 192.549C144.786 195.266 147.356 198.146 150.065 200.886C152.495 203.345 155.069 205.662 157.488 208.131C161.819 212.552 166.073 217.05 170.376 221.499C173.869 225.107 177.38 228.696 180.898 232.28C181.92 233.321 182.37 233.247 183.273 232.101C185.781 228.915 188.289 225.727 190.836 222.572C192.344 220.706 194.078 219.007 195.44 217.046C197.333 214.324 199.973 212.285 201.859 209.557C203.251 207.545 204.968 205.751 206.573 203.889C209.59 200.385 212.623 196.894 215.665 193.412C216.345 192.634 217.125 191.942 217.8 191.16C219.659 189.002 221.315 186.637 223.366 184.685C226.731 181.48 229.448 177.611 233.326 174.937C233.396 174.89 233.453 174.819 233.506 174.751C234.191 173.907 234.856 173.046 235.569 172.226C235.87 171.88 236.318 171.661 236.618 171.315C238.2 169.494 239.711 167.607 241.345 165.835C242.031 165.091 242.963 164.571 243.839 163.907C244.363 163.216 244.9 162.352 245.59 161.635C246.323 160.874 247.239 160.292 248.005 159.559C249.965 157.685 251.755 155.606 253.87 153.932C255.151 152.919 256.015 151.335 257.748 150.881C257.969 150.824 258.26 150.57 258.304 150.362C258.683 148.555 260.303 147.824 261.468 146.735C263.648 144.697 265.993 142.834 268.168 140.79C269.474 139.562 270.57 138.116 271.79 136.794C275.601 132.662 279.318 128.435 283.275 124.449C287.771 119.919 292.383 115.487 297.146 111.241C300.351 108.385 303.908 105.92 307.314 103.29C308.049 102.722 308.816 102.196 309.585 101.639C308.18 99.5187 306.876 97.5837 305.606 95.6275C303.576 92.4987 301.535 89.3774 299.564 86.2124C297.625 83.0987 295.81 79.9087 293.864 76.7987C291.598 73.1787 289.281 69.59 286.913 66.0375C286.325 65.1562 285.339 64.5462 284.724 63.6787C282.899 61.1037 281.076 58.5187 279.42 55.835C277.04 51.9787 274.729 48.075 272.545 44.1062C271.486 42.1825 270.73 40.0825 269.941 38.0225C269.468 36.7875 268.825 36.1587 267.388 36.2175C265.574 36.2912 263.746 36.1387 261.93 36.0037C257.746 35.6925 253.571 35.1462 249.384 35.035C241.616 34.8287 233.841 34.935 226.073 34.78C219.26 34.6437 212.453 34.2575 205.641 34.1075C196.028 33.8937 186.411 33.7575 176.796 33.665C172.043 33.6187 167.285 33.7125 162.531 33.8037C159.19 33.8675 155.846 33.9562 152.513 34.175C148.288 34.4525 144.073 34.8925 139.85 35.2275C137.005 35.4537 134.153 35.595 131.308 35.8162C125.835 36.2425 120.36 36.66 114.894 37.1587C112.228 37.4025 109.576 37.8162 106.919 38.1575C103.538 38.5912 100.163 39.0762 96.775 39.4462C94.24 39.7237 91.685 39.8125 89.15 40.0787C88.5588 40.1412 87.8375 40.4362 87.465 40.8712C85.9425 42.65 84.4575 44.4712 83.0975 46.3762C80.9475 49.3887 78.9838 52.535 76.8063 55.5262C74.3675 58.8775 71.7863 62.125 69.2513 65.4062C67.3463 67.8725 65.395 70.3037 63.5 72.7775C58.385 79.4587 53.3113 86.1724 48.1763 92.8387C44.7638 97.2687 41.27 101.639 37.5963 106.31ZM207.328 10.6312C207.326 10.5587 207.325 10.4862 207.324 10.4137C206.625 10.2825 205.924 10.165 205.229 10.015C204.11 9.77246 203.006 9.38621 201.876 9.28121C200.569 9.15871 199.239 9.31246 197.92 9.27871C194.898 9.20121 191.876 9.06496 188.853 8.98746C185.139 8.89246 181.425 8.8012 177.71 8.76995C175.291 8.74995 172.871 8.88871 170.454 8.86246C168.401 8.83996 166.351 8.65996 164.298 8.59371C162.205 8.52621 160.11 8.49871 158.016 8.48496C157.01 8.47871 156 8.49996 154.998 8.58621C152.89 8.76746 150.791 9.05496 148.683 9.19621C146.155 9.36496 143.636 9.1612 141.079 9.4337C136.218 9.9537 131.305 9.99621 126.411 10.2025C123.486 10.3262 120.556 10.4925 117.634 10.4312C116.173 10.4 114.771 10.45 113.315 10.635C110.808 10.9525 108.245 10.8137 105.718 11.0087C103.778 11.1587 101.856 11.5337 99.925 11.8C97.2663 12.1662 94.545 12.1437 92.0113 13.26C91.52 13.4762 90.8525 13.2912 90.1863 13.2912C89.6 13.6887 88.8525 14.195 87.8675 14.8612C88.8075 14.945 89.5875 15.0637 90.3675 15.0725C92.03 15.0925 93.7063 14.9287 95.3538 15.0875C96.4338 15.1912 97.4913 16.1125 98.46 14.85C98.54 14.745 98.7863 14.7425 98.9563 14.735C100.451 14.67 101.946 14.5975 103.443 14.56C104.699 14.5287 105.965 14.6312 107.211 14.51C108.36 14.3987 109.403 14.8625 110.591 14.7587C114.285 14.435 118.005 14.405 121.716 14.2887C124.139 14.2125 126.573 14.3062 128.983 14.1075C132.164 13.845 135.31 13.7275 138.433 14.5375C138.711 14.61 139.194 14.6362 139.31 14.4812C140.084 13.445 141.174 13.885 142.136 13.8112C144.068 13.6637 146.003 13.5212 147.938 13.485C148.718 13.47 149.425 13.8737 150.314 13.5975C151.274 13.2987 152.63 13.0337 153.346 13.4887C154.381 14.1462 154.929 13.7087 155.758 13.3925C156.5 13.1087 157.35 13.025 158.156 13C161.088 12.9125 164.02 12.875 166.951 12.8462C167.845 12.8375 169.029 12.5737 169.569 13.0312C170.49 13.8112 170.676 12.6437 171.338 12.7012C173.043 12.8475 174.779 12.6725 176.5 12.58C179.684 12.41 182.864 12.1812 186.048 12.0262C189.674 11.85 193.361 12.0587 196.909 11.4487C198.814 11.1212 200.136 11.4075 201.394 12.4075C201.726 12.1412 201.923 11.855 202.159 11.8175C202.798 11.715 203.458 11.6537 204.101 11.6937C205.85 11.8025 207.594 12.0737 209.343 12.0975C212.533 12.1412 215.724 12.0337 218.915 12.0262C222.463 12.0175 226.01 12.0637 229.558 12.0487C230.044 12.0462 230.53 11.835 231.016 11.72C230.991 11.605 230.968 11.4887 230.943 11.3737C222.314 10.82 213.695 9.89371 205.02 11.2062C205.018 11.0162 205.015 10.8262 205.011 10.6362C205.786 10.6312 206.556 10.6312 207.328 10.6312ZM282.013 29.265C281.833 29.4225 281.653 29.58 281.473 29.7375C283.726 33.725 287.223 36.8062 289.804 40.5612C292.378 44.305 295.045 48.015 298.013 51.4462C300.981 54.8787 303.101 59.0137 306.939 61.9675C305.788 59.4162 304.145 57.3875 302.563 55.3162C300.991 53.26 299.431 51.1937 297.903 49.1062C296.498 47.1887 295.14 45.2375 293.761 43.3012C293.666 43.3675 293.57 43.4337 293.475 43.5C293.496 43.1287 293.518 42.7575 293.545 42.2987C291.976 42.4037 291.804 41.5162 292.159 40.3337C291.083 40.3462 290.061 39.3012 289.754 38.2C289.594 37.6275 289.219 37.0712 288.818 36.6162C287.4 35.0062 285.935 33.4387 284.479 31.865C283.668 30.99 282.835 30.1312 282.013 29.265ZM205.661 214.455C216.52 202.387 226.829 190.044 237.425 177.929C237.164 177.906 236.953 177.952 236.834 178.082C232.378 182.926 227.923 187.77 223.485 192.63C221.181 195.152 218.871 197.671 216.635 200.254C214.285 202.967 212.06 205.789 209.696 208.489C209.033 209.246 208.054 209.721 207.256 210.371C206.781 210.759 206.188 211.166 205.993 211.692C205.724 212.42 205.783 213.267 205.661 214.455ZM286.781 25.83C286.88 25.7687 286.98 25.7087 287.079 25.6475C284.715 22.0987 282.354 18.5475 279.975 15.0075C279.875 14.86 279.606 14.745 279.42 14.75C278.36 14.7787 277.301 14.8475 275.934 14.92C279.64 18.6462 283.21 22.2375 286.781 25.83ZM133.273 17.1612C137.08 18.1087 140.695 17.6062 144.325 17.065C144.271 15.6162 143.86 14.61 142.648 14.1237C142.464 14.05 142.189 14.1987 141.77 14.2825C142.151 14.495 142.351 14.6075 142.551 14.72C139.279 14.6762 136.416 16.1225 133.273 17.1612ZM299.803 114.845C299.88 114.939 299.958 115.032 300.036 115.126C304.535 111.851 309.034 108.577 313.534 105.302C313.045 105.102 312.539 105.074 312.185 105.294C310.246 106.499 308.245 107.637 306.455 109.041C304.144 110.856 302.011 112.9 299.803 114.845ZM324.544 100.606C323.391 100.129 322.914 100.281 322.665 101.205C322.573 101.55 322.156 101.906 321.801 102.066C320.523 102.64 320.239 101.265 319.586 100.752C319.315 102.589 319.054 104.36 318.793 106.131C318.855 106.194 318.919 106.257 318.981 106.32C320.785 104.467 322.586 102.616 324.544 100.606ZM163.104 5.89746C164.364 5.99871 165.518 6.11746 166.674 6.17371C167.151 6.19621 167.671 6.1712 168.101 5.9962C168.298 5.9162 168.475 5.19496 168.406 5.14996C167.966 4.85996 167.464 4.51496 166.969 4.49496C166.03 4.45746 165.085 4.63871 164.141 4.70621C163.243 4.76996 162.954 5.22996 163.104 5.89746ZM37.9425 115.316C37.9138 114.876 38.0125 114.469 37.8563 114.309C36.8775 113.3 35.8775 112.304 34.8025 111.402C34.5213 111.167 33.9488 111.28 33.51 111.232C33.68 111.64 33.7375 112.186 34.04 112.432C35.195 113.369 36.4275 114.21 37.9425 115.316ZM277.946 24.915C276.983 23.2637 276.473 21.6262 274.735 20.7925C274.591 22.65 275.644 24.0137 277.946 24.915ZM173.1 5.42371C169.874 4.62496 169.169 4.71496 168.794 5.99246C170.336 6.68246 171.765 6.32371 173.1 5.42371ZM278.748 22.3175C278.643 22.4112 278.538 22.505 278.431 22.5987C279.536 23.8262 280.641 25.0537 281.748 26.28C281.903 26.1362 282.058 25.9937 282.214 25.85C281.059 24.6725 279.903 23.495 278.748 22.3175ZM285.656 31.1437C285.769 31.0475 285.88 30.95 285.993 30.8537C284.91 29.4587 283.826 28.065 282.744 26.67C282.608 26.775 282.47 26.88 282.334 26.9862C283.441 28.3712 284.549 29.7575 285.656 31.1437ZM152.561 226.021C152.71 225.87 152.859 225.719 153.009 225.567C152.005 224.569 151.003 223.571 149.999 222.572C149.888 222.681 149.776 222.79 149.665 222.897C150.631 223.94 151.596 224.981 152.561 226.021ZM155.076 228.725C155.174 228.631 155.271 228.539 155.368 228.445C155.129 227.464 154.569 226.824 153.384 226.834C153.949 227.464 154.513 228.094 155.076 228.725ZM256.981 179.675C256.516 179.372 256.231 179.045 255.95 179.05C255.739 179.054 255.535 179.482 255.328 179.721C255.618 179.91 255.888 180.179 256.204 180.254C256.36 180.291 256.6 179.972 256.981 179.675ZM226.185 213.825C226.29 213.905 226.395 213.986 226.5 214.066C227.146 213.33 227.793 212.595 228.438 211.859C228.321 211.762 228.204 211.665 228.088 211.569C227.454 212.321 226.82 213.072 226.185 213.825Z" fill="#FF1180"/>
<path d="M298.566 139.911C298.63 139.016 300.414 136.58 301.213 136.367C301.409 136.315 301.665 136.541 301.89 136.534C302.121 136.527 302.424 136.455 302.558 136.295C302.679 136.15 302.645 135.846 302.626 135.617C302.606 135.375 302.42 134.967 302.485 134.929C302.744 134.774 303.155 134.571 303.361 134.676C304.663 135.34 304.425 134.435 304.52 133.681C304.591 133.109 304.769 132.461 305.123 132.03C306.029 130.929 307.018 129.886 308.063 128.915C308.44 128.564 309.071 128.487 309.564 128.295C309.414 129.402 309.275 130.422 309.136 131.442C309.248 131.517 309.36 131.592 309.471 131.666C310.218 130.936 310.963 130.206 311.968 129.224C311.55 129.022 311.116 128.814 310.708 128.617C311.048 128.324 311.561 127.841 312.116 127.416C312.439 127.17 312.83 127.012 313.19 126.815C313.285 127.184 313.381 127.554 313.504 128.029C313.811 127.689 314.085 127.384 314.381 127.055C314.82 127.337 315.235 127.604 315.703 127.904C315.421 128.252 315.014 128.59 314.828 129.022C314.336 130.166 313.798 131.05 312.304 130.474C312.128 130.405 311.473 130.93 311.505 131.06C311.985 132.947 310.216 133.444 309.426 134.535C309.13 134.944 308.854 135.365 308.563 135.776C308.366 136.054 308.2 136.509 307.948 136.565C306.846 136.812 306.689 137.79 306.159 138.522C305.658 139.215 304.813 139.655 304.138 140.227C303.45 140.811 302.968 141.659 301.75 141.302C301.425 141.207 300.779 142.005 300.37 142.472C300.071 142.814 299.923 143.286 299.676 143.759C299.92 143.759 300.148 143.759 300.655 143.759C299.288 145.041 298.079 146.174 296.87 147.306C296.824 147.264 296.776 147.221 296.73 147.179C297.28 146.524 297.829 145.87 298.379 145.215C298.293 145.091 298.208 144.967 298.121 144.845C297.413 145.224 296.725 145.655 295.986 145.965C295.39 146.216 294.731 146.321 294.1 146.491C294.025 146.395 293.951 146.299 293.876 146.204C294.279 145.69 294.68 145.176 295.246 144.454C294.733 144.509 294.461 144.592 294.213 144.547C293.985 144.507 293.661 144.37 293.604 144.2C293.549 144.037 293.724 143.672 293.896 143.576C294.971 142.977 295.765 142.21 296.385 141.08C296.726 140.459 297.835 140.261 298.598 139.871C298.196 140.465 298.331 140.929 299.051 140.931C299.465 140.932 300.074 140.684 300.25 140.36C300.511 139.877 300.469 139.229 300.55 138.684C299.923 139.076 299.245 139.494 298.566 139.911Z" fill="#FF1180"/>
<path d="M287.85 152.645C287.159 153.719 286.574 154.886 285.74 155.835C285.121 156.539 284.179 156.96 283.184 157.642C283.218 158.077 283.276 158.844 283.321 159.437C282.346 159.911 281.374 160.384 280.401 160.856C280.459 161 280.516 161.144 280.575 161.287C280.86 161.232 281.145 161.177 281.494 161.111C280.759 163.014 280.081 164.812 277.576 164.96C276.405 165.029 275.541 166.491 275.768 167.641C275.503 167.71 275.234 167.779 274.958 167.85C275.12 168.031 275.265 168.192 275.253 168.179C274.641 168.607 273.938 168.872 273.638 169.377C273.353 169.856 272.261 170.541 273.52 171.102C272.461 171.809 271.445 172.487 270.428 173.167C270.484 173.285 270.539 173.402 270.595 173.521C270.863 173.584 271.129 173.646 271.483 173.73C270.674 174.494 271.261 174.76 271.994 175.01C271.818 175.231 271.715 175.497 271.56 175.532C268.948 176.117 267.955 178.606 266.276 180.226C265.255 181.212 265.17 180.782 264.536 179.734C263.928 180.777 263.456 181.707 262.861 182.551C262.608 182.911 262.098 183.089 261.545 183.147C263.389 180.625 264.929 177.905 267.534 176.11C267.979 177.467 268.695 176.011 269.143 176.344C269.416 175.61 269.65 174.985 269.918 174.267C269.046 174.946 268.273 175.547 267.5 176.149C268.534 174.842 269.553 173.525 270.606 172.236C271.395 171.272 272.229 170.347 273.044 169.406C272.925 169.292 272.805 169.177 272.686 169.064C272.211 169.374 271.736 169.684 271.261 169.994C271.186 169.912 271.113 169.83 271.038 169.749C273.536 167.311 276.035 164.875 278.454 162.516C278.096 161.836 277.846 161.359 277.71 161.1C278.489 160.38 279.175 159.745 279.96 159.019C279.19 158.497 278.804 158.236 278.378 157.947C280.013 156.46 281.536 155.075 282.956 153.784C283.241 154.067 283.534 154.359 283.826 154.651C283.981 154.042 284.136 153.435 284.288 152.844C284.335 152.875 284.621 153.085 284.921 153.271C285.626 153.709 286.284 154.026 286.878 153.045C287.02 152.81 287.541 152.802 287.888 152.691L287.85 152.645Z" fill="#FF1180"/>
<path d="M287.889 152.685C287.293 152.501 286.698 152.319 285.886 152.069C286.883 150.57 287.901 148.871 289.113 147.324C289.435 146.911 290.349 146.962 291.173 146.754C291.123 147.421 291.099 147.74 291.085 147.92C292.004 147.686 292.919 147.455 293.834 147.222C293.876 147.295 293.918 147.367 293.96 147.44C293.013 148.229 292.065 149.017 290.989 149.914C291.489 150.221 291.768 150.394 292.161 150.635C291.911 151.39 291.838 152.354 291.329 152.939C290.826 153.515 289.883 153.707 289.414 153.932C288.756 153.39 288.303 153.016 287.85 152.644C287.85 152.645 287.889 152.685 287.889 152.685Z" fill="#FF1180"/>
<path d="M354.03 85.861C353.943 86.2373 353.838 86.6885 353.73 87.146C352.156 86.666 351.954 86.8998 352.046 88.4298C352.073 88.871 351.609 89.536 351.189 89.7648C350.536 90.121 349.728 90.191 348.985 90.3823C348.881 90.2785 348.778 90.1748 348.674 90.071C349.149 89.5073 349.631 88.951 350.095 88.3785C350.328 88.091 350.533 87.781 350.719 87.4623C350.733 87.4385 350.414 87.151 350.374 87.1773C350.106 87.351 349.87 87.5723 349.63 87.7848C349.266 88.106 348.908 88.4335 348.275 89.001C349.848 85.4835 353.239 84.1998 355.408 81.306C356.039 81.8048 356.91 82.286 357.434 83.0173C357.633 83.2948 357.026 84.1473 356.695 84.9685C356.22 84.3548 355.978 84.0398 355.839 83.8598C355.034 84.0935 354.368 84.286 353.701 84.4798C353.674 84.5898 353.648 84.6998 353.62 84.8098C354.356 84.951 355.093 85.0923 355.829 85.2335C355.845 85.3473 355.861 85.4623 355.878 85.576C355.296 85.666 354.716 85.7548 354.03 85.861Z" fill="#FF1180"/>
<path d="M244.611 206.203C244.225 205.729 243.991 205.441 243.729 205.119C242.96 205.692 242.22 206.245 241.48 206.797C241.37 206.677 241.26 206.559 241.15 206.439C242.585 203.955 245.526 202.885 246.991 200.161C247.296 200.73 247.425 200.97 247.584 201.267C247.946 201.114 248.291 200.966 248.81 200.746C248.534 200.289 248.293 199.889 247.995 199.396C248.155 199.227 248.4 198.968 248.655 198.698C248.963 199.283 249.218 199.767 249.6 200.494C248.115 202.191 246.424 204.128 244.611 206.203Z" fill="#FF1180"/>
<path d="M18.31 121.999C16.37 122.474 15.7963 121.195 15.165 120.402C13.5188 118.335 12.0913 116.094 10.5763 113.921C10.7013 113.836 10.8263 113.75 10.95 113.665C13.3563 116.39 15.7625 119.115 18.31 121.999Z" fill="#FF1180"/>
<path d="M33.85 140.891C33.1813 140.416 32.445 140.011 31.8588 139.45C30.6913 138.332 29.555 137.172 28.5 135.949C27.44 134.719 26.495 133.39 25.4988 132.105C25.61 132.019 25.7213 131.934 25.8325 131.847C28.6313 134.7 31.4313 137.552 34.23 140.404C34.1038 140.567 33.9763 140.73 33.85 140.891Z" fill="#FF1180"/>
<path d="M49.8225 25.1212C51.2425 24.2987 52.325 24.3437 53.5625 25.4299C51.225 25.7787 49.045 26.1562 46.85 26.3937C46.355 26.4474 45.8063 26.0212 45.15 25.7649C46.6813 24.6049 48.72 24.3912 49.8225 25.1212Z" fill="#FF1180"/>
<path d="M322.95 120.63C322.672 121.009 322.491 121.281 322.285 121.532C321.811 122.11 321.377 122.741 320.814 123.216C320.609 123.389 320.081 123.177 319.7 123.142C319.729 123.005 319.757 122.866 319.786 122.729C320.04 122.826 320.292 122.925 320.984 123.192C319.996 121.721 319.619 120.556 321.265 119.75C322.456 119.165 322.504 120.419 322.95 120.63Z" fill="#FF1180"/>
<path d="M38.7662 144.434C40.8337 145.747 42.9687 146.98 44.45 148.995C44.3125 149.162 44.1737 149.33 44.0362 149.497C42.165 147.961 40.2937 146.424 38.4225 144.887C38.5375 144.736 38.6512 144.585 38.7662 144.434Z" fill="#FF1180"/>
<path d="M50.8225 37.4562C49.33 38.7287 47.8375 40.0012 46.3437 41.2737C46.2362 41.1549 46.13 41.0374 46.0225 40.9187C47.15 39.2462 48.6612 37.9912 50.4125 36.9924C50.5487 37.1474 50.685 37.3024 50.8225 37.4562Z" fill="#FF1180"/>
<path d="M237.672 215.154C237.172 215.316 236.646 215.426 236.181 215.659C235.782 215.857 235.394 216.145 235.106 216.484C234.084 217.685 233.811 217.721 232.444 216.571C233.679 216.561 234.811 216.535 235.145 215.052C235.2 214.809 235.899 214.62 236.317 214.575C236.711 214.532 237.129 214.714 237.536 214.796C237.581 214.916 237.627 215.035 237.672 215.154Z" fill="#FF1180"/>
<path d="M343.208 97.406C342.856 97.9398 342.43 98.681 341.904 99.3435C341.698 99.6023 341.268 99.681 340.939 99.8423C340.876 99.4648 340.66 99.0298 340.776 98.7185C341.364 97.1385 341.799 96.996 343.208 97.406Z" fill="#FF1180"/>
<path d="M82.27 22.7725C81.0062 23.1525 79.975 23.4612 78.7537 23.8287C78.6487 23.7375 78.3437 23.47 77.9225 23.1C78.7362 22.425 79.31 21.4262 80.5887 22.4275C80.9362 22.7012 81.5487 22.6387 82.27 22.7725Z" fill="#FF1180"/>
<path d="M238.005 211.702C237.135 210.52 238.184 209.759 239.031 208.884C239.031 209.509 238.885 210.132 239.084 210.614C239.21 210.92 239.847 211.016 240.255 211.206C240.206 211.302 240.157 211.399 240.109 211.495C239.456 211.559 238.804 211.624 238.005 211.702Z" fill="#FF1180"/>
<path d="M260.294 184.905C260.583 184.55 261.058 183.855 261.13 183.895C261.7 184.209 262.264 184.607 262.654 185.116C262.736 185.224 262.094 185.886 261.785 186.294C261.646 186.205 261.509 186.116 261.37 186.027C261.528 185.536 261.685 185.044 261.963 184.179C261.323 184.674 261.008 184.917 260.693 185.16C260.559 185.075 260.426 184.99 260.294 184.905Z" fill="#FF1180"/>
<path d="M23.1401 129.342C23.9688 129.789 24.7951 130.232 25.6201 130.677C25.4688 130.891 25.3176 131.105 25.1663 131.319C24.8051 131.319 24.3063 131.47 24.1101 131.29C23.5088 130.737 22.7438 130.165 23.1401 129.342Z" fill="#FF1180"/>
<path d="M236.376 212.064C236.189 212.674 236.003 213.284 235.798 213.953C235.221 214.391 234.538 214.914 233.853 215.435C233.75 215.35 233.649 215.265 233.546 215.18C234.435 214.102 235.324 213.025 236.213 211.948C236.269 211.986 236.323 212.025 236.376 212.064Z" fill="#FF1180"/>
<path d="M264.756 175.464C265.964 174.449 267.171 173.432 268.379 172.417C268.306 172.347 268.235 172.277 268.163 172.207C267.143 173.411 266.123 174.616 265.103 175.82C264.988 175.7 264.871 175.581 264.756 175.464Z" fill="#FF1180"/>
<path d="M186.989 272.312C187.705 271.321 188.338 270.445 188.97 269.568C189.018 269.593 189.065 269.619 189.113 269.644C188.82 270.479 188.601 271.351 188.19 272.122C188.075 272.34 187.396 272.259 186.989 272.312Z" fill="#656565"/>
<path d="M258.677 190.006C258.13 190.619 257.581 191.23 256.946 191.94C256.251 190.057 257.819 190.345 258.677 190.006Z" fill="#FF1180"/>
<path d="M67.27 23.3424C67.1612 24.6924 66.4225 24.4537 65.8237 24.3637C65.685 24.3424 65.5925 24.0037 65.48 23.8112C66.0375 23.6637 66.5962 23.5174 67.27 23.3424Z" fill="#FF1180"/>
<path d="M45.4562 46.465C44.485 46.5137 43.5425 46.445 43.7412 44.9062C44.3887 45.4937 44.9225 45.98 45.4562 46.465Z" fill="#FF1180"/>
<path d="M100.622 20.755C99.6012 20.9487 98.58 21.1437 97.5587 21.3375C97.5375 21.2312 97.5162 21.125 97.495 21.0187C98.4975 20.7562 99.5012 20.4925 100.504 20.23C100.542 20.405 100.582 20.58 100.622 20.755Z" fill="#FF1180"/>
<path d="M20.3601 126.055C19.8363 125.304 19.3126 124.552 18.7888 123.801C18.9101 123.712 19.0301 123.622 19.1513 123.534C19.6713 124.274 20.1913 125.015 20.7126 125.755C20.5951 125.855 20.4776 125.955 20.3601 126.055Z" fill="#FF1180"/>
<path d="M193.361 257.784C192.93 258.474 192.499 259.163 192.066 259.853C191.964 259.789 191.861 259.726 191.759 259.663C192.158 258.963 192.555 258.262 192.954 257.562C193.089 257.636 193.225 257.71 193.361 257.784Z" fill="#656565"/>
<path d="M347.461 91.6085C347.754 92.1723 348.046 92.736 348.339 93.2998C348.169 93.3798 348 93.4598 347.83 93.5398C347.586 92.951 347.341 92.3635 347.098 91.7748C347.22 91.721 347.341 91.6648 347.461 91.6085Z" fill="#FF1180"/>
<path d="M182.292 154.205C181.907 155.061 182.715 156.234 181.582 156.89C181.181 157.123 180.772 157.343 180.235 157.643C180.807 157.774 181.256 157.878 181.752 157.991C181.1 158.343 180.575 158.689 180.001 158.914C179.625 159.061 179.157 159.148 178.771 159.068C176.786 158.659 176.041 158.95 174.952 160.743C174.649 160.536 174.349 160.333 174.055 160.133C172.901 161.179 171.995 161.203 170.887 160.23C167.857 157.57 164.872 154.856 161.791 152.258C159.175 150.051 156.421 148.009 153.781 145.831C151.577 144.013 149.45 142.101 147.195 140.149C146.481 141.199 145.759 142.245 145.052 143.3C144.049 144.8 143.071 146.318 142.052 147.808C140.477 150.109 138.787 152.338 137.304 154.696C134.777 158.713 131.82 162.334 128.181 165.388C128.147 165.415 128.12 165.456 128.081 165.47C127.249 165.755 126.347 166.381 125.597 166.235C124.604 166.041 124.81 164.798 125.041 164.135C125.522 162.755 124.724 162.256 123.807 161.7C123.382 161.441 122.982 161.143 122.566 160.858C122.355 161.288 122.232 161.849 122.036 161.875C121.534 161.944 120.969 160.434 121.199 159.616C120.942 159.538 120.684 159.458 120.215 159.314C121.312 157.766 122.02 156.071 123.806 155.211C124.882 154.693 126.045 154.206 126.896 153.414C127.751 152.619 128.27 151.46 129.015 150.343C128.46 150.248 128.105 150.188 127.452 150.076C128.31 148.611 129.027 147.261 129.869 145.994C130.426 145.155 130.891 144.506 130.549 143.321C130.279 142.39 130.747 141.245 130.88 140.253C130.792 140.333 130.557 140.545 130.322 140.758C130.236 140.693 130.15 140.629 130.064 140.564C131.247 139.014 132.421 137.456 133.619 135.918C134.654 134.588 135.679 133.245 136.785 131.975C137.439 131.225 137.215 130.765 136.631 130.11C132.185 125.126 127.712 120.164 123.399 115.068C122.079 113.509 121.272 111.524 120.151 109.786C119.387 108.603 118.54 107.461 117.63 106.385C114.87 103.12 111.952 99.98 109.329 96.61C108.391 95.4063 107.862 93.7238 107.62 92.185C107.394 90.7488 107.957 89.3325 108.889 88.0325C109.931 86.5775 111.44 86.7725 113.052 86.2038C112.589 85.6288 112.11 85.0375 111.632 84.4463C111.481 84.4725 111.331 84.4975 111.18 84.5238C111.064 85.0088 110.947 85.4938 110.771 86.23C110.46 85.7313 109.957 85.2588 109.945 84.7738C109.937 84.5038 110.752 83.9675 111.182 83.9825C111.992 84.01 113.122 83.795 113.159 85.165C113.554 85.1188 113.967 84.935 114.167 85.0688C116.426 86.5875 118.616 88.2088 120.901 89.6863C122.041 90.4225 123.421 90.7925 124.541 91.5513C126.285 92.7325 127.901 94.1038 129.611 95.4275C130.41 94.6213 131.3 94.7825 132.295 95.425C132.812 95.7588 133.494 95.8475 134.109 96.0175C134.465 96.1163 134.896 96.0575 135.192 96.2375C136.75 97.1788 138.25 98.2175 139.819 99.1388C141.626 100.2 143.529 101.106 145.305 102.215C146.307 102.84 147.192 103.685 148.03 104.53C148.545 105.049 148.671 105.099 149.177 104.463C149.896 103.56 151.042 102.986 151.72 102.063C153.435 99.7213 154.977 97.2538 156.614 94.8538C157.244 93.9288 158.026 93.1 158.592 92.14C160.895 88.2338 163.14 84.2938 165.491 80.2188C165.771 80.5838 166.034 80.9275 166.394 81.3988C166.707 80.7025 167.027 79.99 167.412 79.135C167.582 79.6625 167.766 80.235 167.964 80.8488C168.941 81.4188 170.124 81.97 171.119 82.7588C171.53 83.085 171.742 83.9413 171.68 84.5163C171.594 85.31 171.151 86.0625 170.88 86.8388C170.511 87.8925 170.809 87.9288 171.819 88.1963C174.122 88.8075 173.86 86.55 174.799 85.6988C175.504 85.06 175.772 83.9463 176.271 83.065C176.4 82.8363 176.662 82.6838 176.864 82.4963C176.994 82.7163 177.19 82.9213 177.241 83.1588C177.447 84.0975 178.009 84.4088 178.885 84.1463C179.104 84.5713 179.295 84.9438 179.537 85.4125C179.304 85.465 179.115 85.55 178.931 85.5413C178.019 85.4975 177.325 85.6588 176.899 86.6613C176.615 87.3288 175.947 87.8325 175.379 88.4938C175.816 89.5763 175.534 90.2575 174.429 90.7238C174.36 91.3113 174.244 91.7975 174.265 92.2788C174.284 92.7075 174.324 93.2938 174.595 93.51C174.87 93.73 175.439 93.5875 175.879 93.595C176.23 93.6013 176.582 93.5963 176.916 93.5963C174.379 98.17 171.964 102.61 169.46 107C168.05 109.473 166.514 111.874 164.99 114.279C164.482 115.08 163.879 115.83 163.245 116.538C162.6 117.256 162.602 117.868 163.267 118.555C165.542 120.909 167.589 123.455 170.325 125.385C172.901 127.203 174.234 129.924 174.212 133.156C174.209 133.649 173.935 134.235 173.6 134.611C172.811 135.496 171.91 136.28 170.98 137.178C172.48 139.576 175.33 140.218 177.26 142.474C176.567 142.185 176.2 142.031 175.857 141.889C176.107 142.43 176.361 142.976 176.667 143.64C176.724 143.625 177.001 143.554 177.291 143.479C177.469 143.774 177.584 144.244 177.829 144.326C179.405 144.855 179.959 146.138 180.501 147.531C180.692 148.024 181.28 148.421 181.771 148.726C182.924 149.444 182.279 150.508 182.385 151.426C182.484 152.283 182.579 153.139 182.691 154.128C182.714 154.123 182.486 154.178 182.261 154.231C182.384 153.006 181.66 152.565 180.744 152.301C180.616 152.444 180.487 152.585 180.36 152.728C181.004 153.221 181.647 153.713 182.292 154.205Z" fill="#FF1180"/>
<path d="M249.629 145.887C248.891 145.829 248.691 145.812 248.12 145.767C248.743 146.742 249.191 147.552 249.746 148.281C250.341 149.062 250.124 149.386 249.28 149.454C249.28 149.926 249.44 150.467 249.244 150.792C248.934 151.302 248.405 151.385 248.014 150.741C247.684 150.199 247.348 149.69 246.573 150.136C246.448 150.207 246.128 150.092 245.99 149.964C244.104 148.214 241.964 146.647 240.439 144.621C239.066 142.797 237.159 141.722 235.658 140.141C235.459 139.931 235.343 139.645 235.159 139.417C235.029 139.256 234.825 138.994 234.698 139.016C232.095 139.489 231.75 137.08 231.308 135.754C230.536 133.437 228.971 131.931 227.456 130.27C227.021 129.794 226.668 129.242 226.411 128.904C225.78 128.791 225.301 128.706 224.613 128.584C224.994 128.107 225.188 127.865 225.413 127.584C225.026 127.284 224.696 127.026 224.619 126.966C222.718 127.952 221.845 125.974 220.075 126.032C219.636 126.715 218.936 127.674 218.371 128.706C216.028 132.992 213.769 137.327 211.389 141.594C210.01 144.066 208.519 146.482 206.944 148.834C206.584 149.371 205.693 149.605 205.001 149.851C204.375 150.074 203.686 150.122 202.808 150.289C202.574 150.289 202.085 150.289 201.511 150.289C200.49 148.192 200.304 146.009 201.96 143.82C202.361 143.29 202.221 142.35 202.33 141.594C202.173 141.516 201.983 141.394 201.963 141.417C200.72 142.852 198.528 143.021 197.528 144.811C197.031 145.7 195.703 145.747 194.91 145.057C194.759 144.926 194.544 144.807 194.351 144.794C192.62 144.675 191.97 143.82 192.296 142.155C192.418 141.534 192.295 140.859 192.458 140.254C192.715 139.295 193.211 138.467 194.223 138.055C194.518 137.934 194.783 137.656 194.979 137.389C195.974 136.032 196.964 134.67 197.913 133.281C198.561 132.33 198.12 131.409 196.726 131.359C197.799 130.702 197.94 129.379 199.253 129.31C199.228 128.935 199.203 128.561 199.179 128.186C199.029 128.139 198.879 128.092 198.729 128.045C201.619 123.609 204.5 119.166 207.4 114.737C209.01 112.277 209.014 112.297 206.866 110.152C205.529 108.817 204.971 107.056 204.254 105.362C203.301 103.111 202.271 100.879 201.058 98.7612C200.544 97.8637 199.438 97.3224 198.68 96.5424C198.038 95.8812 197.481 95.1299 196.943 94.3774C196.555 93.8349 196.166 93.2587 195.953 92.6374C195.776 92.1287 195.858 91.5312 195.824 90.9724C195.014 90.2574 193.409 90.3662 193.296 88.5424C193.266 88.0437 192.18 87.6862 191.801 87.1162C191.181 86.1824 190.724 85.1374 190.235 84.1212C189.935 83.4987 189.705 82.8424 189.42 82.1424C190.008 82.0237 190.57 81.9087 191.136 81.7937C191.32 80.3412 188.879 80.2399 189.616 78.3062C189.961 78.7887 190.206 79.0949 190.41 79.4262C190.804 80.0674 191.178 80.4337 192.103 80.5162C192.92 80.5899 194.138 80.5099 194.583 81.9149C194.885 82.8712 195.811 83.6437 196.5 84.4624C197.113 85.1899 197.841 85.5724 198.734 84.8349C198.908 85.4812 199.06 86.0487 199.213 86.6174C199.389 86.6174 199.566 86.6174 199.743 86.6174C198.939 85.3749 199.366 84.7387 200.528 84.4112C200.644 84.3787 200.628 83.9899 200.743 83.8112C201.074 83.2937 201.441 82.7987 201.768 82.3337C201.614 81.8199 201.405 81.1199 201.224 80.5162C201.976 80.2537 202.543 80.0574 203.108 79.8612C203.101 79.7087 203.096 79.5562 203.09 79.4037C204.45 79.8262 205.854 80.1449 207.158 80.6974C208.495 81.2649 209.216 82.4612 209.806 83.8862C209.978 83.8724 210.334 83.8437 210.96 83.7937C210.671 84.3199 210.491 84.6499 210.239 85.1112C211.555 85.5949 211.264 87.7687 212.76 87.7737C214.455 89.7412 216.016 91.5512 217.604 93.3949C218.21 93.0149 219.103 93.6012 219.538 94.4537C219.87 95.1037 219.036 96.2737 220.493 96.4537C221.936 96.6324 222.67 96.4962 223.008 94.9324C223.22 93.9499 223.854 93.1049 224.334 92.9087C225.839 92.2912 225.874 90.7174 226.82 89.7699C227.753 88.8362 228.354 87.5787 229.17 86.5162C229.743 85.7712 230.329 84.9562 231.543 85.4174C231.771 85.5049 232.185 85.1562 232.493 84.9724C232.9 84.7299 233.286 84.4512 233.908 84.4074C233.691 85.0612 233.475 85.7149 233.259 86.3687C233.368 86.4374 233.476 86.5062 233.585 86.5749C235.048 85.4799 236.398 84.1574 238.006 83.3574C239.434 82.6474 240.843 81.5687 242.715 81.9774C243.92 82.2399 245.229 82.2012 246.136 81.0524C246.901 80.0837 247.895 80.7549 248.78 80.7274C248.87 80.7249 249.155 81.4774 249.048 81.7687C248.77 82.5237 248.256 83.1912 247.961 83.9412C247.564 84.9512 247.283 86.0074 246.951 87.0437C247.08 87.1124 247.208 87.1799 247.336 87.2487C247.645 87.0937 247.953 86.9374 248.261 86.7824C248.344 86.8449 248.426 86.9074 248.51 86.9699C248.084 87.7274 247.655 88.4824 247.23 89.2412C246.749 90.1024 246.166 90.9249 245.811 91.8362C244.288 95.7499 241.979 99.1724 239.37 102.42C237.394 104.881 235.425 107.347 233.471 109.827C233.05 110.362 232.959 110.792 233.526 111.485C234.729 112.952 235.663 114.637 236.776 116.182C237.861 117.686 239.055 119.11 240.163 120.599C241.849 122.865 243.511 125.147 245.149 127.45C245.316 127.685 245.29 128.104 245.255 128.426C245.153 129.38 244.973 130.326 244.885 131.281C244.863 131.529 245.01 131.85 245.183 132.047C245.885 132.854 246.364 133.599 245.39 134.587C245.118 134.865 244.986 135.544 245.121 135.919C245.841 137.91 246.005 140.084 247.564 141.807C248.478 142.817 248.859 144.306 249.629 145.887ZM237.629 141.579C237.829 141.614 238.029 141.649 238.229 141.685C238.4 141.187 238.571 140.689 238.741 140.191C238.4 140.174 237.778 140.086 237.763 140.149C237.651 140.609 237.659 141.099 237.629 141.579Z" fill="#FF1180"/>
<path d="M173.17 84.8712C173.993 83.7875 174.815 82.705 175.638 81.6212C175.763 81.72 175.886 81.82 176.011 81.9187C175.186 83.015 174.363 84.11 173.538 85.2062C173.415 85.095 173.293 84.9825 173.17 84.8712Z" fill="#FF1180"/>
<path d="M191.367 77.6649C191.555 78.2624 191.744 78.8599 191.931 79.4587C191.104 79.0837 190.271 78.7199 191.367 77.6649Z" fill="#FF1180"/>
</svg>
