<svg width="1440" height="80" viewBox="0 0 1440 80" fill="none" xmlns="http://www.w3.org/2000/svg">
<g opacity="0.2" clip-path="url(#clip0_2_848)">
<rect width="35.427" height="376.453" transform="matrix(-0.98155 0.191208 0.345822 0.9383 1384.8 -140)" fill="#3AFE14"/>
<rect width="35.427" height="376.453" transform="matrix(-0.98155 0.191208 0.345822 0.9383 1289.84 -140)" fill="#3AFE14"/>
<rect width="35.427" height="376.453" transform="matrix(-0.98155 0.191208 0.345822 0.9383 1194.88 -140)" fill="#3AFE14"/>
<rect width="35.427" height="376.453" transform="matrix(-0.98155 0.191208 0.345822 0.9383 1099.92 -140)" fill="#3AFE14"/>
<rect width="35.427" height="376.453" transform="matrix(-0.98155 0.191208 0.345822 0.9383 1004.96 -140)" fill="#3AFE14"/>
<rect width="35.427" height="376.453" transform="matrix(-0.98155 0.191208 0.345822 0.9383 910 -140)" fill="#3AFE14"/>
<rect width="35.427" height="376.453" transform="matrix(-0.98155 0.191208 0.345822 0.9383 815.041 -140)" fill="#3AFE14"/>
<rect width="35.427" height="376.453" transform="matrix(-0.98155 0.191208 0.345822 0.9383 720.081 -140)" fill="#3AFE14"/>
<rect width="35.427" height="376.453" transform="matrix(-0.98155 0.191208 0.345822 0.9383 625.122 -140)" fill="#3AFE14"/>
<rect width="35.427" height="376.453" transform="matrix(-0.98155 0.191208 0.345822 0.9383 530.162 -140)" fill="#3AFE14"/>
<rect width="35.427" height="376.453" transform="matrix(-0.98155 0.191208 0.345822 0.9383 435.203 -140)" fill="#3AFE14"/>
<rect width="35.427" height="376.453" transform="matrix(-0.98155 0.191208 0.345822 0.9383 340.244 -140)" fill="#3AFE14"/>
<rect width="35.427" height="376.453" transform="matrix(-0.98155 0.191208 0.345822 0.9383 245.284 -140)" fill="#3AFE14"/>
<rect width="35.427" height="376.453" transform="matrix(-0.98155 0.191208 0.345822 0.9383 150.325 -140)" fill="#3AFE14"/>
<rect width="35.427" height="376.453" transform="matrix(-0.98155 0.191208 0.345822 0.9383 55.366 -140)" fill="#3AFE14"/>
<rect width="35.427" height="376.453" transform="matrix(-0.98155 0.191208 0.345822 0.9383 -39.5933 -140)" fill="#3AFE14"/>
</g>
<defs>
<clipPath id="clip0_2_848">
<rect width="3298.62" height="80" fill="white" transform="matrix(-1 0 0 1 2369.62 0)"/>
</clipPath>
</defs>
</svg>
