<svg width="32" height="32" viewBox="0 0 32 32" fill="none" xmlns="http://www.w3.org/2000/svg">
<path d="M27.076 5.99455C25.0493 5.06479 22.855 4.38997 20.5692 4.00007C20.5492 3.99944 20.5292 4.00314 20.5108 4.01091C20.4924 4.01869 20.4759 4.03034 20.4625 4.04506C20.1882 4.53993 19.8682 5.18476 19.6549 5.67963C17.2304 5.31972 14.7648 5.31972 12.3404 5.67963C12.1271 5.16976 11.8071 4.53993 11.5175 4.04506C11.5023 4.01507 11.4566 4.00007 11.4108 4.00007C9.12507 4.38997 6.94596 5.06479 4.904 5.99455C4.88876 5.99455 4.87353 6.00954 4.85829 6.02454C0.713413 12.1279 -0.429476 18.0664 0.134349 23.9448C0.134349 23.9748 0.149587 24.0048 0.180064 24.0198C2.923 25.9993 5.55926 27.199 8.16505 27.9938C8.21076 28.0088 8.25648 27.9938 8.27171 27.9638C8.88126 27.139 9.42984 26.2692 9.90224 25.3545C9.93271 25.2945 9.90224 25.2345 9.84128 25.2195C8.97269 24.8896 8.14981 24.4997 7.34217 24.0498C7.28121 24.0198 7.28121 23.9299 7.32693 23.8849C7.49455 23.7649 7.66217 23.6299 7.8298 23.51C7.86027 23.48 7.90599 23.48 7.93647 23.495C13.1785 25.8493 18.832 25.8493 24.0131 23.495C24.0436 23.48 24.0893 23.48 24.1198 23.51C24.2874 23.6449 24.455 23.7649 24.6226 23.8999C24.6836 23.9448 24.6836 24.0348 24.6074 24.0648C23.815 24.5297 22.9769 24.9046 22.1083 25.2345C22.0473 25.2495 22.0321 25.3245 22.0473 25.3695C22.535 26.2842 23.0836 27.154 23.6779 27.9788C23.7236 27.9938 23.7693 28.0088 23.815 27.9938C26.436 27.199 29.0723 25.9993 31.8152 24.0198C31.8457 24.0048 31.8609 23.9748 31.8609 23.9448C32.5314 17.1516 30.7485 11.2582 27.137 6.02454C27.1218 6.00954 27.1065 5.99455 27.076 5.99455ZM10.6946 20.3608C9.12507 20.3608 7.81456 18.9362 7.81456 17.1816C7.81456 15.4271 9.09459 14.0024 10.6946 14.0024C12.3099 14.0024 13.59 15.4421 13.5747 17.1816C13.5747 18.9362 12.2947 20.3608 10.6946 20.3608ZM21.3159 20.3608C19.7463 20.3608 18.4358 18.9362 18.4358 17.1816C18.4358 15.4271 19.7158 14.0024 21.3159 14.0024C22.9312 14.0024 24.2112 15.4421 24.196 17.1816C24.196 18.9362 22.9312 20.3608 21.3159 20.3608Z" fill="#FF1180"/>
</svg>
