<svg width="713" height="56" viewBox="0 0 713 56" fill="none" xmlns="http://www.w3.org/2000/svg">
<path d="M42.7241 26.3103L74.1034 55.1552H46.1034L28.7242 37.8965L20.2759 44.7759V55.1552H0V0.724121H20.2759V22.0862L45.3793 0.724121H74.1034L42.7241 26.3103Z" fill="#FF1074"/>
<path d="M145.914 0.724121V55.1552H119.483L95.9487 23.0517V55.1552H75.6729V0.724121H102.104L125.638 32.8276V0.724121H145.914Z" fill="#FF1074"/>
<path d="M147.483 27.8793C147.483 8.93103 157.742 0 181.759 0C205.655 0 216.035 9.05172 216.035 27.8793C216.035 46.8276 205.655 56 181.759 56C157.742 56 147.483 46.8276 147.483 27.8793ZM195.759 27.8793C195.759 22.2069 193.707 17.0172 181.759 17.0172C169.811 17.0172 167.759 22.0862 167.759 27.8793C167.759 33.6724 169.811 38.8621 181.759 38.8621C193.586 38.8621 195.759 33.5517 195.759 27.8793Z" fill="#FF1074"/>
<path d="M326.586 0.724121L308.724 55.1552H278.672L269.741 23.7759L260.81 55.1552H230.759L212.896 0.724121H234.621L245.965 39.2241L257.793 0.724121H281.931L293.759 39.2241L305.103 0.724121H326.586Z" fill="#FF1074"/>
<path d="M399.121 0.724121V55.1552H372.69L349.155 23.0517V55.1552H328.879V0.724121H355.31L378.845 32.8276V0.724121H399.121Z" fill="#FF1074"/>
<path d="M453.672 17.8621V23.6552H486.379V40.7931H453.672V55.1552H433.396V0.724121H490.965V17.8621H453.672Z" fill="#FF1074"/>
<path d="M547.328 39.4655L556.983 55.1552H532.966L525.483 42.3621H513.535V55.1552H493.259V0.724121H536.104C548.535 0.724121 556.983 9.41378 556.983 21.6034C556.983 29.4483 553.362 35.9655 547.328 39.4655ZM513.535 25.2241H532.242C534.293 25.2241 536.707 25.2241 536.707 21.4827C536.707 17.7414 534.173 17.7414 532.242 17.7414H513.535V25.2241Z" fill="#FF1074"/>
<path d="M558.552 27.8793C558.552 8.93103 568.81 0 592.828 0C616.724 0 627.103 9.05172 627.103 27.8793C627.103 46.8276 616.724 56 592.828 56C568.81 56 558.552 46.8276 558.552 27.8793ZM606.828 27.8793C606.828 22.2069 604.776 17.0172 592.828 17.0172C580.879 17.0172 578.828 22.0862 578.828 27.8793C578.828 33.6724 580.879 38.8621 592.828 38.8621C604.776 38.8621 606.828 33.5517 606.828 27.8793Z" fill="#FF1074"/>
<path d="M712.793 55.1552H692.517V29.2069L677.672 55.1552H664.396L649.551 29.2069V55.1552H629.275V0.724121H654.137L670.913 31.8621L687.689 0.724121H712.551V55.1552H712.793Z" fill="#FF1074"/>
</svg>
