<svg width="302" height="24" viewBox="0 0 302 24" fill="none" xmlns="http://www.w3.org/2000/svg">
<path d="M18.1016 11.1476L31.3966 23.3688H19.5334L12.17 16.0566L8.5906 18.9712V23.3688H0V0.307129H8.5906V9.35793L19.2266 0.307129H31.3966L18.1016 11.1476Z" fill="#FF1074"/>
<path d="M61.8218 0.307129V23.3688H50.6233L40.6521 9.76701V23.3688H32.0615V0.307129H43.26L53.2312 13.9089V0.307129H61.8218Z" fill="#FF1074"/>
<path d="M62.4863 11.8121C62.4863 3.78395 66.8328 0 77.0085 0C87.1332 0 91.5307 3.83508 91.5307 11.8121C91.5307 19.8402 87.1332 23.7264 77.0085 23.7264C66.8328 23.7264 62.4863 19.8402 62.4863 11.8121ZM82.9401 11.8121C82.9401 9.40874 82.0708 7.20996 77.0085 7.20996C71.9462 7.20996 71.0769 9.35761 71.0769 11.8121C71.0769 14.2665 71.9462 16.4653 77.0085 16.4653C82.0197 16.4653 82.9401 14.2154 82.9401 11.8121Z" fill="#FF1074"/>
<path d="M138.37 0.307129L130.802 23.3688H118.069L114.286 10.0738L110.502 23.3688H97.7691L90.2012 0.307129H99.4054L104.212 16.619L109.223 0.307129H119.45L124.461 16.619L129.268 0.307129H138.37Z" fill="#FF1074"/>
<path d="M169.102 0.307129V23.3688H157.904L147.932 9.76701V23.3688H139.342V0.307129H150.54L160.511 13.9089V0.307129H169.102Z" fill="#FF1074"/>
<path d="M192.215 7.56823V10.0227H206.072V17.2838H192.215V23.3688H183.624V0.307129H208.015V7.56823H192.215Z" fill="#FF1074"/>
<path d="M231.895 16.7213L235.985 23.3688H225.81L222.639 17.9485H217.577V23.3688H208.986V0.307129H227.139C232.406 0.307129 235.985 3.98881 235.985 9.15339C235.985 12.4771 234.451 15.2384 231.895 16.7213ZM217.577 10.6874H225.503C226.372 10.6874 227.395 10.6874 227.395 9.10226C227.395 7.51709 226.321 7.51709 225.503 7.51709H217.577V10.6874Z" fill="#FF1074"/>
<path d="M236.65 11.8121C236.65 3.78395 240.997 0 251.173 0C261.297 0 265.695 3.83508 265.695 11.8121C265.695 19.8402 261.297 23.7264 251.173 23.7264C240.997 23.7264 236.65 19.8402 236.65 11.8121ZM257.104 11.8121C257.104 9.40874 256.235 7.20996 251.173 7.20996C246.11 7.20996 245.241 9.35761 245.241 11.8121C245.241 14.2665 246.11 16.4653 251.173 16.4653C256.235 16.4653 257.104 14.2154 257.104 11.8121Z" fill="#FF1074"/>
<path d="M302 23.3688H293.41V12.3749L287.12 23.3688H281.495L275.206 12.3749V23.3688H266.615V0.307129H277.149L284.257 13.4998L291.364 0.307129H301.898V23.3688H302Z" fill="#FF1074"/>
</svg>
