<svg width="32" height="32" viewBox="0 0 32 32" fill="none" xmlns="http://www.w3.org/2000/svg">
<g clip-path="url(#clip0_95_40)">
<path fill-rule="evenodd" clip-rule="evenodd" d="M16 4C17.368 4 18.7712 4.03483 20.1312 4.09183L21.7376 4.16783L23.2752 4.25808L24.7152 4.35467L26.0304 4.456C27.4577 4.56411 28.8007 5.16683 29.8232 6.15815C30.8458 7.14946 31.4823 8.46586 31.6208 9.87575L31.6848 10.5487L31.8048 11.9895C31.9168 13.4826 32 15.1103 32 16.6667C32 18.2231 31.9168 19.8508 31.8048 21.3438L31.6848 22.7847C31.664 23.0158 31.6432 23.2391 31.6208 23.4576C31.4822 24.8677 30.8455 26.1843 29.8226 27.1757C28.7998 28.167 27.4564 28.7696 26.0288 28.8773L24.7168 28.9771L23.2768 29.0753L21.7376 29.1655L20.1312 29.2415C18.7549 29.3007 17.3776 29.3313 16 29.3333C14.6224 29.3313 13.2451 29.3007 11.8688 29.2415L10.2624 29.1655L8.7248 29.0753L7.2848 28.9771L5.9696 28.8773C4.54232 28.7692 3.19928 28.1665 2.17676 27.1752C1.15423 26.1839 0.517719 24.8675 0.3792 23.4576L0.3152 22.7847L0.1952 21.3438C0.0728601 19.7876 0.00775043 18.2275 0 16.6667C0 15.1103 0.0832 13.4826 0.1952 11.9895L0.3152 10.5487C0.336 10.3175 0.3568 10.0943 0.3792 9.87575C0.517665 8.4661 1.15395 7.14991 2.17615 6.15863C3.19835 5.16735 4.54101 4.56446 5.968 4.456L7.2816 4.35467L8.7216 4.25808L10.2608 4.16783L11.8672 4.09183C13.244 4.03267 14.6219 4.00205 16 4ZM12.8 12.8271V20.5063C12.8 21.2378 13.6 21.6938 14.24 21.3296L20.96 17.49C21.1062 17.4067 21.2277 17.2867 21.3121 17.1422C21.3966 16.9977 21.4411 16.8336 21.4411 16.6667C21.4411 16.4997 21.3966 16.3357 21.3121 16.1911C21.2277 16.0466 21.1062 15.9266 20.96 15.8433L14.24 12.0053C14.094 11.9219 13.9284 11.878 13.7598 11.8781C13.5913 11.8781 13.4257 11.922 13.2797 12.0055C13.1338 12.0889 13.0126 12.209 12.9284 12.3535C12.8442 12.498 12.7999 12.6619 12.8 12.8287V12.8271Z" fill="#FF1180"/>
</g>
<defs>
<clipPath id="clip0_95_40">
<rect width="32" height="32" fill="white"/>
</clipPath>
</defs>
</svg>
