<?xml version="1.0" encoding="utf-8"?>
<!-- Generator: Adobe Illustrator 27.9.0, SVG Export Plug-In . SVG Version: 6.00 Build 0)  -->
<svg version="1.1" id="Layer_1" xmlns="http://www.w3.org/2000/svg" xmlns:xlink="http://www.w3.org/1999/xlink" x="0px" y="0px"
	 viewBox="0 0 1891.3 129.7" style="enable-background:new 0 0 1891.3 129.7;" xml:space="preserve">
<style type="text/css">
	.st0{fill:#3AFE14;}
	.st1{fill-rule:evenodd;clip-rule:evenodd;fill:#3AFE14;}
</style>
<path class="st0" d="M1691.4,71.7h-8.1l-1.7,5.2c-0.1,0.2-0.2,0.3-0.4,0.3h-4.1c-0.2,0-0.3-0.1-0.2-0.4l7.1-20.3
	c0.1-0.4,0.3-0.8,0.3-2.1c0-0.2,0.1-0.2,0.2-0.2h5.6c0.2,0,0.2,0,0.3,0.2l8,22.6c0.1,0.2,0,0.3-0.2,0.3h-4.6c-0.2,0-0.3-0.1-0.4-0.2
	L1691.4,71.7L1691.4,71.7z M1684.5,67.4h5.5c-0.7-2.3-2.1-6.6-2.8-9.1h0C1686.7,60.6,1685.4,64.5,1684.5,67.4L1684.5,67.4z
	 M1707.7,77.6c-5.2,0-9.2-2.9-9.2-8.9c0-5.1,3.8-9.3,10.2-9.3c0.3,0,0.6,0,1.1,0v-6.9c0-0.2,0.1-0.2,0.2-0.2h4.5
	c0.1,0,0.2,0.1,0.2,0.2v20.8c0,0.8,0.1,1.9,0.1,2.6c0,0.2,0,0.3-0.2,0.4C1712.5,77.1,1710.1,77.6,1707.7,77.6L1707.7,77.6z
	 M1709.9,73.2v-9.6c-0.4-0.1-0.8-0.1-1.3-0.1c-2.7,0-5,1.6-5,4.9c0,3.5,2,5,4.7,5C1708.8,73.4,1709.4,73.4,1709.9,73.2z
	 M1725.9,59.4c5.6,0,8.6,4.3,8.6,9c0,5.5-3.6,9.2-8.7,9.2c-6,0-8.7-4.5-8.7-9.1C1717.1,63.5,1720.4,59.4,1725.9,59.4L1725.9,59.4z
	 M1725.7,63.5c-2.1,0-3.6,1.8-3.6,5c0,3.1,1.4,5,3.8,5c2,0,3.6-1.7,3.6-5C1729.5,65.7,1728.3,63.5,1725.7,63.5L1725.7,63.5z
	 M1737,52.2h4.3c0.3,0,0.4,0.1,0.4,0.3l0,7.2c0.9-0.3,1.9-0.4,3-0.4c5.2,0,8.5,3.7,8.5,8.4c0,6.6-5.2,9.8-10.6,9.8
	c-1.8,0-3.7-0.2-5.5-0.8c-0.1,0-0.2-0.2-0.2-0.3V52.5C1736.7,52.3,1736.8,52.2,1737,52.2z M1748.1,68.2c0-3.2-1.9-4.7-4.4-4.7
	c-1.1,0-1.6,0.2-2,0.3v9.6c0.4,0.1,0.8,0.1,1.3,0.1C1745.6,73.5,1748.1,71.9,1748.1,68.2z M1766.4,69.8h-6.9c0.2,2,1.6,3.7,5,3.7
	c1.5,0,3-0.3,4.3-0.8c0.1-0.1,0.2,0,0.2,0.1v3.3c0,0.3-0.1,0.4-0.2,0.5c-1.4,0.6-3,1-5.4,1c-6.6,0-8.9-4.5-8.9-8.9
	c0-4.9,3-9.3,8.5-9.3c5.4,0,7.5,4.1,7.5,7.6c0,1.1-0.1,2-0.2,2.3c0,0.2-0.1,0.2-0.3,0.3C1769.6,69.7,1768.2,69.8,1766.4,69.8
	L1766.4,69.8z M1759.5,66.3h4.6c1.1,0,1.7,0,1.8-0.1c0,0,0-0.2,0-0.2c0-0.9-0.7-2.8-3-2.8C1760.6,63.2,1759.7,64.9,1759.5,66.3
	L1759.5,66.3z M1785.2,68.3V77c0,0.2-0.1,0.3-0.3,0.3h-4.4c-0.2,0-0.2-0.1-0.2-0.3V54.4c0-0.2,0.1-0.2,0.3-0.2h14
	c0.2,0,0.3,0.1,0.3,0.3l0.4,3.8c0,0.2-0.1,0.3-0.3,0.3h-9.8v5.4h8.8c0.2,0,0.3,0.1,0.3,0.3V68c0,0.2-0.1,0.3-0.3,0.3L1785.2,68.3
	L1785.2,68.3z M1796.9,76.9V60c0-0.2,0.1-0.3,0.3-0.3h4.3c0.2,0,0.3,0,0.3,0.3v16.9c0,0.2-0.1,0.3-0.3,0.3h-4.3
	C1797.1,77.2,1796.9,77.2,1796.9,76.9z M1799.4,57.9c-1.7,0-2.8-1.1-2.8-2.8s1.2-2.8,2.8-2.8c1.7,0,2.7,1.2,2.7,2.8
	C1802.2,56.8,1801.1,57.9,1799.4,57.9z M1805.1,59.7h3.8c0.2,0,0.3,0.1,0.4,0.3c0.2,0.5,0.3,1.2,0.4,2c1.4-1.6,3.4-2.6,5.6-2.6
	c0.2,0,0.3,0.1,0.3,0.3V64c0,0.2-0.1,0.2-0.4,0.2c-2.5-0.1-4.5,0.7-5.3,1.6v11.2c0,0.2-0.1,0.3-0.3,0.3h-4.3c-0.2,0-0.4-0.1-0.4-0.3
	V64.8c0-1.6,0-3.6-0.2-4.8C1804.8,59.8,1804.9,59.7,1805.1,59.7z M1828.2,69.8h-6.9c0.2,2,1.6,3.7,5,3.7c1.5,0,3-0.3,4.3-0.8
	c0.1-0.1,0.2,0,0.2,0.1v3.3c0,0.3-0.1,0.4-0.2,0.5c-1.4,0.6-3,1-5.4,1c-6.6,0-8.9-4.5-8.9-8.9c0-4.9,3-9.3,8.5-9.3
	c5.4,0,7.5,4.1,7.5,7.6c0,1.1-0.1,2-0.2,2.3c0,0.2-0.1,0.2-0.3,0.3C1831.3,69.7,1830,69.8,1828.2,69.8L1828.2,69.8z M1821.3,66.3
	h4.6c1.1,0,1.7,0,1.8-0.1c0,0,0-0.2,0-0.2c0-0.9-0.7-2.8-3-2.8C1822.4,63.2,1821.5,64.9,1821.3,66.3L1821.3,66.3z M1835.3,63.8h-2.1
	c-0.1,0-0.2-0.1-0.2-0.3V60c0-0.2,0.1-0.2,0.2-0.2h2.1v-0.6c0-1.7,0.2-2.9,0.7-4c0.9-2,2.6-3.3,5.5-3.3c0.7,0,1.4,0.1,1.8,0.2
	c0.2,0.1,0.2,0.2,0.2,0.4V56c0,0.1-0.1,0.2-0.3,0.2c-0.3-0.1-0.7-0.1-1-0.1c-1.3,0-2.1,0.7-2.1,2.7v1h3c0.2,0,0.3,0.1,0.3,0.2v3.5
	c0,0.2-0.1,0.3-0.3,0.3h-3v13.1c0,0.2,0,0.3-0.4,0.3h-4.2c-0.2,0-0.3-0.1-0.3-0.3L1835.3,63.8L1835.3,63.8z M1844.7,72.7V52.6
	c0-0.2,0.1-0.3,0.4-0.3h4.2c0.2,0,0.3,0.1,0.3,0.3v19.7c0,1,0.3,1.3,1.2,1.3c0.3,0,0.4,0,0.6,0c0.1,0,0.2,0,0.2,0.2v3.1
	c0,0.2,0,0.3-0.2,0.4c-0.5,0.2-1.1,0.3-2.2,0.3C1846.7,77.6,1844.7,76.6,1844.7,72.7L1844.7,72.7z M1852,59.7h4.7
	c0.2,0,0.3,0,0.4,0.2c2,6,3.1,9.7,3.6,11.5c1.2-3.7,2.3-7.1,3.6-11.5c0.1-0.2,0.2-0.2,0.4-0.2h4.2c0.2,0,0.3,0.1,0.2,0.3
	c-2.5,7.9-6.4,17.6-9.1,23.6c-0.1,0.2-0.1,0.2-0.5,0.3l-4.4,0.3c-0.2,0-0.3-0.1-0.2-0.3c1.1-2.1,2.1-4.4,3.2-7.1
	c0.1-0.2,0.1-0.3,0-0.6c-1-2.4-4.3-10.8-6.4-16.3C1851.6,59.9,1851.7,59.7,1852,59.7z"/>
<g>
	<g>
		<path class="st0" d="M1626.8,76.5c0.1,0.1,0.3,0.2,0.3,0.4c0,0,0-0.1,0.1-0.1c-0.1-0.1-0.2-0.3-0.2-0.5
			C1626.9,76.4,1626.8,76.4,1626.8,76.5z"/>
		<path class="st0" d="M1640.1,61.3C1640.1,61.3,1640.1,61.3,1640.1,61.3c0,0.1,0,0.2,0,0.2c0.1-0.1,0.1-0.2,0.3-0.2
			C1640.3,61.2,1640.2,61.3,1640.1,61.3C1640.2,61.3,1640.1,61.3,1640.1,61.3z"/>
		<path class="st0" d="M1641.8,70.3c0,0-0.1,0-0.1,0c-0.1,0-0.2,0-0.3-0.1c0,0-0.1,0.1-0.1,0.1c0.1,0,0.2,0.1,0.3,0.2
			C1641.7,70.4,1641.7,70.4,1641.8,70.3z"/>
		<path class="st0" d="M1641.4,72.7c0,0.1,0,0.1,0,0.2c0,0,0.1,0.1,0.1,0.1c0-0.1,0.1-0.2,0.1-0.2c0,0,0,0,0,0
			C1641.5,72.7,1641.4,72.7,1641.4,72.7z"/>
		<path class="st0" d="M1642,73.8c-0.1,0-0.2,0-0.3-0.1c0,0.1,0,0.1-0.1,0.2c0.1,0,0.2,0.1,0.2,0.1c0.1-0.1,0.2-0.2,0.3-0.3
			C1642.1,73.7,1642.1,73.8,1642,73.8z"/>
		<path class="st0" d="M1640.7,62.6C1640.7,62.6,1640.7,62.6,1640.7,62.6c0,0.2-0.1,0.4-0.2,0.5c0,0,0.1,0,0.1,0
			c0-0.2,0.2-0.5,0.4-0.6C1640.9,62.6,1640.8,62.6,1640.7,62.6C1640.7,62.6,1640.7,62.6,1640.7,62.6z"/>
		<path class="st0" d="M1627.3,74.7c-0.1,0.1-0.3,0.2-0.5,0.2c-0.3,0-0.5-0.2-0.6-0.4c0,0,0,0.1,0,0.1c0,0.1,0,0.3-0.1,0.4
			c0.1,0,0.2-0.1,0.3-0.1c0.4,0,0.8,0.3,0.8,0.8c0.1-0.1,0.1-0.1,0.2-0.2c-0.1-0.1-0.2-0.3-0.2-0.5
			C1627.2,74.9,1627.2,74.8,1627.3,74.7z"/>
		<path class="st0" d="M1628.5,76.7c0.1,0.1,0.2,0.2,0.2,0.3c0,0,0.1-0.1,0.1-0.1c-0.1-0.1-0.2-0.2-0.2-0.3
			C1628.5,76.6,1628.5,76.6,1628.5,76.7z"/>
		<path class="st0" d="M1628.3,75.7c0.1,0.1,0.2,0.2,0.2,0.4c0-0.1,0.1-0.3,0.2-0.4c-0.1-0.1-0.2-0.3-0.2-0.4
			C1628.6,75.4,1628.5,75.6,1628.3,75.7z"/>
		<path class="st0" d="M1638.7,59.4c0.1,0,0.1,0,0.1,0c0,0,0,0,0.1,0c0-0.1,0-0.1,0-0.2C1638.9,59.3,1638.8,59.4,1638.7,59.4z"/>
		<path class="st0" d="M1639.6,59.9c0,0.1,0,0.1,0,0.2c0,0,0,0,0,0c0.1-0.1,0.2-0.2,0.3-0.2C1639.8,59.9,1639.7,59.9,1639.6,59.9
			C1639.6,59.9,1639.6,59.9,1639.6,59.9z"/>
		<path class="st0" d="M1639.7,58.5c0-0.1,0-0.1,0-0.2c0-0.1,0-0.1,0-0.2c-0.1,0.2-0.4,0.4-0.6,0.4c0,0-0.1,0-0.1,0
			c0,0.1,0.1,0.2,0.1,0.2C1639.2,58.6,1639.4,58.5,1639.7,58.5C1639.7,58.5,1639.7,58.5,1639.7,58.5z"/>
		<path class="st0" d="M1626.8,68.2c0.2,0,0.4,0.1,0.5,0.2c0.1-0.1,0.1-0.1,0.2-0.2c-0.1,0-0.1,0-0.2,0c-0.2,0-0.3-0.1-0.4-0.2
			C1626.9,68.1,1626.8,68.2,1626.8,68.2z"/>
		<path class="st0" d="M1627.1,72.9L1627.1,72.9C1627.1,72.9,1627.1,72.9,1627.1,72.9C1627.1,72.9,1627.1,72.9,1627.1,72.9z"/>
		<path class="st0" d="M1626.5,73.6c0,0-0.1,0-0.1,0c-0.2,0-0.3-0.1-0.5-0.2c-0.1,0.2-0.2,0.3-0.4,0.4c0.3,0,0.5,0.2,0.6,0.4
			c0,0,0,0,0-0.1C1626.1,73.9,1626.2,73.7,1626.5,73.6z"/>
		<path class="st0" d="M1630.1,76.4c0,0.1,0,0.2-0.1,0.3c0.2,0.1,0.3,0.3,0.3,0.5c0-0.1,0.1-0.2,0.1-0.3
			C1630.2,76.8,1630.1,76.6,1630.1,76.4z"/>
		<path class="st0" d="M1652.9,40.3h-34.2c-5.2,0-9.4,4.2-9.4,9.4v32.8c0,5.2,4.2,9.4,9.4,9.4h34.2c5.2,0,9.4-4.2,9.4-9.4V49.6
			C1662.2,44.5,1658,40.3,1652.9,40.3z M1649.7,74.1c0,0.3-0.2,0.5-0.5,0.5s-0.5-0.2-0.5-0.5c0-0.3,0.2-0.5,0.5-0.5
			S1649.7,73.9,1649.7,74.1z M1645.1,73.8c0,0.3-0.2,0.5-0.5,0.5c-0.3,0-0.5-0.2-0.5-0.5s0.2-0.5,0.5-0.5
			C1644.8,73.2,1645.1,73.5,1645.1,73.8z M1644.6,72.4c0-0.3,0.2-0.5,0.5-0.5s0.5,0.2,0.5,0.5c0,0.3-0.2,0.5-0.5,0.5
			S1644.6,72.7,1644.6,72.4z M1644.1,74.2c0,0.3-0.2,0.5-0.5,0.5s-0.5-0.2-0.5-0.5s0.2-0.5,0.5-0.5S1644.1,73.9,1644.1,74.2z
			 M1644.1,74.9c0.3,0,0.5,0.2,0.5,0.5c0,0.3-0.2,0.5-0.5,0.5c-0.3,0-0.5-0.2-0.5-0.5C1643.6,75.1,1643.8,74.9,1644.1,74.9z
			 M1644.1,76.7c0.3,0,0.5,0.2,0.5,0.5c0,0.3-0.2,0.5-0.5,0.5s-0.5-0.2-0.5-0.5C1643.6,76.9,1643.8,76.7,1644.1,76.7z M1644.4,76.5
			c0-0.3,0.2-0.5,0.5-0.5c0.3,0,0.5,0.2,0.5,0.5c0,0.3-0.2,0.5-0.5,0.5C1644.6,76.9,1644.4,76.7,1644.4,76.5z M1645.1,75.5
			c-0.3,0-0.5-0.2-0.5-0.5c0-0.3,0.2-0.5,0.5-0.5s0.5,0.2,0.5,0.5C1645.5,75.3,1645.3,75.5,1645.1,75.5z M1645.1,73.7
			c0-0.3,0.2-0.5,0.5-0.5c0.3,0,0.5,0.2,0.5,0.5c0,0.3-0.2,0.5-0.5,0.5C1645.4,74.2,1645.1,74,1645.1,73.7z M1646.8,71.5
			c-0.3,0-0.5-0.2-0.5-0.5c0-0.3,0.2-0.5,0.5-0.5c0.3,0,0.5,0.2,0.5,0.5C1647.3,71.2,1647.1,71.5,1646.8,71.5z M1647.4,71.9
			c0.3,0,0.5,0.2,0.5,0.5c0,0.3-0.2,0.5-0.5,0.5c-0.3,0-0.5-0.2-0.5-0.5C1646.9,72.1,1647.1,71.9,1647.4,71.9z M1646.8,72.4
			c0,0.3-0.2,0.5-0.5,0.5s-0.5-0.2-0.5-0.5s0.2-0.5,0.5-0.5S1646.8,72.1,1646.8,72.4z M1646.2,74.5c0.3,0,0.5,0.2,0.5,0.5
			c0,0.3-0.2,0.5-0.5,0.5c-0.3,0-0.5-0.2-0.5-0.5C1645.7,74.8,1645.9,74.5,1646.2,74.5z M1646.3,73.8c0-0.3,0.2-0.5,0.5-0.5
			c0.3,0,0.5,0.2,0.5,0.5c0,0.3-0.2,0.5-0.5,0.5C1646.5,74.3,1646.3,74,1646.3,73.8z M1647.4,74.7c0.3,0,0.5,0.2,0.5,0.5
			c0,0.3-0.2,0.5-0.5,0.5c-0.3,0-0.5-0.2-0.5-0.5C1646.9,74.9,1647.1,74.7,1647.4,74.7z M1647.5,73.9c0-0.3,0.2-0.5,0.5-0.5
			c0.3,0,0.5,0.2,0.5,0.5c0,0.3-0.2,0.5-0.5,0.5C1647.8,74.4,1647.5,74.2,1647.5,73.9z M1648.4,75c0.3,0,0.5,0.2,0.5,0.5
			c0,0.3-0.2,0.5-0.5,0.5c-0.3,0-0.5-0.2-0.5-0.5C1648,75.2,1648.2,75,1648.4,75z M1649.1,72.6c0,0.3-0.2,0.5-0.5,0.5
			s-0.5-0.2-0.5-0.5c0-0.3,0.2-0.5,0.5-0.5C1648.9,72.1,1649.1,72.3,1649.1,72.6z M1648.5,71c0,0.3-0.2,0.5-0.5,0.5
			s-0.5-0.2-0.5-0.5c0-0.3,0.2-0.5,0.5-0.5S1648.5,70.7,1648.5,71z M1647.8,69.4c0,0.3-0.2,0.5-0.5,0.5s-0.5-0.2-0.5-0.5
			c0-0.3,0.2-0.5,0.5-0.5S1647.8,69.1,1647.8,69.4z M1640.5,53.3c0.4,0,0.7,0.3,0.7,0.7c0,0.4-0.3,0.7-0.7,0.7c-0.1,0-0.1,0-0.2,0
			c0,0.1,0,0.1,0,0.2c0,0.4-0.3,0.7-0.7,0.7c-0.1,0-0.1,0-0.1,0c0,0.1,0.1,0.2,0.1,0.3c0,0.4-0.3,0.7-0.7,0.7c-0.1,0-0.1,0-0.1,0
			c0.1,0.1,0.1,0.2,0.1,0.4c0,0.4-0.3,0.7-0.7,0.7c-0.1,0-0.1,0-0.2,0c0.1,0.1,0.2,0.3,0.2,0.4c0,0.4-0.3,0.7-0.7,0.7
			s-0.7-0.3-0.7-0.7s0.3-0.7,0.7-0.7c0.1,0,0.1,0,0.2,0c-0.1-0.1-0.2-0.3-0.2-0.4c0-0.4,0.3-0.7,0.7-0.7c0.1,0,0.1,0,0.1,0
			c-0.1-0.1-0.1-0.2-0.1-0.4c0-0.4,0.3-0.7,0.7-0.7c0.1,0,0.1,0,0.1,0c0-0.1-0.1-0.2-0.1-0.3c0-0.4,0.3-0.7,0.7-0.7
			c0.1,0,0.1,0,0.2,0c0-0.1,0-0.1,0-0.2C1639.8,53.6,1640.1,53.3,1640.5,53.3z M1629.7,72.4c0.3,0,0.6,0.2,0.6,0.6s-0.2,0.6-0.6,0.6
			c-0.3,0-0.6-0.2-0.6-0.6S1629.4,72.4,1629.7,72.4z M1628.9,72.6c-0.3,0-0.6-0.2-0.6-0.6c0-0.3,0.2-0.6,0.6-0.6
			c0.3,0,0.6,0.2,0.6,0.6C1629.5,72.3,1629.2,72.6,1628.9,72.6z M1630.1,71.8c-0.3,0-0.5-0.2-0.5-0.5c0-0.3,0.2-0.5,0.5-0.5
			s0.5,0.2,0.5,0.5C1630.6,71.5,1630.4,71.8,1630.1,71.8z M1631,71.5c0.3,0,0.5,0.2,0.5,0.5c0,0.3-0.2,0.5-0.5,0.5
			c-0.3,0-0.5-0.2-0.5-0.5S1630.7,71.5,1631,71.5z M1631.4,70.9c-0.2,0-0.3-0.2-0.3-0.3s0.2-0.3,0.3-0.3c0.2,0,0.3,0.2,0.3,0.3
			C1631.7,70.8,1631.6,70.9,1631.4,70.9z M1631.8,69.5c0,0.2-0.2,0.3-0.3,0.3s-0.3-0.2-0.3-0.3s0.2-0.3,0.3-0.3
			S1631.8,69.4,1631.8,69.5z M1631.5,68.6c0-0.2,0.2-0.4,0.4-0.4c0.2,0,0.4,0.2,0.4,0.4s-0.2,0.4-0.4,0.4
			C1631.7,68.9,1631.5,68.8,1631.5,68.6z M1632.2,71.5c0.3,0,0.5,0.2,0.5,0.5c0,0.3-0.2,0.5-0.5,0.5s-0.5-0.2-0.5-0.5
			C1631.7,71.8,1631.9,71.5,1632.2,71.5z M1632.3,71.3c-0.2,0-0.3-0.2-0.3-0.3c0-0.2,0.2-0.3,0.3-0.3c0.2,0,0.3,0.2,0.3,0.3
			C1632.7,71.2,1632.5,71.3,1632.3,71.3z M1632.3,67.9c-0.2,0-0.4-0.2-0.4-0.4c0-0.2,0.2-0.4,0.4-0.4s0.4,0.2,0.4,0.4
			C1632.7,67.8,1632.5,67.9,1632.3,67.9z M1635.5,55.3c0.4,0,0.7,0.3,0.7,0.7c0,0.4-0.3,0.7-0.7,0.7s-0.7-0.3-0.7-0.7
			C1634.9,55.6,1635.1,55.3,1635.5,55.3z M1634.6,55.4c-0.4,0-0.7-0.3-0.7-0.7s0.3-0.7,0.7-0.7c0.4,0,0.7,0.3,0.7,0.7
			C1635.3,55.1,1635,55.4,1634.6,55.4z M1634.5,70.6c0.2,0,0.3,0.2,0.3,0.3c0,0.2-0.2,0.3-0.3,0.3c-0.2,0-0.3-0.2-0.3-0.3
			C1634.2,70.8,1634.3,70.6,1634.5,70.6z M1634.1,64c-0.2,0-0.4-0.2-0.4-0.4c0-0.2,0.2-0.4,0.4-0.4s0.4,0.2,0.4,0.4
			C1634.5,63.9,1634.3,64,1634.1,64z M1634.5,63.1c-0.2,0-0.4-0.2-0.4-0.4s0.2-0.4,0.4-0.4c0.2,0,0.4,0.2,0.4,0.4
			S1634.8,63.1,1634.5,63.1z M1634.6,61.7c0-0.2,0.2-0.4,0.4-0.4c0.2,0,0.4,0.2,0.4,0.4c0,0.2-0.2,0.4-0.4,0.4
			C1634.8,62.1,1634.6,61.9,1634.6,61.7z M1635.5,70.9c0.2,0,0.3,0.2,0.3,0.3c0,0.2-0.2,0.3-0.3,0.3c-0.2,0-0.3-0.2-0.3-0.3
			S1635.4,70.9,1635.5,70.9z M1635.5,60.6c-0.3,0-0.5-0.2-0.5-0.5c0-0.3,0.2-0.5,0.5-0.5c0.3,0,0.5,0.2,0.5,0.5
			C1636,60.4,1635.7,60.6,1635.5,60.6z M1636.2,56.1c0-0.4,0.3-0.7,0.7-0.7c0.4,0,0.7,0.3,0.7,0.7c0,0.4-0.3,0.7-0.7,0.7
			C1636.6,56.8,1636.2,56.5,1636.2,56.1z M1636.9,57.4c0,0.4-0.3,0.6-0.6,0.6c-0.4,0-0.6-0.3-0.6-0.6c0-0.3,0.3-0.6,0.6-0.6
			C1636.6,56.7,1636.9,57,1636.9,57.4z M1636.1,55.3c-0.4,0-0.7-0.3-0.7-0.7c0-0.4,0.3-0.7,0.7-0.7s0.7,0.3,0.7,0.7
			C1636.8,54.9,1636.5,55.3,1636.1,55.3z M1634.9,56.8c0.3,0,0.6,0.3,0.6,0.6s-0.3,0.6-0.6,0.6s-0.6-0.3-0.6-0.6
			S1634.6,56.8,1634.9,56.8z M1635,58.2c0.3,0,0.6,0.3,0.6,0.6c0,0.3-0.3,0.6-0.6,0.6c-0.3,0-0.6-0.2-0.6-0.6
			C1634.4,58.5,1634.7,58.2,1635,58.2z M1634.9,60.6c0,0.3-0.2,0.5-0.5,0.5s-0.5-0.2-0.5-0.5c0-0.3,0.2-0.5,0.5-0.5
			S1634.9,60.4,1634.9,60.6z M1634.4,61.7c0,0.3-0.2,0.5-0.5,0.5c-0.3,0-0.5-0.2-0.5-0.5c0-0.3,0.2-0.5,0.5-0.5
			C1634.2,61.2,1634.4,61.4,1634.4,61.7z M1633.5,62.3c0.3,0,0.5,0.2,0.5,0.5c0,0.3-0.2,0.5-0.5,0.5s-0.5-0.2-0.5-0.5
			C1633,62.5,1633.2,62.3,1633.5,62.3z M1633.4,63.8c0,0.3-0.2,0.5-0.5,0.5s-0.5-0.2-0.5-0.5c0-0.3,0.2-0.5,0.5-0.5
			S1633.4,63.5,1633.4,63.8z M1633.2,66c-0.2,0-0.4-0.2-0.4-0.4c0-0.2,0.2-0.4,0.4-0.4c0.2,0,0.4,0.2,0.4,0.4
			C1633.6,65.8,1633.4,66,1633.2,66z M1633.8,71c0,0.2-0.2,0.3-0.3,0.3c-0.2,0-0.3-0.2-0.3-0.3c0-0.2,0.2-0.3,0.3-0.3
			C1633.6,70.6,1633.8,70.8,1633.8,71z M1633,64.8c0,0.3-0.2,0.5-0.5,0.5c-0.3,0-0.5-0.2-0.5-0.5s0.2-0.5,0.5-0.5
			C1632.8,64.4,1633,64.6,1633,64.8z M1632.5,65.9c0,0.3-0.2,0.5-0.5,0.5c-0.3,0-0.5-0.2-0.5-0.5c0-0.3,0.2-0.5,0.5-0.5
			S1632.5,65.7,1632.5,65.9z M1632.4,66.6c0-0.2,0.2-0.4,0.4-0.4c0.2,0,0.4,0.2,0.4,0.4c0,0.2-0.2,0.4-0.4,0.4
			C1632.6,67,1632.4,66.8,1632.4,66.6z M1633.3,71.5c0.3,0,0.5,0.2,0.5,0.5c0,0.3-0.2,0.5-0.5,0.5c-0.3,0-0.5-0.2-0.5-0.5
			C1632.8,71.8,1633,71.5,1633.3,71.5z M1633.4,72.6c0.3,0,0.5,0.2,0.5,0.5s-0.2,0.5-0.5,0.5c-0.3,0-0.5-0.2-0.5-0.5
			S1633.2,72.6,1633.4,72.6z M1633.6,65c-0.2,0-0.4-0.2-0.4-0.4c0-0.2,0.2-0.4,0.4-0.4s0.4,0.2,0.4,0.4
			C1634,64.8,1633.9,65,1633.6,65z M1634.5,71.6c0.3,0,0.5,0.2,0.5,0.5c0,0.3-0.2,0.5-0.5,0.5s-0.5-0.2-0.5-0.5
			C1634,71.8,1634.2,71.6,1634.5,71.6z M1634.7,72.6c0.3,0,0.5,0.2,0.5,0.5c0,0.3-0.2,0.5-0.5,0.5c-0.3,0-0.5-0.2-0.5-0.5
			S1634.4,72.6,1634.7,72.6z M1635.1,74.3c0.3,0,0.5,0.2,0.5,0.5c0,0.3-0.2,0.5-0.5,0.5c-0.3,0-0.5-0.2-0.5-0.5
			C1634.5,74.6,1634.8,74.3,1635.1,74.3z M1635.5,74.3c-0.3,0-0.5-0.2-0.5-0.5c0-0.3,0.2-0.5,0.5-0.5c0.3,0,0.5,0.2,0.5,0.5
			C1636.1,74,1635.8,74.3,1635.5,74.3z M1636.3,74.3c0.3,0,0.5,0.2,0.5,0.5c0,0.3-0.2,0.5-0.5,0.5s-0.5-0.2-0.5-0.5
			C1635.8,74.5,1636,74.3,1636.3,74.3z M1636.4,74c0-0.2,0.2-0.4,0.4-0.4c0.2,0,0.4,0.2,0.4,0.4c0,0.2-0.2,0.4-0.4,0.4
			C1636.6,74.4,1636.4,74.3,1636.4,74z M1637.2,73.6c0-0.2,0.2-0.4,0.4-0.4s0.4,0.2,0.4,0.4c0,0.2-0.2,0.4-0.4,0.4
			C1637.4,74,1637.2,73.8,1637.2,73.6z M1637.2,73c-0.2,0-0.4-0.2-0.4-0.4c0-0.2,0.2-0.4,0.4-0.4s0.4,0.2,0.4,0.4
			C1637.5,72.8,1637.4,73,1637.2,73z M1636.5,72.2c-0.2,0-0.4-0.2-0.4-0.4c0-0.2,0.2-0.4,0.4-0.4s0.4,0.2,0.4,0.4
			C1636.8,72,1636.7,72.2,1636.5,72.2z M1636.3,72.5c0.3,0,0.5,0.2,0.5,0.5s-0.2,0.5-0.5,0.5s-0.5-0.2-0.5-0.5
			C1635.9,72.8,1636.1,72.5,1636.3,72.5z M1635.6,72.7c-0.2,0-0.4-0.2-0.4-0.4c0-0.2,0.2-0.4,0.4-0.4c0.2,0,0.4,0.2,0.4,0.4
			C1636.1,72.5,1635.9,72.7,1635.6,72.7z M1636,62.1c-0.2,0-0.5-0.2-0.5-0.5s0.2-0.5,0.5-0.5s0.5,0.2,0.5,0.5S1636.3,62.1,1636,62.1
			z M1636,60.4c0-0.3,0.2-0.5,0.5-0.5s0.5,0.2,0.5,0.5c0,0.3-0.2,0.5-0.5,0.5S1636,60.7,1636,60.4z M1636.2,59.4
			c-0.3,0-0.6-0.3-0.6-0.6s0.3-0.6,0.6-0.6c0.3,0,0.6,0.3,0.6,0.6S1636.6,59.4,1636.2,59.4z M1639.3,52.1c0.4,0,0.7,0.3,0.7,0.7
			c0,0.4-0.3,0.7-0.7,0.7c-0.1,0-0.2,0-0.3-0.1c0.1,0.1,0.1,0.2,0.1,0.4c0,0.4-0.3,0.7-0.7,0.7c-0.1,0-0.2,0-0.3-0.1
			c0.1,0.1,0.2,0.3,0.2,0.5c0,0.4-0.3,0.7-0.7,0.7s-0.7-0.3-0.7-0.7c0-0.4,0.3-0.7,0.7-0.7c0.1,0,0.2,0,0.3,0.1
			c-0.1-0.1-0.2-0.3-0.2-0.5c0-0.4,0.3-0.7,0.7-0.7c0.1,0,0.2,0,0.3,0.1c-0.1-0.1-0.1-0.2-0.1-0.4
			C1638.6,52.5,1638.9,52.1,1639.3,52.1z M1637.8,51.4c0.4,0,0.7,0.3,0.7,0.7c0,0.4-0.3,0.7-0.7,0.7s-0.7-0.3-0.7-0.7
			C1637.1,51.7,1637.4,51.4,1637.8,51.4z M1637.6,53.3c0,0.4-0.3,0.7-0.7,0.7c-0.4,0-0.7-0.3-0.7-0.7c0-0.4,0.3-0.7,0.7-0.7
			C1637.3,52.6,1637.6,52.9,1637.6,53.3z M1636.1,51.1c0.4,0,0.7,0.3,0.7,0.7c0,0.4-0.3,0.7-0.7,0.7c-0.4,0-0.7-0.3-0.7-0.7
			C1635.4,51.4,1635.7,51.1,1636.1,51.1z M1636,53.2c0,0.4-0.3,0.7-0.7,0.7c-0.4,0-0.7-0.3-0.7-0.7c0-0.4,0.3-0.7,0.7-0.7
			C1635.7,52.5,1636,52.8,1636,53.2z M1634.4,51.2c0.4,0,0.7,0.3,0.7,0.7c0,0.4-0.3,0.7-0.7,0.7s-0.7-0.3-0.7-0.7
			C1633.7,51.6,1634,51.2,1634.4,51.2z M1632.9,51.9c0.4,0,0.7,0.3,0.7,0.7c0,0.1,0,0.2-0.1,0.3c0.1,0,0.1,0,0.2,0
			c0.4,0,0.7,0.3,0.7,0.7c0,0.4-0.3,0.7-0.7,0.7s-0.7-0.3-0.7-0.7c0-0.1,0-0.2,0.1-0.3c-0.1,0-0.2,0-0.2,0c-0.4,0-0.7-0.3-0.7-0.7
			C1632.1,52.2,1632.5,51.9,1632.9,51.9z M1631.6,52.9c0.4,0,0.8,0.3,0.8,0.8c0,0,0,0.1,0,0.1c0,0,0.1,0,0.1,0
			c0.4,0,0.7,0.3,0.7,0.7c0,0.1,0,0.2,0,0.2c0.1,0,0.1,0,0.2,0c0.4,0,0.7,0.3,0.7,0.7c0,0.2-0.1,0.3-0.2,0.5
			c0.1-0.1,0.2-0.1,0.4-0.1c0.4,0,0.6,0.3,0.6,0.6c0,0.4-0.3,0.6-0.6,0.6s-0.6-0.3-0.6-0.6c0-0.2,0.1-0.3,0.2-0.4
			c-0.1,0.1-0.2,0.1-0.4,0.1c-0.4,0-0.7-0.3-0.7-0.7c0-0.1,0-0.1,0-0.2c-0.1,0-0.1,0-0.2,0c-0.4,0-0.7-0.3-0.7-0.7c0,0,0-0.1,0-0.1
			c0,0-0.1,0-0.1,0c-0.4,0-0.8-0.3-0.8-0.8C1630.8,53.3,1631.1,52.9,1631.6,52.9z M1630.6,54.3c0.4,0,0.7,0.3,0.8,0.7c0,0,0,0,0,0
			c0.4,0,0.7,0.3,0.7,0.7c0,0,0,0,0,0c0,0,0.1,0,0.1,0c0.4,0,0.7,0.3,0.7,0.7c0,0.1,0,0.1,0,0.2c0.1,0,0.1,0,0.2,0
			c0.3,0,0.6,0.3,0.6,0.6c0,0.2-0.1,0.3-0.1,0.4c0.1,0,0.2-0.1,0.3-0.1c0.3,0,0.6,0.3,0.6,0.6c0,0.3-0.3,0.6-0.6,0.6
			s-0.6-0.3-0.6-0.6c0-0.1,0.1-0.3,0.1-0.4c-0.1,0-0.2,0.1-0.3,0.1c-0.3,0-0.6-0.3-0.6-0.6c0,0,0-0.1,0-0.1c-0.1,0-0.1,0-0.2,0
			c-0.4,0-0.7-0.3-0.7-0.7c0,0-0.1,0-0.1,0c-0.4,0-0.6-0.3-0.7-0.6c0,0-0.1,0-0.1,0c-0.4,0-0.8-0.3-0.8-0.8
			C1629.8,54.7,1630.2,54.3,1630.6,54.3z M1629.9,55.8c0.4,0,0.7,0.3,0.7,0.6c0,0,0,0,0,0c0.4,0,0.7,0.3,0.7,0.6c0,0,0,0,0.1,0
			c0.4,0,0.7,0.3,0.7,0.7c0,0,0,0,0,0c0,0,0.1,0,0.1,0c0.3,0,0.6,0.3,0.6,0.6c0,0.1,0,0.2,0,0.2c0,0,0.1,0,0.1,0
			c0.3,0,0.6,0.3,0.6,0.6c0,0,0,0.1,0,0.1c0.1-0.2,0.3-0.3,0.5-0.3c0.3,0,0.5,0.2,0.5,0.5c0,0.3-0.2,0.5-0.5,0.5
			c-0.3,0-0.5-0.2-0.5-0.5c0,0,0,0,0-0.1c-0.1,0.2-0.3,0.3-0.5,0.3c-0.3,0-0.6-0.3-0.6-0.6c0-0.1,0-0.1,0-0.2c-0.1,0-0.1,0-0.2,0
			c-0.3,0-0.6-0.3-0.6-0.6c0,0-0.1,0-0.1,0c-0.3,0-0.6-0.2-0.7-0.5c0,0-0.1,0-0.1,0c-0.3,0-0.6-0.2-0.7-0.5c0,0-0.1,0-0.1,0
			c-0.4,0-0.8-0.4-0.8-0.8C1629.1,56.2,1629.5,55.8,1629.9,55.8z M1629.3,57.4c0.3,0,0.6,0.2,0.7,0.5c0,0,0,0,0.1,0
			c0.3,0,0.6,0.2,0.7,0.6c0,0,0.1,0,0.1,0c0.4,0,0.6,0.3,0.7,0.6c0,0,0.1,0,0.1,0c0.3,0,0.6,0.3,0.6,0.6c0,0.1,0,0.1,0,0.2
			c0,0,0.1,0,0.1,0c0.3,0,0.5,0.2,0.6,0.4c0.1-0.1,0.2-0.2,0.4-0.2c0.3,0,0.5,0.2,0.5,0.5c0,0.3-0.2,0.5-0.5,0.5
			c-0.2,0-0.4-0.2-0.5-0.4c-0.1,0.1-0.3,0.3-0.5,0.3c-0.3,0-0.6-0.3-0.6-0.6c0,0,0-0.1,0-0.1c-0.1,0-0.1,0-0.2,0
			c-0.3,0-0.6-0.2-0.6-0.5c-0.1,0-0.1,0-0.2,0c-0.3,0-0.6-0.2-0.6-0.5c-0.1,0-0.1,0-0.2,0c-0.3,0-0.6-0.2-0.7-0.4c0,0-0.1,0-0.1,0
			c-0.4,0-0.8-0.4-0.8-0.8C1628.5,57.7,1628.8,57.4,1629.3,57.4z M1628.6,58.9c0.3,0,0.6,0.2,0.7,0.5c0,0,0.1,0,0.1,0
			c0.3,0,0.6,0.2,0.7,0.5c0,0,0.1,0,0.1,0c0.3,0,0.6,0.2,0.7,0.5c0.1,0,0.1,0,0.2,0c0.4,0,0.6,0.3,0.6,0.6c0,0,0,0,0,0.1
			c0,0,0.1,0,0.1,0c0.3,0,0.5,0.2,0.5,0.4c0.1-0.2,0.2-0.3,0.4-0.3c0.3,0,0.5,0.2,0.5,0.5c0,0.3-0.2,0.5-0.5,0.5
			c-0.2,0-0.4-0.1-0.5-0.3c-0.1,0.2-0.3,0.3-0.5,0.3c-0.3,0-0.6-0.3-0.6-0.6c0,0,0,0,0,0c-0.1,0-0.1,0-0.2,0c-0.3,0-0.5-0.2-0.6-0.4
			c-0.1,0-0.2,0-0.2,0c-0.3,0-0.5-0.2-0.6-0.4c-0.1,0-0.1,0-0.2,0c-0.3,0-0.5-0.2-0.6-0.4c-0.1,0-0.1,0-0.2,0
			c-0.4,0-0.8-0.4-0.8-0.8C1627.8,59.3,1628.2,58.9,1628.6,58.9z M1628,60.5c0.3,0,0.6,0.2,0.7,0.4c0.1,0,0.1,0,0.2,0
			c0.3,0,0.6,0.2,0.7,0.4c0.1,0,0.1,0,0.2,0c0.3,0,0.6,0.2,0.7,0.5c0.1,0,0.1,0,0.2,0c0.4,0,0.6,0.3,0.6,0.6c0,0,0.1,0,0.1,0
			c0.3,0,0.5,0.2,0.5,0.4c0.1-0.2,0.3-0.3,0.5-0.3c0.3,0,0.5,0.2,0.5,0.5c0,0.3-0.2,0.5-0.5,0.5c-0.2,0-0.4-0.1-0.5-0.3
			c-0.1,0.2-0.3,0.4-0.6,0.4c-0.3,0-0.5-0.2-0.6-0.5c-0.1,0-0.1,0-0.2,0c-0.3,0-0.5-0.2-0.6-0.4c-0.1,0-0.2,0.1-0.3,0.1
			c-0.2,0-0.5-0.1-0.6-0.3c-0.1,0-0.2,0.1-0.3,0.1c-0.3,0-0.5-0.1-0.6-0.3c-0.1,0-0.2,0.1-0.3,0.1c-0.5,0-0.8-0.4-0.8-0.8
			C1627.1,60.9,1627.5,60.5,1628,60.5z M1627.3,62c0.3,0,0.5,0.1,0.7,0.3c0.1,0,0.2-0.1,0.3-0.1c0.3,0,0.5,0.1,0.6,0.4
			c0.1,0,0.2-0.1,0.3-0.1c0.3,0,0.5,0.2,0.6,0.4c0.1,0,0.2-0.1,0.3-0.1c0.3,0,0.6,0.2,0.6,0.6c0.1,0,0.1,0,0.2,0
			c0.3,0,0.5,0.2,0.6,0.4c0-0.3,0.2-0.5,0.5-0.5c0.3,0,0.5,0.2,0.5,0.5c0,0.3-0.2,0.5-0.5,0.5c-0.2,0-0.4-0.1-0.5-0.3
			c0,0.3-0.3,0.5-0.6,0.5c-0.3,0-0.5-0.2-0.6-0.5c-0.1,0-0.2,0.1-0.2,0.1c-0.2,0-0.4-0.1-0.5-0.3c-0.1,0.1-0.2,0.1-0.3,0.1
			c-0.2,0-0.4-0.1-0.6-0.3c-0.1,0.1-0.2,0.1-0.4,0.1c-0.2,0-0.4-0.1-0.6-0.3c-0.1,0-0.2,0.1-0.3,0.1c-0.5,0-0.8-0.4-0.8-0.8
			C1626.5,62.4,1626.8,62,1627.3,62z M1633.2,79.3c-0.4,0-0.7-0.3-0.8-0.7c-0.1,0.4-0.4,0.7-0.9,0.7c-0.4,0-0.7-0.2-0.8-0.5
			c-0.2,0.3-0.5,0.6-0.9,0.6c-0.4,0-0.7-0.2-0.8-0.5c-0.2,0.3-0.5,0.5-0.9,0.5c-0.4,0-0.7-0.2-0.8-0.5c-0.2,0.3-0.5,0.5-0.8,0.5
			c-0.4,0-0.8-0.3-0.9-0.6c-0.2,0.2-0.4,0.3-0.7,0.3c-0.6,0-1-0.5-1-1c0,0,0-0.1,0-0.1c-0.1,0-0.2,0.1-0.3,0.1c-0.6,0-1-0.4-1-1
			c0-0.2,0.1-0.4,0.2-0.6c-0.5,0-0.9-0.4-0.9-1c0-0.4,0.2-0.7,0.6-0.9c-0.3-0.2-0.5-0.5-0.5-0.8c0-0.5,0.4-0.9,0.9-0.9
			c-0.2-0.2-0.3-0.4-0.3-0.6c0-0.5,0.4-0.9,0.9-0.9c0,0,0,0,0,0c-0.2-0.2-0.3-0.4-0.3-0.7c0-0.5,0.4-0.9,0.9-0.9c0,0,0.1,0,0.1,0
			c-0.2-0.2-0.3-0.4-0.3-0.7c0-0.5,0.4-0.9,0.9-0.9c0.1,0,0.1,0,0.2,0c-0.2-0.2-0.4-0.4-0.4-0.7c0-0.5,0.4-0.9,0.9-0.9
			c0.1,0,0.2,0,0.2,0c-0.3-0.2-0.4-0.4-0.4-0.7c0-0.5,0.4-0.9,0.9-0.9c0.1,0,0.2,0,0.3,0.1c-0.3-0.1-0.5-0.4-0.5-0.8
			c0-0.5,0.4-0.9,0.9-0.9c0.2,0,0.5,0.1,0.6,0.3c0.1,0,0.2-0.1,0.3-0.1c0.3,0,0.5,0.1,0.6,0.3c0.1-0.1,0.2-0.1,0.3-0.1
			c0.3,0,0.5,0.1,0.6,0.3c0.1-0.1,0.2-0.1,0.3-0.1c0.3,0,0.6,0.2,0.6,0.5c0.1,0,0.1,0,0.2,0c0.3,0,0.5,0.2,0.6,0.5c0,0,0-0.1,0-0.1
			c0-0.3,0.2-0.5,0.5-0.5s0.5,0.2,0.5,0.5c0,0.3-0.2,0.5-0.5,0.5c-0.2,0-0.4-0.2-0.5-0.4c0,0,0,0.1,0,0.1c0,0.2-0.1,0.3-0.2,0.4
			c0.1,0,0.1,0,0.2,0c0.3,0,0.5,0.2,0.5,0.5c0,0.1-0.1,0.3-0.2,0.4c0.1-0.1,0.2-0.1,0.3-0.1c0.3,0,0.5,0.2,0.5,0.5
			c0,0.3-0.2,0.5-0.5,0.5c-0.3,0-0.5-0.2-0.5-0.5c0-0.1,0.1-0.2,0.1-0.3c-0.1,0.1-0.2,0.1-0.4,0.1c-0.3,0-0.5-0.2-0.5-0.5
			c0-0.1,0.1-0.3,0.2-0.4c-0.1,0-0.2,0-0.2,0c-0.3,0-0.5-0.2-0.6-0.4c-0.1,0-0.2,0.1-0.3,0.1c-0.2,0-0.4-0.1-0.5-0.3
			c-0.1,0.1-0.3,0.1-0.4,0.1c-0.2,0-0.4-0.1-0.5-0.2c-0.1,0.1-0.3,0.1-0.4,0.1c-0.2,0-0.4-0.1-0.5-0.2c-0.1,0.1-0.3,0.1-0.4,0.1
			c-0.1,0-0.2,0-0.3-0.1c0.1,0,0.2,0.1,0.2,0.1c0.1-0.1,0.2-0.1,0.4-0.1c0.2,0,0.4,0.1,0.6,0.3c0.1-0.1,0.2-0.1,0.4-0.1
			c0.2,0,0.4,0.1,0.6,0.3c0.1-0.1,0.2-0.1,0.4-0.1c0.3,0,0.5,0.2,0.6,0.4c0.1,0,0.2-0.1,0.2-0.1c0.3,0,0.6,0.3,0.6,0.6
			c0,0.1,0,0.2-0.1,0.3c0,0,0.1,0,0.1,0c0.3,0,0.5,0.2,0.5,0.5c0,0.1,0,0.2-0.1,0.2c0.1,0,0.2-0.1,0.2-0.1c0.3,0,0.5,0.2,0.5,0.5
			c0,0.3-0.2,0.5-0.5,0.5s-0.5-0.2-0.5-0.5c0-0.1,0-0.1,0-0.2c-0.1,0.1-0.2,0.1-0.3,0.1c-0.3,0-0.5-0.2-0.5-0.5c0-0.1,0-0.2,0.1-0.3
			c-0.1,0-0.1,0-0.2,0c-0.2,0-0.4-0.1-0.5-0.3c-0.1,0.1-0.2,0.1-0.3,0.1c-0.2,0-0.4-0.1-0.5-0.2c-0.1,0.1-0.3,0.2-0.5,0.2
			c-0.2,0-0.4-0.1-0.5-0.2c-0.1,0-0.1,0.1-0.2,0.1c0,0,0.1,0,0.1,0c0.2,0,0.4,0.1,0.6,0.3c0.1-0.1,0.3-0.2,0.4-0.2
			c0.3,0,0.5,0.2,0.6,0.4c0.1-0.1,0.2-0.1,0.3-0.1c0.3,0,0.6,0.3,0.6,0.6c0,0.1,0,0.2,0,0.2c0,0,0.1,0,0.1,0c0.3,0,0.5,0.2,0.5,0.5
			c0,0.1,0,0.1,0,0.1c0.1,0,0.1-0.1,0.2-0.1c0.3,0,0.5,0.2,0.5,0.5c0,0.3-0.2,0.5-0.5,0.5c-0.3,0-0.5-0.2-0.5-0.5c0,0,0-0.1,0-0.1
			c-0.1,0.1-0.2,0.1-0.3,0.1c-0.3,0-0.5-0.2-0.5-0.5c0-0.1,0-0.1,0-0.2c-0.1,0-0.1,0-0.2,0c-0.2,0-0.4-0.1-0.5-0.3
			c-0.1,0.1-0.2,0.1-0.4,0.1c-0.2,0-0.3-0.1-0.5-0.2c-0.1,0.1-0.1,0.1-0.2,0.2c0,0,0.1,0,0.1,0c0.3,0,0.5,0.1,0.6,0.3
			c0.1-0.1,0.2-0.1,0.3-0.1c0.3,0,0.6,0.3,0.6,0.6c0,0,0,0.1,0,0.1c0,0,0.1,0,0.1,0c0.3,0,0.5,0.2,0.5,0.5c0,0,0,0.1,0,0.1
			c0.1,0,0.2-0.1,0.2-0.1c0.3,0,0.5,0.2,0.5,0.5c0,0.3-0.2,0.5-0.5,0.5s-0.5-0.2-0.5-0.5c0,0,0,0,0,0c-0.1,0.1-0.2,0.1-0.3,0.1
			c-0.3,0-0.5-0.2-0.5-0.5c0,0,0,0,0-0.1c-0.1,0-0.1,0-0.2,0c-0.2,0-0.4-0.1-0.5-0.3c-0.1,0.1-0.3,0.2-0.4,0.2
			c-0.2,0-0.3-0.1-0.4-0.2c0,0-0.1,0.1-0.1,0.1c0.2,0,0.4,0.1,0.5,0.3c0.1-0.1,0.2-0.2,0.4-0.2c0.3,0,0.6,0.3,0.6,0.6c0,0,0,0,0,0
			c0,0,0.1,0,0.1,0c0.3,0,0.6,0.2,0.6,0.6c0,0.3-0.2,0.6-0.6,0.6c-0.3,0-0.5-0.2-0.5-0.5c-0.1,0-0.1,0-0.2,0c-0.2,0-0.3-0.1-0.5-0.2
			c-0.1,0.1-0.3,0.2-0.5,0.2c-0.2,0-0.3-0.1-0.4-0.2c0,0,0,0.1-0.1,0.1c0.2,0,0.3,0.1,0.5,0.3c0.1-0.1,0.3-0.2,0.5-0.2
			c0.4,0,0.6,0.3,0.6,0.6c0,0.4-0.3,0.6-0.6,0.6c-0.2,0-0.3-0.1-0.5-0.2c-0.1,0.2-0.3,0.3-0.5,0.3l0.4,0.7c0,0,0,0,0,0
			c0-0.4,0.3-0.6,0.6-0.6s0.6,0.3,0.6,0.6c0,0.4-0.3,0.6-0.6,0.6c-0.3,0-0.6-0.3-0.6-0.6c0,0.3-0.2,0.5-0.4,0.6c0,0,0.1,0,0.1,0
			c0.4,0,0.7,0.3,0.7,0.7c0,0.1,0,0.2-0.1,0.3c0.1-0.1,0.3-0.2,0.5-0.2c0.1,0,0.2,0,0.3,0c-0.2-0.1-0.3-0.3-0.3-0.5
			c0-0.4,0.3-0.6,0.6-0.6s0.6,0.3,0.6,0.6c0,0.4-0.3,0.6-0.6,0.6c-0.1,0-0.2,0-0.2,0c0.2,0.1,0.3,0.3,0.3,0.6
			c0.1-0.3,0.3-0.5,0.7-0.5c-0.1-0.1-0.1-0.2-0.1-0.3c0-0.4,0.3-0.6,0.6-0.6c0.4,0,0.6,0.3,0.6,0.6c0,0.3-0.3,0.6-0.6,0.6
			c0.1,0.1,0.2,0.3,0.2,0.4c0,0.2-0.1,0.4-0.2,0.5c0.1,0.1,0.2,0.3,0.2,0.5c0-0.2,0.1-0.3,0.2-0.5c-0.1-0.1-0.2-0.3-0.2-0.5
			c0-0.4,0.3-0.6,0.6-0.7c-0.1-0.1-0.1-0.2-0.1-0.4c0-0.2,0.1-0.4,0.3-0.5c-0.3,0-0.5-0.3-0.5-0.5c0-0.3,0.2-0.6,0.6-0.6
			c0.3,0,0.6,0.2,0.6,0.6c0,0.2-0.1,0.4-0.3,0.5c0.3,0,0.5,0.3,0.5,0.6c0,0.3-0.2,0.6-0.5,0.6c0.1,0.1,0.2,0.3,0.2,0.5
			c0,0.2-0.1,0.3-0.2,0.5c0.2,0.1,0.3,0.3,0.3,0.6c0,0.1,0,0.3-0.1,0.4c0.2,0.1,0.4,0.4,0.4,0.7c0,0.1,0,0.2-0.1,0.2
			c0.1,0,0.2,0.1,0.2,0.2c-0.1-0.1-0.1-0.2-0.1-0.4c0-0.2,0.1-0.3,0.1-0.4c-0.3-0.1-0.4-0.3-0.4-0.6c0-0.2,0.1-0.4,0.2-0.5
			c-0.2-0.1-0.3-0.3-0.3-0.5c0-0.3,0.3-0.6,0.6-0.6c-0.1-0.1-0.2-0.3-0.2-0.4c0-0.2,0.1-0.4,0.3-0.5c0,0-0.1,0-0.1,0
			c-0.3,0-0.5-0.2-0.5-0.5c0-0.3,0.2-0.5,0.5-0.5c0.3,0,0.5,0.2,0.5,0.5c0,0.2-0.1,0.4-0.3,0.5c0,0,0.1,0,0.1,0
			c0.3,0,0.6,0.3,0.6,0.6c0,0.3-0.2,0.5-0.5,0.6c0.1,0.1,0.2,0.3,0.2,0.5c0,0.2-0.1,0.3-0.2,0.4c0.2,0.1,0.4,0.3,0.4,0.6
			c0,0.1-0.1,0.3-0.1,0.4c0.3,0.1,0.5,0.4,0.5,0.7c0,0.1,0,0.2-0.1,0.3c0.4,0.1,0.6,0.4,0.6,0.8C1634,78.9,1633.6,79.3,1633.2,79.3z
			 M1634.8,79.1c-0.4,0-0.8-0.3-0.8-0.8c0-0.1,0-0.2,0.1-0.3c-0.3-0.1-0.5-0.3-0.5-0.7c0-0.2,0.1-0.3,0.2-0.4
			c-0.3,0-0.6-0.3-0.6-0.6c0-0.2,0.1-0.4,0.3-0.5c-0.3-0.1-0.5-0.3-0.5-0.6c0-0.3,0.3-0.6,0.6-0.6c-0.2-0.1-0.3-0.3-0.3-0.5
			c0-0.3,0.2-0.5,0.5-0.5s0.5,0.2,0.5,0.5c0,0.3-0.2,0.5-0.5,0.5c0.2,0.1,0.3,0.3,0.3,0.5c0,0.2-0.1,0.3-0.2,0.5
			c0.3,0.1,0.5,0.3,0.5,0.6c0,0.1-0.1,0.3-0.1,0.4c0.3,0,0.6,0.3,0.6,0.7c0,0.1,0,0.2-0.1,0.2c0.4,0,0.7,0.4,0.7,0.7
			C1635.6,78.8,1635.2,79.1,1634.8,79.1z M1636.3,78.3c-0.4,0-0.7-0.3-0.7-0.7c0,0,0,0,0,0c-0.3-0.1-0.5-0.3-0.5-0.6
			c0-0.2,0.1-0.3,0.2-0.4c0,0-0.1,0-0.1,0c-0.3,0-0.6-0.3-0.6-0.6c0-0.3,0.3-0.6,0.6-0.6c0.3,0,0.6,0.3,0.6,0.6
			c0,0.2-0.1,0.3-0.2,0.4c0.1,0,0.1,0,0.2,0c0.3,0,0.6,0.3,0.6,0.6c0.3,0.1,0.5,0.3,0.5,0.6C1637,78,1636.7,78.3,1636.3,78.3z
			 M1637.4,76.9c-0.3,0-0.5-0.2-0.5-0.5c0-0.1,0-0.1,0-0.2c-0.1,0.1-0.2,0.1-0.3,0.1c-0.3,0-0.5-0.2-0.5-0.5c0-0.3,0.2-0.5,0.5-0.5
			c0.3,0,0.5,0.2,0.5,0.5c0,0.1,0,0.1,0,0.2c0.1-0.1,0.2-0.1,0.3-0.1c0.3,0,0.5,0.2,0.5,0.5S1637.7,76.9,1637.4,76.9z M1637.8,75.2
			c-0.2,0-0.4-0.2-0.4-0.4c0-0.2,0.2-0.4,0.4-0.4s0.4,0.2,0.4,0.4C1638.2,75,1638,75.2,1637.8,75.2z M1643.6,78.7
			c-0.3,0-0.5-0.2-0.5-0.5c0-0.1,0-0.1,0-0.2c-0.1,0.1-0.2,0.1-0.3,0.1c-0.3,0-0.6-0.3-0.6-0.6c0-0.1,0-0.2,0.1-0.3c0,0,0,0,0,0
			c-0.4,0-0.6-0.3-0.6-0.6c0-0.1,0-0.2,0.1-0.3c-0.3-0.1-0.6-0.3-0.6-0.7c0-0.1,0-0.2,0.1-0.3c-0.3-0.1-0.5-0.3-0.5-0.7
			c0-0.1,0-0.2,0.1-0.3c-0.3-0.1-0.5-0.4-0.5-0.7c0-0.1,0-0.2,0.1-0.3c-0.3-0.1-0.5-0.4-0.5-0.7c0-0.1,0-0.2,0.1-0.3
			c-0.3-0.1-0.5-0.4-0.5-0.7c0-0.1,0-0.2,0.1-0.3c-0.3-0.1-0.5-0.4-0.5-0.7c0-0.1,0-0.2,0.1-0.3c-0.3-0.1-0.5-0.4-0.5-0.7
			c0-0.1,0-0.2,0.1-0.3c-0.3-0.1-0.5-0.4-0.5-0.7c0-0.1,0-0.2,0.1-0.3c-0.3-0.1-0.5-0.4-0.5-0.7c0-0.1,0-0.2,0.1-0.3
			c-0.3-0.1-0.4-0.4-0.4-0.7c0-0.1,0-0.3,0.1-0.4c-0.3-0.1-0.4-0.3-0.4-0.6c0-0.2,0.1-0.3,0.1-0.4c-0.3-0.1-0.5-0.3-0.5-0.6
			c0-0.2,0.1-0.3,0.2-0.5c-0.3,0-0.5-0.2-0.5-0.5c0-0.3,0.2-0.5,0.5-0.5c0.2,0,0.4,0.1,0.5,0.3c0-0.1,0.1-0.2,0.1-0.2
			c-0.2,0-0.5-0.2-0.5-0.4c0,0.2-0.2,0.4-0.5,0.4c-0.3,0-0.5-0.2-0.5-0.5c0-0.3,0.2-0.5,0.5-0.5c0.2,0,0.4,0.1,0.4,0.3
			c0-0.2,0.1-0.3,0.2-0.4c0,0,0,0-0.1,0c-0.3,0-0.6-0.3-0.6-0.6c0-0.3,0.3-0.6,0.6-0.6c0.1,0,0.1,0,0.2,0c-0.1-0.1-0.1-0.2-0.1-0.3
			c0-0.2,0.1-0.3,0.2-0.5c0,0-0.1,0-0.1,0c-0.3,0-0.6-0.3-0.6-0.6c0-0.3,0.3-0.6,0.6-0.6c0.1,0,0.3,0.1,0.4,0.1c0,0,0,0,0,0
			c0-0.4,0.3-0.7,0.7-0.7c0,0,0.1,0,0.1,0c0-0.1-0.1-0.2-0.1-0.3c0-0.4,0.3-0.7,0.7-0.7c0,0,0,0,0.1,0c0-0.1-0.1-0.2-0.1-0.3
			c0-0.4,0.3-0.7,0.7-0.7c0,0,0.1,0,0.1,0c0,0,0-0.1,0-0.1c0-0.4,0.3-0.7,0.7-0.7c0.1,0,0.1,0,0.2,0c0,0,0,0,0-0.1
			c0-0.4,0.3-0.7,0.7-0.7c0.4,0,0.7,0.3,0.7,0.7c0,0.4-0.3,0.7-0.7,0.7c-0.1,0-0.1,0-0.1,0c0,0,0,0.1,0,0.1c0,0.4-0.3,0.7-0.7,0.7
			c0,0-0.1,0-0.1,0c0,0.1,0,0.1,0,0.2c0,0.4-0.3,0.7-0.7,0.7c0,0,0,0-0.1,0c0,0.1,0.1,0.2,0.1,0.3c0,0.1,0,0.1,0,0.2
			c0.1-0.2,0.4-0.4,0.6-0.4c0,0,0.1,0,0.1,0c0,0,0,0,0-0.1c0-0.4,0.3-0.7,0.7-0.7c0.1,0,0.1,0,0.2,0c0-0.4,0.3-0.6,0.7-0.6
			c0.4,0,0.7,0.3,0.7,0.7c0,0.4-0.3,0.7-0.7,0.7c-0.1,0-0.1,0-0.2,0c0,0,0,0,0,0c0,0.4-0.3,0.7-0.7,0.7c0,0-0.1,0-0.1,0
			c0,0,0,0,0,0.1c0,0.4-0.3,0.7-0.7,0.7c0,0,0,0-0.1,0c0,0.1,0,0.1,0,0.2c0,0.3-0.2,0.5-0.4,0.6c0.1,0,0.1,0,0.2,0c0,0,0.1,0,0.1,0
			c0,0,0,0,0-0.1c0-0.4,0.3-0.7,0.7-0.7c0.1,0,0.1,0,0.2,0c0-0.4,0.3-0.7,0.7-0.7c0.1,0,0.2,0,0.3,0.1c0-0.3,0.3-0.6,0.6-0.6
			c0.4,0,0.6,0.3,0.6,0.6s-0.3,0.6-0.6,0.6c-0.1,0-0.1,0-0.2,0c0,0.4-0.3,0.6-0.7,0.6c0,0-0.1,0-0.1,0c0,0,0,0,0,0
			c0,0.4-0.3,0.7-0.7,0.7c0,0-0.1,0-0.1,0c0,0,0,0.1,0,0.1c0,0.3-0.2,0.5-0.4,0.6c0.1,0,0.1,0,0.2,0c0,0,0.1,0,0.1,0
			c0-0.4,0.3-0.7,0.7-0.7c0.1,0,0.2,0,0.2,0c0-0.3,0.3-0.6,0.6-0.6c0.1,0,0.2,0,0.3,0.1c0-0.3,0.3-0.5,0.6-0.5
			c0.3,0,0.6,0.3,0.6,0.6c0,0.3-0.3,0.6-0.6,0.6c-0.1,0-0.2,0-0.3-0.1c0,0.3-0.3,0.6-0.6,0.6c-0.1,0-0.1,0-0.2,0
			c0,0.4-0.3,0.7-0.7,0.7c0,0-0.1,0-0.1,0c0,0,0,0,0,0c0,0.3-0.2,0.5-0.4,0.6c0.1,0,0.1,0,0.2,0c0.1,0,0.1,0,0.2,0
			c0-0.3,0.3-0.6,0.7-0.6c0.1,0,0.2,0,0.3,0.1c0.1-0.3,0.3-0.5,0.6-0.5c0.1,0,0.3,0.1,0.4,0.1c0.1-0.3,0.3-0.5,0.6-0.5
			c0.3,0,0.6,0.3,0.6,0.6c0,0.3-0.3,0.6-0.6,0.6c-0.1,0-0.2,0-0.3-0.1c0,0.3-0.3,0.6-0.6,0.6c-0.1,0-0.2,0-0.3-0.1
			c-0.1,0.3-0.3,0.6-0.7,0.6c-0.1,0-0.1,0-0.2,0c0,0.4-0.3,0.7-0.7,0.7c0,0-0.1,0-0.1,0c0,0.2-0.1,0.4-0.2,0.5c0.1,0,0.1,0,0.2,0
			c0.1-0.3,0.3-0.6,0.7-0.6c0.1,0,0.2,0,0.3,0.1c0.1-0.3,0.3-0.6,0.6-0.6c0.1,0,0.2,0,0.3,0.1c0.1-0.3,0.3-0.5,0.6-0.5
			c0.2,0,0.3,0.1,0.4,0.2c0.1-0.3,0.3-0.5,0.6-0.5c0.3,0,0.6,0.3,0.6,0.6c0,0.3-0.3,0.6-0.6,0.6c-0.1,0-0.3-0.1-0.4-0.1
			c-0.1,0.3-0.3,0.5-0.6,0.5c-0.1,0-0.2,0-0.3-0.1c-0.1,0.3-0.3,0.5-0.6,0.5c-0.1,0-0.2,0-0.2,0c0,0.3-0.3,0.6-0.7,0.6
			c-0.1,0-0.1,0-0.2,0c0,0.2-0.1,0.3-0.2,0.5c0.1,0,0.2,0,0.3,0.1c0.1-0.3,0.3-0.5,0.6-0.5c0.1,0,0.2,0,0.3,0.1
			c0.1-0.3,0.3-0.5,0.6-0.5c0.2,0,0.3,0.1,0.4,0.2c0.1-0.3,0.3-0.5,0.6-0.5c0.2,0,0.3,0.1,0.5,0.2c0.1-0.3,0.3-0.5,0.6-0.5
			c0.3,0,0.6,0.3,0.6,0.6c0,0.3-0.3,0.6-0.6,0.6c-0.2,0-0.3-0.1-0.4-0.2c-0.1,0.3-0.3,0.5-0.6,0.5c-0.1,0-0.3-0.1-0.4-0.1
			c-0.1,0.3-0.3,0.5-0.6,0.5c-0.1,0-0.2,0-0.3-0.1c-0.1,0.3-0.3,0.6-0.6,0.6c-0.1,0-0.1,0-0.2,0c0,0.2-0.1,0.3-0.3,0.5
			c0,0,0.1,0,0.1,0c0.1,0,0.2,0,0.3,0.1c0.1-0.3,0.3-0.5,0.6-0.5c0.1,0,0.3,0.1,0.4,0.1c0.1-0.3,0.3-0.5,0.6-0.5
			c0.2,0,0.3,0.1,0.5,0.2c0.1-0.3,0.3-0.4,0.6-0.4c0.2,0,0.4,0.1,0.5,0.3c0.1-0.3,0.3-0.5,0.6-0.5c0.3,0,0.6,0.3,0.6,0.6
			s-0.3,0.6-0.6,0.6c-0.2,0-0.4-0.1-0.5-0.3c-0.1,0.3-0.3,0.5-0.6,0.5c-0.2,0-0.3-0.1-0.4-0.2c-0.1,0.3-0.3,0.5-0.6,0.5
			c-0.1,0-0.3-0.1-0.4-0.1c-0.1,0.3-0.3,0.5-0.6,0.5c-0.1,0-0.2,0-0.3-0.1c-0.1,0.3-0.3,0.6-0.7,0.6c0,0-0.1,0-0.1,0
			c0,0.1,0,0.2,0,0.2c0.1-0.2,0.3-0.3,0.5-0.3c0.2,0,0.3,0.1,0.4,0.1c0.1-0.3,0.3-0.5,0.6-0.5c0.2,0,0.3,0.1,0.4,0.2
			c0.1-0.3,0.3-0.5,0.6-0.5c0.2,0,0.4,0.1,0.5,0.3c0.1-0.3,0.3-0.5,0.6-0.5c0.3,0,0.5,0.2,0.5,0.4c0-0.3,0.3-0.5,0.5-0.5
			c0.3,0,0.6,0.3,0.6,0.6c0,0.3-0.3,0.6-0.6,0.6c-0.2,0-0.5-0.2-0.5-0.4c0,0.3-0.3,0.5-0.6,0.5c-0.2,0-0.4-0.1-0.5-0.3
			c-0.1,0.3-0.3,0.5-0.6,0.5c-0.2,0-0.3-0.1-0.4-0.2c-0.1,0.3-0.3,0.5-0.6,0.5c-0.1,0-0.3-0.1-0.4-0.1c-0.1,0.3-0.3,0.5-0.6,0.5
			c-0.1,0-0.1,0-0.2,0c0,0.1,0,0.1,0,0.2c0,0.2-0.1,0.4-0.3,0.5c0,0,0.1,0,0.1,0c0.1,0,0.2,0,0.2,0c0-0.1,0-0.1,0-0.2
			c0-0.3,0.3-0.6,0.6-0.6c0.2,0,0.3,0.1,0.5,0.2c0.1-0.3,0.3-0.5,0.6-0.5c0.2,0,0.4,0.1,0.5,0.3c0.1-0.3,0.3-0.5,0.6-0.5
			c0.3,0,0.5,0.2,0.5,0.4c0-0.3,0.3-0.5,0.6-0.5c0.3,0,0.6,0.2,0.6,0.6c0,0.3-0.3,0.6-0.6,0.6c-0.3,0-0.5-0.2-0.5-0.4
			c0,0.3-0.3,0.5-0.6,0.5c-0.2,0-0.4-0.1-0.5-0.3c-0.1,0.3-0.3,0.5-0.6,0.5c-0.2,0-0.3-0.1-0.4-0.2c-0.1,0.3-0.3,0.5-0.6,0.5
			c-0.1,0-0.2,0-0.2,0c0,0.1,0,0.1,0,0.2c0,0.3-0.3,0.6-0.6,0.6c-0.2,0-0.3-0.1-0.4-0.2c0,0.1-0.1,0.1-0.1,0.2
			c0.2,0,0.3,0.1,0.4,0.3c0.1-0.2,0.3-0.4,0.6-0.4c0.1,0,0.2,0,0.3,0.1c0-0.1,0-0.1,0-0.2c0-0.3,0.3-0.6,0.6-0.6
			c0.2,0,0.4,0.1,0.5,0.3c0-0.3,0.3-0.5,0.6-0.5c0.3,0,0.5,0.2,0.5,0.4c0-0.3,0.2-0.5,0.5-0.5c0.3,0,0.6,0.2,0.6,0.6
			s-0.2,0.6-0.6,0.6c-0.3,0-0.5-0.2-0.5-0.4c0,0.3-0.3,0.6-0.6,0.6c-0.2,0-0.4-0.1-0.5-0.3c0,0.3-0.3,0.5-0.6,0.5
			c-0.1,0-0.2,0-0.3-0.1c0,0.1,0,0.1,0,0.2c0,0.3-0.3,0.6-0.6,0.6c-0.2,0-0.4-0.1-0.5-0.3c0,0.1-0.1,0.2-0.2,0.3
			c0.3,0,0.5,0.2,0.6,0.4c0.1-0.3,0.3-0.5,0.5-0.5c0.1,0,0.3,0.1,0.4,0.2c0-0.1,0-0.1,0-0.2c0-0.3,0.2-0.6,0.6-0.6
			c0.3,0,0.6,0.2,0.6,0.6c0,0.3-0.2,0.6-0.6,0.6c-0.1,0-0.3-0.1-0.4-0.2c0,0.1,0,0.1,0,0.2c0,0.3-0.3,0.6-0.6,0.6
			c-0.3,0-0.5-0.2-0.5-0.4c0,0.2-0.1,0.3-0.3,0.4c0.1,0,0.1,0,0.2,0c0.3,0,0.6,0.3,0.6,0.6c0,0.3-0.3,0.6-0.6,0.6
			c-0.1,0-0.2,0-0.3-0.1c0,0.1,0,0.2-0.1,0.2c0.1,0,0.2,0.1,0.3,0.2c0.1-0.2,0.3-0.4,0.5-0.4c0.3,0,0.5,0.2,0.5,0.5
			c0,0.3-0.2,0.5-0.5,0.5c-0.2,0-0.3-0.1-0.4-0.2c0,0.1-0.1,0.2-0.1,0.3c0.2,0,0.4,0.2,0.5,0.4c0-0.2,0.2-0.4,0.5-0.4
			c0.3,0,0.5,0.2,0.5,0.5c0,0.3-0.2,0.5-0.5,0.5c-0.2,0-0.4-0.1-0.4-0.3c0,0.1,0,0.2-0.1,0.3c0,0,0,0,0,0c0.3,0,0.6,0.3,0.6,0.6
			c0,0.1,0,0.2-0.1,0.3c0.1,0,0.2-0.1,0.3-0.1c0.3,0,0.5,0.3,0.5,0.6C1644.2,78.5,1643.9,78.7,1643.6,78.7z M1644.7,79.2
			c-0.3,0-0.5-0.2-0.5-0.5c0-0.3,0.2-0.5,0.5-0.5c0.3,0,0.5,0.2,0.5,0.5C1645.1,79,1644.9,79.2,1644.7,79.2z M1645.1,78.2
			c-0.2,0-0.4-0.2-0.4-0.4c0-0.2,0.2-0.4,0.4-0.4c0.2,0,0.4,0.2,0.4,0.4C1645.5,78,1645.3,78.2,1645.1,78.2z M1645.4,76.2
			c0-0.3,0.2-0.5,0.5-0.5c0.3,0,0.5,0.2,0.5,0.5s-0.2,0.5-0.5,0.5C1645.6,76.7,1645.4,76.5,1645.4,76.2z M1646,76.9
			c0.2,0,0.4,0.2,0.4,0.4s-0.2,0.4-0.4,0.4c-0.2,0-0.4-0.2-0.4-0.4S1645.8,76.9,1646,76.9z M1646.1,79.4c-0.3,0-0.5-0.2-0.5-0.5
			c0-0.3,0.2-0.5,0.5-0.5c0.3,0,0.5,0.2,0.5,0.5C1646.6,79.2,1646.3,79.4,1646.1,79.4z M1646.4,76.4c0-0.3,0.2-0.5,0.5-0.5
			s0.5,0.2,0.5,0.5c0,0.2-0.2,0.5-0.5,0.5S1646.4,76.6,1646.4,76.4z M1646.6,77.7c0-0.2,0.2-0.4,0.4-0.4c0.2,0,0.4,0.2,0.4,0.4
			c0,0.2-0.2,0.4-0.4,0.4C1646.8,78.1,1646.6,77.9,1646.6,77.7z M1647.4,78.9c-0.2,0-0.4-0.2-0.4-0.4c0-0.2,0.2-0.4,0.4-0.4
			s0.4,0.2,0.4,0.4C1647.8,78.7,1647.6,78.9,1647.4,78.9z M1647.8,77.2c-0.2,0-0.5-0.2-0.5-0.5c0-0.2,0.2-0.5,0.5-0.5
			c0.3,0,0.5,0.2,0.5,0.5C1648.3,77,1648.1,77.2,1647.8,77.2z M1648.6,77.8c-0.2,0-0.4-0.2-0.4-0.4c0-0.2,0.2-0.4,0.4-0.4
			c0.2,0,0.4,0.2,0.4,0.4C1649,77.6,1648.8,77.8,1648.6,77.8z M1649.3,76.3c-0.3,0-0.5-0.2-0.5-0.5c0-0.3,0.2-0.5,0.5-0.5
			s0.5,0.2,0.5,0.5C1649.7,76.1,1649.5,76.3,1649.3,76.3z"/>
		<path class="st0" d="M1626.5,66.7C1626.4,66.7,1626.4,66.7,1626.5,66.7c0,0.1,0.1,0.1,0.2,0.1
			C1626.6,66.8,1626.5,66.7,1626.5,66.7z"/>
		<path class="st0" d="M1627.1,66.8c0,0-0.1,0-0.1,0c-0.1,0-0.2,0-0.3-0.1c0.1,0,0.2,0.1,0.2,0.2C1627,66.9,1627,66.9,1627.1,66.8z"
			/>
	</g>
</g>
<g>
	<g>
		<path class="st0" d="M1433,71c0.5,1.4,1.2,2.5,2.1,3.5c0.9,1,2,1.7,3.2,2.2c1.2,0.5,2.6,0.8,4,0.8c1.4,0,2.7-0.3,4-0.8
			c1.2-0.5,2.3-1.3,3.2-2.2c0.9-1,1.6-2.1,2.1-3.4c0.5-1.3,0.8-2.8,0.8-4.5V41.2h6.2v41.1h-6.1v-3.8c-1.4,1.4-3,2.6-4.8,3.3
			c-1.9,0.8-3.9,1.2-6,1.2c-2.2,0-4.2-0.4-6.1-1.1c-1.9-0.8-3.5-1.8-4.9-3.3c-1.4-1.4-2.5-3.1-3.3-5.1c-0.8-2-1.2-4.2-1.2-6.6V41.2
			h6.2v25.4C1432.2,68.2,1432.5,69.7,1433,71L1433,71z M1469.2,41.2v15c1.4-1.4,3-2.5,4.8-3.3c1.8-0.8,3.8-1.2,5.9-1.2
			c2.2,0,4.2,0.4,6.2,1.2c1.9,0.8,3.6,1.9,5,3.3c1.4,1.4,2.5,3.1,3.3,5c0.8,1.9,1.2,4,1.2,6.1c0,2.2-0.4,4.2-1.2,6.1
			c-0.8,1.9-1.9,3.6-3.3,5c-1.4,1.4-3.1,2.5-5,3.3c-1.9,0.8-4,1.2-6.2,1.2c-2.1,0-4.1-0.4-5.9-1.2c-1.8-0.8-3.4-1.9-4.8-3.3v3.8
			h-5.9V41.2H1469.2z M1469.9,71.4c0.5,1.3,1.3,2.3,2.2,3.3c0.9,0.9,2,1.7,3.3,2.2c1.3,0.5,2.6,0.8,4.1,0.8c1.4,0,2.7-0.3,4-0.8
			s2.3-1.3,3.3-2.2c0.9-0.9,1.7-2,2.2-3.3c0.5-1.3,0.8-2.6,0.8-4.1s-0.3-2.8-0.8-4.1c-0.5-1.3-1.3-2.4-2.2-3.3
			c-0.9-0.9-2-1.7-3.3-2.2c-1.3-0.5-2.6-0.8-4-0.8c-1.4,0-2.7,0.3-4,0.8c-1.3,0.5-2.3,1.3-3.3,2.2c-0.9,0.9-1.7,2-2.2,3.3
			c-0.5,1.3-0.8,2.6-0.8,4.1C1469.1,68.8,1469.4,70.2,1469.9,71.4L1469.9,71.4z M1498.9,61.3c0.8-1.9,1.9-3.5,3.2-5
			c1.4-1.4,3-2.6,4.9-3.4c1.9-0.8,3.9-1.2,6.1-1.2c2.2,0,4.1,0.4,6,1.2c1.8,0.8,3.4,1.9,4.8,3.3c1.3,1.4,2.4,3,3.1,4.9
			c0.7,1.9,1.1,4,1.1,6.2v1.9h-24.4c0.2,1.2,0.6,2.3,1.2,3.4c0.6,1,1.3,1.9,2.2,2.7c0.9,0.8,1.9,1.4,3,1.8c1.1,0.4,2.3,0.6,3.6,0.6
			c3.6,0,6.4-1.5,8.6-4.4l4.3,3.2c-1.5,2-3.3,3.6-5.5,4.7c-2.2,1.1-4.7,1.7-7.4,1.7c-2.2,0-4.3-0.4-6.3-1.2c-1.9-0.8-3.6-1.9-5-3.3
			c-1.4-1.4-2.6-3.1-3.4-5c-0.8-1.9-1.2-4-1.2-6.2C1497.8,65.2,1498.1,63.2,1498.9,61.3L1498.9,61.3z M1507.2,59
			c-1.7,1.4-2.8,3.2-3.3,5.5h18.3c-0.5-2.3-1.6-4.2-3.3-5.5c-1.7-1.4-3.6-2.1-5.8-2.1C1510.8,56.9,1508.8,57.6,1507.2,59L1507.2,59z
			 M1539.2,59.7c-1.3,1.4-1.9,3.2-1.9,5.6v17h-5.9V52.3h5.9V56c0.7-1.2,1.7-2.2,2.9-2.9c1.2-0.7,2.6-1.1,4.3-1.1h2.1v5.5h-2.5
			C1542.1,57.6,1540.5,58.3,1539.2,59.7L1539.2,59.7z"/>
	</g>
</g>
<g>
	<g>
		<path class="st0" d="M1278.4,65.1c0,7-5.5,12.2-12.3,12.2s-12.3-5.2-12.3-12.2c0-7.1,5.5-12.2,12.3-12.2S1278.4,58,1278.4,65.1z
			 M1273,65.1c0-4.4-3.2-7.4-6.9-7.4c-3.7,0-6.9,3-6.9,7.4c0,4.4,3.2,7.4,6.9,7.4C1269.9,72.5,1273,69.5,1273,65.1z"/>
		<path class="st0" d="M1304.9,65.1c0,7-5.5,12.2-12.3,12.2c-6.8,0-12.3-5.2-12.3-12.2c0-7.1,5.5-12.2,12.3-12.2
			C1299.4,52.9,1304.9,58,1304.9,65.1z M1299.5,65.1c0-4.4-3.2-7.4-6.9-7.4c-3.7,0-6.9,3-6.9,7.4c0,4.4,3.2,7.4,6.9,7.4
			C1296.3,72.5,1299.5,69.5,1299.5,65.1z"/>
		<path class="st0" d="M1330.2,53.7v21.9c0,9-5.3,12.7-11.6,12.7c-5.9,0-9.5-4-10.8-7.2l4.7-1.9c0.8,2,2.9,4.3,6.2,4.3
			c4,0,6.5-2.5,6.5-7.2v-1.8h-0.2c-1.2,1.5-3.5,2.8-6.4,2.8c-6.1,0-11.7-5.3-11.7-12.2c0-6.9,5.6-12.3,11.7-12.3
			c2.9,0,5.2,1.3,6.4,2.7h0.2v-2L1330.2,53.7L1330.2,53.7z M1325.5,65.2c0-4.3-2.9-7.4-6.5-7.4c-3.7,0-6.8,3.1-6.8,7.4
			c0,4.3,3.1,7.4,6.8,7.4C1322.6,72.5,1325.5,69.4,1325.5,65.2z"/>
		<path class="st0" d="M1338.6,40.8v35.8h-5.2V40.8H1338.6z"/>
		<path class="st0" d="M1359,69.2l4.2,2.8c-1.3,2-4.6,5.4-10.2,5.4c-6.9,0-12.1-5.4-12.1-12.2c0-7.3,5.2-12.2,11.5-12.2
			c6.3,0,9.4,5,10.5,7.8l0.6,1.4l-16.3,6.8c1.3,2.5,3.2,3.7,5.9,3.7C1355.7,72.5,1357.6,71.2,1359,69.2L1359,69.2z M1346.2,64.8
			l10.9-4.5c-0.6-1.5-2.4-2.6-4.5-2.6C1349.8,57.6,1346,60,1346.2,64.8z"/>
		<path class="st0" d="M1234.1,62v-5.2h17.5c0.2,0.9,0.3,2,0.3,3.1c0,3.9-1.1,8.7-4.5,12.1c-3.3,3.5-7.6,5.3-13.2,5.3
			c-10.5,0-19.3-8.5-19.3-19s8.8-19,19.3-19c5.8,0,9.9,2.3,13,5.2l-3.7,3.7c-2.2-2.1-5.2-3.7-9.3-3.7c-7.6,0-13.6,6.2-13.6,13.8
			s6,13.8,13.6,13.8c5,0,7.8-2,9.6-3.8c1.5-1.5,2.4-3.6,2.8-6.4L1234.1,62z"/>
	</g>
</g>
<g>
	<g>
		<path class="st1" d="M891.3,80.7c-9.5,7-23.2,10.7-35,10.7c-16.6,0-31.5-6.1-42.8-16.3c-0.9-0.8-0.1-1.9,1-1.3
			c12.2,7.1,27.3,11.4,42.8,11.4c10.5,0,22-2.2,32.7-6.7C891.5,77.8,892.8,79.6,891.3,80.7"/>
		<path class="st1" d="M895.2,76.2c-1.2-1.5-8-0.7-11.1-0.4c-0.9,0.1-1.1-0.7-0.2-1.3c5.4-3.8,14.3-2.7,15.3-1.4
			c1,1.3-0.3,10.2-5.4,14.4c-0.8,0.7-1.5,0.3-1.2-0.6C893.9,84.2,896.4,77.8,895.2,76.2"/>
		<path class="st1" d="M884.4,47.7V44c0-0.6,0.4-0.9,0.9-0.9h16.6c0.5,0,1,0.4,1,0.9v3.2c0,0.5-0.5,1.2-1.2,2.3L893,61.7
			c3.2-0.1,6.6,0.4,9.5,2c0.7,0.4,0.8,0.9,0.9,1.4v4c0,0.5-0.6,1.2-1.2,0.8c-5.1-2.7-11.9-3-17.5,0c-0.6,0.3-1.2-0.3-1.2-0.9v-3.8
			c0-0.6,0-1.6,0.6-2.5l10-14.3h-8.7C884.8,48.6,884.4,48.2,884.4,47.7 M823.9,70.8h-5c-0.5,0-0.9-0.4-0.9-0.9V44
			c0-0.5,0.4-0.9,1-0.9h4.7c0.5,0,0.9,0.4,0.9,0.9v3.4h0.1c1.2-3.3,3.5-4.8,6.6-4.8c3.2,0,5.1,1.5,6.6,4.8c1.2-3.3,4-4.8,7-4.8
			c2.1,0,4.4,0.9,5.8,2.8c1.6,2.2,1.3,5.3,1.3,8.1l0,16.3c0,0.5-0.4,0.9-1,0.9h-5c-0.5,0-0.9-0.4-0.9-0.9V56.1
			c0-1.1,0.1-3.8-0.1-4.9c-0.4-1.7-1.5-2.2-3-2.2c-1.2,0-2.5,0.8-3,2.1c-0.5,1.3-0.5,3.5-0.5,5v13.7c0,0.5-0.4,0.9-1,0.9h-5
			c-0.5,0-0.9-0.4-0.9-0.9l0-13.7c0-2.9,0.5-7.1-3.1-7.1c-3.6,0-3.5,4.1-3.5,7.1v13.7C824.8,70.4,824.4,70.8,823.9,70.8 M917.1,42.5
			c7.5,0,11.5,6.4,11.5,14.6c0,7.9-4.5,14.2-11.5,14.2c-7.4,0-11.4-6.4-11.4-14.4C905.8,48.8,909.8,42.5,917.1,42.5 M917.2,47.8
			c-3.7,0-4,5.1-4,8.2c0,3.2,0,9.9,3.9,9.9c3.9,0,4.1-5.5,4.1-8.8c0-2.2-0.1-4.8-0.8-6.9C919.9,48.5,918.8,47.8,917.2,47.8
			 M938.4,70.8h-5c-0.5,0-0.9-0.4-0.9-0.9l0-25.9c0-0.5,0.5-0.8,1-0.8h4.7c0.4,0,0.8,0.3,0.9,0.7v4h0.1c1.4-3.5,3.4-5.2,6.9-5.2
			c2.3,0,4.5,0.8,5.9,3.1c1.3,2.1,1.3,5.6,1.3,8.1V70c-0.1,0.5-0.5,0.8-1,0.8h-5.1c-0.5,0-0.8-0.4-0.9-0.8V55.9c0-2.8,0.3-7-3.2-7
			c-1.2,0-2.4,0.8-2.9,2.1c-0.7,1.6-0.8,3.2-0.8,4.9v13.9C939.4,70.4,938.9,70.8,938.4,70.8 M871.1,58.4c0,2,0,3.6-0.9,5.4
			c-0.8,1.4-2.1,2.3-3.5,2.3c-1.9,0-3.1-1.5-3.1-3.7c0-4.3,3.9-5.1,7.5-5.1V58.4 M876.2,70.7c-0.3,0.3-0.8,0.3-1.2,0.1
			c-1.7-1.4-2-2-2.9-3.4c-2.8,2.8-4.7,3.7-8.3,3.7c-4.3,0-7.6-2.6-7.6-7.9c0-4.1,2.2-6.9,5.4-8.2c2.7-1.2,6.6-1.4,9.5-1.8v-0.7
			c0-1.2,0.1-2.6-0.6-3.7c-0.6-0.9-1.8-1.3-2.8-1.3c-1.9,0-3.6,1-4.1,3c-0.1,0.5-0.4,0.9-0.9,0.9l-4.9-0.5c-0.4-0.1-0.9-0.4-0.8-1.1
			c1.1-5.9,6.5-7.7,11.3-7.7c2.5,0,5.7,0.7,7.6,2.5c2.5,2.3,2.2,5.4,2.2,8.7v7.9c0,2.4,1,3.4,1.9,4.7c0.3,0.5,0.4,1,0,1.3
			C879.1,68.2,877.2,69.8,876.2,70.7L876.2,70.7 M805,58.4c0,2,0,3.6-0.9,5.4c-0.8,1.4-2.1,2.3-3.5,2.3c-1.9,0-3.1-1.5-3.1-3.7
			c0-4.3,3.9-5.1,7.5-5.1V58.4 M810.1,70.7c-0.3,0.3-0.8,0.3-1.2,0.1c-1.7-1.4-2-2-2.9-3.4c-2.8,2.8-4.7,3.7-8.3,3.7
			c-4.2,0-7.6-2.6-7.6-7.9c0-4.1,2.2-6.9,5.4-8.2c2.7-1.2,6.6-1.4,9.5-1.8v-0.7c0-1.2,0.1-2.6-0.6-3.7c-0.6-0.9-1.8-1.3-2.8-1.3
			c-1.9,0-3.6,1-4.1,3c-0.1,0.5-0.4,0.9-0.9,0.9l-4.9-0.5c-0.4-0.1-0.9-0.4-0.8-1.1c1.1-5.9,6.5-7.7,11.3-7.7c2.5,0,5.7,0.7,7.6,2.5
			c2.5,2.3,2.2,5.4,2.2,8.7v7.9c0,2.4,1,3.4,1.9,4.7c0.3,0.5,0.4,1,0,1.3C812.9,68.2,811.1,69.8,810.1,70.7L810.1,70.7"/>
	</g>
</g>
<g>
	<g>
		<path class="st0" d="M609.9,81.9c-2.1,0.4-4.3,0.5-6.5,0.8l-6.8-19.9v20.8c-2.1,0.2-4,0.5-6.1,0.8v-38h5.6l7.7,21.6V46.3h6V81.9z
			 M621.6,60.2c2.3,0,5.8-0.1,8-0.1v5.9c-2.6,0-5.7,0-8,0.1V75c3.5-0.2,7-0.5,10.5-0.6v5.7l-16.5,1.3V46.3h16.5v5.9h-10.5V60.2z
			 M654.3,52.2h-6.2v27.3c-2,0-4,0-5.9,0.1V52.2H636v-5.9h18.3L654.3,52.2z M663.9,59.8h8.1v5.9h-8.1v13.5h-5.8v-33h16.6v5.9h-10.8
			V59.8z M684.4,74c3.4,0.1,6.8,0.3,10.1,0.5v5.9c-5.3-0.3-10.6-0.7-16.1-0.8V46.3h5.9V74z M699.5,80.8c1.9,0.1,3.9,0.2,5.8,0.4v-35
			h-5.8V80.8z M731.4,46.3l-7.5,18.1l7.5,20c-2.2-0.3-4.5-0.7-6.7-1.1l-4.3-11L716,82.4c-2.2-0.4-4.2-0.5-6.4-0.8l7.7-17.4
			l-6.9-17.9h6.4l3.9,10l4.2-10H731.4z"/>
	</g>
</g>
<path class="st0" d="M426,49.9c-0.6-2.2-2.4-4-4.6-4.6c-4.1-1.1-20.4-1.1-20.4-1.1s-16.3,0-20.4,1.1c-2.2,0.6-4,2.4-4.6,4.6
	C375,54,375,62.4,375,62.4s0,8.5,1.1,12.5c0.6,2.2,2.4,4,4.6,4.6c4.1,1.1,20.4,1.1,20.4,1.1s16.3,0,20.4-1.1c2.2-0.6,4-2.4,4.6-4.6
	c1.1-4.1,1.1-12.5,1.1-12.5S427.1,54,426,49.9z M395.8,70.3V54.6l13.6,7.8L395.8,70.3z"/>
<g id="g7451_00000012437482101694114530000007406805041617185152_">
	<g>
		<g id="g7449_00000036215373241392374160000011116876786230130058_">
			<path id="path7435_00000127739237022302515090000015170192764532198317_" class="st0" d="M450.7,77.4c-1-0.7-1.8-1.8-2.2-3.3
				c-0.4-1.5-0.6-3.4-0.6-5.8V65c0-2.4,0.3-4.4,0.7-5.9c0.5-1.5,1.3-2.6,2.3-3.3c1.1-0.7,2.4-1,4.2-1c1.7,0,3,0.3,4.1,1
				c1,0.7,1.8,1.8,2.2,3.3c0.5,1.5,0.7,3.4,0.7,5.9v3.3c0,2.4-0.2,4.4-0.7,5.9c-0.5,1.5-1.2,2.6-2.2,3.3c-1,0.7-2.4,1-4.2,1
				C453.1,78.4,451.7,78.1,450.7,77.4L450.7,77.4z M456.4,73.8c0.3-0.7,0.4-2,0.4-3.6V63c0-1.6-0.1-2.8-0.4-3.6
				c-0.3-0.8-0.8-1.1-1.5-1.1c-0.7,0-1.2,0.4-1.5,1.1c-0.3,0.8-0.4,2-0.4,3.6v7.1c0,1.7,0.1,2.9,0.4,3.6c0.3,0.7,0.8,1.1,1.5,1.1
				C455.7,74.9,456.1,74.6,456.4,73.8z"/>
			<path id="path7437_00000105416090891615366080000008104495206442156982_" class="st0" d="M529.9,68.4v1.2c0,1.5,0,2.6,0.1,3.3
				c0.1,0.7,0.3,1.3,0.6,1.6c0.3,0.3,0.7,0.5,1.3,0.5c0.8,0,1.3-0.3,1.6-0.9s0.4-1.6,0.5-3l4.4,0.3c0,0.2,0,0.5,0,0.8
				c0,2.1-0.6,3.7-1.7,4.7s-2.8,1.5-4.9,1.5c-2.5,0-4.3-0.8-5.3-2.4c-1-1.6-1.5-4-1.5-7.4v-4c0-3.4,0.5-5.9,1.6-7.5
				c1.1-1.6,2.9-2.4,5.4-2.4c1.8,0,3.1,0.3,4.1,1c0.9,0.6,1.6,1.7,2,3c0.4,1.4,0.6,3.3,0.6,5.7v3.9L529.9,68.4L529.9,68.4z
				 M530.5,58.8c-0.3,0.3-0.4,0.9-0.5,1.6c-0.1,0.7-0.1,1.8-0.1,3.3v1.6h3.8v-1.6c0-1.5,0-2.6-0.1-3.3s-0.3-1.3-0.6-1.6
				c-0.3-0.3-0.7-0.5-1.2-0.5C531.2,58.2,530.8,58.4,530.5,58.8L530.5,58.8z"/>
			<path id="path7439_00000084507946535631345860000012114192201433197195_" class="st0" d="M438.1,67.9l-5.8-21.2h5.1l2.1,9.6
				c0.5,2.4,0.9,4.4,1.2,6.1h0.1c0.2-1.2,0.6-3.2,1.2-6l2.1-9.6h5.1l-5.9,21.2v10.1h-5.1L438.1,67.9L438.1,67.9z"/>
			<path id="path7441_00000156588131307563066200000000575025090907751068_" class="st0" d="M478.7,55.2v22.9h-4l-0.4-2.8h-0.1
				c-1.1,2.1-2.7,3.2-4.9,3.2c-1.5,0-2.6-0.5-3.3-1.5s-1.1-2.5-1.1-4.7V55.2h5.1V72c0,1,0.1,1.8,0.3,2.2c0.2,0.4,0.6,0.6,1.1,0.6
				c0.4,0,0.9-0.1,1.3-0.4c0.4-0.3,0.7-0.6,0.9-1V55.2H478.7z"/>
			<path id="path7443_00000033366867769576102970000016989589103121798566_" class="st0" d="M505.1,55.2v22.9h-4l-0.4-2.8h-0.1
				c-1.1,2.1-2.7,3.2-4.9,3.2c-1.5,0-2.6-0.5-3.3-1.5c-0.7-1-1.1-2.5-1.1-4.7V55.2h5.1V72c0,1,0.1,1.8,0.3,2.2
				c0.2,0.4,0.6,0.6,1.1,0.6c0.4,0,0.9-0.1,1.3-0.4c0.4-0.3,0.7-0.6,0.9-1V55.2H505.1z"/>
			<path id="path7445_00000170249395125395426260000002968861664125688735_" class="st0" d="M492.7,50.9h-5.1v27.1h-5V50.9h-5.1
				v-4.2h15.2V50.9z"/>
			<path id="path7447_00000083053394908259996540000006321432620094222262_" class="st0" d="M522.1,58.9c-0.3-1.5-0.8-2.5-1.5-3.1
				c-0.7-0.6-1.7-1-2.9-1c-0.9,0-1.8,0.3-2.7,0.8c-0.8,0.5-1.5,1.2-1.9,2.1h0V45.6h-5v32.4h4.2l0.5-2.1h0.1c0.4,0.8,1,1.4,1.8,1.8
				c0.8,0.4,1.7,0.7,2.7,0.7c1.8,0,3-0.8,3.8-2.4c0.8-1.6,1.2-4.1,1.2-7.5v-3.6C522.5,62.3,522.4,60.3,522.1,58.9L522.1,58.9z
				 M517.4,68.2c0,1.7-0.1,3-0.2,3.9c-0.1,0.9-0.4,1.6-0.7,2c-0.3,0.4-0.8,0.6-1.3,0.6c-0.4,0-0.8-0.1-1.2-0.3s-0.6-0.5-0.9-0.9v-13
				c0.2-0.6,0.5-1.1,0.9-1.5c0.4-0.4,0.9-0.6,1.4-0.6c0.5,0,0.9,0.2,1.2,0.6c0.3,0.4,0.5,1.1,0.6,2.1c0.1,1,0.2,2.4,0.2,4.1
				L517.4,68.2L517.4,68.2z"/>
		</g>
	</g>
</g>
<g>
	<g>
		<path class="st0" d="M90.7,46.6c0,0.1-0.1,0.2-0.1,0.3c-2.9,4.6-5.9,9.2-8.8,13.8c0,0-0.1,0.1-0.1,0.2c-1.4-0.6-2.9-1.1-4.3-1.7
			c0.9-1.4,1.7-2.9,2.5-4.3c0,0,0,0,0-0.1c-2.7,1.3-5.5,2.7-8.3,4.1c0.2,0.1,0.3,0.1,0.4,0.2c1.8,0.7,3.5,1.3,5.3,2
			c0.4,0.2,0.9,0.4,1.3,0.7c1,0.7,1.4,1.8,0.9,3c-0.2,0.6-0.6,1.2-0.9,1.8c-2.9,4.6-5.9,9.2-8.8,13.7c-1.2,1.9-2.4,3.8-3.6,5.7
			c-0.1,0.1-0.1,0.2-0.2,0.3c0-0.1,0-0.2,0-0.3c0-1.4,0-2.8,0-4.2c0-0.2,0-0.4,0.1-0.5c1.5-5,3.1-10,4.6-15c0-0.1,0.1-0.2,0.1-0.4
			c0.1-0.6,0-0.9-0.6-1.2c-0.8-0.4-1.6-0.8-2.4-1.2c-0.9-0.4-1.7-0.8-2.6-1.3c-0.2-0.1-0.3-0.1-0.5,0c-1.6,0.8-3.1,1.5-4.7,2.3
			c-0.9,0.4-1,0.7-0.7,1.7c1.5,5,3.1,10,4.6,15c0.1,0.2,0.1,0.5,0.1,0.7c0,1.4,0,2.9,0,4.4c-0.1-0.1-0.2-0.2-0.2-0.2
			c-4.3-6.6-8.5-13.3-12.8-20c-0.3-0.4-0.5-0.9-0.7-1.3c-0.4-1.2-0.1-2.4,1-3.1c0.5-0.4,1.2-0.6,1.8-0.9c1.6-0.6,3.2-1.2,4.8-1.8
			c0.1,0,0.2-0.1,0.4-0.2c-2.8-1.4-5.6-2.7-8.3-4.1c0,0,0,0,0,0c0.8,1.4,1.7,2.8,2.6,4.3c-0.4,0.2-0.8,0.3-1.2,0.5
			c-0.9,0.4-1.9,0.7-2.8,1.1c-0.3,0.1-0.4,0.1-0.5-0.2c-2.7-4.3-5.5-8.6-8.2-12.8c-0.2-0.4-0.5-0.8-0.7-1.2c0,0,0.1,0,0.1,0
			c0.1,0.1,0.2,0.1,0.3,0.2c8.4,2.9,16.8,5.9,25.2,8.8c0.2,0.1,0.4,0.1,0.7,0c5.8-2,11.7-4.1,17.5-6.1C85.3,48.5,88,47.5,90.7,46.6z
			"/>
		<path class="st0" d="M317.7,76.1c-2,0-3.9,0-6,0c0-2,0-3.9,0-5.8c-8.3,0-16.6,0-24.9,0c0,1.9,0,3.9,0,5.8c-2,0-3.9,0-6,0
			c0-0.1,0-0.3,0-0.4c0-4.6,0-9.1-0.1-13.7c0-2.5,1.8-4.5,4.1-5c0.4-0.1,0.9-0.1,1.3-0.1c10.4,0,20.7,0,31.1,0c0.1,0,0.3,0,0.4,0.1
			C317.7,63.3,317.7,69.7,317.7,76.1z M286.8,65.6c8.3,0,16.6,0,25,0c0-1.5,0-3,0-4.5c-0.1,0-0.1,0-0.2,0c-7.9,0-15.8,0-23.8,0
			c-0.6,0-1,0.3-1,1c0,0.8,0,1.6,0,2.4C286.8,64.8,286.8,65.2,286.8,65.6z"/>
		<path class="st0" d="M272.1,70c1.4,2,2.8,4,4.2,6.1c-0.2,0-0.3,0-0.3,0c-2.1,0-4.1,0-6.2,0c-0.3,0-0.4-0.1-0.5-0.3
			c-1.1-1.8-2.2-3.5-3.3-5.3c-0.1-0.2-0.2-0.2-0.4-0.2c-6.7,0-13.4,0-20.2,0c-0.1,0-0.1,0-0.2,0c0,1.9,0,3.9,0,5.8
			c-2.1,0-4.1,0-6.1,0c0-6.4,0-12.8,0-19.2c0.1,0,0.2,0,0.4,0c10.3,0,20.7,0,31,0c1.3,0,2.4,0.3,3.5,1c1.2,0.8,1.9,1.9,1.9,3.3
			c0,1.6,0.1,3.1,0,4.7c-0.1,1.4-0.7,2.7-1.9,3.5C273.4,69.8,272.8,70,272.1,70z M245.2,65.6c0.1,0,0.2,0,0.3,0c8,0,15.9,0,23.9,0
			c0.7,0,1-0.3,1-1c0-0.8,0-1.5,0-2.3c0-0.8-0.3-1.2-1.1-1.2c-7.9,0-15.8,0-23.7,0c-0.1,0-0.2,0-0.4,0
			C245.2,62.6,245.2,64.1,245.2,65.6z"/>
		<path class="st0" d="M150.5,56.9c0,1.8,0,3.5,0,5.3c-0.2,0-0.3,0-0.5,0c-9.8,0-19.7,0-29.5,0c-0.2,0-0.3,0-0.5,0
			c-0.4,0-0.8,0.3-0.8,0.8c0,0.1,0,0.2,0,0.4c0,2.1,0,4.3,0,6.4c0,0.8,0.3,1.1,1.2,1.1c9.9,0,19.8,0,29.8,0c0.1,0,0.3,0,0.5,0
			c0,1.7,0,3.5,0,5.2c-0.1,0-0.2,0-0.4,0c-10.3,0-20.6,0-30.9,0c-1.8,0-3.4-0.6-4.5-2.1c-0.6-0.8-1-1.8-1-2.8c0-3.1,0-6.1,0-9.2
			c0-2.5,1.8-4.5,4.1-5c0.4-0.1,0.9-0.1,1.3-0.1c10.3,0,20.7,0,31,0C150.2,56.9,150.3,56.9,150.5,56.9z"/>
		<path class="st0" d="M203.2,70.3c0,2,0,3.9,0,5.8c-2,0-4,0-6,0c0-6.4,0-12.8,0-19.2c0.1,0,0.2,0,0.3,0c10.4,0,20.8,0,31.2,0
			c0.8,0,1.5,0.1,2.3,0.3c1.9,0.5,3,1.8,3,3.8c0,1.6,0,3.3,0,4.9c-0.1,2.2-1.2,3.7-3.3,4.2c-0.6,0.1-1.2,0.2-1.8,0.2
			c-2.6,0-5.3,0-7.9,0c-5.8,0-11.7,0-17.5,0C203.5,70.3,203.4,70.3,203.2,70.3z M203.2,65.6c0.1,0,0.2,0,0.3,0c8,0,16.1,0,24.1,0
			c0.7,0,1.1-0.3,1.1-1.1c0-0.8,0-1.5,0-2.3c0-0.8-0.3-1.1-1.1-1.1c-8,0-16,0-24,0c-0.1,0-0.2,0-0.4,0
			C203.2,62.6,203.2,64.1,203.2,65.6z"/>
		<path class="st0" d="M186,56.9c2.1,0,4.2,0,6.3,0c0,0.1,0,0.2,0,0.4c0,4.6,0,9.2,0,13.8c0,2.6-1.9,4.6-4.4,5
			c-0.4,0.1-0.7,0.1-1.1,0.1c-8.6,0-17.2,0-25.9,0c-1.9,0-3.5-0.7-4.7-2.3c-0.5-0.7-0.8-1.6-0.8-2.5c0-4.7,0-9.5,0-14.2
			c0-0.1,0-0.1,0-0.2c2.1,0,4.2,0,6.3,0c0,0.1,0,0.3,0,0.4c0,4.1,0,8.3,0,12.4c0,0.8,0.3,1.1,1.1,1.1c7.3,0,14.6,0,22,0
			c0.8,0,1.1-0.3,1.1-1.1c0-4.1,0-8.2,0-12.4C186,57.2,186,57.1,186,56.9z"/>
	</g>
</g>
<g>
	<g>
		<g transform="translate(.001 -9.115)">
			<path class="st0" d="M1073.1,74.5c0.1,0,0.1,0,0.2,0c1.6,0.2,3.1,0.5,4.3,1c1.1,0.5,1.7,1.1,2.3,2.2c0.9,1.6,0.9,3.9,0.1,5.7
				c-0.6,1.3-1.9,2.4-3.1,3c-1.2,0.6-2.5,0.9-3.9,1c-2.5,0.3-5.1-0.2-7.3-1.3c-1.3-0.6-2.9-1.7-3.7-3.2c-0.6-1-0.6-2.4,0.1-3.4
				c1.1-1.6,3.6-1.9,5.5-1.9c1.4,0.1,4,0.5,5.3,1c0.4,0.1,1.7,0.7,2,0.9c0.2,0.2,0.3,0.4,0.2,0.6c-0.3,0.9-2.6,1.4-3.2,1.5
				c-1.8,0.3-2.7-0.4-4.7-1.2c-0.5-0.2-1.2-0.4-1.7-0.5c-0.9-0.1-2,0.2-2.2,1.2c-0.1,0.5,0.5,1,1,1.2c1.1,0.5,1.9,0.6,3,0.6
				c3.1,0.1,6.6-0.5,9.2-2.3c0.3-0.2,0.7-0.6,0.7-1.1c0-0.9-1.6-1.5-1.6-1.5c-1.7-0.7-4.9-1.1-6.5-1.2c-1.7-0.1-4.4-0.4-5.1-0.5
				c-0.7-0.1-1.4-0.2-2-0.5c-0.6-0.3-1.2-0.9-1.3-1.5c-0.3-1.2,0.1-2.6,0.7-3.5c1.7-2.5,5.7-3.4,8.7-3.8c2.9-0.4,7.6-0.4,10.4,1.2
				c0.4,0.2,0.7,0.5,0.6,0.9c-0.2,0.9-0.8,1.4-1.6,1.7c-0.8,0.3-2.6,0.4-3.3,0.4c-3.4,0.2-7.6,0.1-10.8,1c-0.3,0.1-0.7,0.2-0.8,0.4
				c-0.5,0.6,0.9,0.7,1.3,0.8c0.1,0,0.1,0,0.2,0L1073.1,74.5 M1052.8,59.2c0,0,0.6-0.8,1-1.5c0.8-1.2,2.4-2.8,3.5-3.7
				c0.4-0.3,0.8-0.6,0.8-0.6s-0.7,0.1-1,0.1c-0.9,0.2-2.2,1-2.8,1.6c-1.1,0.9-2.2,2.4-1.7,3.7C1052.6,58.9,1052.8,59.2,1052.8,59.2
				 M1058.7,60.8c1.7-0.1,3.2-0.6,4.7-1.4c1.4-0.8,3.5-2.4,3.3-4.2c-0.1-0.6-0.5-1-0.9-1.3c-0.6-0.3-1-0.2-1.8,0
				c-0.6,0.2-0.9,0.3-1.4,0.6c-1.6,1-4,3-5.2,4.6c-0.3,0.4-0.6,0.8-0.8,1.1c-0.1,0.2-0.3,0.3-0.2,0.4
				C1056.3,60.8,1058,60.8,1058.7,60.8 M1054.4,63.9c-0.2,0.2-0.4,0.6-0.5,0.9c-0.1,0.2-0.3,0.4-0.4,0.5c-0.4,0.3-0.8,0.3-1.2,0
				c-0.6-0.5-0.9-1.3-1-2.1c0-0.3,0-0.7,0-1c-0.1-0.5-0.6-1-0.9-1.5c-0.3-0.6-0.6-1.5-0.6-2.1c-0.1-1.9,0.9-3.7,2.2-5.1
				c1.3-1.4,3.1-2.6,5-3.4c1.8-0.8,4.4-1.3,6.4-0.6c0.6,0.2,1.5,0.8,2,1.3c0.1,0.1,0.2,0.2,0.3,0.3c0.1,0.1,0.3,0.1,0.5,0.1
				c0.6,0.1,1.5,0.6,1.9,0.9c0.7,0.6,1.1,1.3,1.3,2.1c0.4,1.8-0.7,3.7-1.8,4.9c-2,2.1-4,3.5-6.5,4.5c-1.1,0.4-2.9,0.9-4.2,0.7
				c-0.4,0-0.8-0.1-1.2-0.2c-0.2,0-0.9-0.2-1-0.3C1054.5,63.9,1054.4,63.9,1054.4,63.9 M1056.7,67.9c0.1,0,0.2,0,0.3,0.1
				c0.9,0.3,1.3,1.2,1.5,2.1c0.5,2.1,0.7,6.8,0.8,8.7c0.1,1.4,0.1,2.7,0.2,4.1c0,1.2,0.1,2.7-0.1,3.8c-0.1,0.4-0.3,0.8-0.7,1.1
				c-0.4,0.3-1.4,0.3-1.9,0.2c-1.3-0.3-1.7-1.1-1.9-2.4c-0.4-3.1-0.2-9.2,0-11.8c0.1-0.8,0.4-3.6,0.9-4.7
				C1055.8,68.5,1056.1,67.8,1056.7,67.9 M1016.6,73c0,0-2,0.1-3.3,0.3c-1.7,0.2-4.9,0.7-6.8,1.4c-0.6,0.2-1.7,0.7-1.8,1.2
				c-0.1,0.6,0.3,1.1,0.7,1.5c0.2,0.3,1.6,1.6,2,1.9c1.6,1.3,4.8,3.4,7.1,4.3c0.8,0.3,2.2,0.8,2.2,0.8s-0.1-3.8-0.1-7.6
				C1016.6,75,1016.6,73,1016.6,73 M1052.6,74.6c0.1,1-0.2,3-0.2,3.2c-0.1,0.6-0.5,1.9-0.6,2.1c-0.4,0.8-0.7,1.5-1.1,2.2
				c-0.6,1.2-2.2,3-3.1,3.8c-3.4,2.9-8.6,4.6-13.1,5.1c-3,0.4-6.5,0.3-9.8-0.3c-1.1-0.2-2.8-0.6-2.8-0.6s0,0.7,0,1.1
				c0,0.2-0.2,0.8-0.3,0.9c-0.2,0.5-0.6,0.7-1.2,0.8c-0.7,0.1-1.4,0.2-2-0.1c-1-0.4-1.4-1.4-1.6-2.5c-0.1-0.9-0.3-2.4-0.3-2.4
				s-0.8-0.4-1.4-0.7c-2-1-3.8-2.1-5.5-3.3c-0.5-0.3-2.4-2-2.8-2.4c-1.2-1.1-2.3-2.3-3.1-3.7c-0.6-1.1-0.8-2.1-0.3-3.3
				c0.7-1.7,3.1-2.9,4.7-3.7c1.2-0.5,5-1.8,6.5-2c0.7-0.1,1.9-0.3,2-0.4c0,0,0,0,0.1-0.1c0-0.1,0.1-1.7,0.1-2.3
				c0-0.6,0.4-4.5,0.6-5.4c0.1-0.4,0.4-2.2,0.8-2.6c0.2-0.3,0.6-0.3,1-0.1c1.8,1.1,2.3,5,2.5,6.9c0.1,1.2,0.1,3,0.1,3s2.1-0.1,3.3,0
				c1.2,0,2.6,0.2,3.9,0.4c1.6,0.3,4.8,1,6.6,1.9c1.5,0.8,2.9,2,3.4,3.4c0.4,1.2,0.4,2.1-0.3,3.2c-0.7,1.3-2.1,2.2-3.5,2.3
				c-0.4,0-2-0.2-2.4-0.6c-0.2-0.1-0.2-0.4,0-0.6c0.1-0.1,0.8-0.5,1.2-0.7c0.2-0.1,0.4-0.2,0.6-0.4c0.4-0.3,0.7-0.7,0.6-1.1
				c0-0.5-0.6-0.9-1.1-1.1c-2.5-1-7.5-1.8-9.9-2c-0.9-0.1-2.3-0.1-2.3-0.1l0.3,13.3c0,0,1.1,0.2,2,0.4c0.5,0.1,2.6,0.3,3.2,0.3
				c4.3,0.1,9.1-0.3,13-2.1c1.7-0.8,3.3-1.8,4.5-3.2c1.6-1.8,2.4-4.3,2.2-6.9c-0.2-2.8-2.2-6.2-3.8-8.2c-4.2-5.4-11.4-9.9-17.8-12.5
				c-6.5-2.7-12.9-4.2-19.7-4.4c-1.8-0.1-5.6,0-7.6,0.6c-0.3,0.1-0.6,0.2-0.8,0.2c-0.2,0.1-0.5,0.2-0.6,0.3c0,0-0.1,0.1-0.1,0.1
				c0,0,0.1,0.1,0.2,0.1c0.2,0.1,1.1,0.1,1.5,0.2c0.4,0.1,0.8,0.3,1,0.6c0.2,0.3,0.2,0.5,0,0.7c-0.4,0.5-2.1,0.4-2.8,0.3
				c-0.8-0.1-1.7-0.4-1.9-1c-0.2-0.8,0.2-1.5,0.6-2.3c0.8-1.4,2-2.2,3.6-2.6c2.4-0.7,5.4-1.1,7.7-1.2c5.1-0.2,10,0.7,15,2.2
				c2.8,0.9,6.6,2.3,9.3,3.6c2,0.9,5,2.7,6.8,3.8c0.5,0.4,3.7,2.7,4.2,3.1c1,0.8,2.4,2.1,3.4,3c1.9,1.9,4.3,4.8,5.4,7
				c0.3,0.5,0.5,1.1,0.8,1.7c0.1,0.2,0.6,1.5,0.7,1.9c0.1,0.4,0.2,0.9,0.2,0.9C1052.3,73,1052.6,74.1,1052.6,74.6 M1117,71.6
				c-2.4,0.6-8.7,0.9-8.7,0.9l-0.8,2.5c0,0,3.2-0.3,5.5,0c0,0,0.7-0.1,0.8,0.8c0,0.9-0.1,1.8-0.1,1.8s0,0.6-0.8,0.7
				c-0.9,0.1-6.8,0.4-6.8,0.4l-1,3.3c0,0-0.4,0.8,0.4,0.5c0.7-0.2,7-1.4,7.8-1.2c0.9,0.2,1.8,1.4,1.6,2.4c-0.3,1.3-6.5,5.3-10.3,5
				c0,0-2,0.1-3.7-2.6c-1.6-2.6,0.6-7.4,0.6-7.4s-1-2.3-0.3-3c0,0,0.4-0.4,1.7-0.5l1.5-3.1c0,0-1.7,0.1-2.8-1.2
				c-1-1.2-1-1.8-0.3-2.1c0.8-0.4,8-1.7,13-1.5c0,0,1.7-0.2,3.2,2.8C1117.5,70.1,1118.3,71.3,1117,71.6 M1098.3,83.7
				c-0.6,1.5-2.3,3.1-4.4,2.1c-2.1-1-5.3-7.7-5.3-7.7s-1.2-2.5-1.5-2.4c0,0-0.3-0.5-0.4,2.2c-0.2,2.7,0,8-1.1,8.9
				c-1,0.8-2.3,0.5-2.9-0.5c-0.6-1-0.8-3.3-0.5-7.3c0.4-4,1.3-8.3,2.5-9.7c1.2-1.3,2.2-0.4,2.5,0c0,0,1.6,1.5,4.2,5.7l0.5,0.8
				c0,0,2.4,4,2.7,4c0,0,0.2,0.2,0.4,0.1c0.3-0.1,0.2-1.4,0.2-1.4s-0.5-4.4-2.7-11.8c0,0-0.3-0.9-0.1-1.8c0.2-0.9,1.1-0.5,1.1-0.5
				s3.4,1.7,5,7.2C1100.1,77.2,1099,82.2,1098.3,83.7 M1134.9,80.4c-1.5,2.7-5.9,8.3-11.7,7c-1.9,4.6-3.5,9.3-4.4,16.4
				c0,0-0.2,1.4-1.3,0.9c-1.1-0.4-3-2.3-3.4-4.8c-0.4-3.4,1.1-9.1,4.2-15.7c-0.9-1.5-1.5-3.6-1-6.5c0,0,0.8-5.5,6.3-10.5
				c0,0,0.7-0.6,1.1-0.4c0.4,0.2,0.2,2-0.1,2.9c-0.4,0.9-2.8,5.2-2.8,5.2s-1.5,2.9-1.1,5.2c2.9-4.5,9.5-13.5,13.7-10.7
				c1.4,1,2,3.1,2,5.5C1136.3,76.6,1135.8,78.8,1134.9,80.4 M1133.7,73.3c0,0-0.2-1.8-2,0.2c-1.5,1.7-4.2,4.8-6.4,9
				c2.3-0.3,4.5-1.5,5.2-2.1C1131.5,79.4,1134.1,76.8,1133.7,73.3 M1166.8,72.9h-10.6c-0.2-3.6-0.6-7.1-1.3-10.7
				c-0.1-0.4-0.4-0.6-0.8-0.6h-2.4c-0.2,0-0.4,0.1-0.6,0.3c-0.1,0.2-0.2,0.4-0.2,0.6c0.7,3.5,1.1,7,1.4,10.5H1142
				c-0.5,0-0.9,0.4-0.9,0.9V76c0,0.5,0.4,0.9,0.9,0.9h10.4c0,0.5,0,1,0,1.5c0,3.2-0.1,5.8-0.5,8.8c0,0.2,0,0.5,0.2,0.6
				c0.2,0.2,0.4,0.3,0.6,0.3h2.3c0.4,0,0.8-0.3,0.9-0.8c0.3-3,0.4-5.6,0.4-8.9c0-0.5,0-0.9,0-1.5h10.5c0.5,0,0.9-0.4,0.9-0.9v-2.2
				C1167.7,73.3,1167.3,72.9,1166.8,72.9 M994.5,9.1"/>
		</g>
	</g>
</g>
</svg>
