<svg width="303" height="46" viewBox="0 0 303 46" fill="none" xmlns="http://www.w3.org/2000/svg">
<path d="M299.994 3.42383H3V42.9017H299.994V3.42383Z" stroke="#3AFE14" stroke-width="5" stroke-miterlimit="10"/>
<path d="M24.6768 18.7722V17.6646C24.2812 17.5855 23.8856 17.5854 23.4901 17.5854C19.7717 17.5854 16.4489 20.038 15.3413 23.5981C14.2337 27.1582 15.5787 31.0348 18.585 33.1709C16.2907 30.7184 15.6578 27.1582 16.9236 23.9937C18.3477 20.8291 21.354 18.8513 24.6768 18.7722Z" fill="#3AFE14"/>
<path d="M24.9146 31.1927C26.9715 31.1927 28.712 29.5313 28.7911 27.4743V8.80341H32.193C32.1139 8.40784 32.1139 8.01227 32.1139 7.6167H27.4462V26.2876C27.3671 28.4237 25.6266 30.0851 23.5696 30.0851C22.9367 30.0851 22.3038 29.9268 21.75 29.6104C22.462 30.5597 23.6487 31.1927 24.9146 31.1927ZM38.6013 15.1325V14.1041C37.3354 14.1041 36.1487 13.7085 35.0411 13.0756C35.9905 14.1041 37.1772 14.8161 38.6013 15.1325Z" fill="#3AFE14"/>
<path d="M35.0407 13.0759C34.0122 11.8892 33.4584 10.386 33.4584 8.80371H32.1926C32.509 10.5442 33.5375 12.0474 35.0407 13.0759ZM23.5692 22.174C21.7496 22.174 20.2464 23.4398 19.7717 25.1803C19.3761 26.9208 20.1673 28.7404 21.7496 29.5316C20.4837 27.7911 20.8793 25.3385 22.6198 24.0727C23.2527 23.598 24.123 23.3607 24.9141 23.3607C25.3097 23.3607 25.7052 23.4398 26.1008 23.5189V18.7721C25.7052 18.693 25.3097 18.693 24.9141 18.693H24.6768V22.3322C24.2812 22.2531 23.9647 22.174 23.5692 22.174Z" fill="#3AFE14"/>
<path d="M38.6013 15.1328V18.7721C36.307 18.7721 34.0127 18.06 32.1139 16.636V26.1297C32.1139 30.8765 28.2373 34.674 23.5696 34.674C21.8291 34.674 20.0886 34.1202 18.6646 33.0917C21.038 35.7024 24.7563 36.4936 28.0791 35.2278C31.3228 33.9619 33.538 30.7974 33.538 27.2372V17.8227C35.4367 19.1676 37.6519 19.8796 40.0253 19.8796V15.2119C39.4715 15.291 38.9968 15.2119 38.6013 15.1328Z" fill="#3AFE14"/>
<path d="M32.1136 26.1292V16.6355C34.0123 17.9805 36.2275 18.6925 38.6009 18.6925V15.0532C37.256 14.7368 35.9902 14.0248 35.0408 12.9963C33.5376 12.0469 32.5092 10.4646 32.1927 8.72412H28.7908V27.395C28.7117 29.0564 27.6041 30.4805 26.0218 30.9551C24.4395 31.4298 22.699 30.876 21.7497 29.5311C20.1674 28.6608 19.3762 26.9203 19.7718 25.1798C20.1674 23.4393 21.7497 22.1735 23.5693 22.1735C23.9648 22.1735 24.3604 22.2526 24.756 22.3317V18.6925C21.3541 18.7716 18.3478 20.8286 17.0028 23.914C15.6579 26.9994 16.3699 30.6387 18.6642 33.0912C20.0883 34.0406 21.8288 34.5944 23.5693 34.5153C28.237 34.6735 32.1136 30.7969 32.1136 26.1292Z" fill="#3AFE14"/>
<path d="M51.7339 3.42383V42.8226" stroke="#3AFE14" stroke-width="5" stroke-miterlimit="10"/>
<path d="M85.9904 27.1577C85.9904 32.8539 81.56 34.9899 73.5695 34.9899C65.6581 34.9899 60.1992 33.4868 60.1992 26.2083H68.6644C68.6644 27.8697 70.6423 27.8697 73.8068 27.8697C76.8131 27.8697 77.6043 27.1577 77.6043 25.6545C77.6043 24.2304 76.8131 23.4393 74.2024 23.4393C72.1454 23.4393 70.2467 23.8349 67.6359 24.8634L61.1486 23.7558L64.0758 11.8887H84.329V18.376H69.9302L68.8226 21.3032C71.1961 20.433 72.9366 19.8001 76.5758 19.8001C82.5093 19.8792 85.9904 22.7273 85.9904 27.1577Z" fill="#3AFE14"/>
<path d="M94.7717 28.8193V34.6738H86.9395V28.8193H94.7717Z" fill="#3AFE14"/>
<path d="M121.117 27.1577C121.117 32.4584 116.766 34.99 108.775 34.99C99.4396 34.99 95.0884 31.1925 95.0884 23.8349C95.0884 14.4204 100.705 11.5723 107.351 11.5723C112.968 11.5723 116.766 12.3634 119.535 12.9172V19.4046C116.291 18.7716 112.968 18.0596 108.775 18.0596C105.769 18.0596 104.186 18.8508 103.712 21.5406C105.611 20.2748 108.142 19.8792 110.832 19.8792C116.766 19.8792 121.117 22.1735 121.117 27.1577ZM112.652 26.0501C112.652 24.4678 111.781 23.6767 108.063 23.6767C104.345 23.6767 103.474 24.4678 103.474 26.0501C103.474 27.6324 104.345 28.5027 108.063 28.5027C111.781 28.5027 112.652 27.6324 112.652 26.0501Z" fill="#3AFE14"/>
<path d="M122.066 23.2811C122.066 15.3697 126.339 11.5723 135.358 11.5723C144.377 11.5723 148.649 15.3697 148.649 23.2811C148.649 31.1925 144.297 34.99 135.358 34.99C126.339 34.99 122.066 31.1925 122.066 23.2811ZM140.263 23.2811C140.263 20.9077 139.392 18.7716 135.358 18.7716C131.323 18.7716 130.452 20.9077 130.452 23.2811C130.452 25.7337 131.323 27.8697 135.358 27.8697C139.392 27.8697 140.263 25.6546 140.263 23.2811Z" fill="#3AFE14"/>
<path d="M149.361 23.2811C149.361 15.3697 153.633 11.5723 162.652 11.5723C171.671 11.5723 175.943 15.3697 175.943 23.2811C175.943 31.1925 171.592 34.99 162.652 34.99C153.633 34.99 149.361 31.1925 149.361 23.2811ZM167.557 23.2811C167.557 20.9077 166.687 18.7716 162.652 18.7716C158.617 18.7716 157.747 20.9077 157.747 23.2811C157.747 25.7337 158.617 27.8697 162.652 27.8697C166.687 27.8697 167.557 25.6546 167.557 23.2811Z" fill="#3AFE14"/>
<path d="M184.804 28.8193V34.6738H176.972V28.8193H184.804Z" fill="#3AFE14"/>
<path d="M185.753 23.2811C185.753 15.3697 190.026 11.5723 199.045 11.5723C208.064 11.5723 212.336 15.3697 212.336 23.2811C212.336 31.1925 207.984 34.99 199.045 34.99C190.026 34.99 185.753 31.1925 185.753 23.2811ZM203.95 23.2811C203.95 20.9077 203.079 18.7716 199.045 18.7716C195.01 18.7716 194.139 20.9077 194.139 23.2811C194.139 25.7337 195.01 27.8697 199.045 27.8697C203.079 27.8697 203.95 25.6546 203.95 23.2811Z" fill="#3AFE14"/>
<path d="M213.047 23.2811C213.047 15.3697 217.32 11.5723 226.338 11.5723C235.357 11.5723 239.63 15.3697 239.63 23.2811C239.63 31.1925 235.278 34.99 226.338 34.99C217.399 34.99 213.047 31.1925 213.047 23.2811ZM231.323 23.2811C231.323 20.9077 230.452 18.7716 226.418 18.7716C222.383 18.7716 221.513 20.9077 221.513 23.2811C221.513 25.7337 222.383 27.8697 226.418 27.8697C230.373 27.8697 231.323 25.6546 231.323 23.2811Z" fill="#3AFE14"/>
<path d="M240.42 23.2811C240.42 15.3697 244.693 11.5723 253.712 11.5723C262.731 11.5723 267.003 15.3697 267.003 23.2811C267.003 31.1925 262.651 34.99 253.712 34.99C244.693 34.99 240.42 31.1925 240.42 23.2811ZM258.617 23.2811C258.617 20.9077 257.746 18.7716 253.712 18.7716C249.677 18.7716 248.806 20.9077 248.806 23.2811C248.806 25.7337 249.677 27.8697 253.712 27.8697C257.746 27.8697 258.617 25.6546 258.617 23.2811Z" fill="#3AFE14"/>
<path d="M294.693 26.8416H284.962V34.6739H277.13V26.8416H268.665V20.3542H277.13V12.522H284.962V20.3542H294.693V26.8416Z" fill="#3AFE14"/>
</svg>
