<svg width="292" height="45" viewBox="0 0 292 45" fill="none" xmlns="http://www.w3.org/2000/svg">
<path d="M289.231 3H3.07617V42.4779H289.231V3Z" stroke="#3AFE14" stroke-width="5" stroke-miterlimit="10"/>
<path d="M51.8101 3V42.4779" stroke="#3AFE14" stroke-width="5" stroke-miterlimit="10"/>
<path d="M78.0756 27.1299V34.2501H56.6357V27.1299H63.2022L63.2813 19.7723C60.8288 21.9875 59.0883 21.9875 56.7149 21.9875V14.8672C60.0376 14.8672 63.2022 14.8672 63.2022 11.6235H71.5883V27.209H78.0756V27.1299Z" fill="#3AFE14"/>
<path d="M87.1741 28.3955V34.2499H79.3418V28.3955H87.1741Z" fill="#3AFE14"/>
<path d="M112.015 11.5439V18.6642C102.759 23.2528 99.9902 28.3952 99.9902 34.2496H91.525C91.525 28.3952 92.6326 23.1737 100.94 18.6642H87.8066V11.5439H112.015Z" fill="#3AFE14"/>
<path d="M134.721 27.1299V34.2501H113.281V27.1299H119.848L119.927 19.7723C117.474 21.9875 115.734 21.9875 113.36 21.9875V14.8672C116.683 14.8672 119.848 14.8672 119.848 11.6235H128.313V27.209H134.721V27.1299Z" fill="#3AFE14"/>
<path d="M135.433 22.8573C135.433 14.9459 139.705 11.1484 148.724 11.1484C157.743 11.1484 162.015 14.9459 162.015 22.8573C162.015 30.7687 157.664 34.5662 148.724 34.5662C139.705 34.6453 135.433 30.7687 135.433 22.8573ZM153.629 22.8573C153.629 20.4839 152.759 18.3478 148.724 18.3478C144.689 18.3478 143.819 20.4839 143.819 22.8573C143.819 25.3098 144.689 27.4459 148.724 27.4459C152.759 27.4459 153.629 25.3098 153.629 22.8573Z" fill="#3AFE14"/>
<path d="M170.797 28.3955V34.2499H162.965V28.3955H170.797Z" fill="#3AFE14"/>
<path d="M171.826 22.8573C171.826 14.9459 176.098 11.1484 185.117 11.1484C194.136 11.1484 198.408 14.9459 198.408 22.8573C198.408 30.7687 194.057 34.5662 185.117 34.5662C176.098 34.6453 171.826 30.7687 171.826 22.8573ZM190.022 22.8573C190.022 20.4839 189.152 18.3478 185.117 18.3478C181.082 18.3478 180.212 20.4839 180.212 22.8573C180.212 25.3098 181.082 27.4459 185.117 27.4459C189.152 27.4459 190.022 25.3098 190.022 22.8573Z" fill="#3AFE14"/>
<path d="M199.12 22.8573C199.12 14.9459 203.392 11.1484 212.411 11.1484C221.43 11.1484 225.702 14.9459 225.702 22.8573C225.702 30.7687 221.351 34.5662 212.411 34.5662C203.392 34.6453 199.12 30.7687 199.12 22.8573ZM217.316 22.8573C217.316 20.4839 216.446 18.3478 212.411 18.3478C208.376 18.3478 207.506 20.4839 207.506 22.8573C207.506 25.3098 208.376 27.4459 212.411 27.4459C216.446 27.4459 217.316 25.3098 217.316 22.8573Z" fill="#3AFE14"/>
<path d="M226.415 22.8573C226.415 14.9459 230.687 11.1484 239.706 11.1484C248.725 11.1484 252.997 14.9459 252.997 22.8573C252.997 30.7687 248.646 34.5662 239.706 34.5662C230.687 34.6453 226.415 30.7687 226.415 22.8573ZM244.611 22.8573C244.611 20.4839 243.74 18.3478 239.706 18.3478C235.671 18.3478 234.801 20.4839 234.801 22.8573C234.801 25.3098 235.671 27.4459 239.706 27.4459C243.74 27.4459 244.611 25.3098 244.611 22.8573Z" fill="#3AFE14"/>
<path d="M280.686 26.4964H270.955V34.3287H263.123V26.4964H254.658V20.009H263.123V12.1768H270.955V20.009H280.686V26.4964Z" fill="#3AFE14"/>
<path d="M41.9209 15.8164C41.6045 14.5506 40.6551 13.6012 39.3893 13.2848C37.1741 12.6519 28.1551 12.6519 28.1551 12.6519C28.1551 12.6519 19.2152 12.6519 16.9209 13.2848C15.6551 13.6012 14.7057 14.6297 14.3893 15.8164C13.7564 18.0316 13.7563 22.7784 13.7563 22.7784C13.7563 22.7784 13.7564 27.4462 14.3893 29.7405C14.7057 31.0063 15.6551 31.9557 16.9209 32.2721C19.1361 32.905 28.1551 32.905 28.1551 32.905C28.1551 32.905 37.095 32.905 39.3893 32.2721C40.6551 31.9557 41.6045 30.9272 41.9209 29.7405C42.5538 27.5253 42.5538 22.7784 42.5538 22.7784C42.5538 22.7784 42.4747 18.0316 41.9209 15.8164ZM25.2279 26.9715V18.4272L32.7437 22.6993L25.2279 26.9715Z" fill="#3AFE14"/>
</svg>
