<svg width="249" height="45" viewBox="0 0 249 45" fill="none" xmlns="http://www.w3.org/2000/svg">
<path d="M246 3H3V42H246V3Z" stroke="#3AFE14" stroke-width="5" stroke-miterlimit="10"/>
<path d="M51.9971 3V42.4779" stroke="#3AFE14" stroke-width="5" stroke-miterlimit="10"/>
<path d="M91.4749 31.7185H88.2312V34.3292H79.766V31.7185H64.9717V24.5982L79.766 11.6235H88.2312V24.5982H91.4749V31.7185ZM79.766 24.5191V18.6647L72.804 24.5191H79.766Z" fill="#3AFE14"/>
<path d="M118.77 26.813C118.77 32.1136 114.418 34.6453 106.428 34.6453C97.0925 34.6453 92.7412 30.8478 92.7412 23.4902C92.7412 14.0756 98.3583 11.2275 105.004 11.2275C110.7 11.2275 114.418 12.0187 117.187 12.5725V19.0598C113.944 18.4269 110.621 17.7149 106.428 17.7149C103.422 17.7149 101.839 18.506 101.365 21.1959C103.263 19.9301 105.795 19.5345 108.485 19.5345C114.498 19.4554 118.77 21.8288 118.77 26.813ZM110.384 25.6263C110.384 24.044 109.513 23.2529 105.795 23.2529C102.077 23.2529 101.206 24.044 101.206 25.6263C101.206 27.2086 102.077 28.0788 105.795 28.0788C109.513 28.0788 110.384 27.2086 110.384 25.6263Z" fill="#3AFE14"/>
<path d="M127.867 28.3955V34.2499H120.035V28.3955H127.867Z" fill="#3AFE14"/>
<path d="M128.896 22.8573C128.896 14.9459 133.168 11.1484 142.187 11.1484C151.206 11.1484 155.478 14.9459 155.478 22.8573C155.478 30.7687 151.127 34.5662 142.187 34.5662C133.168 34.6453 128.896 30.7687 128.896 22.8573ZM147.092 22.8573C147.092 20.4839 146.221 18.3478 142.187 18.3478C138.152 18.3478 137.282 20.4839 137.282 22.8573C137.282 25.3098 138.152 27.4459 142.187 27.4459C146.221 27.4459 147.092 25.3098 147.092 22.8573Z" fill="#3AFE14"/>
<path d="M156.19 22.8573C156.19 14.9459 160.463 11.1484 169.482 11.1484C178.501 11.1484 182.773 14.9459 182.773 22.8573C182.773 30.7687 178.421 34.5662 169.482 34.5662C160.463 34.6453 156.19 30.7687 156.19 22.8573ZM174.387 22.8573C174.387 20.4839 173.516 18.3478 169.482 18.3478C165.447 18.3478 164.576 20.4839 164.576 22.8573C164.576 25.3098 165.447 27.4459 169.482 27.4459C173.516 27.4459 174.387 25.3098 174.387 22.8573Z" fill="#3AFE14"/>
<path d="M183.484 22.8573C183.484 14.9459 187.756 11.1484 196.775 11.1484C205.794 11.1484 210.067 14.9459 210.067 22.8573C210.067 30.7687 205.715 34.5662 196.775 34.5662C187.756 34.6453 183.484 30.7687 183.484 22.8573ZM201.681 22.8573C201.681 20.4839 200.81 18.3478 196.775 18.3478C192.741 18.3478 191.87 20.4839 191.87 22.8573C191.87 25.3098 192.741 27.4459 196.775 27.4459C200.81 27.4459 201.681 25.3098 201.681 22.8573Z" fill="#3AFE14"/>
<path d="M237.757 26.4964H228.026V34.3287H220.194V26.4964H211.729V20.009H220.194V12.1768H228.026V20.009H237.757V26.4964Z" fill="#3AFE14"/>
<path d="M27.2339 10.3574C23.9111 10.3574 23.4364 10.3574 22.1706 10.4365C20.8256 10.5156 19.9554 10.6739 19.1643 10.9903C18.3731 11.3068 17.6611 11.7024 16.9491 12.4144C16.2371 13.1264 15.8414 13.7593 15.525 14.6296C15.2085 15.4207 14.9712 16.291 14.9712 17.6359C14.8921 18.9808 14.8921 19.3764 14.8921 22.6992C14.8921 26.022 14.8921 26.4967 14.9712 27.7625C15.0503 29.1074 15.2085 29.9777 15.525 30.7688C15.8414 31.5599 16.2371 32.272 16.9491 32.984C17.6611 33.696 18.294 34.0916 19.1643 34.4081C19.9554 34.7245 20.8256 34.9619 22.1706 34.9619C23.5155 35.041 23.9111 35.041 27.2339 35.041C30.5567 35.041 31.0313 35.041 32.2972 34.9619C33.6421 34.8827 34.5123 34.7245 35.3035 34.4081C36.0946 34.0916 36.8067 33.696 37.5187 32.984C38.2307 32.272 38.6263 31.6391 38.9427 30.7688C39.2592 29.9777 39.4966 29.1074 39.4966 27.7625C39.5757 26.4176 39.5757 26.022 39.5757 22.6992C39.5757 19.3764 39.5757 18.9017 39.4966 17.6359C39.4174 16.291 39.2592 15.4207 38.9427 14.6296C38.6263 13.8384 38.2307 13.1264 37.5187 12.4144C36.8067 11.7024 36.1737 11.3068 35.3035 10.9903C34.5123 10.6739 33.6421 10.4365 32.2972 10.4365C31.0313 10.3574 30.5567 10.3574 27.2339 10.3574ZM27.2339 12.5726C30.5567 12.5726 30.9522 12.5726 32.2181 12.6517C33.4048 12.7308 34.1168 12.8891 34.5123 13.0473C35.0661 13.2846 35.5409 13.522 35.9364 13.9967C36.332 14.3922 36.6484 14.8669 36.8858 15.4207C37.044 15.8954 37.2813 16.5283 37.2813 17.715C37.3604 18.9808 37.3605 19.3764 37.3605 22.6992C37.3605 26.022 37.3604 26.4175 37.2813 27.6834C37.2022 28.8701 37.044 29.5821 36.8858 29.9777C36.6484 30.5315 36.4111 31.0062 35.9364 31.4017C35.5409 31.7973 35.0661 32.1137 34.5123 32.3511C34.0377 32.5093 33.4048 32.7467 32.2181 32.7467C30.9522 32.8258 30.5567 32.8258 27.2339 32.8258C23.9111 32.8258 23.5155 32.8258 22.2497 32.7467C21.063 32.6675 20.351 32.5093 19.9554 32.3511C19.4016 32.1137 18.9269 31.8764 18.5314 31.4017C18.1358 31.0062 17.8193 30.5315 17.582 29.9777C17.4238 29.503 17.1864 28.8701 17.1864 27.6834C17.1073 26.4175 17.1073 26.022 17.1073 22.6992C17.1073 19.3764 17.1073 18.9808 17.1864 17.715C17.2655 16.5283 17.4238 15.8163 17.582 15.4207C17.8193 14.8669 18.0567 14.3922 18.5314 13.9967C18.9269 13.6011 19.4016 13.2846 19.9554 13.0473C20.4301 12.8891 21.063 12.6517 22.2497 12.6517C23.5155 12.5726 23.9111 12.5726 27.2339 12.5726Z" fill="#3AFE14"/>
<path d="M27.2339 26.8921C24.9396 26.8921 23.12 25.0724 23.12 22.7781C23.12 20.4838 24.9396 18.6642 27.2339 18.6642C29.5282 18.6642 31.3478 20.4838 31.3478 22.7781C31.3478 24.9933 29.5282 26.8921 27.2339 26.8921ZM27.2339 16.3699C23.7529 16.3699 20.9048 19.218 20.9048 22.699C20.9048 26.18 23.7529 29.0281 27.2339 29.0281C30.7149 29.0281 33.563 26.18 33.563 22.699C33.563 19.218 30.7149 16.3699 27.2339 16.3699ZM35.3035 16.1326C35.3035 16.9237 34.6706 17.6357 33.8003 17.6357C33.0092 17.6357 32.2972 17.0028 32.2972 16.1326C32.2972 15.3414 32.9301 14.6294 33.8003 14.6294C34.6706 14.6294 35.3035 15.3414 35.3035 16.1326Z" fill="#3AFE14"/>
</svg>
