<svg width="292" height="45" viewBox="0 0 292 45" fill="none" xmlns="http://www.w3.org/2000/svg">
<path d="M289 3H2.84473V42.4779H289V3Z" stroke="#3AFE14" stroke-width="5" stroke-miterlimit="10"/>
<path d="M51.5791 3V42.4779" stroke="#3AFE14" stroke-width="5" stroke-miterlimit="10"/>
<path d="M74.6798 27.1294H87.1007V34.2497H61.626V30.3731C61.626 21.8288 78.952 22.6991 78.952 19.4554C78.952 18.506 78.1608 18.3478 75.3127 18.3478C72.3064 18.3478 70.4076 18.3478 70.4076 20.4839H61.9425C61.9425 12.7307 67.2431 11.2275 74.9963 11.2275C82.8285 11.2275 87.4171 12.7307 87.4171 18.3478C87.4962 25.7054 76.3412 24.5978 74.6798 27.1294Z" fill="#3AFE14"/>
<path d="M113.604 26.8129C113.604 32.5091 109.173 34.6452 101.183 34.6452C93.2714 34.6452 87.8125 33.142 87.8125 25.8636H96.2778C96.2778 27.525 98.2556 27.525 101.42 27.525C104.426 27.525 105.218 26.8129 105.218 25.3098C105.218 23.8857 104.426 23.0946 101.816 23.0946C99.7588 23.0946 97.86 23.4901 95.2492 24.5186L88.7619 23.411L91.6891 11.5439H112.021V18.0313H97.5436L96.4359 20.9585C98.8094 20.0882 100.55 19.4553 104.189 19.4553C110.123 19.4553 113.604 22.3034 113.604 26.8129Z" fill="#3AFE14"/>
<path d="M114.236 22.8573C114.236 14.9459 118.509 11.1484 127.528 11.1484C136.546 11.1484 140.819 14.9459 140.819 22.8573C140.819 30.7687 136.467 34.5662 127.528 34.5662C118.509 34.6453 114.236 30.7687 114.236 22.8573ZM132.433 22.8573C132.433 20.4839 131.562 18.3478 127.528 18.3478C123.493 18.3478 122.622 20.4839 122.622 22.8573C122.622 25.3098 123.493 27.4459 127.528 27.4459C131.562 27.4459 132.433 25.3098 132.433 22.8573Z" fill="#3AFE14"/>
<path d="M149.68 28.3955V34.2499H141.848V28.3955H149.68Z" fill="#3AFE14"/>
<path d="M150.629 22.8573C150.629 14.9459 154.901 11.1484 163.92 11.1484C172.939 11.1484 177.211 14.9459 177.211 22.8573C177.211 30.7687 172.86 34.5662 163.92 34.5662C154.98 34.6453 150.629 30.7687 150.629 22.8573ZM168.904 22.8573C168.904 20.4839 168.034 18.3478 163.999 18.3478C159.964 18.3478 159.094 20.4839 159.094 22.8573C159.094 25.3098 159.964 27.4459 163.999 27.4459C167.955 27.4459 168.904 25.3098 168.904 22.8573Z" fill="#3AFE14"/>
<path d="M178.003 22.8573C178.003 14.9459 182.275 11.1484 191.294 11.1484C200.313 11.1484 204.585 14.9459 204.585 22.8573C204.585 30.7687 200.234 34.5662 191.294 34.5662C182.275 34.6453 178.003 30.7687 178.003 22.8573ZM196.199 22.8573C196.199 20.4839 195.329 18.3478 191.294 18.3478C187.259 18.3478 186.389 20.4839 186.389 22.8573C186.389 25.3098 187.259 27.4459 191.294 27.4459C195.329 27.4459 196.199 25.3098 196.199 22.8573Z" fill="#3AFE14"/>
<path d="M205.297 22.8573C205.297 14.9459 209.569 11.1484 218.588 11.1484C227.607 11.1484 231.879 14.9459 231.879 22.8573C231.879 30.7687 227.528 34.5662 218.588 34.5662C209.569 34.6453 205.297 30.7687 205.297 22.8573ZM223.493 22.8573C223.493 20.4839 222.623 18.3478 218.588 18.3478C214.553 18.3478 213.683 20.4839 213.683 22.8573C213.683 25.3098 214.553 27.4459 218.588 27.4459C222.623 27.4459 223.493 25.3098 223.493 22.8573Z" fill="#3AFE14"/>
<path d="M259.569 26.4964H249.837V34.3287H242.005V26.4964H233.54V20.009H242.005V12.1768H249.837V20.009H259.569V26.4964Z" fill="#3AFE14"/>
<path d="M41.7684 29.8983C41.6102 29.5027 41.0564 29.1863 41.0564 29.1863C40.9773 29.1863 40.9773 29.1072 40.8982 29.1072C39.9488 28.6325 39.0785 28.0787 38.2874 27.4458C37.7336 26.892 37.1798 26.3382 36.7842 25.7844C36.3095 25.0723 36.0722 24.4394 35.9931 24.123C35.914 23.8856 35.914 23.8065 35.9931 23.7274C35.9931 23.6483 36.1513 23.5692 36.2304 23.4901C36.5469 23.2527 37.1007 22.9363 37.4172 22.6989C37.7336 22.5407 37.971 22.3825 38.0501 22.2242C38.5248 21.9078 38.8412 21.5913 38.9994 21.1958C39.2368 20.7211 39.2368 20.2464 39.0785 19.7717C38.8412 19.1388 38.2083 18.7432 37.4172 18.7432C37.2589 18.7432 37.1007 18.7432 36.8634 18.8223C36.3887 18.9015 35.9931 19.0597 35.5975 19.2179H35.5184C35.5184 18.3477 35.5975 17.1609 35.5184 15.9742C35.4393 14.9458 35.202 14.0755 34.8855 13.3635C34.5691 12.5723 34.0944 12.0185 33.6988 11.623C33.3824 11.2274 32.7494 10.6736 31.8792 10.1198C30.6134 9.40778 29.1893 9.01221 27.607 9.01221C26.0247 9.01221 24.6007 9.40778 23.3348 10.1198C22.3855 10.6736 21.7526 11.3065 21.5153 11.623C21.1988 12.0185 20.7241 12.5723 20.3286 13.3635C20.0121 14.1546 19.7747 14.9458 19.6956 15.9742C19.6165 17.0818 19.6165 18.1894 19.6956 19.2179C19.6956 19.2179 19.6956 19.297 19.6165 19.2179C19.2209 19.0597 18.8254 18.9015 18.3507 18.8223C18.1925 18.8223 17.9551 18.7432 17.7969 18.7432C17.0057 18.7432 16.3728 19.1388 16.1355 19.7717C15.9773 20.2464 15.9772 20.8002 16.2146 21.1958C16.3728 21.5122 16.6893 21.9078 17.164 22.2242C17.3222 22.3034 17.5595 22.4616 17.7969 22.6989C18.1133 22.9363 18.6671 23.2527 18.9836 23.4901C19.0627 23.4901 19.1418 23.6483 19.2209 23.7274C19.3001 23.8065 19.3001 23.9648 19.2209 24.2021C19.1418 24.5186 18.9045 25.1515 18.4298 25.8635C18.0342 26.4964 17.5595 27.0502 16.9266 27.5249C16.2146 28.1578 15.3444 28.7116 14.3159 29.1863C14.2368 29.1863 14.2367 29.2654 14.1576 29.2654C14.1576 29.2654 13.6038 29.5818 13.4456 29.9774C13.2874 30.5312 13.683 31.085 14.1576 31.4015C14.8697 31.8761 15.74 32.1135 16.2938 32.2717C16.452 32.2717 16.5311 32.3508 16.6893 32.3508C16.7685 32.3508 16.9266 32.4299 17.0057 32.5091C17.0848 32.6673 17.0849 32.8255 17.164 32.9837C17.2431 33.3002 17.3222 33.6166 17.7178 33.9331C18.1133 34.2496 18.6671 34.2496 19.3 34.2496C20.0121 34.2496 20.8033 34.3287 21.8317 34.6451C22.3064 34.8034 22.702 35.0407 23.1766 35.3572C24.2051 35.9901 25.3918 36.7021 27.5279 36.7021C29.664 36.7021 30.8507 35.911 31.8792 35.3572C32.3539 35.0407 32.7494 34.8034 33.2241 34.6451C34.1734 34.3287 35.0438 34.3287 35.7558 34.2496C36.3887 34.2496 36.9425 34.1704 37.3381 33.9331C37.7336 33.6958 37.8127 33.2211 37.8918 32.9046C37.8918 32.7464 37.971 32.5882 38.0501 32.5091C38.1292 32.4299 38.2874 32.3508 38.3665 32.3508C38.5247 32.3508 38.6038 32.2717 38.7621 32.2717C39.2367 32.1135 39.9488 31.9553 40.6608 31.5597C41.7684 30.8477 41.8475 30.2148 41.7684 29.8983Z" fill="#3AFE14"/>
<path d="M42.5595 29.582C42.3222 29.0282 41.9266 28.7117 41.531 28.4744C41.4519 28.3953 41.3729 28.3953 41.2937 28.3162C41.1355 28.2371 41.0564 28.1579 40.8982 28.0788C39.4741 27.3668 38.3665 26.4174 37.6545 25.3098C37.4172 24.9143 37.2589 24.5978 37.1007 24.2814C37.0215 24.1231 37.0215 23.9649 37.1007 23.8858C37.1007 23.8067 37.2589 23.7276 37.2589 23.7276C37.4963 23.5693 37.7336 23.4111 37.8918 23.332C38.2083 23.1738 38.4456 23.0155 38.6038 22.8573C39.1576 22.4617 39.5532 21.987 39.8696 21.5124C40.1861 20.8003 40.2653 20.0883 40.0279 19.3763C39.6324 18.3478 38.6829 17.7149 37.5753 17.7149C37.338 17.7149 37.1007 17.7149 36.8634 17.794C36.7843 17.794 36.7051 17.794 36.7051 17.8731C36.7051 17.1611 36.7051 16.4491 36.626 15.737C36.3887 13.2054 35.5184 11.9396 34.6481 10.832C34.2526 10.3573 33.6197 9.72439 32.5912 9.1706C31.1672 8.37946 29.5849 7.98389 27.9235 7.98389C26.183 7.98389 24.6007 8.37946 23.2557 9.1706C22.2272 9.72439 21.5943 10.3573 21.1988 10.832C20.2494 11.8605 19.3792 13.2054 19.2209 15.737C19.1418 16.4491 19.1418 17.1611 19.1418 17.8731C19.0627 17.8731 18.9835 17.8731 18.9835 17.794C18.7462 17.7149 18.5089 17.7149 18.2716 17.7149C17.0849 17.7149 16.1354 18.3478 15.819 19.3763C15.5816 20.0883 15.5817 20.8795 15.9773 21.5124C16.2146 21.987 16.6102 22.3826 17.2431 22.8573C17.4013 22.9364 17.6387 23.0946 17.9551 23.332C18.1134 23.4111 18.3506 23.5693 18.588 23.7276C18.588 23.7276 18.7462 23.8067 18.8254 23.9649C18.9045 24.044 18.9045 24.2022 18.8254 24.3605C18.6671 24.5978 18.5089 24.9934 18.2716 25.3098C17.5596 26.4174 16.452 27.2877 15.107 28.0788C14.395 28.4744 13.6038 28.7117 13.2874 29.582C13.05 30.2149 13.2082 31.006 13.8411 31.5598C14.0785 31.7972 14.3158 31.9554 14.6323 32.1136C15.3443 32.5092 15.9772 32.7465 16.531 32.8257C16.6102 32.8257 16.8475 32.9048 16.9266 32.9839C17.1639 33.1421 17.0848 33.4586 17.4013 33.9333C17.5595 34.1706 17.7969 34.4079 17.9551 34.4871C18.588 34.8826 19.3 34.9617 20.0121 34.9617C20.645 34.9617 21.4361 35.0409 22.3064 35.2782C22.6228 35.3573 23.0184 35.5946 23.4931 35.9111C24.5216 36.544 25.9456 37.4143 28.319 37.4143C30.6925 37.4143 32.1165 36.544 33.145 35.9111C33.5405 35.6738 33.9361 35.4364 34.2526 35.2782C35.1228 34.9617 35.8349 34.9617 36.5469 34.9617C37.2589 34.9617 37.9709 34.8826 38.6038 34.4871C38.7621 34.3288 39.0786 34.1706 39.2368 33.775C39.4741 33.3795 39.4741 33.1421 39.6324 32.9839C39.7115 32.9048 39.8696 32.8257 39.9487 32.8257C40.4234 32.6674 41.0564 32.5092 41.8475 32.0345C42.164 31.8763 42.4804 31.639 42.6386 31.4016C42.6386 30.9269 42.7969 30.2149 42.5595 29.582ZM40.5026 30.6896C39.2368 31.4016 38.3665 31.3225 37.7336 31.7181C37.1798 32.1136 37.4962 32.8257 37.1007 33.1421C36.626 33.4586 35.1228 33.1421 33.2241 33.775C31.6418 34.3288 30.6134 35.832 27.7653 35.832C24.9172 35.832 23.9678 34.3288 22.3064 33.775C20.4077 33.1421 18.9045 33.5377 18.4298 33.1421C18.0342 32.8257 18.3506 32.1136 17.7968 31.7181C17.1639 31.3225 16.2937 31.4016 15.0279 30.6896C14.2367 30.2149 14.7114 29.9776 14.9488 29.8193C19.5374 27.6041 20.3285 24.1231 20.3285 23.8858C20.4077 23.5693 20.4076 23.332 20.0912 23.0155C19.7747 22.6991 18.2716 21.8288 17.876 21.5124C17.164 21.0377 16.9266 20.563 17.164 20.0092C17.3222 19.6136 17.7177 19.4554 18.1133 19.4554C18.2715 19.4554 18.3507 19.4554 18.5089 19.5345C19.2209 19.6927 19.933 20.0883 20.4076 20.1674C20.4868 20.1674 20.4867 20.1674 20.5658 20.1674C20.8032 20.1674 20.8823 20.0883 20.8823 19.7719C20.8032 18.9807 20.7241 17.3984 20.8823 15.8953C21.0405 13.8383 21.6734 12.889 22.4646 11.9396C22.8602 11.544 24.6007 9.64527 27.9235 9.64527C31.2463 9.64527 32.9868 11.4649 33.3823 11.9396C34.1735 12.8098 34.8064 13.8383 34.9646 15.8953C35.1229 17.3984 34.9646 18.9807 34.9646 19.7719C34.9646 20.0092 35.0438 20.1674 35.2811 20.1674C35.3602 20.1674 35.3602 20.1674 35.4393 20.1674C35.8349 20.0883 36.5469 19.6927 37.338 19.5345C37.4963 19.5345 37.5754 19.4554 37.7336 19.4554C38.1292 19.4554 38.5247 19.6136 38.6829 20.0092C38.9203 20.563 38.6038 21.0377 37.9709 21.5124C37.5753 21.8288 36.0722 22.6991 35.7558 23.0155C35.4393 23.332 35.4393 23.5693 35.5184 23.8858C35.5184 24.1231 36.3096 27.6041 40.8982 29.8193C40.8191 29.9776 41.2937 30.2149 40.5026 30.6896Z" fill="#3AFE14"/>
</svg>
