<?xml version="1.0" encoding="utf-8"?>
<!-- Generator: Adobe Illustrator 27.9.0, SVG Export Plug-In . SVG Version: 6.00 Build 0)  -->
<svg version="1.1" id="Layer_1" xmlns="http://www.w3.org/2000/svg" xmlns:xlink="http://www.w3.org/1999/xlink" x="0px" y="0px"
	 viewBox="0 0 410.5 435.6" style="enable-background:new 0 0 410.5 435.6;" xml:space="preserve">
<style type="text/css">
	.st0{fill:#3AFE14;}
</style>
<path class="st0" d="M310.5,249.6c-99.2,23.8-116.7,43.2-138.2,153c-21.5-109.8-39-129.2-138.2-153c99.2-23.8,116.7-43.2,138.2-153
	C193.8,206.5,211.2,225.8,310.5,249.6z"/>
<path class="st0" d="M310.5,249.6c-99.2,23.8-116.7,43.2-138.2,153c-21.5-109.8-39-129.2-138.2-153c99.2-23.8,116.7-43.2,138.2-153
	C193.8,206.5,211.2,225.8,310.5,249.6z"/>
<path class="st0" d="M362.1,108.7c-49.1,11.8-57.7,21.3-68.4,75.7c-10.6-54.3-19.3-63.9-68.4-75.7C274.4,96.9,283,87.3,293.7,33
	C304.3,87.3,313,96.9,362.1,108.7z"/>
<path class="st0" d="M362.1,108.7c-49.1,11.8-57.7,21.3-68.4,75.7c-10.6-54.3-19.3-63.9-68.4-75.7C274.4,96.9,283,87.3,293.7,33
	C304.3,87.3,313,96.9,362.1,108.7z"/>
</svg>
