<svg width="171" height="98" viewBox="0 0 171 98" fill="none" xmlns="http://www.w3.org/2000/svg">
<g id="Before-its-late-sticker 1" clip-path="url(#clip0_290_888)">
<g id="Group">
<path id="Vector" d="M161.123 31.1527L153.023 25.5994L152.118 16.7503L142.39 16.1634L137.186 8.03659L128.091 10.1586L121.802 3.25082L113.929 7.6754L106.01 2.84448L98.9966 7.90114L90.8519 3.02508L84.1099 9.2556L75.1054 6.72727L68.1372 13.0029L59.359 10.4295L54.2006 18.3756L45.6939 16.976L40.7166 24.8319L31.7121 24.3353L29.1782 33.365L20.0833 35.487L19.0426 45.0585L10.5811 49.9346L13.7485 58.242L8.95215 66.8202L16.4634 71.8317L18.5448 81.629L28.0018 81.9902L33.2053 90.3427L42.3003 88.2207L48.5898 93.9546L56.4178 89.9364L64.291 95.5348L71.576 89.7558L79.9018 94.2255L86.4628 88.3562L95.0148 91.3811L101.35 84.8797L109.856 87.2275L115.286 79.507L124.426 81.4484L128.951 72.9153L137.775 73.0959L140.806 65.1046L149.901 62.9826L150.897 53.1853L159.177 48.6704L156.643 38.9635L161.123 31.1527Z" fill="#FF1180" stroke="#3AFE14" stroke-width="5" stroke-miterlimit="10"/>
<g id="Group_2">
<g id="Group_3">
<path id="Vector_2" d="M38.1827 58.8287C38.7257 60.6347 38.0469 62.3955 35.5583 63.1178L25.4679 66.0976L22.21 55.0814L31.8026 52.237C34.2913 51.5146 35.4225 52.4176 35.9203 54.0881C36.1465 54.8105 36.0107 55.6231 35.6488 56.3907C36.8705 56.8422 37.8207 57.6548 38.1827 58.8287ZM27.4588 57.7903L31.2597 56.6616C31.6669 56.5261 32.1646 56.3907 31.9836 55.8037C31.8026 55.2168 31.3049 55.3523 30.8977 55.4877L27.142 56.6164L27.4588 57.7903ZM34.0198 59.7317C33.8388 59.1447 33.3411 59.2802 32.9338 59.4156L28.3638 60.7701L28.7257 61.944L33.2958 60.5895C33.6578 60.4541 34.1556 60.3186 34.0198 59.7317Z" fill="#18181D"/>
<path id="Vector_3" d="M41.3953 52.8693L41.712 53.9077L49.2685 51.6954L50.0378 54.3592L42.4813 56.5715L42.798 57.6099L50.3545 55.3976L51.3047 58.558L39.6759 61.9893L36.418 50.9731L48.0468 47.5417L48.997 50.7022L41.3953 52.8693Z" fill="#18181D"/>
<path id="Vector_4" d="M53.6128 49.6184L53.9747 50.7923L60.581 48.8509L61.6217 52.3273L55.0155 54.2687L55.8752 57.1583L51.8028 58.3773L48.5449 47.361L60.1738 43.9297L61.2145 47.4061L53.6128 49.6184Z" fill="#18181D"/>
<path id="Vector_5" d="M61.9377 49.3926C60.8065 45.555 62.3449 43.1621 67.1865 41.7174C72.0281 40.2726 74.6525 41.5368 75.7837 45.3293C76.9149 49.1669 75.3765 51.6049 70.5349 53.0497C65.6933 54.4493 63.0689 53.2303 61.9377 49.3926ZM71.6661 46.5031C71.3494 45.3744 70.6254 44.4263 68.182 45.1487C65.7385 45.871 65.648 46.9998 66.01 48.1736C66.372 49.3475 67.096 50.2505 69.4942 49.5732C71.8923 48.896 72.0281 47.677 71.6661 46.5031Z" fill="#18181D"/>
<path id="Vector_6" d="M87.8659 44.2908L90.7618 46.8643L85.9202 48.3091L83.6125 46.1871L81.2144 46.9095L81.9836 49.4829L77.9112 50.702L74.6533 39.6857L83.2958 37.1122C85.7845 36.3898 88.0469 37.6088 88.7709 40.092C89.2233 41.7174 88.8614 43.2524 87.8659 44.2908ZM80.1736 43.433L83.9745 42.3043C84.3817 42.1688 84.8795 42.0334 84.6532 41.2659C84.427 40.4983 83.9293 40.6789 83.522 40.7692L79.7212 41.898L80.1736 43.433Z" fill="#18181D"/>
<path id="Vector_7" d="M93.0242 37.6991L93.3409 38.7376L100.897 36.5253L101.667 39.189L94.1102 41.4013L94.4269 42.4397L101.983 40.2275L102.934 43.3879L91.3048 46.8192L88.0469 35.8029L99.6757 32.3716L100.626 35.532L93.0242 37.6991Z" fill="#18181D"/>
<path id="Vector_8" d="M113.747 40.092L109.675 41.311L106.417 30.2947L110.489 29.0757L113.747 40.092Z" fill="#18181D"/>
<path id="Vector_9" d="M125.512 28.4438L120.806 29.8434L123.023 37.3832L118.951 38.6022L116.734 31.0624L112.028 32.462L110.987 28.9855L124.517 25.0125L125.512 28.4438Z" fill="#18181D"/>
<path id="Vector_10" d="M130.852 30.8366C130.987 31.3784 131.621 31.6041 134.2 30.8366C136.644 30.1142 136.96 29.8433 136.825 29.437C136.689 28.9855 136.327 29.0307 133.702 29.7079C128.68 31.0172 126.553 30.7463 125.784 28.218C125.06 25.7799 127.141 24.0643 131.485 22.8001C135.784 21.536 138.499 21.852 139.358 24.6512L135.286 25.8702C135.105 25.2833 134.11 25.4188 132.119 26.0508C130.218 26.6378 129.811 26.8184 129.947 27.2699C130.083 27.6762 130.444 27.5407 132.888 26.9538C137.277 25.8251 140.082 25.3736 140.897 28.218C141.802 31.2429 139.494 32.778 134.969 34.0873C130.444 35.3966 127.684 35.3966 126.734 32.1459L130.852 30.8366Z" fill="#18181D"/>
<path id="Vector_11" d="M51.2142 70.8383L46.5084 72.2379L48.7255 79.7777L44.6532 80.9967L42.436 73.4569L37.7302 74.8565L36.6895 71.3801L50.2187 67.407L51.2142 70.8383Z" fill="#18181D"/>
<path id="Vector_12" d="M51.9836 72.7799C50.8524 68.9422 52.3908 66.5493 57.2324 65.1046C62.074 63.6598 64.6984 64.924 65.8296 68.7165C66.9608 72.5541 65.4224 74.9921 60.5808 76.4369C55.7392 77.8817 53.1148 76.6175 51.9836 72.7799ZM61.7572 69.9355C61.3953 68.8068 60.7165 67.8586 58.2731 68.581C55.8297 69.3034 55.7392 70.4321 56.1012 71.606C56.4632 72.7799 57.1871 73.6828 59.5853 73.0056C61.9835 72.2832 62.074 71.1093 61.7572 69.9355Z" fill="#18181D"/>
<path id="Vector_13" d="M66.1467 68.626C65.0154 64.7884 66.5539 62.3955 71.3955 60.9508C76.2371 59.506 78.8615 60.7702 79.9927 64.5627C81.1239 68.4003 79.5855 70.8383 74.7439 72.2831C69.9023 73.6827 67.2779 72.4637 66.1467 68.626ZM75.9203 65.7365C75.5583 64.6078 74.8796 63.6597 72.4362 64.3821C69.9928 65.1044 69.9023 66.2332 70.2643 67.407C70.6263 68.5809 71.3502 69.4839 73.7484 68.8066C76.1466 68.1294 76.2371 66.9104 75.9203 65.7365Z" fill="#18181D"/>
<path id="Vector_14" d="M98.7249 61.2667L99.7656 64.7432L88.4083 68.0842L85.1504 57.0679L89.2228 55.8489L91.4399 63.3887L98.7249 61.2667Z" fill="#18181D"/>
<path id="Vector_15" d="M109.404 59.7318L104.698 61.1314L104.517 63.3437L99.9922 64.653L101.304 52.3274L107.368 50.5215L115.196 60.1833L110.671 61.4926L109.404 59.7318ZM107.503 57.2035L105.241 54.2237L104.97 57.971L107.503 57.2035Z" fill="#18181D"/>
<path id="Vector_16" d="M124.2 49.3024L119.494 50.702L121.711 58.2418L117.639 59.4609L115.421 51.921L110.716 53.3206L109.675 49.8442L123.204 45.8711L124.2 49.3024Z" fill="#18181D"/>
<path id="Vector_17" d="M128.679 47.6772L128.996 48.7156L136.553 46.5033L137.322 49.1671L129.765 51.3794L130.082 52.4178L137.639 50.2055L138.589 53.3659L126.96 56.7972L123.702 45.7809L135.331 42.3496L136.281 45.51L128.679 47.6772Z" fill="#18181D"/>
</g>
</g>
<path id="Vector_18" d="M83.1593 80.0939C82.3448 77.385 80.8969 76.0757 78.001 76.9787C80.0372 75.7596 81.9828 74.6309 81.0326 71.606C82.1638 73.8634 83.7023 75.1727 86.3719 74.8567C83.295 75.4436 83.1141 77.6559 83.1593 80.0939Z" fill="#18181D"/>
<path id="Vector_19" d="M88.8615 26.954C88.047 24.2451 86.599 22.9358 83.7031 23.8388C85.7393 22.6197 87.685 21.491 86.7348 18.4661C87.866 20.7235 89.4044 22.0328 92.0741 21.7168C88.9972 22.3037 88.771 24.516 88.8615 26.954Z" fill="#18181D"/>
</g>
</g>
<defs>
<clipPath id="clip0_290_888">
<rect width="169.32" height="97.2504" fill="white" transform="translate(0.943359)"/>
</clipPath>
</defs>
</svg>
