<svg width="279" height="41" viewBox="0 0 279 41" fill="none" xmlns="http://www.w3.org/2000/svg">
<path d="M51.5 0.499802C51.5 0.599802 51.4 0.699805 51.4 0.799805C48.5 5.3998 45.5 9.9998 42.6 14.5998C42.6 14.5998 42.5 14.6998 42.5 14.7998C41.1 14.1998 39.6 13.6998 38.2 13.0998C39.1 11.6998 39.9 10.1998 40.7 8.7998C40.7 8.7998 40.7 8.7998 40.7 8.6998C38 9.9998 35.2 11.3998 32.4 12.7998C32.6 12.8998 32.7 12.8998 32.8 12.9998C34.6 13.6998 36.3 14.2998 38.1 14.9998C38.5 15.1998 39 15.3998 39.4 15.6998C40.4 16.3998 40.8 17.4998 40.3 18.6998C40.1 19.2998 39.7 19.8998 39.4 20.4998C36.5 25.0998 33.5 29.6998 30.6 34.1998C29.4 36.0998 28.2 37.9998 27 39.8998C26.9 39.9998 26.9 40.0998 26.8 40.1998C26.8 40.0998 26.8 39.9998 26.8 39.8998C26.8 38.4998 26.8 37.0998 26.8 35.6998C26.8 35.4998 26.8 35.2998 26.9 35.1998C28.4 30.1998 30 25.1998 31.5 20.1998C31.5 20.0998 31.6 19.9998 31.6 19.7998C31.7 19.1998 31.6 18.8998 31 18.5998C30.2 18.1998 29.4 17.7998 28.6 17.3998C27.7 16.9998 26.9 16.5998 26 16.0998C25.8 15.9998 25.7 15.9998 25.5 16.0998C23.9 16.8998 22.4 17.5998 20.8 18.3998C19.9 18.7998 19.8 19.0998 20.1 20.0998C21.6 25.0998 23.2 30.0998 24.7 35.0998C24.8 35.2998 24.8 35.5998 24.8 35.7998C24.8 37.1998 24.8 38.6998 24.8 40.1998C24.7 40.0998 24.6 39.9998 24.6 39.9998C20.3 33.3998 16.1 26.6998 11.8 19.9998C11.5 19.5998 11.3 19.0998 11.1 18.6998C10.7 17.4998 11 16.2998 12.1 15.5998C12.6 15.1998 13.3 14.9998 13.9 14.6998C15.5 14.0998 17.1 13.4998 18.7 12.8998C18.8 12.8998 18.9 12.7998 19.1 12.6998C16.3 11.2998 13.5 9.9998 10.8 8.5998C11.6 9.9998 12.5 11.3998 13.4 12.8998C13 13.0998 12.6 13.1998 12.2 13.3998C11.3 13.7998 10.3 14.0998 9.4 14.4998C9.1 14.5998 9 14.5998 8.9 14.2998C6.2 9.9998 3.4 5.6998 0.700001 1.4998C0.500001 1.0998 0.2 0.699805 0 0.299805H0.0999985C0.199998 0.399805 0.299998 0.399802 0.399998 0.499802C8.8 3.3998 17.2 6.3998 25.6 9.2998C25.8 9.39981 26 9.39981 26.3 9.2998C32.1 7.2998 38 5.1998 43.8 3.1998C46.1 2.3998 48.8 1.3998 51.5 0.499802Z" fill="#3AFE14"/>
<path d="M278.5 29.9998C276.5 29.9998 274.6 29.9998 272.5 29.9998C272.5 27.9998 272.5 26.0998 272.5 24.1998C264.2 24.1998 255.9 24.1998 247.6 24.1998C247.6 26.0998 247.6 28.0998 247.6 29.9998C245.6 29.9998 243.7 29.9998 241.6 29.9998C241.6 29.8998 241.6 29.6998 241.6 29.5998C241.6 24.9998 241.6 20.4998 241.5 15.8998C241.5 13.3998 243.3 11.3998 245.6 10.8998C246 10.7998 246.5 10.7998 246.9 10.7998C257.3 10.7998 267.6 10.7998 278 10.7998C278.1 10.7998 278.3 10.7998 278.4 10.8998C278.5 17.1998 278.5 23.5998 278.5 29.9998ZM247.6 19.4998C255.9 19.4998 264.2 19.4998 272.6 19.4998C272.6 17.9998 272.6 16.4998 272.6 14.9998C272.5 14.9998 272.5 14.9998 272.4 14.9998C264.5 14.9998 256.6 14.9998 248.6 14.9998C248 14.9998 247.6 15.2998 247.6 15.9998C247.6 16.7998 247.6 17.5998 247.6 18.3998C247.6 18.6998 247.6 19.0998 247.6 19.4998Z" fill="#3AFE14"/>
<path d="M232.9 23.8998C234.3 25.8998 235.7 27.8998 237.1 29.9998C236.9 29.9998 236.8 29.9998 236.8 29.9998C234.7 29.9998 232.7 29.9998 230.6 29.9998C230.3 29.9998 230.2 29.8998 230.1 29.6998C229 27.8998 227.9 26.1998 226.8 24.3998C226.7 24.1998 226.6 24.1998 226.4 24.1998C219.7 24.1998 213 24.1998 206.2 24.1998C206.1 24.1998 206.1 24.1998 206 24.1998C206 26.0998 206 28.0998 206 29.9998C203.9 29.9998 201.9 29.9998 199.9 29.9998C199.9 23.5998 199.9 17.1998 199.9 10.7998C200 10.7998 200.1 10.7998 200.3 10.7998C210.6 10.7998 221 10.7998 231.3 10.7998C232.6 10.7998 233.7 11.0998 234.8 11.7998C236 12.5998 236.7 13.6998 236.7 15.0998C236.7 16.6998 236.8 18.1998 236.7 19.7998C236.6 21.1998 236 22.4998 234.8 23.2998C234.2 23.6998 233.6 23.8998 232.9 23.8998ZM206 19.4998C206.1 19.4998 206.2 19.4998 206.3 19.4998C214.3 19.4998 222.2 19.4998 230.2 19.4998C230.9 19.4998 231.2 19.1998 231.2 18.4998C231.2 17.6998 231.2 16.9998 231.2 16.1998C231.2 15.3998 230.9 14.9998 230.1 14.9998C222.2 14.9998 214.3 14.9998 206.4 14.9998C206.3 14.9998 206.2 14.9998 206 14.9998C206 16.4998 206 17.9998 206 19.4998Z" fill="#3AFE14"/>
<path d="M111.3 10.7998C111.3 12.5998 111.3 14.2998 111.3 16.0998C111.1 16.0998 111 16.0998 110.8 16.0998C101 16.0998 91.1002 16.0998 81.3002 16.0998C81.1002 16.0998 81.0002 16.0998 80.8002 16.0998C80.4002 16.0998 80.0002 16.3998 80.0002 16.8998C80.0002 16.9998 80.0002 17.0998 80.0002 17.2998C80.0002 19.3998 80.0002 21.5998 80.0002 23.6998C80.0002 24.4998 80.3002 24.7998 81.2002 24.7998C91.1002 24.7998 101 24.7998 111 24.7998C111.1 24.7998 111.3 24.7998 111.5 24.7998C111.5 26.4998 111.5 28.2998 111.5 29.9998C111.4 29.9998 111.3 29.9998 111.1 29.9998C100.8 29.9998 90.5002 29.9998 80.2002 29.9998C78.4002 29.9998 76.8002 29.3998 75.7002 27.8998C75.1002 27.0998 74.7002 26.0998 74.7002 25.0998C74.7002 21.9998 74.7002 18.9998 74.7002 15.8998C74.7002 13.3998 76.5002 11.3998 78.8002 10.8998C79.2002 10.7998 79.7002 10.7998 80.1002 10.7998C90.4002 10.7998 100.8 10.7998 111.1 10.7998C111 10.7998 111.1 10.7998 111.3 10.7998Z" fill="#3AFE14"/>
<path d="M164 24.1998C164 26.1998 164 28.0998 164 29.9998C162 29.9998 160 29.9998 158 29.9998C158 23.5998 158 17.1998 158 10.7998C158.1 10.7998 158.2 10.7998 158.3 10.7998C168.7 10.7998 179.1 10.7998 189.5 10.7998C190.3 10.7998 191 10.8998 191.8 11.0998C193.7 11.5998 194.8 12.8998 194.8 14.8998C194.8 16.4998 194.8 18.1998 194.8 19.7998C194.7 21.9998 193.6 23.4998 191.5 23.9998C190.9 24.0998 190.3 24.1998 189.7 24.1998C187.1 24.1998 184.4 24.1998 181.8 24.1998C176 24.1998 170.1 24.1998 164.3 24.1998C164.3 24.1998 164.2 24.1998 164 24.1998ZM164 19.4998C164.1 19.4998 164.2 19.4998 164.3 19.4998C172.3 19.4998 180.4 19.4998 188.4 19.4998C189.1 19.4998 189.5 19.1998 189.5 18.3998C189.5 17.5998 189.5 16.8998 189.5 16.0998C189.5 15.2998 189.2 14.9998 188.4 14.9998C180.4 14.9998 172.4 14.9998 164.4 14.9998C164.3 14.9998 164.2 14.9998 164 14.9998C164 16.4998 164 17.9998 164 19.4998Z" fill="#3AFE14"/>
<path d="M146.8 10.7998C148.9 10.7998 151 10.7998 153.1 10.7998C153.1 10.8998 153.1 10.9998 153.1 11.1998C153.1 15.7998 153.1 20.3998 153.1 24.9998C153.1 27.5998 151.2 29.5998 148.7 29.9998C148.3 30.0998 148 30.0998 147.6 30.0998C139 30.0998 130.4 30.0998 121.7 30.0998C119.8 30.0998 118.2 29.3998 117 27.7998C116.5 27.0998 116.2 26.1998 116.2 25.2998C116.2 20.5998 116.2 15.7998 116.2 11.0998C116.2 10.9998 116.2 10.9998 116.2 10.8998C118.3 10.8998 120.4 10.8998 122.5 10.8998C122.5 10.9998 122.5 11.1998 122.5 11.2998C122.5 15.3998 122.5 19.5998 122.5 23.6998C122.5 24.4998 122.8 24.7998 123.6 24.7998C130.9 24.7998 138.2 24.7998 145.6 24.7998C146.4 24.7998 146.7 24.4998 146.7 23.6998C146.7 19.5998 146.7 15.4998 146.7 11.2998C146.8 11.0998 146.8 10.9998 146.8 10.7998Z" fill="#3AFE14"/>
</svg>
