<svg width="170" height="38" viewBox="0 0 170 38" fill="none" xmlns="http://www.w3.org/2000/svg">
<path d="M51.7002 6.5999C51.1002 4.3999 49.3002 2.5999 47.1002 1.9999C43.0002 0.899901 26.7002 0.899902 26.7002 0.899902C26.7002 0.899902 10.4002 0.899901 6.3002 1.9999C4.1002 2.5999 2.3002 4.3999 1.7002 6.5999C0.700195 10.6999 0.700195 19.0999 0.700195 19.0999C0.700195 19.0999 0.700201 27.5999 1.8002 31.5999C2.4002 33.7999 4.20021 35.5999 6.40021 36.1999C10.5002 37.2999 26.8002 37.2999 26.8002 37.2999C26.8002 37.2999 43.1002 37.2999 47.2002 36.1999C49.4002 35.5999 51.2002 33.7999 51.8002 31.5999C52.9002 27.4999 52.9002 19.0999 52.9002 19.0999C52.9002 19.0999 52.8002 10.6999 51.7002 6.5999ZM21.5002 26.9999V11.2999L35.1002 19.0999L21.5002 26.9999Z" fill="#3AFE14"/>
<path d="M81.3 32.6999C80.3 31.9999 79.5 30.8999 79.1 29.3999C78.7 27.8999 78.5 25.9999 78.5 23.5999V20.2999C78.5 17.8999 78.8 15.8999 79.2 14.3999C79.7 12.8999 80.5 11.7999 81.5 11.0999C82.6 10.3999 83.9 10.0999 85.7 10.0999C87.4 10.0999 88.7 10.3999 89.8 11.0999C90.8 11.7999 91.6 12.8999 92 14.3999C92.5 15.8999 92.7 17.7999 92.7 20.2999V23.5999C92.7 25.9999 92.5 27.9999 92 29.4999C91.5 30.9999 90.8 32.0999 89.8 32.7999C88.8 33.4999 87.4 33.7999 85.6 33.7999C83.7 33.6999 82.3 33.3999 81.3 32.6999ZM87 29.0999C87.3 28.3999 87.4 27.0999 87.4 25.4999V18.2999C87.4 16.6999 87.3 15.4999 87 14.6999C86.7 13.8999 86.2 13.5999 85.5 13.5999C84.8 13.5999 84.3 13.9999 84 14.6999C83.7 15.4999 83.6 16.6999 83.6 18.2999V25.3999C83.6 27.0999 83.7 28.2999 84 28.9999C84.3 29.6999 84.8 30.0999 85.5 30.0999C86.3 30.1999 86.7 29.8999 87 29.0999Z" fill="#3AFE14"/>
<path d="M160.501 23.7V24.9C160.501 26.4 160.501 27.5 160.601 28.2C160.701 28.9 160.901 29.5 161.201 29.8C161.501 30.1 161.901 30.3 162.501 30.3C163.301 30.3 163.801 30 164.101 29.4C164.401 28.8 164.501 27.8 164.601 26.4L169.001 26.7C169.001 26.9 169.001 27.2 169.001 27.5C169.001 29.6 168.401 31.2 167.301 32.2C166.201 33.2 164.501 33.7 162.401 33.7C159.901 33.7 158.101 32.9 157.101 31.3C156.101 29.7 155.601 27.3 155.601 23.9V19.9C155.601 16.5 156.101 14 157.201 12.4C158.301 10.8 160.101 10 162.601 10C164.401 10 165.701 10.3 166.701 11C167.601 11.6 168.301 12.7 168.701 14C169.101 15.4 169.301 17.3 169.301 19.7V23.6L160.501 23.7ZM161.101 14.1C160.801 14.4 160.701 15 160.601 15.7C160.501 16.4 160.501 17.5 160.501 19V20.6H164.301V19C164.301 17.5 164.301 16.4 164.201 15.7C164.101 15 163.901 14.4 163.601 14.1C163.301 13.8 162.901 13.6 162.401 13.6C161.801 13.5 161.401 13.7 161.101 14.1Z" fill="#3AFE14"/>
<path d="M68.7004 23.2L62.9004 2H68.0004L70.1004 11.6C70.6004 14 71.0004 16 71.3004 17.7H71.4004C71.6004 16.5 72.0004 14.5 72.6004 11.7L74.7004 2.1H79.8004L73.9004 23.3V33.4H68.8004L68.7004 23.2Z" fill="#3AFE14"/>
<path d="M109.3 10.5V33.4H105.3L104.9 30.6H104.8C103.7 32.7 102.1 33.8 99.9 33.8C98.4 33.8 97.3 33.3 96.6 32.3C95.9 31.3 95.5 29.8 95.5 27.6V10.5H100.6V27.3C100.6 28.3 100.7 29.1 100.9 29.5C101.1 29.9 101.5 30.1 102 30.1C102.4 30.1 102.9 30 103.3 29.7C103.7 29.4 104 29.1 104.2 28.7V10.5H109.3Z" fill="#3AFE14"/>
<path d="M135.7 10.5V33.4H131.7L131.3 30.6H131.2C130.1 32.7 128.5 33.8 126.3 33.8C124.8 33.8 123.7 33.3 123 32.3C122.3 31.3 121.9 29.8 121.9 27.6V10.5H127V27.3C127 28.3 127.1 29.1 127.3 29.5C127.5 29.9 127.9 30.1 128.4 30.1C128.8 30.1 129.3 30 129.7 29.7C130.1 29.4 130.4 29.1 130.6 28.7V10.5H135.7Z" fill="#3AFE14"/>
<path d="M123.301 6.2H118.201V33.3H113.201V6.2H108.101V2H123.301V6.2Z" fill="#3AFE14"/>
<path d="M152.7 14.1999C152.4 12.6999 151.9 11.6999 151.2 11.0999C150.5 10.4999 149.5 10.0999 148.3 10.0999C147.4 10.0999 146.5 10.3999 145.6 10.8999C144.8 11.3999 144.1 12.0999 143.7 12.9999V0.899902H138.7V33.2999H142.9L143.4 31.1999H143.5C143.9 31.9999 144.5 32.5999 145.3 32.9999C146.1 33.3999 147 33.6999 148 33.6999C149.8 33.6999 151 32.8999 151.8 31.2999C152.6 29.6999 153 27.1999 153 23.7999V20.1999C153.1 17.5999 153 15.5999 152.7 14.1999ZM148 23.4999C148 25.1999 147.9 26.4999 147.8 27.3999C147.7 28.2999 147.4 28.9999 147.1 29.3999C146.8 29.7999 146.3 29.9999 145.8 29.9999C145.4 29.9999 145 29.8999 144.6 29.6999C144.2 29.4999 144 29.1999 143.7 28.7999V15.7999C143.9 15.1999 144.2 14.6999 144.6 14.2999C145 13.8999 145.5 13.6999 146 13.6999C146.5 13.6999 146.9 13.8999 147.2 14.2999C147.5 14.6999 147.7 15.3999 147.8 16.3999C147.9 17.3999 148 18.7999 148 20.4999V23.4999Z" fill="#3AFE14"/>
</svg>
