<svg width="142" height="39" viewBox="0 0 142 39" fill="none" xmlns="http://www.w3.org/2000/svg">
<g id="Group">
<g id="Group_2">
<path id="Vector" d="M19.6998 35.7999C17.5998 36.1999 15.3998 36.2999 13.1998 36.5998L6.39978 16.6999V37.4999C4.29978 37.6999 2.3998 37.9999 0.299805 38.2999V0.299854H5.89978L13.5998 21.8999V0.199852H19.5998V35.7999H19.6998ZM31.3998 14.0999C33.6998 14.0999 37.1998 13.9999 39.3998 13.9999V19.8999C36.7998 19.8999 33.6998 19.8999 31.3998 19.9999V28.8999C34.8998 28.6999 38.3998 28.3999 41.8998 28.2999V33.9999L25.3998 35.2999V0.199852H41.8998V6.09985H31.3998V14.0999ZM64.0998 6.09985H57.8998V33.3999C55.8998 33.3999 53.8998 33.3999 51.9998 33.4999V6.09985H45.7998V0.199852H64.0998V6.09985ZM73.6998 13.6999H81.7998V19.5998H73.6998V33.0998H67.8998V0.0998535H84.4998V5.99985H73.6998V13.6999ZM94.1998 27.8999C97.5998 27.9999 101 28.1999 104.3 28.3999V34.2999C98.9998 33.9999 93.6998 33.5998 88.1998 33.4999V0.199852H94.0998V27.8999H94.1998ZM109.3 34.6999C111.2 34.7999 113.2 34.8998 115.1 35.0998V0.0998535H109.3V34.6999ZM141.2 0.199852L133.7 18.2999L141.2 38.2999C139 37.9999 136.7 37.5999 134.5 37.1999L130.2 26.1999L125.8 36.2999C123.6 35.8999 121.6 35.7999 119.4 35.4999L127.1 18.0998L120.2 0.199852H126.6L130.5 10.1999L134.7 0.199852H141.2Z" fill="#3AFE14"/>
</g>
</g>
</svg>
