<svg width="165" height="50" viewBox="0 0 165 50" fill="none" xmlns="http://www.w3.org/2000/svg">
<g id="Group">
<g id="Group_2">
<path id="Vector" fill-rule="evenodd" clip-rule="evenodd" d="M102.099 38.6001C92.599 45.6001 78.899 49.3001 67.099 49.3001C50.499 49.3001 35.599 43.2001 24.299 33.0001C23.399 32.2001 24.199 31.1001 25.299 31.7001C37.499 38.8001 52.599 43.1001 68.099 43.1001C78.599 43.1001 90.099 40.9001 100.799 36.4001C102.299 35.7001 103.599 37.5001 102.099 38.6001Z" fill="#3AFE14"/>
<path id="Vector_2" fill-rule="evenodd" clip-rule="evenodd" d="M105.999 34.1001C104.799 32.6001 97.9994 33.4001 94.8994 33.7001C93.9994 33.8001 93.7995 33.0001 94.6995 32.4001C100.099 28.6001 108.999 29.7001 109.999 31.0001C110.999 32.3001 109.699 41.2001 104.599 45.4001C103.799 46.1001 103.099 45.7001 103.399 44.8001C104.699 42.1001 107.199 35.7001 105.999 34.1001Z" fill="#3AFE14"/>
<path id="Vector_3" fill-rule="evenodd" clip-rule="evenodd" d="M95.1995 5.6V1.9C95.1995 1.3 95.5994 1 96.0994 1H112.699C113.199 1 113.699 1.4 113.699 1.9V5.1C113.699 5.6 113.199 6.3 112.499 7.4L103.799 19.6C106.999 19.5 110.399 20 113.299 21.6C113.999 22 114.099 22.5 114.199 23V27C114.199 27.5 113.599 28.2 112.999 27.8C107.899 25.1 101.099 24.8 95.4995 27.8C94.8995 28.1 94.2994 27.5 94.2994 26.9V23.1C94.2994 22.5 94.2994 21.5 94.8994 20.6L104.899 6.3H96.1995C95.5995 6.5 95.1995 6.1 95.1995 5.6ZM34.6995 28.7H29.6995C29.1995 28.7 28.7994 28.3 28.7994 27.8V1.9C28.7994 1.4 29.1994 1 29.7994 1H34.4995C34.9995 1 35.3994 1.4 35.3994 1.9V5.3H35.4995C36.6995 2 38.9994 0.5 42.0994 0.5C45.2994 0.5 47.1995 2 48.6995 5.3C49.8995 2 52.6995 0.5 55.6995 0.5C57.7995 0.5 60.0994 1.4 61.4995 3.3C63.0994 5.5 62.7994 8.6 62.7994 11.4V27.7C62.7994 28.2 62.3994 28.6 61.7994 28.6H56.7994C56.2994 28.6 55.8994 28.2 55.8994 27.7V14C55.8994 12.9 55.9994 10.2 55.7994 9.1C55.3994 7.4 54.2994 6.9 52.7994 6.9C51.5994 6.9 50.2994 7.7 49.7994 9C49.2994 10.3 49.2994 12.5 49.2994 14V27.7C49.2994 28.2 48.8994 28.6 48.2994 28.6H43.2994C42.7994 28.6 42.3994 28.2 42.3994 27.7V14C42.3994 11.1 42.8994 6.9 39.2994 6.9C35.6994 6.9 35.7994 11 35.7994 14V27.7C35.5994 28.3 35.1995 28.7 34.6995 28.7ZM127.899 0.400002C135.399 0.400002 139.399 6.8 139.399 15C139.399 22.9 134.899 29.2 127.899 29.2C120.499 29.2 116.499 22.8 116.499 14.8C116.599 6.7 120.599 0.400002 127.899 0.400002ZM127.999 5.7C124.299 5.7 123.999 10.8 123.999 13.9C123.999 17.1 123.999 23.8 127.899 23.8C131.799 23.8 131.999 18.3 131.999 15C131.999 12.8 131.899 10.2 131.199 8.1C130.699 6.4 129.599 5.7 127.999 5.7ZM149.199 28.7H144.199C143.699 28.7 143.299 28.3 143.299 27.8V1.9C143.299 1.4 143.799 1.1 144.299 1.1H148.999C149.399 1.1 149.799 1.4 149.899 1.8V5.8H149.999C151.399 2.3 153.399 0.600002 156.899 0.600002C159.199 0.600002 161.399 1.4 162.799 3.7C164.099 5.8 164.099 9.3 164.099 11.8V27.9C163.999 28.4 163.599 28.7 163.099 28.7H157.999C157.499 28.7 157.199 28.3 157.099 27.9V13.8C157.099 11 157.399 6.8 153.899 6.8C152.699 6.8 151.499 7.6 150.999 8.9C150.299 10.5 150.199 12.1 150.199 13.8V27.7C150.199 28.3 149.699 28.7 149.199 28.7ZM81.8994 16.3C81.8994 18.3 81.8995 19.9 80.9995 21.7C80.1994 23.1 78.8995 24 77.4995 24C75.5994 24 74.3994 22.5 74.3994 20.3C74.3994 16 78.2994 15.2 81.8994 15.2V16.3ZM86.9995 28.6C86.6994 28.9 86.1994 28.9 85.7994 28.7C84.0994 27.3 83.7994 26.7 82.8994 25.3C80.0994 28.1 78.1994 29 74.5994 29C70.2994 29 66.9995 26.4 66.9995 21.1C66.9995 17 69.1994 14.2 72.3994 12.9C75.0994 11.7 78.9994 11.5 81.8994 11.1V10.4C81.8994 9.2 81.9994 7.8 81.2994 6.7C80.6994 5.8 79.4995 5.4 78.4995 5.4C76.5994 5.4 74.8994 6.4 74.3994 8.4C74.2994 8.9 73.9995 9.3 73.4995 9.3L68.5994 8.8C68.1994 8.7 67.6994 8.4 67.7994 7.7C68.8994 1.8 74.2994 0 79.0994 0C81.5994 0 84.7995 0.7 86.6995 2.5C89.1995 4.8 88.8994 7.9 88.8994 11.2V19.1C88.8994 21.5 89.8994 22.5 90.7994 23.8C91.0994 24.3 91.1994 24.8 90.7994 25.1C89.8994 26.1 87.9995 27.7 86.9995 28.6ZM15.7994 16.3C15.7994 18.3 15.7994 19.9 14.8994 21.7C14.0994 23.1 12.7994 24 11.3994 24C9.49941 24 8.29944 22.5 8.29944 20.3C8.29944 16 12.1994 15.2 15.7994 15.2V16.3ZM20.8994 28.6C20.5994 28.9 20.0995 28.9 19.6995 28.7C17.9995 27.3 17.6994 26.7 16.7994 25.3C13.9994 28.1 12.0995 29 8.49945 29C4.29945 29 0.899414 26.4 0.899414 21.1C0.899414 17 3.09944 14.2 6.29944 12.9C8.99944 11.7 12.8994 11.5 15.7994 11.1V10.4C15.7994 9.2 15.8995 7.8 15.1995 6.7C14.5995 5.8 13.3994 5.4 12.3994 5.4C10.4994 5.4 8.79944 6.4 8.29944 8.4C8.19944 8.9 7.89941 9.3 7.39941 9.3L2.49945 8.8C2.09945 8.7 1.59946 8.4 1.69946 7.7C2.79946 1.8 8.19945 0 12.9995 0C15.4995 0 18.6994 0.7 20.5994 2.5C23.0994 4.8 22.7994 7.9 22.7994 11.2V19.1C22.7994 21.5 23.7995 22.5 24.6995 23.8C24.9995 24.3 25.0995 24.8 24.6995 25.1C23.6995 26.1 21.8994 27.7 20.8994 28.6Z" fill="#3AFE14"/>
</g>
</g>
</svg>
