<svg width="174" height="61" viewBox="0 0 174 61" fill="none" xmlns="http://www.w3.org/2000/svg">
<g id="Group">
<g id="Group_2">
<g id="Group_3">
<path id="Vector" d="M79.2569 29.7277C79.3569 29.7277 79.3569 29.7277 79.4569 29.7277C81.0569 29.9277 82.5569 30.2277 83.7569 30.7277C84.8569 31.2277 85.4569 31.8277 86.0569 32.9277C86.9569 34.5277 86.9569 36.8277 86.1569 38.6277C85.5569 39.9277 84.2569 41.0277 83.0569 41.6277C81.8569 42.2277 80.5569 42.5277 79.1569 42.6277C76.6569 42.9277 74.0568 42.4277 71.8568 41.3277C70.5568 40.7277 68.9569 39.6277 68.1569 38.1277C67.5569 37.1277 67.5569 35.7277 68.2569 34.7277C69.3569 33.1277 71.8569 32.8277 73.7569 32.8277C75.1569 32.9277 77.7569 33.3277 79.0569 33.8277C79.4569 33.9277 80.7569 34.5277 81.0569 34.7277C81.2569 34.9277 81.3569 35.1277 81.2569 35.3277C80.9569 36.2277 78.6569 36.7277 78.0569 36.8277C76.2569 37.1277 75.3568 36.4277 73.3568 35.6277C72.8568 35.4277 72.1569 35.2277 71.6569 35.1277C70.7569 35.0277 69.6569 35.3277 69.4569 36.3277C69.3569 36.8277 69.9569 37.3277 70.4569 37.5277C71.5569 38.0277 72.3569 38.1277 73.4569 38.1277C76.5569 38.2277 80.0569 37.6277 82.6569 35.8277C82.9569 35.6277 83.3568 35.2277 83.3568 34.7277C83.3568 33.8277 81.7569 33.2277 81.7569 33.2277C80.0569 32.5277 76.8569 32.1277 75.2569 32.0277C73.5569 31.9277 70.8569 31.6277 70.1569 31.5277C69.4569 31.4277 68.7569 31.3277 68.1569 31.0277C67.5569 30.7277 66.9568 30.1277 66.8568 29.5277C66.5568 28.3277 66.9569 26.9277 67.5569 26.0277C69.2569 23.5277 73.2569 22.6277 76.2569 22.2277C79.1569 21.8277 83.8569 21.8277 86.6569 23.4277C87.0569 23.6277 87.3569 23.9277 87.2569 24.3277C87.0569 25.2277 86.4569 25.7277 85.6569 26.0277C84.8569 26.3277 83.0568 26.4277 82.3568 26.4277C78.9568 26.6277 74.7569 26.5277 71.5569 27.4277C71.2569 27.5277 70.8569 27.6277 70.7569 27.8277C70.2569 28.4277 71.6569 28.5277 72.0569 28.6277C72.1569 28.6277 72.1569 28.6277 72.2569 28.6277L79.2569 29.7277ZM58.9569 14.4277C58.9569 14.4277 59.5569 13.6277 59.9569 12.9277C60.7569 11.7277 62.3569 10.1277 63.4569 9.22771C63.8569 8.92771 64.2569 8.62771 64.2569 8.62771C64.2569 8.62771 63.5569 8.72771 63.2569 8.72771C62.3569 8.92771 61.0569 9.72771 60.4569 10.3277C59.3569 11.2277 58.2569 12.7277 58.7569 14.0277C58.7569 14.1277 58.9569 14.4277 58.9569 14.4277ZM64.8568 16.0277C66.5568 15.9277 68.0569 15.4277 69.5569 14.6277C70.9569 13.8277 73.0568 12.2277 72.8568 10.4277C72.7569 9.82771 72.3569 9.42771 71.9569 9.12771C71.3569 8.82771 70.9569 8.92771 70.1569 9.12771C69.5569 9.32771 69.2569 9.42771 68.7569 9.72771C67.1569 10.7277 64.7569 12.7277 63.5569 14.3277C63.2569 14.7277 62.9569 15.1277 62.7569 15.4277C62.6569 15.6277 62.4569 15.7277 62.5569 15.8277C62.4569 16.0277 64.1568 16.0277 64.8568 16.0277ZM60.5569 19.1277C60.3569 19.3277 60.1569 19.7277 60.0569 20.0277C59.9569 20.2277 59.7569 20.4277 59.6569 20.5277C59.2569 20.8277 58.8569 20.8277 58.4569 20.5277C57.8569 20.0277 57.5569 19.2277 57.4569 18.4277C57.4569 18.1277 57.4569 17.7277 57.4569 17.4277C57.3569 16.9277 56.8569 16.4277 56.5569 15.9277C56.2569 15.3277 55.9569 14.4277 55.9569 13.8277C55.8569 11.9277 56.8569 10.1277 58.1569 8.72771C59.4569 7.32771 61.2569 6.12771 63.1569 5.32771C64.9569 4.52771 67.5569 4.02771 69.5569 4.72771C70.1569 4.92771 71.0569 5.52771 71.5569 6.02771C71.6569 6.12771 71.7569 6.22771 71.8568 6.32771C71.9568 6.42771 72.1569 6.42771 72.3568 6.42771C72.9568 6.52771 73.8569 7.02771 74.2569 7.32771C74.9569 7.92771 75.3569 8.62771 75.5569 9.42771C75.9569 11.2277 74.8569 13.1277 73.7569 14.3277C71.7569 16.4277 69.7569 17.8277 67.2569 18.8277C66.1569 19.2277 64.3569 19.7277 63.0569 19.5277C62.6569 19.5277 62.2569 19.4277 61.8568 19.3277C61.6568 19.3277 60.9568 19.1277 60.8568 19.0277C60.6568 19.1277 60.5569 19.1277 60.5569 19.1277ZM62.8568 23.1277C62.9568 23.1277 63.0569 23.1277 63.1569 23.2277C64.0569 23.5277 64.4569 24.4277 64.6569 25.3277C65.1569 27.4277 65.3569 32.1277 65.4569 34.0277C65.5569 35.4277 65.5569 36.7277 65.6569 38.1277C65.6569 39.3277 65.7569 40.8277 65.5569 41.9277C65.4569 42.3277 65.2569 42.7277 64.8568 43.0277C64.4568 43.3277 63.4569 43.3277 62.9569 43.2277C61.6569 42.9277 61.2569 42.1277 61.0569 40.8277C60.6569 37.7277 60.8569 31.6277 61.0569 29.0277C61.1569 28.2277 61.4569 25.4277 61.9569 24.3277C61.9569 23.7277 62.2569 23.0277 62.8568 23.1277ZM22.7569 28.2277C22.7569 28.2277 20.7569 28.3277 19.4569 28.5277C17.7569 28.7277 14.5569 29.2277 12.6569 29.9277C12.0569 30.1277 10.9569 30.6277 10.8569 31.1277C10.7569 31.7277 11.1569 32.2277 11.5569 32.6277C11.7569 32.9277 13.1569 34.2277 13.5569 34.5277C15.1569 35.8277 18.3569 37.9277 20.6569 38.8277C21.4569 39.1277 22.8569 39.6277 22.8569 39.6277C22.8569 39.6277 22.7569 35.8277 22.7569 32.0277C22.7569 30.2277 22.7569 28.2277 22.7569 28.2277ZM58.7569 29.8277C58.8569 30.8277 58.5569 32.8277 58.5569 33.0277C58.4569 33.6277 58.0569 34.9277 57.9569 35.1277C57.5569 35.9277 57.2569 36.6277 56.8568 37.3277C56.2569 38.5277 54.6569 40.3277 53.7569 41.1277C50.3569 44.0277 45.1569 45.7277 40.6569 46.2277C37.6569 46.6277 34.1568 46.5277 30.8568 45.9277C29.7568 45.7277 28.0569 45.3277 28.0569 45.3277C28.0569 45.3277 28.0569 46.0277 28.0569 46.4277C28.0569 46.6277 27.8569 47.2277 27.7569 47.3277C27.5569 47.8277 27.1569 48.0277 26.5569 48.1277C25.8569 48.2277 25.1569 48.3277 24.5569 48.0277C23.5569 47.6277 23.1569 46.6277 22.9569 45.5277C22.8569 44.6277 22.6569 43.1277 22.6569 43.1277C22.6569 43.1277 21.8569 42.7277 21.2569 42.4277C19.2569 41.4277 17.4569 40.3277 15.7569 39.1277C15.2569 38.8277 13.3569 37.1277 12.9569 36.7277C11.7569 35.6277 10.6569 34.4277 9.85691 33.0277C9.25691 31.9277 9.05692 30.9277 9.55692 29.7277C10.2569 28.0277 12.6569 26.8277 14.2569 26.0277C15.4569 25.5277 19.2569 24.2277 20.7569 24.0277C21.4569 23.9277 22.6569 23.7277 22.7569 23.6277C22.7569 23.6277 22.7569 23.6277 22.8569 23.5277C22.8569 23.4277 22.9569 21.8277 22.9569 21.2277C22.9569 20.6277 23.3569 16.7277 23.5569 15.8277C23.6569 15.4277 23.9569 13.6277 24.3569 13.2277C24.5569 12.9277 24.9569 12.9277 25.3569 13.1277C27.1569 14.2277 27.6569 18.1277 27.8569 20.0277C27.9569 21.2277 27.9569 23.0277 27.9569 23.0277C27.9569 23.0277 30.0569 22.9277 31.2569 23.0277C32.4569 23.0277 33.8569 23.2277 35.1569 23.4277C36.7569 23.7277 39.9569 24.4277 41.7569 25.3277C43.2569 26.1277 44.6569 27.3277 45.1569 28.7277C45.5569 29.9277 45.5569 30.8277 44.8568 31.9277C44.1568 33.2277 42.7569 34.1277 41.3568 34.2277C40.9568 34.2277 39.3569 34.0277 38.9569 33.6277C38.7569 33.5277 38.7569 33.2277 38.9569 33.0277C39.0569 32.9277 39.7569 32.5277 40.1569 32.3277C40.3569 32.2277 40.5569 32.1277 40.7569 31.9277C41.1569 31.6277 41.4568 31.2277 41.3568 30.8277C41.3568 30.3277 40.7569 29.9277 40.2569 29.7277C37.7569 28.7277 32.7568 27.9277 30.3568 27.7277C29.4569 27.6277 28.0569 27.6277 28.0569 27.6277L28.3569 40.9277C28.3569 40.9277 29.4569 41.1277 30.3568 41.3277C30.8568 41.4277 32.9569 41.6277 33.5569 41.6277C37.8569 41.7277 42.6569 41.3277 46.5569 39.5277C48.2569 38.7277 49.8569 37.7277 51.0569 36.3277C52.6569 34.5277 53.4569 32.0277 53.2569 29.4277C53.0569 26.6277 51.0569 23.2277 49.4569 21.2277C45.2569 15.8277 38.0569 11.3277 31.6569 8.72771C25.1569 6.02771 18.7569 4.52771 11.9569 4.32771C10.1569 4.22771 6.35691 4.32771 4.35691 4.92771C4.05691 5.02771 3.75692 5.12771 3.55692 5.12771C3.35692 5.22771 3.05689 5.32771 2.95689 5.42771L2.85691 5.52771C2.85691 5.52771 2.95692 5.62771 3.05692 5.62771C3.25692 5.72771 4.15692 5.72771 4.55692 5.82771C4.95692 5.92771 5.35692 6.12771 5.55692 6.42771C5.75692 6.72771 5.75692 6.92771 5.55692 7.12771C5.15692 7.62771 3.45687 7.52771 2.75687 7.42771C1.95687 7.32771 1.05691 7.02771 0.85691 6.42771C0.65691 5.62771 1.05689 4.92771 1.45689 4.12771C2.25689 2.72771 3.45692 1.92771 5.05692 1.52771C7.45692 0.82771 10.4569 0.427709 12.7569 0.327709C17.8569 0.127709 22.7569 1.02771 27.7569 2.52771C30.5569 3.42771 34.3569 4.82771 37.0569 6.12771C39.0569 7.02771 42.0569 8.82771 43.8568 9.92771C44.3568 10.3277 47.5569 12.6277 48.0569 13.0277C49.0569 13.8277 50.4569 15.1277 51.4569 16.0277C53.3569 17.9277 55.7569 20.8277 56.8568 23.0277C57.1568 23.5277 57.3569 24.1277 57.6569 24.7277C57.7569 24.9277 58.2569 26.2277 58.3568 26.6277C58.4568 27.0277 58.5569 27.5277 58.5569 27.5277C58.4569 28.2277 58.7569 29.3277 58.7569 29.8277ZM123.157 26.8277C120.757 27.4277 114.457 27.7277 114.457 27.7277L113.657 30.2277C113.657 30.2277 116.857 29.9277 119.157 30.2277C119.157 30.2277 119.857 30.1277 119.957 31.0277C119.957 31.9277 119.857 32.8277 119.857 32.8277C119.857 32.8277 119.857 33.4277 119.057 33.5277C118.157 33.6277 112.257 33.9277 112.257 33.9277L111.257 37.2277C111.257 37.2277 110.857 38.0277 111.657 37.7277C112.357 37.5277 118.657 36.3277 119.457 36.5277C120.357 36.7277 121.257 37.9277 121.057 38.9277C120.757 40.2277 114.557 44.2277 110.757 43.9277C110.757 43.9277 108.757 44.0277 107.057 41.3277C105.457 38.7277 107.657 33.9277 107.657 33.9277C107.657 33.9277 106.657 31.6277 107.357 30.9277C107.357 30.9277 107.757 30.5277 109.057 30.4277L110.557 27.3277C110.557 27.3277 108.857 27.4277 107.757 26.1277C106.757 24.9277 106.757 24.3277 107.457 24.0277C108.257 23.6277 115.457 22.3277 120.457 22.5277C120.457 22.5277 122.157 22.3277 123.657 25.3277C123.657 25.3277 124.457 26.5277 123.157 26.8277ZM104.457 38.9277C103.857 40.4277 102.157 42.0277 100.057 41.0277C97.9569 40.0277 94.7569 33.3277 94.7569 33.3277C94.7569 33.3277 93.5569 30.8277 93.2569 30.9277C93.2569 30.9277 92.9568 30.4277 92.8568 33.1277C92.6569 35.8277 92.8569 41.1277 91.7569 42.0277C90.7569 42.8277 89.4568 42.5277 88.8568 41.5277C88.2569 40.5277 88.0568 38.2277 88.3568 34.2277C88.7569 30.2277 89.6569 25.9277 90.8568 24.5277C92.0568 23.2277 93.0568 24.1277 93.3568 24.5277C93.3568 24.5277 94.9569 26.0277 97.5569 30.2277L98.0569 31.0277C98.0569 31.0277 100.457 35.0277 100.757 35.0277C100.757 35.0277 100.957 35.2277 101.157 35.1277C101.457 35.0277 101.357 33.7277 101.357 33.7277C101.357 33.7277 100.857 29.3277 98.6569 21.9277C98.6569 21.9277 98.3569 21.0277 98.5569 20.1277C98.7569 19.2277 99.6569 19.6277 99.6569 19.6277C99.6569 19.6277 103.057 21.3277 104.657 26.8277C106.257 32.4277 105.157 37.4277 104.457 38.9277ZM141.057 35.6277C139.557 38.3277 135.157 43.9277 129.357 42.6277C127.457 47.2277 125.857 51.9277 124.957 59.0277C124.957 59.0277 124.757 60.4277 123.657 59.9277C122.557 59.5277 120.657 57.6277 120.257 55.1277C119.857 51.7277 121.357 46.0277 124.457 39.4277C123.557 37.9277 122.957 35.8277 123.457 32.9277C123.457 32.9277 124.257 27.4277 129.757 22.4277C129.757 22.4277 130.457 21.8277 130.857 22.0277C131.257 22.2277 131.057 24.0277 130.757 24.9277C130.357 25.8277 127.957 30.1277 127.957 30.1277C127.957 30.1277 126.457 33.0277 126.857 35.3277C129.757 30.8277 136.357 21.8277 140.557 24.6277C141.957 25.6277 142.557 27.7277 142.557 30.1277C142.457 31.8277 141.957 34.0277 141.057 35.6277ZM139.857 28.5277C139.857 28.5277 139.657 26.7277 137.857 28.7277C136.357 30.4277 133.657 33.5277 131.457 37.7277C133.757 37.4277 135.957 36.2277 136.657 35.6277C137.657 34.6277 140.257 32.0277 139.857 28.5277ZM172.957 28.1277H162.357C162.157 24.5277 161.757 21.0277 161.057 17.4277C160.957 17.0277 160.657 16.8277 160.257 16.8277H157.857C157.657 16.8277 157.457 16.9277 157.257 17.1277C157.157 17.3277 157.057 17.5277 157.057 17.7277C157.757 21.2277 158.157 24.7277 158.457 28.2277H148.157C147.657 28.2277 147.257 28.6277 147.257 29.1277V31.2277C147.257 31.7277 147.657 32.1277 148.157 32.1277H158.557C158.557 32.6277 158.557 33.1277 158.557 33.6277C158.557 36.8277 158.457 39.4277 158.057 42.4277C158.057 42.6277 158.057 42.9277 158.257 43.0277C158.457 43.2277 158.657 43.3277 158.857 43.3277H161.157C161.557 43.3277 161.957 43.0277 162.057 42.5277C162.357 39.5277 162.457 36.9277 162.457 33.6277C162.457 33.1277 162.457 32.7277 162.457 32.1277H172.957C173.457 32.1277 173.857 31.7277 173.857 31.2277V29.0277C173.857 28.5277 173.457 28.1277 172.957 28.1277Z" fill="#3AFE14"/>
</g>
</g>
</g>
</svg>
