<svg width="149" height="50" viewBox="0 0 149 50" fill="none" xmlns="http://www.w3.org/2000/svg">
<g id="Group">
<g id="Group_2">
<path id="Vector" d="M63.5565 26.4429C63.5565 33.4429 58.0565 38.6429 51.2565 38.6429C44.4565 38.6429 38.9565 33.4429 38.9565 26.4429C38.9565 19.3429 44.4565 14.2429 51.2565 14.2429C58.0565 14.2429 63.5565 19.3429 63.5565 26.4429ZM58.1565 26.4429C58.1565 22.0429 54.9565 19.0429 51.2565 19.0429C47.5565 19.0429 44.3564 22.0429 44.3564 26.4429C44.3564 30.8429 47.5565 33.8429 51.2565 33.8429C55.0565 33.8429 58.1565 30.8429 58.1565 26.4429Z" fill="#3AFE14"/>
<path id="Vector_2" d="M90.0565 26.4429C90.0565 33.4429 84.5565 38.6429 77.7565 38.6429C70.9565 38.6429 65.4565 33.4429 65.4565 26.4429C65.4565 19.3429 70.9565 14.2429 77.7565 14.2429C84.5565 14.2429 90.0565 19.3429 90.0565 26.4429ZM84.6565 26.4429C84.6565 22.0429 81.4565 19.0429 77.7565 19.0429C74.0565 19.0429 70.8564 22.0429 70.8564 26.4429C70.8564 30.8429 74.0565 33.8429 77.7565 33.8429C81.4565 33.8429 84.6565 30.8429 84.6565 26.4429Z" fill="#3AFE14"/>
<path id="Vector_3" d="M115.357 15.0428V36.9428C115.357 45.9428 110.057 49.6428 103.757 49.6428C97.8566 49.6428 94.2567 45.6428 92.9567 42.4428L97.6566 40.5428C98.4566 42.5428 100.557 44.8428 103.857 44.8428C107.857 44.8428 110.357 42.3428 110.357 37.6428V35.8428H110.157C108.957 37.3428 106.657 38.6428 103.757 38.6428C97.6566 38.6428 92.0566 33.3428 92.0566 26.4428C92.0566 19.5428 97.6566 14.1428 103.757 14.1428C106.657 14.1428 108.957 15.4428 110.157 16.8428H110.357V14.8428L115.357 15.0428ZM110.657 26.5428C110.657 22.2428 107.757 19.1428 104.157 19.1428C100.457 19.1428 97.3566 22.2428 97.3566 26.5428C97.3566 30.8428 100.457 33.9428 104.157 33.9428C107.757 33.8428 110.657 30.7428 110.657 26.5428Z" fill="#3AFE14"/>
<path id="Vector_4" d="M123.757 2.14282V37.9428H118.557V2.14282H123.757Z" fill="#3AFE14"/>
<path id="Vector_5" d="M144.157 30.5428L148.357 33.3428C147.057 35.3428 143.757 38.7428 138.157 38.7428C131.257 38.7428 126.057 33.3428 126.057 26.5428C126.057 19.2428 131.257 14.3428 137.557 14.3428C143.857 14.3428 146.957 19.3428 148.057 22.1428L148.657 23.5428L132.357 30.3428C133.657 32.8428 135.557 34.0428 138.257 34.0428C140.857 33.8428 142.757 32.5428 144.157 30.5428ZM131.357 26.1428L142.257 21.6428C141.657 20.1428 139.857 19.0428 137.757 19.0428C134.957 18.9428 131.157 21.3428 131.357 26.1428Z" fill="#3AFE14"/>
<path id="Vector_6" d="M19.2566 23.3428V18.1428H36.7566C36.9566 19.0428 37.0566 20.1428 37.0566 21.2428C37.0566 25.1428 35.9566 29.9428 32.5566 33.3428C29.2566 36.8428 24.9566 38.6428 19.3566 38.6428C8.85657 38.6428 0.0566406 30.1428 0.0566406 19.6428C0.0566406 9.14282 8.85657 0.642822 19.3566 0.642822C25.1566 0.642822 29.2566 2.94282 32.3566 5.84282L28.6566 9.54282C26.4566 7.44282 23.4566 5.84282 19.3566 5.84282C11.7566 5.84282 5.75659 12.0428 5.75659 19.6428C5.75659 27.2428 11.7566 33.4428 19.3566 33.4428C24.3566 33.4428 27.1567 31.4428 28.9567 29.6428C30.4567 28.1428 31.3566 26.0428 31.7566 23.2428L19.2566 23.3428Z" fill="#3AFE14"/>
</g>
</g>
</svg>
