<svg width="121" height="43" viewBox="0 0 121 43" fill="none" xmlns="http://www.w3.org/2000/svg">
<g id="Group">
<g id="Group_2">
<path id="Vector" d="M7.15649 30.3427C7.65649 31.7427 8.35647 32.8427 9.25647 33.8427C10.1565 34.8427 11.2565 35.5427 12.4565 36.0427C13.6565 36.5427 15.0565 36.8427 16.4565 36.8427C17.8565 36.8427 19.1565 36.5427 20.4565 36.0427C21.6565 35.5427 22.7565 34.7427 23.6565 33.8427C24.5565 32.8427 25.2565 31.7427 25.7565 30.4427C26.2565 29.1427 26.5565 27.6427 26.5565 25.9427V0.542725H32.7565V41.6427H26.6565V37.8427C25.2565 39.2427 23.6564 40.4427 21.8564 41.1427C19.9564 41.9427 17.9564 42.3427 15.8564 42.3427C13.6564 42.3427 11.6565 41.9427 9.75647 41.2427C7.85647 40.4427 6.25645 39.4427 4.85645 37.9427C3.45645 36.5427 2.35652 34.8427 1.55652 32.8427C0.756519 30.8427 0.356445 28.6427 0.356445 26.2427V0.542725H6.55652V25.9427C6.35652 27.5427 6.65649 29.0427 7.15649 30.3427ZM43.3564 0.542725V15.5427C44.7564 14.1427 46.3565 13.0427 48.1565 12.2427C49.9565 11.4427 51.9565 11.0427 54.0565 11.0427C56.2565 11.0427 58.2565 11.4427 60.2565 12.2427C62.1565 13.0427 63.8565 14.1427 65.2565 15.5427C66.6565 16.9427 67.7565 18.6427 68.5565 20.5427C69.3565 22.4427 69.7565 24.5427 69.7565 26.6427C69.7565 28.8427 69.3565 30.8427 68.5565 32.7427C67.7565 34.6427 66.6565 36.3427 65.2565 37.7427C63.8565 39.1427 62.1565 40.2427 60.2565 41.0427C58.3565 41.8427 56.2565 42.2427 54.0565 42.2427C51.9565 42.2427 49.9565 41.8427 48.1565 41.0427C46.3565 40.2427 44.7564 39.1427 43.3564 37.7427V41.5427H37.4565V0.542725H43.3564ZM44.0565 30.7427C44.5565 32.0427 45.3565 33.0427 46.2565 34.0427C47.1565 34.9427 48.2565 35.7427 49.5565 36.2427C50.8565 36.7427 52.1565 37.0427 53.6565 37.0427C55.0565 37.0427 56.3565 36.7427 57.6565 36.2427C58.9565 35.7427 59.9565 34.9427 60.9565 34.0427C61.8565 33.1427 62.6565 32.0427 63.1565 30.7427C63.6565 29.4427 63.9565 28.1427 63.9565 26.6427C63.9565 25.1427 63.6565 23.8427 63.1565 22.5427C62.6565 21.2427 61.8565 20.1427 60.9565 19.2427C60.0565 18.3427 58.9565 17.5427 57.6565 17.0427C56.3565 16.5427 55.0565 16.2427 53.6565 16.2427C52.2565 16.2427 50.9565 16.5427 49.6565 17.0427C48.3565 17.5427 47.3564 18.3427 46.3564 19.2427C45.4564 20.1427 44.6565 21.2427 44.1565 22.5427C43.6565 23.8427 43.3564 25.1427 43.3564 26.6427C43.2564 28.1427 43.5565 29.5427 44.0565 30.7427ZM73.0565 20.6427C73.8565 18.7427 74.9565 17.1427 76.2565 15.6427C77.6565 14.2427 79.2565 13.0427 81.1565 12.2427C83.0565 11.4427 85.0565 11.0427 87.2565 11.0427C89.4565 11.0427 91.3565 11.4427 93.2565 12.2427C95.0565 13.0427 96.6565 14.1427 98.0565 15.5427C99.3565 16.9427 100.456 18.5427 101.156 20.4427C101.856 22.3427 102.256 24.4427 102.256 26.6427V28.5427H77.8564C78.0564 29.7427 78.4565 30.8427 79.0565 31.9427C79.6565 32.9427 80.3565 33.8427 81.2565 34.6427C82.1565 35.4427 83.1565 36.0427 84.2565 36.4427C85.3565 36.8427 86.5564 37.0427 87.8564 37.0427C91.4564 37.0427 94.2565 35.5427 96.4565 32.6427L100.756 35.8427C99.2565 37.8427 97.4565 39.4427 95.2565 40.5427C93.0565 41.6427 90.5564 42.2427 87.8564 42.2427C85.6564 42.2427 83.5565 41.8427 81.5565 41.0427C79.6565 40.2427 77.9565 39.1427 76.5565 37.7427C75.1565 36.3427 73.9565 34.6427 73.1565 32.7427C72.3565 30.8427 71.9565 28.7427 71.9565 26.5427C71.9565 24.5427 72.2565 22.5427 73.0565 20.6427ZM81.3564 18.3427C79.6564 19.7427 78.5565 21.5427 78.0565 23.8427H96.3564C95.8564 21.5427 94.7565 19.6427 93.0565 18.3427C91.3565 16.9427 89.4565 16.2427 87.2565 16.2427C84.9565 16.2427 82.9564 16.9427 81.3564 18.3427ZM113.356 19.0427C112.056 20.4427 111.457 22.2427 111.457 24.6427V41.6427H105.557V11.6427H111.457V15.3427C112.157 14.1427 113.156 13.1427 114.356 12.4427C115.556 11.7427 116.956 11.3427 118.656 11.3427H120.756V16.8427H118.256C116.256 16.9427 114.656 17.6427 113.356 19.0427Z" fill="#3AFE14"/>
</g>
</g>
</svg>
