<svg width="256" height="52" viewBox="0 0 256 52" fill="none" xmlns="http://www.w3.org/2000/svg">
<path d="M17.8604 36.5354C17.9604 36.6354 18.1603 36.7354 18.1603 36.9354C18.1603 36.9354 18.1603 36.8354 18.2603 36.8354C18.1603 36.7354 18.0603 36.5354 18.0603 36.3354C17.9603 36.4354 17.8604 36.4354 17.8604 36.5354Z" fill="#3AFE14"/>
<path d="M31.1602 21.3355C31.1602 21.4355 31.1602 21.5355 31.1602 21.5355C31.2602 21.4355 31.2602 21.3355 31.4602 21.3355C31.3602 21.2355 31.2602 21.3355 31.1602 21.3355Z" fill="#3AFE14"/>
<path d="M32.8604 30.3354H32.7603C32.6603 30.3354 32.5603 30.3354 32.4603 30.2354L32.3604 30.3354C32.4604 30.3354 32.5603 30.4354 32.6603 30.5354C32.7603 30.4354 32.7604 30.4354 32.8604 30.3354Z" fill="#3AFE14"/>
<path d="M32.46 32.7354C32.46 32.8354 32.46 32.8354 32.46 32.9354L32.5599 33.0354C32.5599 32.9354 32.6599 32.8354 32.6599 32.8354C32.5599 32.7354 32.46 32.7354 32.46 32.7354Z" fill="#3AFE14"/>
<path d="M33.0602 33.8354C32.9602 33.8354 32.8601 33.8354 32.7601 33.7354C32.7601 33.8354 32.7602 33.8354 32.6602 33.9354C32.7602 33.9354 32.8602 34.0354 32.8602 34.0354C32.9602 33.9354 33.0602 33.8354 33.1602 33.7354C33.1602 33.7354 33.1602 33.8354 33.0602 33.8354Z" fill="#3AFE14"/>
<path d="M31.7605 22.6356C31.7605 22.8356 31.6605 23.0356 31.5605 23.1356H31.6605C31.6605 22.9356 31.8605 22.6356 32.0605 22.5356C31.9605 22.6356 31.8605 22.6356 31.7605 22.6356Z" fill="#3AFE14"/>
<path d="M18.3602 34.7356C18.2602 34.8356 18.0602 34.9356 17.8602 34.9356C17.5602 34.9356 17.3601 34.7356 17.2601 34.5356V34.6356C17.2601 34.7356 17.2602 34.9356 17.1602 35.0356C17.2602 35.0356 17.3602 34.9356 17.4602 34.9356C17.8602 34.9356 18.2601 35.2356 18.2601 35.7356C18.3601 35.6356 18.3602 35.6356 18.4602 35.5356C18.3602 35.4356 18.2601 35.2356 18.2601 35.0356C18.2601 34.9356 18.2602 34.8356 18.3602 34.7356Z" fill="#3AFE14"/>
<path d="M19.5605 36.7353C19.6605 36.8353 19.7605 36.9353 19.7605 37.0353L19.8606 36.9353C19.7606 36.8353 19.6605 36.7353 19.6605 36.6353C19.5605 36.6353 19.5605 36.6353 19.5605 36.7353Z" fill="#3AFE14"/>
<path d="M19.3604 35.7354C19.4604 35.8354 19.5603 35.9354 19.5603 36.1354C19.5603 36.0354 19.6603 35.8354 19.7603 35.7354C19.6603 35.6354 19.5603 35.4354 19.5603 35.3354C19.6603 35.4354 19.5604 35.6354 19.3604 35.7354Z" fill="#3AFE14"/>
<path d="M29.7598 19.4354C29.8598 19.4354 29.8599 19.4354 29.8599 19.4354C29.8599 19.4354 29.8598 19.4354 29.9598 19.4354C29.9598 19.3354 29.9598 19.3354 29.9598 19.2354C29.9598 19.3354 29.8598 19.4354 29.7598 19.4354Z" fill="#3AFE14"/>
<path d="M30.6602 19.9355C30.6602 20.0355 30.6602 20.0355 30.6602 20.1355C30.7602 20.0355 30.8602 19.9355 30.9602 19.9355C30.8602 19.9355 30.7602 19.9355 30.6602 19.9355Z" fill="#3AFE14"/>
<path d="M30.7605 18.5353C30.7605 18.4353 30.7605 18.4353 30.7605 18.3353C30.7605 18.2353 30.7605 18.2353 30.7605 18.1353C30.6605 18.3353 30.3605 18.5353 30.1605 18.5353H30.0605C30.0605 18.6353 30.1605 18.7353 30.1605 18.7353C30.2605 18.6353 30.4605 18.5353 30.7605 18.5353Z" fill="#3AFE14"/>
<path d="M17.8604 28.2356C18.0604 28.2356 18.2604 28.3356 18.3604 28.4356C18.4604 28.3356 18.4603 28.3356 18.5603 28.2356C18.4603 28.2356 18.4604 28.2356 18.3604 28.2356C18.1604 28.2356 18.0603 28.1356 17.9603 28.0356C17.9603 28.1356 17.8604 28.2356 17.8604 28.2356Z" fill="#3AFE14"/>
<path d="M17.5605 33.6355H17.4606C17.2606 33.6355 17.1606 33.5355 16.9606 33.4355C16.8606 33.6355 16.7605 33.7355 16.5605 33.8355C16.8605 33.8355 17.0605 34.0355 17.1605 34.2355C17.1605 34.2355 17.1605 34.2355 17.1605 34.1355C17.1605 33.9355 17.2605 33.7355 17.5605 33.6355Z" fill="#3AFE14"/>
<path d="M21.1605 36.4355C21.1605 36.5355 21.1605 36.6355 21.0605 36.7355C21.2605 36.8355 21.3606 37.0355 21.3606 37.2355C21.3606 37.1355 21.4606 37.0355 21.4606 36.9355C21.2606 36.8355 21.1605 36.6355 21.1605 36.4355Z" fill="#3AFE14"/>
<path d="M43.9603 0.335449H9.76025C4.56025 0.335449 0.360352 4.53545 0.360352 9.73545V42.5354C0.360352 47.7355 4.56025 51.9355 9.76025 51.9355H43.9603C49.1603 51.9355 53.3604 47.7355 53.3604 42.5354V9.63545C53.2604 4.53545 49.0603 0.335449 43.9603 0.335449ZM40.7603 34.1354C40.7603 34.4354 40.5603 34.6354 40.2603 34.6354C39.9603 34.6354 39.7603 34.4354 39.7603 34.1354C39.7603 33.8354 39.9603 33.6354 40.2603 33.6354C40.5603 33.6354 40.7603 33.9354 40.7603 34.1354ZM36.1603 33.8355C36.1603 34.1355 35.9603 34.3355 35.6603 34.3355C35.3603 34.3355 35.1603 34.1355 35.1603 33.8355C35.1603 33.5355 35.3603 33.3355 35.6603 33.3355C35.8603 33.2355 36.1603 33.5355 36.1603 33.8355ZM35.6603 32.4355C35.6603 32.1355 35.8603 31.9355 36.1603 31.9355C36.4603 31.9355 36.6603 32.1355 36.6603 32.4355C36.6603 32.7355 36.4603 32.9355 36.1603 32.9355C35.8603 32.9355 35.6603 32.7355 35.6603 32.4355ZM35.1603 34.2354C35.1603 34.5354 34.9603 34.7354 34.6603 34.7354C34.3603 34.7354 34.1603 34.5354 34.1603 34.2354C34.1603 33.9354 34.3603 33.7354 34.6603 33.7354C34.9603 33.7354 35.1603 33.9354 35.1603 34.2354ZM35.1603 34.9355C35.4603 34.9355 35.6603 35.1355 35.6603 35.4355C35.6603 35.7355 35.4603 35.9355 35.1603 35.9355C34.8603 35.9355 34.6603 35.7355 34.6603 35.4355C34.6603 35.1355 34.8603 34.9355 35.1603 34.9355ZM35.1603 36.7354C35.4603 36.7354 35.6603 36.9354 35.6603 37.2354C35.6603 37.5354 35.4603 37.7354 35.1603 37.7354C34.8603 37.7354 34.6603 37.5354 34.6603 37.2354C34.6603 36.9354 34.8603 36.7354 35.1603 36.7354ZM35.4603 36.5354C35.4603 36.2355 35.6603 36.0354 35.9603 36.0354C36.2603 36.0354 36.4603 36.2355 36.4603 36.5354C36.4603 36.8354 36.2603 37.0354 35.9603 37.0354C35.6603 36.9355 35.4603 36.7355 35.4603 36.5354ZM36.1603 35.5354C35.8603 35.5354 35.6603 35.3354 35.6603 35.0354C35.6603 34.7355 35.8603 34.5354 36.1603 34.5354C36.4603 34.5354 36.6603 34.7355 36.6603 35.0354C36.5603 35.3354 36.3603 35.5354 36.1603 35.5354ZM36.1603 33.7354C36.1603 33.4354 36.3603 33.2354 36.6603 33.2354C36.9603 33.2354 37.1603 33.4354 37.1603 33.7354C37.1603 34.0354 36.9603 34.2354 36.6603 34.2354C36.4603 34.2354 36.1603 34.0354 36.1603 33.7354ZM37.8604 31.5354C37.5604 31.5354 37.3604 31.3354 37.3604 31.0354C37.3604 30.7355 37.5604 30.5354 37.8604 30.5354C38.1604 30.5354 38.3604 30.7355 38.3604 31.0354C38.3604 31.2355 38.1604 31.5354 37.8604 31.5354ZM38.4603 31.9355C38.7603 31.9355 38.9603 32.1355 38.9603 32.4355C38.9603 32.7355 38.7603 32.9355 38.4603 32.9355C38.1603 32.9355 37.9603 32.7355 37.9603 32.4355C37.9603 32.1355 38.1603 31.9355 38.4603 31.9355ZM37.8604 32.4355C37.8604 32.7355 37.6604 32.9355 37.3604 32.9355C37.0604 32.9355 36.8604 32.7355 36.8604 32.4355C36.8604 32.1355 37.0604 31.9355 37.3604 31.9355C37.6604 31.9355 37.8604 32.1355 37.8604 32.4355ZM37.2603 34.5354C37.5603 34.5354 37.7603 34.7355 37.7603 35.0354C37.7603 35.3354 37.5603 35.5354 37.2603 35.5354C36.9603 35.5354 36.7603 35.3354 36.7603 35.0354C36.7603 34.8354 36.9603 34.5354 37.2603 34.5354ZM37.3604 33.8355C37.3604 33.5355 37.5604 33.3355 37.8604 33.3355C38.1604 33.3355 38.3604 33.5355 38.3604 33.8355C38.3604 34.1355 38.1604 34.3355 37.8604 34.3355C37.5604 34.3355 37.3604 34.0355 37.3604 33.8355ZM38.4603 34.7354C38.7603 34.7354 38.9603 34.9354 38.9603 35.2354C38.9603 35.5354 38.7603 35.7354 38.4603 35.7354C38.1603 35.7354 37.9603 35.5354 37.9603 35.2354C37.9603 34.9354 38.1603 34.7354 38.4603 34.7354ZM38.5603 33.9355C38.5603 33.6355 38.7603 33.4355 39.0603 33.4355C39.3603 33.4355 39.5603 33.6355 39.5603 33.9355C39.5603 34.2355 39.3603 34.4355 39.0603 34.4355C38.8603 34.4355 38.5603 34.2355 38.5603 33.9355ZM39.4603 35.0354C39.7603 35.0354 39.9603 35.2355 39.9603 35.5354C39.9603 35.8354 39.7603 36.0354 39.4603 36.0354C39.1603 36.0354 38.9603 35.8354 38.9603 35.5354C39.0603 35.2355 39.2603 35.0354 39.4603 35.0354ZM40.1603 32.6354C40.1603 32.9354 39.9603 33.1354 39.6603 33.1354C39.3603 33.1354 39.1603 32.9354 39.1603 32.6354C39.1603 32.3354 39.3603 32.1354 39.6603 32.1354C39.9603 32.1354 40.1603 32.3354 40.1603 32.6354ZM39.5603 31.0354C39.5603 31.3354 39.3603 31.5354 39.0603 31.5354C38.7603 31.5354 38.5603 31.3354 38.5603 31.0354C38.5603 30.7355 38.7603 30.5354 39.0603 30.5354C39.3603 30.5354 39.5603 30.7355 39.5603 31.0354ZM38.8604 29.4355C38.8604 29.7355 38.6604 29.9355 38.3604 29.9355C38.0604 29.9355 37.8604 29.7355 37.8604 29.4355C37.8604 29.1355 38.0604 28.9355 38.3604 28.9355C38.6604 28.9355 38.8604 29.1355 38.8604 29.4355ZM31.5603 13.3354C31.9603 13.3354 32.2603 13.6355 32.2603 14.0354C32.2603 14.4354 31.9603 14.7355 31.5603 14.7355C31.4603 14.7355 31.4604 14.7355 31.3604 14.7355C31.3604 14.8355 31.3604 14.8355 31.3604 14.9355C31.3604 15.3355 31.0603 15.6354 30.6603 15.6354C30.5603 15.6354 30.5603 15.6354 30.5603 15.6354C30.5603 15.7354 30.6603 15.8355 30.6603 15.9355C30.6603 16.3355 30.3603 16.6354 29.9603 16.6354C29.8603 16.6354 29.8604 16.6354 29.8604 16.6354C29.9604 16.7354 29.9603 16.8354 29.9603 17.0354C29.9603 17.4354 29.6603 17.7355 29.2603 17.7355C29.1603 17.7355 29.1603 17.7355 29.0603 17.7355C29.1603 17.8355 29.2603 18.0354 29.2603 18.1354C29.2603 18.5354 28.9603 18.8354 28.5603 18.8354C28.1603 18.8354 27.8604 18.5354 27.8604 18.1354C27.8604 17.7354 28.1603 17.4355 28.5603 17.4355C28.6603 17.4355 28.6603 17.4355 28.7603 17.4355C28.6603 17.3355 28.5603 17.1355 28.5603 17.0354C28.5603 16.6355 28.8603 16.3354 29.2603 16.3354C29.3603 16.3354 29.3604 16.3354 29.3604 16.3354C29.2604 16.2354 29.2603 16.1355 29.2603 15.9355C29.2603 15.5355 29.5603 15.2355 29.9603 15.2355C30.0603 15.2355 30.0603 15.2355 30.0603 15.2355C30.0603 15.1355 29.9603 15.0355 29.9603 14.9355C29.9603 14.5355 30.2603 14.2355 30.6603 14.2355C30.7603 14.2355 30.7604 14.2355 30.8604 14.2355C30.8604 14.1355 30.8604 14.1355 30.8604 14.0354C30.8604 13.6355 31.1603 13.3354 31.5603 13.3354ZM20.7603 32.4355C21.0603 32.4355 21.3604 32.6354 21.3604 33.0354C21.3604 33.4355 21.1603 33.6354 20.7603 33.6354C20.4603 33.6354 20.1603 33.4355 20.1603 33.0354C20.1603 32.6354 20.4603 32.4355 20.7603 32.4355ZM19.9603 32.6354C19.6603 32.6354 19.3604 32.4355 19.3604 32.0354C19.3604 31.7355 19.5603 31.4355 19.9603 31.4355C20.2603 31.4355 20.5603 31.6355 20.5603 32.0354C20.5603 32.3354 20.2603 32.6354 19.9603 32.6354ZM21.1603 31.8355C20.8603 31.8355 20.6603 31.6355 20.6603 31.3355C20.6603 31.0355 20.8603 30.8355 21.1603 30.8355C21.4603 30.8355 21.6603 31.0355 21.6603 31.3355C21.6603 31.5355 21.4603 31.8355 21.1603 31.8355ZM22.0603 31.5354C22.3603 31.5354 22.5603 31.7355 22.5603 32.0354C22.5603 32.3354 22.3603 32.5354 22.0603 32.5354C21.7603 32.5354 21.5603 32.3354 21.5603 32.0354C21.5603 31.7355 21.7603 31.5354 22.0603 31.5354ZM22.4603 30.9355C22.2603 30.9355 22.1603 30.7354 22.1603 30.6354C22.1603 30.5354 22.3603 30.3355 22.4603 30.3355C22.6603 30.3355 22.7603 30.5354 22.7603 30.6354C22.7603 30.8354 22.6603 30.9355 22.4603 30.9355ZM22.8604 29.5354C22.8604 29.7355 22.6603 29.8355 22.5603 29.8355C22.4603 29.8355 22.2603 29.6355 22.2603 29.5354C22.2603 29.4354 22.4603 29.2354 22.5603 29.2354C22.6603 29.2354 22.8604 29.4354 22.8604 29.5354ZM22.5603 28.6354C22.5603 28.4354 22.7603 28.2354 22.9603 28.2354C23.1603 28.2354 23.3604 28.4354 23.3604 28.6354C23.3604 28.8354 23.1603 29.0354 22.9603 29.0354C22.7603 28.9354 22.5603 28.8354 22.5603 28.6354ZM23.2603 31.5354C23.5603 31.5354 23.7603 31.7355 23.7603 32.0354C23.7603 32.3354 23.5603 32.5354 23.2603 32.5354C22.9603 32.5354 22.7603 32.3354 22.7603 32.0354C22.7603 31.8354 22.9603 31.5354 23.2603 31.5354ZM23.3604 31.3355C23.1604 31.3355 23.0603 31.1355 23.0603 31.0354C23.0603 30.8354 23.2604 30.7354 23.3604 30.7354C23.5604 30.7354 23.6603 30.9354 23.6603 31.0354C23.7603 31.2355 23.5604 31.3355 23.3604 31.3355ZM23.3604 27.9355C23.1604 27.9355 22.9603 27.7355 22.9603 27.5354C22.9603 27.3354 23.1604 27.1354 23.3604 27.1354C23.5604 27.1354 23.7603 27.3354 23.7603 27.5354C23.7603 27.8354 23.5604 27.9355 23.3604 27.9355ZM26.5603 15.3354C26.9603 15.3354 27.2603 15.6355 27.2603 16.0354C27.2603 16.4354 26.9603 16.7355 26.5603 16.7355C26.1603 16.7355 25.8604 16.4354 25.8604 16.0354C25.9604 15.6355 26.1603 15.3354 26.5603 15.3354ZM25.6603 15.4355C25.2603 15.4355 24.9603 15.1355 24.9603 14.7355C24.9603 14.3355 25.2603 14.0354 25.6603 14.0354C26.0603 14.0354 26.3604 14.3355 26.3604 14.7355C26.3604 15.1355 26.0603 15.4355 25.6603 15.4355ZM25.5603 30.6354C25.7603 30.6354 25.8604 30.8355 25.8604 30.9355C25.8604 31.1355 25.6603 31.2354 25.5603 31.2354C25.3603 31.2354 25.2603 31.0355 25.2603 30.9355C25.2603 30.8355 25.3603 30.6354 25.5603 30.6354ZM25.1603 24.0354C24.9603 24.0354 24.7603 23.8354 24.7603 23.6354C24.7603 23.4354 24.9603 23.2355 25.1603 23.2355C25.3603 23.2355 25.5603 23.4354 25.5603 23.6354C25.5603 23.9354 25.3603 24.0354 25.1603 24.0354ZM25.5603 23.1354C25.3603 23.1354 25.1603 22.9355 25.1603 22.7355C25.1603 22.5354 25.3603 22.3354 25.5603 22.3354C25.7603 22.3354 25.9603 22.5354 25.9603 22.7355C25.9603 22.9355 25.8603 23.1354 25.5603 23.1354ZM25.6603 21.7355C25.6603 21.5354 25.8603 21.3354 26.0603 21.3354C26.2603 21.3354 26.4603 21.5354 26.4603 21.7355C26.4603 21.9355 26.2603 22.1354 26.0603 22.1354C25.8603 22.1354 25.6603 21.9355 25.6603 21.7355ZM26.5603 30.9355C26.7603 30.9355 26.8604 31.1354 26.8604 31.2354C26.8604 31.4354 26.6603 31.5354 26.5603 31.5354C26.3603 31.5354 26.2603 31.3354 26.2603 31.2354C26.2603 31.1354 26.4603 30.9355 26.5603 30.9355ZM26.5603 20.6354C26.2603 20.6354 26.0603 20.4354 26.0603 20.1354C26.0603 19.8354 26.2603 19.6354 26.5603 19.6354C26.8603 19.6354 27.0603 19.8354 27.0603 20.1354C27.0603 20.4354 26.7603 20.6354 26.5603 20.6354ZM27.2603 16.1354C27.2603 15.7354 27.5603 15.4355 27.9603 15.4355C28.3603 15.4355 28.6603 15.7354 28.6603 16.1354C28.6603 16.5354 28.3603 16.8354 27.9603 16.8354C27.6603 16.8354 27.2603 16.5354 27.2603 16.1354ZM27.9603 17.4355C27.9603 17.8355 27.6604 18.0354 27.3604 18.0354C26.9604 18.0354 26.7603 17.7355 26.7603 17.4355C26.7603 17.1355 27.0604 16.8354 27.3604 16.8354C27.6604 16.7354 27.9603 17.0355 27.9603 17.4355ZM27.1603 15.3354C26.7603 15.3354 26.4603 15.0354 26.4603 14.6354C26.4603 14.2354 26.7603 13.9355 27.1603 13.9355C27.5603 13.9355 27.8604 14.2354 27.8604 14.6354C27.8604 14.9354 27.5603 15.3354 27.1603 15.3354ZM25.9603 16.8354C26.2603 16.8354 26.5603 17.1355 26.5603 17.4355C26.5603 17.7355 26.2603 18.0354 25.9603 18.0354C25.6603 18.0354 25.3604 17.7355 25.3604 17.4355C25.3604 17.1355 25.6603 16.8354 25.9603 16.8354ZM26.0603 18.2355C26.3603 18.2355 26.6603 18.5354 26.6603 18.8354C26.6603 19.1354 26.3603 19.4355 26.0603 19.4355C25.7603 19.4355 25.4603 19.2354 25.4603 18.8354C25.4603 18.5354 25.7603 18.2355 26.0603 18.2355ZM25.9603 20.6354C25.9603 20.9354 25.7603 21.1354 25.4603 21.1354C25.1603 21.1354 24.9603 20.9354 24.9603 20.6354C24.9603 20.3354 25.1603 20.1354 25.4603 20.1354C25.7603 20.1354 25.9603 20.4354 25.9603 20.6354ZM25.4603 21.7355C25.4603 22.0354 25.2603 22.2355 24.9603 22.2355C24.6603 22.2355 24.4603 22.0354 24.4603 21.7355C24.4603 21.4355 24.6603 21.2355 24.9603 21.2355C25.2603 21.2355 25.4603 21.4355 25.4603 21.7355ZM24.5603 22.3354C24.8603 22.3354 25.0603 22.5354 25.0603 22.8354C25.0603 23.1354 24.8603 23.3354 24.5603 23.3354C24.2603 23.3354 24.0603 23.1354 24.0603 22.8354C24.0603 22.5354 24.2603 22.3354 24.5603 22.3354ZM24.4603 23.8354C24.4603 24.1354 24.2603 24.3355 23.9603 24.3355C23.6603 24.3355 23.4603 24.1354 23.4603 23.8354C23.4603 23.5354 23.6603 23.3354 23.9603 23.3354C24.2603 23.3354 24.4603 23.5354 24.4603 23.8354ZM24.2603 26.0354C24.0603 26.0354 23.8604 25.8354 23.8604 25.6354C23.8604 25.4354 24.0603 25.2354 24.2603 25.2354C24.4603 25.2354 24.6603 25.4354 24.6603 25.6354C24.6603 25.8354 24.4603 26.0354 24.2603 26.0354ZM24.8604 31.0354C24.8604 31.2355 24.6603 31.3355 24.5603 31.3355C24.3603 31.3355 24.2603 31.1355 24.2603 31.0354C24.2603 30.8354 24.4603 30.7354 24.5603 30.7354C24.6603 30.6354 24.8604 30.8354 24.8604 31.0354ZM24.0603 24.8355C24.0603 25.1355 23.8603 25.3355 23.5603 25.3355C23.2603 25.3355 23.0603 25.1355 23.0603 24.8355C23.0603 24.5355 23.2603 24.3355 23.5603 24.3355C23.8603 24.4355 24.0603 24.6355 24.0603 24.8355ZM23.5603 25.9355C23.5603 26.2355 23.3603 26.4355 23.0603 26.4355C22.7603 26.4355 22.5603 26.2355 22.5603 25.9355C22.5603 25.6355 22.7603 25.4355 23.0603 25.4355C23.3603 25.4355 23.5603 25.7355 23.5603 25.9355ZM23.4603 26.6354C23.4603 26.4354 23.6604 26.2354 23.8604 26.2354C24.0604 26.2354 24.2603 26.4354 24.2603 26.6354C24.2603 26.8354 24.0604 27.0354 23.8604 27.0354C23.6604 27.0354 23.4603 26.8354 23.4603 26.6354ZM24.3604 31.5354C24.6604 31.5354 24.8604 31.7355 24.8604 32.0354C24.8604 32.3354 24.6604 32.5354 24.3604 32.5354C24.0604 32.5354 23.8604 32.3354 23.8604 32.0354C23.8604 31.8354 24.0604 31.5354 24.3604 31.5354ZM24.4603 32.6354C24.7603 32.6354 24.9603 32.8354 24.9603 33.1354C24.9603 33.4354 24.7603 33.6354 24.4603 33.6354C24.1603 33.6354 23.9603 33.4354 23.9603 33.1354C23.9603 32.8354 24.2603 32.6354 24.4603 32.6354ZM24.6603 25.0354C24.4603 25.0354 24.2603 24.8354 24.2603 24.6354C24.2603 24.4354 24.4603 24.2354 24.6603 24.2354C24.8603 24.2354 25.0603 24.4354 25.0603 24.6354C25.0603 24.8354 24.9603 25.0354 24.6603 25.0354ZM25.5603 31.6354C25.8603 31.6354 26.0603 31.8354 26.0603 32.1354C26.0603 32.4354 25.8603 32.6354 25.5603 32.6354C25.2603 32.6354 25.0603 32.4354 25.0603 32.1354C25.0603 31.8354 25.2603 31.6354 25.5603 31.6354ZM25.7603 32.6354C26.0603 32.6354 26.2603 32.8354 26.2603 33.1354C26.2603 33.4354 26.0603 33.6354 25.7603 33.6354C25.4603 33.6354 25.2603 33.4354 25.2603 33.1354C25.2603 32.8354 25.4603 32.6354 25.7603 32.6354ZM26.1603 34.3355C26.4603 34.3355 26.6603 34.5355 26.6603 34.8355C26.6603 35.1355 26.4603 35.3355 26.1603 35.3355C25.8603 35.3355 25.6603 35.1355 25.6603 34.8355C25.5603 34.6355 25.8603 34.3355 26.1603 34.3355ZM26.5603 34.3355C26.2603 34.3355 26.0603 34.1355 26.0603 33.8355C26.0603 33.5355 26.2603 33.3355 26.5603 33.3355C26.8603 33.3355 27.0603 33.5355 27.0603 33.8355C27.1603 34.0355 26.8603 34.3355 26.5603 34.3355ZM27.3604 34.3355C27.6604 34.3355 27.8604 34.5355 27.8604 34.8355C27.8604 35.1355 27.6604 35.3355 27.3604 35.3355C27.0604 35.3355 26.8604 35.1355 26.8604 34.8355C26.8604 34.5355 27.0604 34.3355 27.3604 34.3355ZM27.4603 34.0354C27.4603 33.8354 27.6604 33.6354 27.8604 33.6354C28.0604 33.6354 28.2603 33.8354 28.2603 34.0354C28.2603 34.2355 28.0604 34.4355 27.8604 34.4355C27.6604 34.4355 27.4603 34.3354 27.4603 34.0354ZM28.2603 33.6354C28.2603 33.4354 28.4603 33.2354 28.6603 33.2354C28.8603 33.2354 29.0603 33.4354 29.0603 33.6354C29.0603 33.8354 28.8603 34.0354 28.6603 34.0354C28.4603 34.0354 28.2603 33.8354 28.2603 33.6354ZM28.2603 33.0354C28.0603 33.0354 27.8604 32.8354 27.8604 32.6354C27.8604 32.4354 28.0603 32.2354 28.2603 32.2354C28.4603 32.2354 28.6603 32.4354 28.6603 32.6354C28.5603 32.8354 28.4603 33.0354 28.2603 33.0354ZM27.5603 32.2354C27.3603 32.2354 27.1603 32.0355 27.1603 31.8355C27.1603 31.6355 27.3603 31.4355 27.5603 31.4355C27.7603 31.4355 27.9603 31.6355 27.9603 31.8355C27.8603 32.0355 27.7603 32.2354 27.5603 32.2354ZM27.3604 32.5354C27.6604 32.5354 27.8604 32.7355 27.8604 33.0354C27.8604 33.3354 27.6604 33.5354 27.3604 33.5354C27.0604 33.5354 26.8604 33.3354 26.8604 33.0354C26.9604 32.8354 27.1604 32.5354 27.3604 32.5354ZM26.6603 32.7354C26.4603 32.7354 26.2603 32.5355 26.2603 32.3355C26.2603 32.1355 26.4603 31.9355 26.6603 31.9355C26.8603 31.9355 27.0603 32.1355 27.0603 32.3355C27.1603 32.5355 26.9603 32.7354 26.6603 32.7354ZM27.0603 22.1354C26.8603 22.1354 26.5603 21.9354 26.5603 21.6354C26.5603 21.3354 26.7603 21.1354 27.0603 21.1354C27.3603 21.1354 27.5603 21.3354 27.5603 21.6354C27.5603 21.9354 27.3603 22.1354 27.0603 22.1354ZM27.0603 20.4355C27.0603 20.1355 27.2603 19.9355 27.5603 19.9355C27.8603 19.9355 28.0603 20.1355 28.0603 20.4355C28.0603 20.7355 27.8603 20.9355 27.5603 20.9355C27.2603 20.9355 27.0603 20.7355 27.0603 20.4355ZM27.2603 19.4355C26.9603 19.4355 26.6603 19.1354 26.6603 18.8354C26.6603 18.5354 26.9603 18.2355 27.2603 18.2355C27.5603 18.2355 27.8604 18.5354 27.8604 18.8354C27.8604 19.1354 27.6603 19.4355 27.2603 19.4355ZM30.3604 12.1354C30.7604 12.1354 31.0603 12.4354 31.0603 12.8354C31.0603 13.2354 30.7604 13.5354 30.3604 13.5354C30.2604 13.5354 30.1603 13.5355 30.0603 13.4355C30.1603 13.5355 30.1603 13.6354 30.1603 13.8354C30.1603 14.2354 29.8603 14.5354 29.4603 14.5354C29.3603 14.5354 29.2603 14.5355 29.1603 14.4355C29.2603 14.5355 29.3604 14.7355 29.3604 14.9355C29.3604 15.3355 29.0603 15.6354 28.6603 15.6354C28.2603 15.6354 27.9603 15.3355 27.9603 14.9355C27.9603 14.5355 28.2603 14.2355 28.6603 14.2355C28.7603 14.2355 28.8603 14.2354 28.9603 14.3354C28.8603 14.2354 28.7603 14.0354 28.7603 13.8354C28.7603 13.4354 29.0603 13.1354 29.4603 13.1354C29.5603 13.1354 29.6603 13.1355 29.7603 13.2355C29.6603 13.1355 29.6603 13.0354 29.6603 12.8354C29.6603 12.5354 29.9604 12.1354 30.3604 12.1354ZM28.8604 11.4355C29.2604 11.4355 29.5603 11.7354 29.5603 12.1354C29.5603 12.5354 29.2604 12.8354 28.8604 12.8354C28.4604 12.8354 28.1603 12.5354 28.1603 12.1354C28.1603 11.7354 28.4604 11.4355 28.8604 11.4355ZM28.6603 13.3354C28.6603 13.7354 28.3603 14.0354 27.9603 14.0354C27.5603 14.0354 27.2603 13.7354 27.2603 13.3354C27.2603 12.9354 27.5603 12.6354 27.9603 12.6354C28.3603 12.6354 28.6603 12.9354 28.6603 13.3354ZM27.1603 11.1354C27.5603 11.1354 27.8604 11.4354 27.8604 11.8354C27.8604 12.2354 27.5603 12.5354 27.1603 12.5354C26.7603 12.5354 26.4603 12.2354 26.4603 11.8354C26.4603 11.4354 26.7603 11.1354 27.1603 11.1354ZM27.0603 13.2355C27.0603 13.6355 26.7604 13.9355 26.3604 13.9355C25.9604 13.9355 25.6603 13.6355 25.6603 13.2355C25.6603 12.8355 25.9604 12.5354 26.3604 12.5354C26.7604 12.5354 27.0603 12.8355 27.0603 13.2355ZM25.4603 11.2355C25.8603 11.2355 26.1603 11.5355 26.1603 11.9355C26.1603 12.3355 25.8603 12.6354 25.4603 12.6354C25.0603 12.6354 24.7603 12.3355 24.7603 11.9355C24.7603 11.6355 25.0603 11.2355 25.4603 11.2355ZM23.9603 11.9355C24.3603 11.9355 24.6603 12.2354 24.6603 12.6354C24.6603 12.7354 24.6603 12.8355 24.5603 12.9355C24.6603 12.9355 24.6603 12.9355 24.7603 12.9355C25.1603 12.9355 25.4603 13.2354 25.4603 13.6354C25.4603 14.0354 25.1603 14.3354 24.7603 14.3354C24.3603 14.3354 24.0603 14.0354 24.0603 13.6354C24.0603 13.5354 24.0603 13.4354 24.1603 13.3354C24.0603 13.3354 23.9603 13.3354 23.9603 13.3354C23.5603 13.3354 23.2603 13.0354 23.2603 12.6354C23.1603 12.2354 23.5603 11.9355 23.9603 11.9355ZM22.6603 12.9355C23.0603 12.9355 23.4603 13.2355 23.4603 13.7355V13.8354H23.5603C23.9603 13.8354 24.2603 14.1355 24.2603 14.5354C24.2603 14.6355 24.2603 14.7355 24.2603 14.7355C24.3603 14.7355 24.3603 14.7355 24.4603 14.7355C24.8603 14.7355 25.1603 15.0355 25.1603 15.4355C25.1603 15.6355 25.0603 15.7355 24.9603 15.9355C25.0603 15.8355 25.1604 15.8354 25.3604 15.8354C25.7604 15.8354 25.9603 16.1355 25.9603 16.4355C25.9603 16.8355 25.6604 17.0354 25.3604 17.0354C25.0604 17.0354 24.7603 16.7355 24.7603 16.4355C24.7603 16.2355 24.8603 16.1355 24.9603 16.0354C24.8603 16.1355 24.7603 16.1354 24.5603 16.1354C24.1603 16.1354 23.8604 15.8355 23.8604 15.4355C23.8604 15.3355 23.8604 15.3355 23.8604 15.2355C23.7604 15.2355 23.7603 15.2355 23.6603 15.2355C23.2603 15.2355 22.9603 14.9354 22.9603 14.5354V14.4355H22.8604C22.4604 14.4355 22.0603 14.1354 22.0603 13.6354C21.8603 13.3354 22.1603 12.9355 22.6603 12.9355ZM21.6603 14.3354C22.0603 14.3354 22.3603 14.6355 22.4603 15.0354C22.8603 15.0354 23.1603 15.3355 23.1603 15.7355H23.2603C23.6603 15.7355 23.9603 16.0355 23.9603 16.4355C23.9603 16.5355 23.9603 16.5354 23.9603 16.6354C24.0603 16.6354 24.0603 16.6354 24.1603 16.6354C24.4603 16.6354 24.7603 16.9355 24.7603 17.2355C24.7603 17.4355 24.6603 17.5354 24.6603 17.6354C24.7603 17.6354 24.8603 17.5354 24.9603 17.5354C25.2603 17.5354 25.5603 17.8354 25.5603 18.1354C25.5603 18.4354 25.2603 18.7355 24.9603 18.7355C24.6603 18.7355 24.3604 18.4354 24.3604 18.1354C24.3604 18.0354 24.4603 17.8355 24.4603 17.7355C24.3603 17.7355 24.2603 17.8354 24.1603 17.8354C23.8603 17.8354 23.5603 17.5354 23.5603 17.2355V17.1354C23.4603 17.1354 23.4604 17.1354 23.3604 17.1354C22.9604 17.1354 22.6603 16.8355 22.6603 16.4355H22.5603C22.1603 16.4355 21.9604 16.1354 21.8604 15.8354H21.7603C21.3603 15.8354 20.9603 15.5354 20.9603 15.0354C20.8603 14.7354 21.2603 14.3354 21.6603 14.3354ZM20.9603 15.8354C21.3603 15.8354 21.6603 16.1355 21.6603 16.4355C22.0603 16.4355 22.3604 16.7355 22.3604 17.0354C22.3604 17.0354 22.3603 17.0354 22.4603 17.0354C22.8603 17.0354 23.1603 17.3355 23.1603 17.7355H23.2603C23.5603 17.7355 23.8604 18.0354 23.8604 18.3354C23.8604 18.4354 23.8604 18.5354 23.8604 18.5354H23.9603C24.2603 18.5354 24.5603 18.8354 24.5603 19.1354V19.2355C24.6603 19.0354 24.8603 18.9355 25.0603 18.9355C25.3603 18.9355 25.5603 19.1355 25.5603 19.4355C25.5603 19.7355 25.3603 19.9355 25.0603 19.9355C24.7603 19.9355 24.5603 19.7355 24.5603 19.4355C24.5603 19.4355 24.5603 19.4354 24.5603 19.3354C24.4603 19.5354 24.2603 19.6354 24.0603 19.6354C23.7603 19.6354 23.4603 19.3354 23.4603 19.0354C23.4603 18.9354 23.4603 18.9354 23.4603 18.8354C23.3603 18.8354 23.3603 18.8354 23.2603 18.8354C22.9603 18.8354 22.6603 18.5354 22.6603 18.2355H22.5603C22.2603 18.2355 21.9604 18.0354 21.8604 17.7355H21.7603C21.4603 17.7355 21.1603 17.5354 21.0603 17.2355H20.9603C20.5603 17.2355 20.1603 16.8355 20.1603 16.4355C20.1603 16.2355 20.5603 15.8354 20.9603 15.8354ZM20.3604 17.4355C20.6604 17.4355 20.9603 17.6355 21.0603 17.9355C21.0603 17.9355 21.0603 17.9355 21.1603 17.9355C21.4603 17.9355 21.7604 18.1355 21.8604 18.5354H21.9603C22.3603 18.5354 22.5603 18.8354 22.6603 19.1354H22.7603C23.0603 19.1354 23.3604 19.4355 23.3604 19.7355C23.3604 19.8355 23.3604 19.8355 23.3604 19.9355H23.4603C23.7603 19.9355 23.9603 20.1354 24.0603 20.3354C24.1603 20.2354 24.2603 20.1354 24.4603 20.1354C24.7603 20.1354 24.9603 20.3354 24.9603 20.6354C24.9603 20.9354 24.7603 21.1354 24.4603 21.1354C24.2603 21.1354 24.0603 20.9355 23.9603 20.7355C23.8603 20.8355 23.6603 21.0354 23.4603 21.0354C23.1603 21.0354 22.8604 20.7355 22.8604 20.4355V20.3354C22.7604 20.3354 22.7603 20.3354 22.6603 20.3354C22.3603 20.3354 22.0603 20.1354 22.0603 19.8354C21.9603 19.8354 21.9604 19.8354 21.8604 19.8354C21.5604 19.8354 21.2603 19.6354 21.2603 19.3354C21.1603 19.3354 21.1603 19.3354 21.0603 19.3354C20.7603 19.3354 20.4604 19.1355 20.3604 18.9355H20.2603C19.8603 18.9355 19.4603 18.5354 19.4603 18.1354C19.5603 17.7354 19.8604 17.4355 20.3604 17.4355ZM19.6603 18.9355C19.9603 18.9355 20.2604 19.1355 20.3604 19.4355H20.4603C20.7603 19.4355 21.0603 19.6355 21.1603 19.9355H21.2603C21.5603 19.9355 21.8603 20.1355 21.9603 20.4355C22.0603 20.4355 22.0603 20.4355 22.1603 20.4355C22.5603 20.4355 22.7603 20.7355 22.7603 21.0354C22.7603 21.0354 22.7603 21.0354 22.7603 21.1354H22.8604C23.1604 21.1354 23.3604 21.3354 23.3604 21.5354C23.4604 21.3354 23.5603 21.2355 23.7603 21.2355C24.0603 21.2355 24.2603 21.4355 24.2603 21.7355C24.2603 22.0354 24.0603 22.2355 23.7603 22.2355C23.5603 22.2355 23.3603 22.1355 23.2603 21.9355C23.1603 22.1355 22.9603 22.2355 22.7603 22.2355C22.4603 22.2355 22.1603 21.9354 22.1603 21.6354C22.0603 21.6354 22.0603 21.6354 21.9603 21.6354C21.6603 21.6354 21.4604 21.4355 21.3604 21.2355C21.2604 21.2355 21.1603 21.2355 21.1603 21.2355C20.8603 21.2355 20.6603 21.0354 20.5603 20.8354C20.4603 20.8354 20.4604 20.8354 20.3604 20.8354C20.0604 20.8354 19.8603 20.6355 19.7603 20.4355C19.6603 20.4355 19.6603 20.4355 19.5603 20.4355C19.1603 20.4355 18.7603 20.0354 18.7603 19.6354C18.8603 19.3354 19.2603 18.9355 19.6603 18.9355ZM19.0603 20.5354C19.3603 20.5354 19.6603 20.7355 19.7603 20.9355C19.8603 20.9355 19.8603 20.9355 19.9603 20.9355C20.2603 20.9355 20.5603 21.1354 20.6603 21.3354C20.7603 21.3354 20.7604 21.3354 20.8604 21.3354C21.1604 21.3354 21.4603 21.5354 21.5603 21.8354C21.6603 21.8354 21.6603 21.8354 21.7603 21.8354C22.1603 21.8354 22.3604 22.1355 22.3604 22.4355H22.4603C22.7603 22.4355 22.9603 22.6354 22.9603 22.8354C23.0603 22.6354 23.2603 22.5354 23.4603 22.5354C23.7603 22.5354 23.9603 22.7355 23.9603 23.0354C23.9603 23.3354 23.7603 23.5354 23.4603 23.5354C23.2603 23.5354 23.0603 23.4355 22.9603 23.2355C22.8603 23.4355 22.6604 23.6354 22.3604 23.6354C22.0604 23.6354 21.8603 23.4354 21.7603 23.1354C21.6603 23.1354 21.6603 23.1354 21.5603 23.1354C21.2603 23.1354 21.0603 22.9355 20.9603 22.7355C20.8603 22.7355 20.7603 22.8354 20.6603 22.8354C20.4603 22.8354 20.1603 22.7355 20.0603 22.5354C19.9603 22.5354 19.8603 22.6354 19.7603 22.6354C19.4603 22.6354 19.2603 22.5354 19.1603 22.3354C19.0603 22.3354 18.9604 22.4355 18.8604 22.4355C18.3604 22.4355 18.0603 22.0354 18.0603 21.6354C18.1603 20.9354 18.5603 20.5354 19.0603 20.5354ZM18.3604 22.0354C18.6604 22.0354 18.8603 22.1354 19.0603 22.3354C19.1603 22.3354 19.2604 22.2355 19.3604 22.2355C19.6604 22.2355 19.8603 22.3354 19.9603 22.6354C20.0603 22.6354 20.1603 22.5354 20.2603 22.5354C20.5603 22.5354 20.7604 22.7355 20.8604 22.9355C20.9604 22.9355 21.0603 22.8354 21.1603 22.8354C21.4603 22.8354 21.7603 23.0355 21.7603 23.4355C21.8603 23.4355 21.8603 23.4355 21.9603 23.4355C22.2603 23.4355 22.4603 23.6354 22.5603 23.8354C22.5603 23.5354 22.7603 23.3354 23.0603 23.3354C23.3603 23.3354 23.5603 23.5354 23.5603 23.8354C23.5603 24.1354 23.3603 24.3355 23.0603 24.3355C22.8603 24.3355 22.6603 24.2355 22.5603 24.0354C22.5603 24.3354 22.2603 24.5354 21.9603 24.5354C21.6603 24.5354 21.4604 24.3354 21.3604 24.0354C21.2604 24.0354 21.1603 24.1354 21.1603 24.1354C20.9603 24.1354 20.7603 24.0354 20.6603 23.8354C20.5603 23.9354 20.4604 23.9355 20.3604 23.9355C20.1604 23.9355 19.9603 23.8354 19.7603 23.6354C19.6603 23.7354 19.5604 23.7355 19.3604 23.7355C19.1604 23.7355 18.9603 23.6355 18.7603 23.4355C18.6603 23.4355 18.5603 23.5354 18.4603 23.5354C17.9603 23.5354 17.6603 23.1355 17.6603 22.7355C17.5603 22.4355 17.8604 22.0354 18.3604 22.0354ZM24.2603 39.3355C23.8603 39.3355 23.5603 39.0354 23.4603 38.6354C23.3603 39.0354 23.0603 39.3355 22.5603 39.3355C22.1603 39.3355 21.8603 39.1355 21.7603 38.8355C21.5603 39.1355 21.2604 39.4355 20.8604 39.4355C20.4604 39.4355 20.1603 39.2355 20.0603 38.9355C19.8603 39.2355 19.5603 39.4355 19.1603 39.4355C18.7603 39.4355 18.4604 39.2355 18.3604 38.9355C18.1604 39.2355 17.8603 39.4355 17.5603 39.4355C17.1603 39.4355 16.7603 39.1355 16.6603 38.8355C16.4603 39.0355 16.2603 39.1354 15.9603 39.1354C15.3603 39.1354 14.9603 38.6354 14.9603 38.1354V38.0354C14.8603 38.0354 14.7603 38.1354 14.6603 38.1354C14.0603 38.1354 13.6603 37.7354 13.6603 37.1354C13.6603 36.9354 13.7604 36.7355 13.8604 36.5354C13.3604 36.5354 12.9603 36.1354 12.9603 35.5354C12.9603 35.1354 13.1603 34.8354 13.5603 34.6354C13.2603 34.4354 13.0603 34.1355 13.0603 33.8355C13.0603 33.3355 13.4603 32.9355 13.9603 32.9355C13.7603 32.7355 13.6603 32.5355 13.6603 32.3355C13.6603 31.8355 14.0603 31.4355 14.5603 31.4355C14.3603 31.2355 14.2603 31.0354 14.2603 30.7354C14.2603 30.2354 14.6603 29.8355 15.1603 29.8355H15.2603C15.0603 29.6355 14.9603 29.4354 14.9603 29.1354C14.9603 28.6354 15.3604 28.2354 15.8604 28.2354C15.9604 28.2354 15.9603 28.2354 16.0603 28.2354C15.8603 28.0354 15.6603 27.8354 15.6603 27.5354C15.6603 27.0354 16.0603 26.6354 16.5603 26.6354C16.6603 26.6354 16.7603 26.6354 16.7603 26.6354C16.4603 26.4354 16.3604 26.2355 16.3604 25.9355C16.3604 25.4355 16.7603 25.0354 17.2603 25.0354C17.3603 25.0354 17.4603 25.0354 17.5603 25.1354C17.2603 25.0354 17.0603 24.7355 17.0603 24.3355C17.0603 23.8355 17.4603 23.4355 17.9603 23.4355C18.1603 23.4355 18.4603 23.5354 18.5603 23.7355C18.6603 23.7355 18.7604 23.6354 18.8604 23.6354C19.1604 23.6354 19.3603 23.7355 19.4603 23.9355C19.5603 23.8355 19.6603 23.8354 19.7603 23.8354C20.0603 23.8354 20.2604 23.9354 20.3604 24.1354C20.4604 24.0354 20.5603 24.0354 20.6603 24.0354C20.9603 24.0354 21.2603 24.2355 21.2603 24.5354C21.3603 24.5354 21.3603 24.5354 21.4603 24.5354C21.7603 24.5354 21.9603 24.7355 22.0603 25.0354V24.9355C22.0603 24.6355 22.2603 24.4355 22.5603 24.4355C22.8603 24.4355 23.0603 24.6355 23.0603 24.9355C23.0603 25.2355 22.8603 25.4355 22.5603 25.4355C22.3603 25.4355 22.1603 25.2355 22.0603 25.0354V25.1354C22.0603 25.3354 21.9604 25.4354 21.8604 25.5354C21.9604 25.5354 21.9603 25.5354 22.0603 25.5354C22.3603 25.5354 22.5603 25.7355 22.5603 26.0354C22.5603 26.1355 22.4604 26.3355 22.3604 26.4355C22.4604 26.3355 22.5603 26.3355 22.6603 26.3355C22.9603 26.3355 23.1603 26.5355 23.1603 26.8355C23.1603 27.1355 22.9603 27.3355 22.6603 27.3355C22.3603 27.3355 22.1603 27.1355 22.1603 26.8355C22.1603 26.7355 22.2603 26.6355 22.2603 26.5354C22.1603 26.6355 22.0604 26.6354 21.8604 26.6354C21.5604 26.6354 21.3604 26.4354 21.3604 26.1354C21.3604 26.0354 21.4603 25.8354 21.5603 25.7354C21.4603 25.7354 21.3604 25.7354 21.3604 25.7354C21.0604 25.7354 20.8603 25.5355 20.7603 25.3355C20.6603 25.3355 20.5603 25.4355 20.4603 25.4355C20.2603 25.4355 20.0603 25.3354 19.9603 25.1354C19.8603 25.2354 19.6603 25.2354 19.5603 25.2354C19.3603 25.2354 19.1603 25.1355 19.0603 25.0354C18.9603 25.1355 18.7603 25.1354 18.6603 25.1354C18.4603 25.1354 18.2603 25.0355 18.1603 24.9355C18.0603 25.0355 17.8603 25.0354 17.7603 25.0354C17.6603 25.0354 17.5603 25.0355 17.4603 24.9355C17.5603 24.9355 17.6603 25.0354 17.6603 25.0354C17.7603 24.9354 17.8603 24.9355 18.0603 24.9355C18.2603 24.9355 18.4603 25.0354 18.6603 25.2354C18.7603 25.1354 18.8603 25.1354 19.0603 25.1354C19.2603 25.1354 19.4603 25.2355 19.6603 25.4355C19.7603 25.3355 19.8603 25.3355 20.0603 25.3355C20.3603 25.3355 20.5603 25.5354 20.6603 25.7354C20.7603 25.7354 20.8604 25.6354 20.8604 25.6354C21.1604 25.6354 21.4603 25.9354 21.4603 26.2354C21.4603 26.3354 21.4604 26.4354 21.3604 26.5354H21.4603C21.7603 26.5354 21.9603 26.7355 21.9603 27.0354C21.9603 27.1355 21.9604 27.2354 21.8604 27.2354C21.9604 27.2354 22.0603 27.1354 22.0603 27.1354C22.3603 27.1354 22.5603 27.3354 22.5603 27.6354C22.5603 27.9354 22.3603 28.1354 22.0603 28.1354C21.7603 28.1354 21.5603 27.9354 21.5603 27.6354C21.5603 27.5354 21.5603 27.5355 21.5603 27.4355C21.4603 27.5355 21.3603 27.5354 21.2603 27.5354C20.9603 27.5354 20.7603 27.3354 20.7603 27.0354C20.7603 26.9354 20.7604 26.8354 20.8604 26.7354C20.7604 26.7354 20.7603 26.7354 20.6603 26.7354C20.4603 26.7354 20.2603 26.6355 20.1603 26.4355C20.0603 26.5355 19.9604 26.5354 19.8604 26.5354C19.6604 26.5354 19.4604 26.4355 19.3604 26.3355C19.2604 26.4355 19.0604 26.5354 18.8604 26.5354C18.6604 26.5354 18.4604 26.4355 18.3604 26.3355C18.2604 26.3355 18.2603 26.4355 18.1603 26.4355H18.2603C18.4603 26.4355 18.6604 26.5354 18.8604 26.7354C18.9604 26.6354 19.1603 26.5354 19.2603 26.5354C19.5603 26.5354 19.7604 26.7355 19.8604 26.9355C19.9604 26.8355 20.0603 26.8355 20.1603 26.8355C20.4603 26.8355 20.7603 27.1355 20.7603 27.4355C20.7603 27.5355 20.7603 27.6354 20.7603 27.6354H20.8604C21.1604 27.6354 21.3604 27.8354 21.3604 28.1354C21.3604 28.2354 21.3604 28.2354 21.3604 28.2354C21.4604 28.2354 21.4603 28.1354 21.5603 28.1354C21.8603 28.1354 22.0603 28.3354 22.0603 28.6354C22.0603 28.9354 21.8603 29.1354 21.5603 29.1354C21.2603 29.1354 21.0603 28.9354 21.0603 28.6354V28.5354C20.9603 28.6355 20.8603 28.6354 20.7603 28.6354C20.4603 28.6354 20.2603 28.4354 20.2603 28.1354C20.2603 28.0354 20.2603 28.0355 20.2603 27.9355C20.1603 27.9355 20.1603 27.9355 20.0603 27.9355C19.8603 27.9355 19.6603 27.8354 19.5603 27.6354C19.4603 27.7354 19.3603 27.7354 19.1603 27.7354C18.9603 27.7354 18.8603 27.6355 18.6603 27.5354C18.5603 27.6355 18.5603 27.6354 18.4603 27.7354H18.5603C18.8603 27.7354 19.0603 27.8354 19.1603 28.0354C19.2603 27.9354 19.3603 27.9355 19.4603 27.9355C19.7603 27.9355 20.0603 28.2355 20.0603 28.5354V28.6354H20.1603C20.4603 28.6354 20.6603 28.8354 20.6603 29.1354V29.2354C20.7603 29.2354 20.8604 29.1354 20.8604 29.1354C21.1604 29.1354 21.3604 29.3354 21.3604 29.6354C21.3604 29.9354 21.1604 30.1354 20.8604 30.1354C20.5604 30.1354 20.3604 29.9354 20.3604 29.6354C20.2604 29.7354 20.1603 29.7354 20.0603 29.7354C19.7603 29.7354 19.5603 29.5354 19.5603 29.2354C19.5603 29.2354 19.5603 29.2354 19.5603 29.1354C19.4603 29.1354 19.4604 29.1354 19.3604 29.1354C19.1604 29.1354 18.9604 29.0355 18.8604 28.8355C18.7604 28.9355 18.5603 29.0354 18.4603 29.0354C18.2603 29.0354 18.1603 28.9355 18.0603 28.8355L17.9603 28.9355C18.1603 28.9355 18.3603 29.0354 18.4603 29.2354C18.5603 29.1354 18.6604 29.0354 18.8604 29.0354C19.1604 29.0354 19.4603 29.3354 19.4603 29.6354H19.5603C19.8603 29.6354 20.1603 29.8354 20.1603 30.2354C20.1603 30.5354 19.9603 30.8355 19.5603 30.8355C19.2603 30.8355 19.0603 30.6355 19.0603 30.3355C18.9603 30.3355 18.9604 30.3355 18.8604 30.3355C18.6604 30.3355 18.5604 30.2354 18.3604 30.1354C18.2604 30.2354 18.0604 30.3355 17.8604 30.3355C17.6604 30.3355 17.5603 30.2354 17.4603 30.1354C17.4603 30.1354 17.4604 30.2354 17.3604 30.2354C17.5604 30.2354 17.6604 30.3354 17.8604 30.5354C17.9604 30.4354 18.1604 30.3355 18.3604 30.3355C18.7604 30.3355 18.9603 30.6355 18.9603 30.9355C18.9603 31.3355 18.6604 31.5354 18.3604 31.5354C18.1604 31.5354 18.0604 31.4355 17.8604 31.3355C17.7604 31.5355 17.5604 31.6354 17.3604 31.6354L17.7603 32.3355C17.7603 31.9355 18.0604 31.7354 18.3604 31.7354C18.6604 31.7354 18.9603 32.0355 18.9603 32.3355C18.9603 32.7355 18.6604 32.9355 18.3604 32.9355C18.0604 32.9355 17.7603 32.6355 17.7603 32.3355C17.7603 32.6355 17.5604 32.8355 17.3604 32.9355H17.4603C17.8603 32.9355 18.1603 33.2354 18.1603 33.6354C18.1603 33.7354 18.1603 33.8355 18.0603 33.9355C18.1603 33.8355 18.3603 33.7354 18.5603 33.7354C18.6603 33.7354 18.7604 33.7354 18.8604 33.7354C18.6604 33.6354 18.5603 33.4354 18.5603 33.2354C18.5603 32.8354 18.8603 32.6354 19.1603 32.6354C19.4603 32.6354 19.7603 32.9354 19.7603 33.2354C19.7603 33.6354 19.4603 33.8355 19.1603 33.8355C19.0603 33.8355 18.9603 33.8355 18.9603 33.8355C19.1603 33.9355 19.2603 34.1355 19.2603 34.4355C19.3603 34.1355 19.5603 33.9355 19.9603 33.9355C19.8603 33.8355 19.8604 33.7354 19.8604 33.6354C19.8604 33.2354 20.1603 33.0354 20.4603 33.0354C20.8603 33.0354 21.0603 33.3354 21.0603 33.6354C21.0603 33.9354 20.7603 34.2354 20.4603 34.2354C20.5603 34.3354 20.6603 34.5354 20.6603 34.6354C20.6603 34.8354 20.5603 35.0354 20.4603 35.1354C20.5603 35.2354 20.6603 35.4354 20.6603 35.6354C20.6603 35.4354 20.7604 35.3354 20.8604 35.1354C20.7604 35.0354 20.6603 34.8354 20.6603 34.6354C20.6603 34.2354 20.9603 34.0354 21.2603 33.9355C21.1603 33.8355 21.1603 33.7355 21.1603 33.5354C21.1603 33.3354 21.2603 33.1354 21.4603 33.0354C21.1603 33.0354 20.9603 32.7355 20.9603 32.5354C20.9603 32.2355 21.1603 31.9355 21.5603 31.9355C21.8603 31.9355 22.1603 32.1355 22.1603 32.5354C22.1603 32.7355 22.0604 32.9355 21.8604 33.0354C22.1604 33.0354 22.3604 33.3354 22.3604 33.6354C22.3604 33.9354 22.1604 34.2354 21.8604 34.2354C21.9604 34.3354 22.0603 34.5354 22.0603 34.7354C22.0603 34.9354 21.9604 35.0354 21.8604 35.2354C22.0604 35.3354 22.1603 35.5355 22.1603 35.8355C22.1603 35.9355 22.1603 36.1354 22.0603 36.2354C22.2603 36.3354 22.4603 36.6355 22.4603 36.9355C22.4603 37.0354 22.4604 37.1354 22.3604 37.1354C22.4604 37.1354 22.5603 37.2355 22.5603 37.3355C22.4603 37.2355 22.4603 37.1355 22.4603 36.9355C22.4603 36.7355 22.5603 36.6354 22.5603 36.5354C22.2603 36.4355 22.1603 36.2355 22.1603 35.9355C22.1603 35.7355 22.2604 35.5354 22.3604 35.4355C22.1604 35.3355 22.0603 35.1355 22.0603 34.9355C22.0603 34.6355 22.3603 34.3355 22.6603 34.3355C22.5603 34.2355 22.4603 34.0354 22.4603 33.9355C22.4603 33.7355 22.5603 33.5354 22.7603 33.4355H22.6603C22.3603 33.4355 22.1603 33.2355 22.1603 32.9355C22.1603 32.6355 22.3603 32.4355 22.6603 32.4355C22.9603 32.4355 23.1603 32.6355 23.1603 32.9355C23.1603 33.1355 23.0604 33.3355 22.8604 33.4355H22.9603C23.2603 33.4355 23.5603 33.7355 23.5603 34.0354C23.5603 34.3354 23.3603 34.5354 23.0603 34.6354C23.1603 34.7354 23.2603 34.9354 23.2603 35.1354C23.2603 35.3354 23.1603 35.4355 23.0603 35.5354C23.2603 35.6354 23.4603 35.8354 23.4603 36.1354C23.4603 36.2354 23.3604 36.4355 23.3604 36.5354C23.6604 36.6354 23.8604 36.9354 23.8604 37.2354C23.8604 37.3354 23.8603 37.4355 23.7603 37.5354C24.1603 37.6354 24.3604 37.9355 24.3604 38.3355C25.0604 38.9355 24.6603 39.3355 24.2603 39.3355ZM25.8604 39.1354C25.4604 39.1354 25.0603 38.8355 25.0603 38.3355C25.0603 38.2355 25.0603 38.1354 25.1603 38.0354C24.8603 37.9355 24.6603 37.7355 24.6603 37.3355C24.6603 37.1355 24.7604 37.0354 24.8604 36.9355C24.5604 36.9355 24.2603 36.6355 24.2603 36.3355C24.2603 36.1355 24.3603 35.9355 24.5603 35.8355C24.2603 35.7355 24.0603 35.5354 24.0603 35.2354C24.0603 34.9354 24.3603 34.6354 24.6603 34.6354C24.4603 34.5354 24.3604 34.3354 24.3604 34.1354C24.3604 33.8354 24.5604 33.6354 24.8604 33.6354C25.1604 33.6354 25.3604 33.8354 25.3604 34.1354C25.3604 34.4354 25.1604 34.6354 24.8604 34.6354C25.0604 34.7354 25.1603 34.9354 25.1603 35.1354C25.1603 35.3354 25.0603 35.4354 24.9603 35.6354C25.2603 35.7354 25.4603 35.9354 25.4603 36.2354C25.4603 36.3354 25.3604 36.5354 25.3604 36.6354C25.6604 36.6354 25.9603 36.9355 25.9603 37.3355C25.9603 37.4355 25.9604 37.5354 25.8604 37.5354C26.2604 37.5354 26.5603 37.9354 26.5603 38.2354C26.6603 38.8354 26.2604 39.1354 25.8604 39.1354ZM27.3604 38.3355C26.9604 38.3355 26.6603 38.0354 26.6603 37.6354C26.3603 37.5354 26.1603 37.3354 26.1603 37.0354C26.1603 36.8354 26.2604 36.7354 26.3604 36.6354H26.2603C25.9603 36.6354 25.6603 36.3354 25.6603 36.0354C25.6603 35.7355 25.9603 35.4355 26.2603 35.4355C26.5603 35.4355 26.8604 35.7355 26.8604 36.0354C26.8604 36.2355 26.7603 36.3355 26.6603 36.4355C26.7603 36.4355 26.7604 36.4355 26.8604 36.4355C27.1604 36.4355 27.4603 36.7355 27.4603 37.0354C27.7603 37.1354 27.9603 37.3354 27.9603 37.6354C28.0603 38.0354 27.7604 38.3355 27.3604 38.3355ZM28.4603 36.9355C28.1603 36.9355 27.9603 36.7355 27.9603 36.4355C27.9603 36.3355 27.9603 36.3354 27.9603 36.2354C27.8603 36.3354 27.7603 36.3355 27.6603 36.3355C27.3603 36.3355 27.1603 36.1355 27.1603 35.8355C27.1603 35.5355 27.3603 35.3355 27.6603 35.3355C27.9603 35.3355 28.1603 35.5355 28.1603 35.8355C28.1603 35.9355 28.1603 35.9355 28.1603 36.0354C28.2603 35.9355 28.3603 35.9355 28.4603 35.9355C28.7603 35.9355 28.9603 36.1355 28.9603 36.4355C28.9603 36.7355 28.7603 36.9355 28.4603 36.9355ZM28.8604 35.2354C28.6604 35.2354 28.4603 35.0355 28.4603 34.8355C28.4603 34.6355 28.6604 34.4355 28.8604 34.4355C29.0604 34.4355 29.2603 34.6355 29.2603 34.8355C29.2603 35.0355 29.0604 35.2354 28.8604 35.2354ZM34.6603 38.7354C34.3603 38.7354 34.1603 38.5354 34.1603 38.2354C34.1603 38.1354 34.1603 38.1354 34.1603 38.0354C34.0603 38.1354 33.9604 38.1354 33.8604 38.1354C33.5604 38.1354 33.2603 37.8354 33.2603 37.5354C33.2603 37.4355 33.2604 37.3354 33.3604 37.2354C32.9604 37.2354 32.7603 36.9354 32.7603 36.6354C32.7603 36.5354 32.7604 36.4355 32.8604 36.3355C32.5604 36.2355 32.2603 36.0354 32.2603 35.6354C32.2603 35.5354 32.2604 35.4355 32.3604 35.3355C32.0604 35.2355 31.8604 35.0354 31.8604 34.6354C31.8604 34.5354 31.8603 34.4355 31.9603 34.3355C31.6603 34.2355 31.4603 33.9354 31.4603 33.6354C31.4603 33.5354 31.4603 33.4355 31.5603 33.3355C31.2603 33.2355 31.0603 32.9354 31.0603 32.6354C31.0603 32.5354 31.0603 32.4355 31.1603 32.3355C30.8603 32.2355 30.6603 31.9354 30.6603 31.6354C30.6603 31.5354 30.6603 31.4355 30.7603 31.3355C30.4603 31.2355 30.2603 30.9354 30.2603 30.6354C30.2603 30.5354 30.2604 30.4355 30.3604 30.3355C30.0604 30.2355 29.8604 29.9354 29.8604 29.6354C29.8604 29.5354 29.8603 29.4355 29.9603 29.3355C29.6603 29.2355 29.4603 28.9354 29.4603 28.6354C29.4603 28.5354 29.4603 28.4355 29.5603 28.3355C29.2603 28.2355 29.0603 27.9354 29.0603 27.6354C29.0603 27.5354 29.0603 27.4355 29.1603 27.3355C28.8603 27.2355 28.7603 26.9354 28.7603 26.6354C28.7603 26.5354 28.7604 26.3354 28.8604 26.2354C28.5604 26.1354 28.4603 25.9354 28.4603 25.6354C28.4603 25.4354 28.5603 25.3354 28.5603 25.2354C28.2603 25.1354 28.0603 24.9354 28.0603 24.6354C28.0603 24.4354 28.1603 24.3354 28.2603 24.1354C27.9603 24.1354 27.7603 23.9354 27.7603 23.6354C27.7603 23.3354 27.9603 23.1354 28.2603 23.1354C28.4603 23.1354 28.6603 23.2355 28.7603 23.4355C28.7603 23.3355 28.8604 23.2355 28.8604 23.2355C28.6604 23.2355 28.3604 23.0354 28.3604 22.8354C28.3604 23.0354 28.1604 23.2355 27.8604 23.2355C27.5604 23.2355 27.3604 23.0354 27.3604 22.7355C27.3604 22.4355 27.5604 22.2355 27.8604 22.2355C28.0604 22.2355 28.2603 22.3354 28.2603 22.5354C28.2603 22.3354 28.3603 22.2354 28.4603 22.1354C28.4603 22.1354 28.4604 22.1354 28.3604 22.1354C28.0604 22.1354 27.7603 21.8354 27.7603 21.5354C27.7603 21.2355 28.0604 20.9355 28.3604 20.9355C28.4604 20.9355 28.4603 20.9355 28.5603 20.9355C28.4603 20.8355 28.4603 20.7354 28.4603 20.6354C28.4603 20.4354 28.5603 20.3354 28.6603 20.1354H28.5603C28.2603 20.1354 27.9603 19.8354 27.9603 19.5354C27.9603 19.2355 28.2603 18.9355 28.5603 18.9355C28.6603 18.9355 28.8603 19.0354 28.9603 19.0354C28.9603 18.6355 29.2603 18.3354 29.6603 18.3354H29.7603C29.7603 18.2354 29.6603 18.1355 29.6603 18.0354C29.6603 17.6355 29.9604 17.3354 30.3604 17.3354C30.3604 17.3354 30.3603 17.3354 30.4603 17.3354C30.4603 17.2354 30.3604 17.1355 30.3604 17.0354C30.3604 16.6355 30.6603 16.3354 31.0603 16.3354H31.1603V16.2355C31.1603 15.8355 31.4604 15.5354 31.8604 15.5354C31.9604 15.5354 31.9603 15.5354 32.0603 15.5354C32.0603 15.5354 32.0603 15.5355 32.0603 15.4355C32.0603 15.0355 32.3603 14.7355 32.7603 14.7355C33.1603 14.7355 33.4603 15.0355 33.4603 15.4355C33.4603 15.8355 33.1603 16.1354 32.7603 16.1354C32.6603 16.1354 32.6603 16.1354 32.6603 16.1354V16.2355C32.6603 16.6355 32.3603 16.9355 31.9603 16.9355H31.8604C31.8604 17.0355 31.8604 17.0354 31.8604 17.1354C31.8604 17.5354 31.5603 17.8354 31.1603 17.8354C31.1603 17.8354 31.1603 17.8354 31.0603 17.8354C31.0603 17.9354 31.1603 18.0354 31.1603 18.1354C31.1603 18.2354 31.1603 18.2354 31.1603 18.3354C31.2603 18.1354 31.5603 17.9355 31.7603 17.9355H31.8604C31.8604 17.9355 31.8604 17.9354 31.8604 17.8354C31.8604 17.4354 32.1603 17.1354 32.5603 17.1354C32.6603 17.1354 32.6603 17.1354 32.7603 17.1354C32.7603 16.7354 33.0603 16.5354 33.4603 16.5354C33.8603 16.5354 34.1603 16.8355 34.1603 17.2355C34.1603 17.6355 33.8603 17.9355 33.4603 17.9355C33.3603 17.9355 33.3603 17.9355 33.2603 17.9355C33.2603 18.3355 32.9603 18.6354 32.5603 18.6354H32.4603C32.4603 18.6354 32.4603 18.6355 32.4603 18.7355C32.4603 19.1355 32.1603 19.4355 31.7603 19.4355C31.7603 19.4355 31.7603 19.4355 31.6603 19.4355C31.6603 19.5355 31.6603 19.5354 31.6603 19.6354C31.6603 19.9354 31.4603 20.1355 31.2603 20.2355C31.3603 20.2355 31.3603 20.2355 31.4603 20.2355H31.5603C31.5603 20.2355 31.5603 20.2354 31.5603 20.1354C31.5603 19.7354 31.8603 19.4355 32.2603 19.4355C32.3603 19.4355 32.3603 19.4355 32.4603 19.4355C32.4603 19.0355 32.7603 18.7355 33.1603 18.7355C33.2603 18.7355 33.3603 18.7354 33.4603 18.8354C33.4603 18.5354 33.7603 18.2355 34.0603 18.2355C34.4603 18.2355 34.6603 18.5354 34.6603 18.8354C34.6603 19.1354 34.3603 19.4355 34.0603 19.4355C33.9603 19.4355 33.9604 19.4355 33.8604 19.4355C33.8604 19.8355 33.5603 20.0354 33.1603 20.0354H33.0603C33.0603 20.4354 32.7604 20.7355 32.3604 20.7355H32.2603V20.8354C32.2603 21.1354 32.0604 21.3355 31.8604 21.4355C31.9604 21.4355 31.9603 21.4355 32.0603 21.4355H32.1603C32.1603 21.0355 32.4604 20.7355 32.8604 20.7355C32.9604 20.7355 33.0603 20.7355 33.0603 20.7355C33.0603 20.4355 33.3603 20.1354 33.6603 20.1354C33.7603 20.1354 33.8603 20.1355 33.9603 20.2355C33.9603 19.9355 34.2603 19.7355 34.5603 19.7355C34.8603 19.7355 35.1603 20.0354 35.1603 20.3354C35.1603 20.6354 34.8603 20.9355 34.5603 20.9355C34.4603 20.9355 34.3603 20.9354 34.2603 20.8354C34.2603 21.1354 33.9603 21.4355 33.6603 21.4355C33.5603 21.4355 33.5603 21.4355 33.4603 21.4355C33.4603 21.8355 33.1603 22.1354 32.7603 22.1354H32.6603C32.6603 22.4354 32.4603 22.6355 32.2603 22.7355C32.3603 22.7355 32.3603 22.7355 32.4603 22.7355C32.5603 22.7355 32.5603 22.7355 32.6603 22.7355C32.6603 22.4355 32.9604 22.1354 33.3604 22.1354C33.4604 22.1354 33.5603 22.1355 33.6603 22.2355C33.7603 21.9355 33.9603 21.7355 34.2603 21.7355C34.3603 21.7355 34.5603 21.8354 34.6603 21.8354C34.7603 21.5354 34.9603 21.3354 35.2603 21.3354C35.5603 21.3354 35.8604 21.6355 35.8604 21.9355C35.8604 22.2355 35.5603 22.5354 35.2603 22.5354C35.1603 22.5354 35.0603 22.5355 34.9603 22.4355C34.9603 22.7355 34.6604 23.0354 34.3604 23.0354C34.2604 23.0354 34.1603 23.0355 34.0603 22.9355C33.9603 23.2355 33.7604 23.5354 33.3604 23.5354C33.2604 23.5354 33.2603 23.5354 33.1603 23.5354C33.1603 23.9354 32.8603 24.2354 32.4603 24.2354H32.3604C32.3604 24.4354 32.2603 24.6354 32.1603 24.7354C32.2603 24.7354 32.2604 24.7354 32.3604 24.7354C32.4604 24.4354 32.6603 24.1354 33.0603 24.1354C33.1603 24.1354 33.2604 24.1354 33.3604 24.2354C33.4604 23.9354 33.6603 23.6354 33.9603 23.6354C34.0603 23.6354 34.1603 23.6355 34.2603 23.7355C34.3603 23.4355 34.5604 23.2355 34.8604 23.2355C35.0604 23.2355 35.1603 23.3355 35.2603 23.4355C35.3603 23.1355 35.5604 22.9355 35.8604 22.9355C36.1604 22.9355 36.4603 23.2355 36.4603 23.5354C36.4603 23.8354 36.1604 24.1354 35.8604 24.1354C35.7604 24.1354 35.5603 24.0354 35.4603 24.0354C35.3603 24.3354 35.1604 24.5354 34.8604 24.5354C34.7604 24.5354 34.6603 24.5355 34.5603 24.4355C34.4603 24.7355 34.2603 24.9355 33.9603 24.9355C33.8603 24.9355 33.7603 24.9355 33.7603 24.9355C33.7603 25.2355 33.4603 25.5354 33.0603 25.5354C32.9603 25.5354 32.9604 25.5354 32.8604 25.5354C32.8604 25.7355 32.7603 25.8354 32.6603 26.0354C32.7603 26.0354 32.8603 26.0354 32.9603 26.1354C33.0603 25.8354 33.2603 25.6354 33.5603 25.6354C33.6603 25.6354 33.7604 25.6354 33.8604 25.7354C33.9604 25.4354 34.1603 25.2354 34.4603 25.2354C34.6603 25.2354 34.7604 25.3355 34.8604 25.4355C34.9604 25.1355 35.1603 24.9355 35.4603 24.9355C35.6603 24.9355 35.7603 25.0354 35.9603 25.1354C36.0603 24.8354 36.2603 24.6354 36.5603 24.6354C36.8603 24.6354 37.1603 24.9354 37.1603 25.2354C37.1603 25.5354 36.8603 25.8355 36.5603 25.8355C36.3603 25.8355 36.2603 25.7354 36.1603 25.6354C36.0603 25.9354 35.8603 26.1354 35.5603 26.1354C35.4603 26.1354 35.2603 26.0354 35.1603 26.0354C35.0603 26.3354 34.8603 26.5354 34.5603 26.5354C34.4603 26.5354 34.3603 26.5355 34.2603 26.4355C34.1603 26.7355 33.9603 27.0354 33.6603 27.0354C33.5603 27.0354 33.5603 27.0354 33.4603 27.0354C33.4603 27.2355 33.3603 27.3354 33.1603 27.5354H33.2603C33.3603 27.5354 33.4603 27.5354 33.5603 27.6354C33.6603 27.3354 33.8603 27.1354 34.1603 27.1354C34.2603 27.1354 34.4603 27.2354 34.5603 27.2354C34.6603 26.9354 34.8603 26.7354 35.1603 26.7354C35.3603 26.7354 35.4603 26.8355 35.6603 26.9355C35.7603 26.6355 35.9603 26.5354 36.2603 26.5354C36.4603 26.5354 36.6603 26.6355 36.7603 26.8355C36.8603 26.5355 37.0604 26.3355 37.3604 26.3355C37.6604 26.3355 37.9603 26.6355 37.9603 26.9355C37.9603 27.2355 37.6604 27.5354 37.3604 27.5354C37.1604 27.5354 36.9604 27.4354 36.8604 27.2354C36.7604 27.5354 36.5603 27.7354 36.2603 27.7354C36.0603 27.7354 35.9604 27.6355 35.8604 27.5354C35.7604 27.8354 35.5603 28.0354 35.2603 28.0354C35.1603 28.0354 34.9604 27.9355 34.8604 27.9355C34.7604 28.2355 34.5603 28.4355 34.2603 28.4355C34.1603 28.4355 34.0603 28.4355 33.9603 28.3355C33.8603 28.6355 33.6603 28.9355 33.2603 28.9355H33.1603C33.1603 29.0355 33.1603 29.1354 33.1603 29.1354C33.2603 28.9354 33.4603 28.8355 33.6603 28.8355C33.8603 28.8355 33.9603 28.9355 34.0603 28.9355C34.1603 28.6355 34.3603 28.4355 34.6603 28.4355C34.8603 28.4355 34.9603 28.5354 35.0603 28.6354C35.1603 28.3354 35.3603 28.1354 35.6603 28.1354C35.8603 28.1354 36.0603 28.2355 36.1603 28.4355C36.2603 28.1355 36.4603 27.9355 36.7603 27.9355C37.0603 27.9355 37.2603 28.1355 37.2603 28.3355C37.2603 28.0355 37.5603 27.8355 37.7603 27.8355C38.0603 27.8355 38.3604 28.1355 38.3604 28.4355C38.3604 28.7355 38.0603 29.0354 37.7603 29.0354C37.5603 29.0354 37.2603 28.8354 37.2603 28.6354C37.2603 28.9354 36.9603 29.1354 36.6603 29.1354C36.4603 29.1354 36.2603 29.0355 36.1603 28.8355C36.0603 29.1355 35.8603 29.3355 35.5603 29.3355C35.3603 29.3355 35.2603 29.2354 35.1603 29.1354C35.0603 29.4354 34.8603 29.6354 34.5603 29.6354C34.4603 29.6354 34.2603 29.5354 34.1603 29.5354C34.0603 29.8354 33.8603 30.0354 33.5603 30.0354C33.4603 30.0354 33.4604 30.0354 33.3604 30.0354C33.3604 30.1355 33.3604 30.1354 33.3604 30.2354C33.3604 30.4354 33.2603 30.6354 33.0603 30.7354H33.1603C33.2603 30.7354 33.3604 30.7354 33.3604 30.7354C33.3604 30.6354 33.3604 30.6355 33.3604 30.5354C33.3604 30.2355 33.6603 29.9355 33.9603 29.9355C34.1603 29.9355 34.2603 30.0354 34.4603 30.1354C34.5603 29.8354 34.7603 29.6354 35.0603 29.6354C35.2603 29.6354 35.4603 29.7355 35.5603 29.9355C35.6603 29.6355 35.8603 29.4355 36.1603 29.4355C36.4603 29.4355 36.6603 29.6355 36.6603 29.8355C36.6603 29.5355 36.9603 29.3355 37.2603 29.3355C37.5603 29.3355 37.8604 29.5355 37.8604 29.9355C37.8604 30.2355 37.5603 30.5354 37.2603 30.5354C36.9603 30.5354 36.7603 30.3354 36.7603 30.1354C36.7603 30.4354 36.4603 30.6354 36.1603 30.6354C35.9603 30.6354 35.7603 30.5355 35.6603 30.3355C35.5603 30.6355 35.3603 30.8355 35.0603 30.8355C34.8603 30.8355 34.7603 30.7354 34.6603 30.6354C34.5603 30.9354 34.3603 31.1354 34.0603 31.1354C33.9603 31.1354 33.8604 31.1354 33.8604 31.1354C33.8604 31.2354 33.8604 31.2355 33.8604 31.3355C33.8604 31.6355 33.5603 31.9355 33.2603 31.9355C33.0603 31.9355 32.9604 31.8354 32.8604 31.7354C32.8604 31.8354 32.7603 31.8355 32.7603 31.9355C32.9603 31.9355 33.0603 32.0354 33.1603 32.2354C33.2603 32.0354 33.4603 31.8355 33.7603 31.8355C33.8603 31.8355 33.9603 31.8355 34.0603 31.9355C34.0603 31.8355 34.0603 31.8354 34.0603 31.7354C34.0603 31.4354 34.3603 31.1354 34.6603 31.1354C34.8603 31.1354 35.0603 31.2355 35.1603 31.4355C35.1603 31.1355 35.4603 30.9355 35.7603 30.9355C36.0603 30.9355 36.2603 31.1355 36.2603 31.3355C36.2603 31.0355 36.4603 30.8355 36.7603 30.8355C37.0603 30.8355 37.3604 31.0355 37.3604 31.4355C37.3604 31.8355 37.1603 32.0354 36.7603 32.0354C36.4603 32.0354 36.2603 31.8354 36.2603 31.6354C36.2603 31.9354 35.9603 32.2354 35.6603 32.2354C35.4603 32.2354 35.2603 32.1355 35.1603 31.9355C35.1603 32.2355 34.8603 32.4355 34.5603 32.4355C34.4603 32.4355 34.3603 32.4355 34.2603 32.3355C34.2603 32.4355 34.2603 32.4355 34.2603 32.5354C34.2603 32.8354 33.9603 33.1354 33.6603 33.1354C33.4603 33.1354 33.2603 33.0355 33.1603 32.8355C33.1603 32.9355 33.0603 33.0354 32.9603 33.1354C33.2603 33.1354 33.4603 33.3354 33.5603 33.5354C33.6603 33.2355 33.8603 33.0354 34.0603 33.0354C34.1603 33.0354 34.3603 33.1354 34.4603 33.2354C34.4603 33.1354 34.4603 33.1354 34.4603 33.0354C34.4603 32.7355 34.6603 32.4355 35.0603 32.4355C35.3603 32.4355 35.6603 32.6354 35.6603 33.0354C35.6603 33.3354 35.4603 33.6354 35.0603 33.6354C34.9603 33.6354 34.7603 33.5354 34.6603 33.4355C34.6603 33.5354 34.6603 33.5354 34.6603 33.6354C34.6603 33.9354 34.3603 34.2354 34.0603 34.2354C33.7603 34.2354 33.5603 34.0355 33.5603 33.8355C33.5603 34.0355 33.4603 34.1354 33.2603 34.2354C33.3603 34.2354 33.3603 34.2354 33.4603 34.2354C33.7603 34.2354 34.0603 34.5355 34.0603 34.8355C34.0603 35.1355 33.7603 35.4355 33.4603 35.4355C33.3603 35.4355 33.2603 35.4355 33.1603 35.3355C33.1603 35.4355 33.1603 35.5354 33.0603 35.5354C33.1603 35.5354 33.2604 35.6354 33.3604 35.7354C33.4604 35.5354 33.6604 35.3355 33.8604 35.3355C34.1604 35.3355 34.3604 35.5355 34.3604 35.8355C34.3604 36.1355 34.1604 36.3355 33.8604 36.3355C33.6604 36.3355 33.5603 36.2354 33.4603 36.1354C33.4603 36.2354 33.3604 36.3355 33.3604 36.4355C33.5604 36.4355 33.7604 36.6355 33.8604 36.8355C33.8604 36.6355 34.0604 36.4355 34.3604 36.4355C34.6604 36.4355 34.8604 36.6355 34.8604 36.9355C34.8604 37.2355 34.6604 37.4355 34.3604 37.4355C34.1604 37.4355 33.9603 37.3354 33.9603 37.1354C33.9603 37.2354 33.9604 37.3355 33.8604 37.4355C34.1604 37.4355 34.4603 37.7355 34.4603 38.0354C34.4603 38.1354 34.4604 38.2355 34.3604 38.3355C34.4604 38.3355 34.5603 38.2354 34.6603 38.2354C34.9603 38.2354 35.1603 38.5355 35.1603 38.8355C35.2603 38.5355 34.9603 38.7354 34.6603 38.7354ZM35.7603 39.2354C35.4603 39.2354 35.2603 39.0354 35.2603 38.7354C35.2603 38.4354 35.4603 38.2354 35.7603 38.2354C36.0603 38.2354 36.2603 38.4354 36.2603 38.7354C36.1603 39.0354 35.9603 39.2354 35.7603 39.2354ZM36.1603 38.2354C35.9603 38.2354 35.7603 38.0355 35.7603 37.8355C35.7603 37.6355 35.9603 37.4355 36.1603 37.4355C36.3603 37.4355 36.5603 37.6355 36.5603 37.8355C36.5603 38.0355 36.3603 38.2354 36.1603 38.2354ZM36.4603 36.2354C36.4603 35.9354 36.6603 35.7354 36.9603 35.7354C37.2603 35.7354 37.4603 35.9354 37.4603 36.2354C37.4603 36.5354 37.2603 36.7354 36.9603 36.7354C36.6603 36.7354 36.4603 36.5354 36.4603 36.2354ZM37.0603 36.9355C37.2603 36.9355 37.4603 37.1355 37.4603 37.3355C37.4603 37.5355 37.2603 37.7354 37.0603 37.7354C36.8603 37.7354 36.6603 37.5355 36.6603 37.3355C36.6603 37.1355 36.8603 36.9355 37.0603 36.9355ZM37.1603 39.4355C36.8603 39.4355 36.6603 39.2355 36.6603 38.9355C36.6603 38.6355 36.8603 38.4355 37.1603 38.4355C37.4603 38.4355 37.6603 38.6355 37.6603 38.9355C37.6603 39.2355 37.3603 39.4355 37.1603 39.4355ZM37.4603 36.4355C37.4603 36.1355 37.6603 35.9355 37.9603 35.9355C38.2603 35.9355 38.4603 36.1355 38.4603 36.4355C38.4603 36.6355 38.2603 36.9355 37.9603 36.9355C37.6603 36.9355 37.4603 36.6355 37.4603 36.4355ZM37.6603 37.7354C37.6603 37.5354 37.8603 37.3355 38.0603 37.3355C38.2603 37.3355 38.4603 37.5354 38.4603 37.7354C38.4603 37.9354 38.2603 38.1354 38.0603 38.1354C37.8603 38.1354 37.6603 37.9354 37.6603 37.7354ZM38.4603 38.9355C38.2603 38.9355 38.0603 38.7355 38.0603 38.5354C38.0603 38.3354 38.2603 38.1354 38.4603 38.1354C38.6603 38.1354 38.8604 38.3354 38.8604 38.5354C38.8604 38.7355 38.6603 38.9355 38.4603 38.9355ZM38.8604 37.2354C38.6604 37.2354 38.3604 37.0354 38.3604 36.7354C38.3604 36.5354 38.5604 36.2354 38.8604 36.2354C39.1604 36.2354 39.3604 36.4354 39.3604 36.7354C39.3604 37.0354 39.1604 37.2354 38.8604 37.2354ZM39.6603 37.8355C39.4603 37.8355 39.2603 37.6355 39.2603 37.4355C39.2603 37.2355 39.4603 37.0354 39.6603 37.0354C39.8603 37.0354 40.0603 37.2355 40.0603 37.4355C40.0603 37.6355 39.8603 37.8355 39.6603 37.8355ZM40.3604 36.3355C40.0604 36.3355 39.8604 36.1355 39.8604 35.8355C39.8604 35.5355 40.0604 35.3355 40.3604 35.3355C40.6604 35.3355 40.8604 35.5355 40.8604 35.8355C40.7604 36.1355 40.5604 36.3355 40.3604 36.3355Z" fill="#3AFE14"/>
<path d="M17.5604 26.7354C17.4604 26.7354 17.4604 26.7354 17.5604 26.7354C17.5604 26.8354 17.6603 26.8354 17.7603 26.8354C17.6603 26.8354 17.5604 26.7354 17.5604 26.7354Z" fill="#3AFE14"/>
<path d="M18.1598 26.8354H18.0598C17.9598 26.8354 17.8598 26.8354 17.7598 26.7354C17.8598 26.7354 17.9598 26.8354 17.9598 26.9354C18.0598 26.9354 18.0598 26.9354 18.1598 26.8354Z" fill="#3AFE14"/>
<path d="M77.8996 29.7853H69.7996L68.0995 34.9854C67.9995 35.1854 67.8995 35.2853 67.6995 35.2853H63.5995C63.3995 35.2853 63.2996 35.1854 63.3996 34.8854L70.4996 14.5854C70.5996 14.1853 70.7996 13.7854 70.7996 12.4854C70.7996 12.2854 70.8996 12.2854 70.9996 12.2854H76.5995C76.7995 12.2854 76.7996 12.2854 76.8996 12.4854L84.8996 35.0854C84.9996 35.2854 84.8995 35.3854 84.6995 35.3854H80.0995C79.8995 35.3854 79.7995 35.2853 79.6995 35.1853L77.8996 29.7853ZM70.9996 25.4854H76.4996C75.7996 23.1854 74.3995 18.8853 73.6995 16.3853C73.1995 18.6853 71.8996 22.5854 70.9996 25.4854ZM94.1995 35.6853C88.9995 35.6853 84.9996 32.7853 84.9996 26.7853C84.9996 21.6853 88.7995 17.4854 95.1995 17.4854C95.4995 17.4854 95.7996 17.4854 96.2996 17.4854V10.5854C96.2996 10.3854 96.3996 10.3853 96.4996 10.3853H101C101.1 10.3853 101.2 10.4854 101.2 10.5854V31.3854C101.2 32.1854 101.3 33.2854 101.3 33.9854C101.3 34.1854 101.3 34.2854 101.1 34.3854C98.9995 35.1854 96.5995 35.6853 94.1995 35.6853ZM96.3996 31.2853V21.6853C95.9996 21.5853 95.5995 21.5854 95.0995 21.5854C92.3995 21.5854 90.0995 23.1854 90.0995 26.4854C90.0995 29.9854 92.0996 31.4854 94.7996 31.4854C95.2996 31.4854 95.8996 31.4853 96.3996 31.2853ZM112.4 17.4854C118 17.4854 121 21.7854 121 26.4854C121 31.9854 117.4 35.6853 112.3 35.6853C106.3 35.6853 103.6 31.1854 103.6 26.5854C103.6 21.5854 106.9 17.4854 112.4 17.4854ZM112.2 21.5854C110.1 21.5854 108.6 23.3854 108.6 26.5854C108.6 29.6854 110 31.5854 112.4 31.5854C114.4 31.5854 116 29.8853 116 26.5854C116 23.7853 114.8 21.5854 112.2 21.5854ZM123.5 10.2854H127.8C128.1 10.2854 128.2 10.3854 128.2 10.5854V17.7854C129.1 17.4854 130.1 17.3853 131.2 17.3853C136.4 17.3853 139.7 21.0853 139.7 25.7853C139.7 32.3853 134.5 35.5854 129.1 35.5854C127.3 35.5854 125.4 35.3853 123.6 34.7853C123.5 34.7853 123.4 34.5854 123.4 34.4854V10.5854C123.2 10.3854 123.3 10.2854 123.5 10.2854ZM134.6 26.2853C134.6 23.0853 132.7 21.5854 130.2 21.5854C129.1 21.5854 128.6 21.7853 128.2 21.8853V31.4854C128.6 31.5854 129 31.5854 129.5 31.5854C132.1 31.5854 134.6 29.9853 134.6 26.2853ZM152.9 27.8854H146C146.2 29.8854 147.6 31.5854 151 31.5854C152.5 31.5854 154 31.2853 155.3 30.7853C155.4 30.6853 155.5 30.7854 155.5 30.8854V34.1853C155.5 34.4853 155.4 34.5853 155.3 34.6853C153.9 35.2853 152.3 35.6853 149.9 35.6853C143.3 35.6853 141 31.1853 141 26.7853C141 21.8853 144 17.4854 149.5 17.4854C154.9 17.4854 157 21.5854 157 25.0854C157 26.1854 156.9 27.0854 156.8 27.3854C156.8 27.5854 156.7 27.5853 156.5 27.6853C156.1 27.7853 154.7 27.8854 152.9 27.8854ZM146 24.3854H150.6C151.7 24.3854 152.3 24.3853 152.4 24.2853V24.0854C152.4 23.1854 151.7 21.2854 149.4 21.2854C147.1 21.2854 146.2 22.9854 146 24.3854ZM171.7 26.3854V35.0854C171.7 35.2854 171.6 35.3854 171.4 35.3854H167C166.8 35.3854 166.8 35.2854 166.8 35.0854V12.4854C166.8 12.2854 166.9 12.2854 167.1 12.2854H181.1C181.3 12.2854 181.4 12.3853 181.4 12.5854L181.8 16.3853C181.8 16.5853 181.7 16.6853 181.5 16.6853H171.7V22.0854H180.5C180.7 22.0854 180.8 22.1854 180.8 22.3854V26.0854C180.8 26.2854 180.7 26.3854 180.5 26.3854H171.7ZM183.4 34.9854V18.0854C183.4 17.8854 183.5 17.7854 183.7 17.7854H188C188.2 17.7854 188.3 17.7853 188.3 18.0854V34.9854C188.3 35.1854 188.2 35.2853 188 35.2853H183.7C183.6 35.2853 183.4 35.2854 183.4 34.9854ZM185.9 15.9854C184.2 15.9854 183.1 14.8853 183.1 13.1853C183.1 11.4853 184.3 10.3853 185.9 10.3853C187.6 10.3853 188.6 11.5853 188.6 13.1853C188.7 14.8853 187.6 15.9854 185.9 15.9854ZM191.6 17.7854H195.4C195.6 17.7854 195.7 17.8854 195.8 18.0854C196 18.5854 196.1 19.2853 196.2 20.0854C197.6 18.4853 199.6 17.4854 201.8 17.4854C202 17.4854 202.1 17.5854 202.1 17.7854V22.0854C202.1 22.2853 202 22.2853 201.7 22.2853C199.2 22.1853 197.2 22.9854 196.4 23.8854V35.0854C196.4 35.2854 196.3 35.3854 196.1 35.3854H191.8C191.6 35.3854 191.4 35.2854 191.4 35.0854V22.8854C191.4 21.2854 191.4 19.2853 191.2 18.0854C191.3 17.8854 191.4 17.7854 191.6 17.7854ZM214.7 27.8854H207.8C208 29.8854 209.4 31.5854 212.8 31.5854C214.3 31.5854 215.8 31.2853 217.1 30.7853C217.2 30.6853 217.3 30.7854 217.3 30.8854V34.1853C217.3 34.4853 217.2 34.5853 217.1 34.6853C215.7 35.2853 214.1 35.6853 211.7 35.6853C205.1 35.6853 202.8 31.1853 202.8 26.7853C202.8 21.8853 205.8 17.4854 211.3 17.4854C216.7 17.4854 218.8 21.5854 218.8 25.0854C218.8 26.1854 218.7 27.0854 218.6 27.3854C218.6 27.5854 218.5 27.5853 218.3 27.6853C217.8 27.7853 216.5 27.8854 214.7 27.8854ZM207.8 24.3854H212.4C213.5 24.3854 214.1 24.3853 214.2 24.2853V24.0854C214.2 23.1854 213.5 21.2854 211.2 21.2854C208.9 21.2854 208 22.9854 207.8 24.3854ZM221.8 21.8853H219.7C219.6 21.8853 219.5 21.7853 219.5 21.5854V18.0854C219.5 17.8854 219.6 17.8853 219.7 17.8853H221.8V17.2854C221.8 15.5854 222 14.3854 222.5 13.2854C223.4 11.2854 225.1 9.98535 228 9.98535C228.7 9.98535 229.4 10.0853 229.8 10.1853C230 10.2853 230 10.3854 230 10.5854V14.0854C230 14.1853 229.9 14.2854 229.7 14.2854C229.4 14.1854 229 14.1853 228.7 14.1853C227.4 14.1853 226.6 14.8853 226.6 16.8853V17.8853H229.6C229.8 17.8853 229.9 17.9854 229.9 18.0854V21.5854C229.9 21.7853 229.8 21.8853 229.6 21.8853H226.6V34.9854C226.6 35.1854 226.6 35.2853 226.2 35.2853H222C221.8 35.2853 221.7 35.1854 221.7 34.9854L221.8 21.8853ZM231.2 30.7853V10.6853C231.2 10.4853 231.3 10.3853 231.6 10.3853H235.8C236 10.3853 236.1 10.4853 236.1 10.6853V30.3854C236.1 31.3854 236.4 31.6853 237.3 31.6853C237.6 31.6853 237.7 31.6853 237.9 31.6853C238 31.6853 238.1 31.6854 238.1 31.8854V34.9854C238.1 35.1854 238.1 35.2854 237.9 35.3854C237.4 35.5854 236.8 35.6853 235.7 35.6853C233.2 35.6853 231.2 34.6853 231.2 30.7853ZM238.5 17.7854H243.2C243.4 17.7854 243.5 17.7854 243.6 17.9854C245.6 23.9854 246.7 27.6854 247.2 29.4854C248.4 25.7854 249.5 22.3854 250.8 17.9854C250.9 17.7854 251 17.7854 251.2 17.7854H255.4C255.6 17.7854 255.7 17.8854 255.6 18.0854C253.1 25.9853 249.2 35.6853 246.5 41.6853C246.4 41.8853 246.4 41.8854 246 41.9854L241.6 42.2853C241.4 42.2853 241.3 42.1854 241.4 41.9854C242.5 39.8854 243.5 37.5854 244.6 34.8854C244.7 34.6854 244.7 34.5853 244.6 34.2853C243.6 31.8853 240.3 23.4854 238.2 17.9854C238.1 17.9854 238.2 17.7854 238.5 17.7854Z" fill="#3AFE14"/>
</svg>
