<svg width="107" height="34" viewBox="0 0 107 34" fill="none" xmlns="http://www.w3.org/2000/svg">
<g id="g7451_00000012437482101694114530000007406805041617185152_">
<g id="Group">
<g id="g7449_00000036215373241392374160000011116876786230130058_">
<path id="path7435_00000127739237022302515090000015170192764532198317_" d="M18.4997 32.3C17.4997 31.6 16.6997 30.5 16.2997 29C15.8997 27.5 15.6997 25.6 15.6997 23.2V19.9C15.6997 17.5 15.9997 15.5 16.3997 14C16.8997 12.5 17.6997 11.4 18.6997 10.7C19.7997 9.99995 21.0997 9.69995 22.8997 9.69995C24.5997 9.69995 25.8997 9.99995 26.9997 10.7C27.9997 11.4 28.7997 12.5 29.1997 14C29.6997 15.5 29.8997 17.4 29.8997 19.9V23.2C29.8997 25.6 29.6997 27.5999 29.1997 29.0999C28.6997 30.5999 27.9997 31.7 26.9997 32.4C25.9997 33.1 24.5997 33.4 22.7997 33.4C20.8997 33.3 19.4997 33 18.4997 32.3ZM24.1997 28.7C24.4997 28 24.5997 26.6999 24.5997 25.0999V17.9C24.5997 16.3 24.4997 15.1 24.1997 14.3C23.8997 13.5 23.3997 13.2 22.6997 13.2C21.9997 13.2 21.4997 13.6 21.1997 14.3C20.8997 15.1 20.7997 16.3 20.7997 17.9V25C20.7997 26.7 20.8997 27.8999 21.1997 28.5999C21.4997 29.2999 21.9997 29.7 22.6997 29.7C23.4997 29.8 23.8997 29.5 24.1997 28.7Z" fill="#3AFE14"/>
<path id="path7437_00000105416090891615366080000008104495206442156982_" d="M97.6998 23.3001V24.5001C97.6998 26.0001 97.6998 27.1001 97.7998 27.8001C97.8998 28.5001 98.0998 29.1001 98.3998 29.4001C98.6998 29.7001 99.0998 29.9001 99.6998 29.9001C100.5 29.9001 101 29.6001 101.3 29.0001C101.6 28.4001 101.7 27.4001 101.8 26.0001L106.2 26.3001C106.2 26.5001 106.2 26.8001 106.2 27.1001C106.2 29.2001 105.6 30.8001 104.5 31.8001C103.4 32.8001 101.7 33.3001 99.5998 33.3001C97.0998 33.3001 95.2998 32.5001 94.2998 30.9001C93.2998 29.3001 92.7998 26.9001 92.7998 23.5001V19.5001C92.7998 16.1001 93.2998 13.6001 94.3998 12.0001C95.4998 10.4001 97.2998 9.6001 99.7998 9.6001C101.6 9.6001 102.9 9.9001 103.9 10.6001C104.8 11.2001 105.5 12.3001 105.9 13.6001C106.3 15.0001 106.5 16.9001 106.5 19.3001V23.2001L97.6998 23.3001ZM98.2998 13.7001C97.9998 14.0001 97.8998 14.6001 97.7998 15.3001C97.6998 16.0001 97.6998 17.1001 97.6998 18.6001V20.2001H101.5V18.6001C101.5 17.1001 101.5 16.0001 101.4 15.3001C101.3 14.6001 101.1 14.0001 100.8 13.7001C100.5 13.4001 100.1 13.2001 99.5998 13.2001C98.9998 13.1001 98.5998 13.3001 98.2998 13.7001Z" fill="#3AFE14"/>
<path id="path7439_00000084507946535631345860000012114192201433197195_" d="M5.89963 22.8001L0.0996094 1.6001H5.19962L7.29962 11.2001C7.79962 13.6001 8.19963 15.6001 8.49963 17.3001H8.59961C8.79961 16.1001 9.19962 14.1001 9.79962 11.3001L11.8996 1.7001H16.9996L11.0996 22.9001V33.0001H5.99963L5.89963 22.8001Z" fill="#3AFE14"/>
<path id="path7441_00000156588131307563066200000000575025090907751068_" d="M46.4997 10.1001V33.0001H42.4997L42.0997 30.2001H41.9997C40.8997 32.3001 39.2997 33.4001 37.0997 33.4001C35.5997 33.4001 34.4997 32.9001 33.7997 31.9001C33.0997 30.9001 32.6997 29.4001 32.6997 27.2001V10.1001H37.7997V26.9001C37.7997 27.9001 37.8997 28.7001 38.0997 29.1001C38.2997 29.5001 38.6997 29.7001 39.1997 29.7001C39.5997 29.7001 40.0997 29.6001 40.4997 29.3001C40.8997 29.0001 41.1997 28.7001 41.3997 28.3001V10.1001H46.4997Z" fill="#3AFE14"/>
<path id="path7443_00000033366867769576102970000016989589103121798566_" d="M72.8996 10.1001V33.0001H68.8996L68.4996 30.2001H68.3996C67.2996 32.3001 65.6996 33.4001 63.4996 33.4001C61.9996 33.4001 60.8996 32.9001 60.1996 31.9001C59.4996 30.9001 59.0996 29.4001 59.0996 27.2001V10.1001H64.1996V26.9001C64.1996 27.9001 64.2996 28.7001 64.4996 29.1001C64.6996 29.5001 65.0996 29.7001 65.5996 29.7001C65.9996 29.7001 66.4996 29.6001 66.8996 29.3001C67.2996 29.0001 67.5996 28.7001 67.7996 28.3001V10.1001H72.8996Z" fill="#3AFE14"/>
<path id="path7445_00000170249395125395426260000002968861664125688735_" d="M60.4998 5.8001H55.3998V32.9001H50.3998V5.8001H45.2998V1.6001H60.4998V5.8001Z" fill="#3AFE14"/>
<path id="path7447_00000083053394908259996540000006321432620094222262_" d="M89.8994 13.8C89.5994 12.3 89.0994 11.3 88.3994 10.7C87.6994 10.1 86.6994 9.7 85.4994 9.7C84.5994 9.7 83.6994 10 82.7994 10.5C81.9994 11 81.2994 11.7 80.8994 12.6V0.5H75.8994V32.9H80.0994L80.5994 30.8H80.6994C81.0994 31.6 81.6994 32.2 82.4994 32.6C83.2994 33 84.1994 33.3 85.1994 33.3C86.9994 33.3 88.1994 32.5 88.9994 30.9C89.7994 29.3 90.1994 26.8 90.1994 23.4V19.8C90.2994 17.2 90.1994 15.2 89.8994 13.8ZM85.1994 23.1C85.1994 24.8 85.0994 26.1 84.9994 27C84.8994 27.9 84.5994 28.6 84.2994 29C83.9994 29.4 83.4994 29.6 82.9994 29.6C82.5994 29.6 82.1994 29.5 81.7994 29.3C81.3994 29.1 81.1994 28.8 80.8994 28.4V15.4C81.0994 14.8 81.3994 14.3 81.7994 13.9C82.1994 13.5 82.6994 13.3 83.1994 13.3C83.6994 13.3 84.0994 13.5 84.3994 13.9C84.6994 14.3 84.8994 15 84.9994 16C85.0994 17 85.1994 18.4 85.1994 20.1V23.1Z" fill="#3AFE14"/>
</g>
</g>
</g>
</svg>
