<svg width="193" height="33" viewBox="0 0 193 33" fill="none" xmlns="http://www.w3.org/2000/svg">
<path id="Vector" d="M14.5568 20.0427H6.45684L4.75677 25.2427C4.65677 25.4427 4.55674 25.5427 4.35674 25.5427H0.256768C0.0567684 25.5427 -0.0431827 25.4427 0.0568173 25.1427L7.15679 4.84267C7.25679 4.44267 7.45684 4.04268 7.45684 2.74268C7.45684 2.54268 7.55679 2.54268 7.65679 2.54268H13.2568C13.4568 2.54268 13.4568 2.54268 13.5568 2.74268L21.5568 25.3427C21.6568 25.5427 21.5567 25.6427 21.3567 25.6427H16.7568C16.5568 25.6427 16.4567 25.5427 16.3567 25.4427L14.5568 20.0427ZM7.65679 15.7427H13.1568C12.4568 13.4427 11.0567 9.14267 10.3567 6.64267C9.85674 8.94267 8.55679 12.8427 7.65679 15.7427ZM30.8567 25.9427C25.6567 25.9427 21.6568 23.0427 21.6568 17.0427C21.6568 11.9427 25.4567 7.74268 31.8567 7.74268C32.1567 7.74268 32.4568 7.74268 32.9568 7.74268V0.842674C32.9568 0.642674 33.0568 0.642673 33.1568 0.642673H37.6568C37.7568 0.642673 37.8567 0.742674 37.8567 0.842674V21.6427C37.8567 22.4427 37.9568 23.5427 37.9568 24.2427C37.9568 24.4427 37.9568 24.5427 37.7568 24.6427C35.6568 25.4427 33.2567 25.9427 30.8567 25.9427ZM33.0568 21.5427V11.9427C32.6568 11.8427 32.2568 11.8427 31.7568 11.8427C29.0568 11.8427 26.7568 13.4427 26.7568 16.7427C26.7568 20.2427 28.7568 21.7427 31.4568 21.7427C31.9568 21.7427 32.5568 21.7427 33.0568 21.5427ZM49.0568 7.74268C54.6568 7.74268 57.6568 12.0427 57.6568 16.7427C57.6568 22.2427 54.0568 25.9427 48.9568 25.9427C42.9568 25.9427 40.2568 21.4427 40.2568 16.8427C40.2568 11.8427 43.5568 7.74268 49.0568 7.74268ZM48.8567 11.8427C46.7567 11.8427 45.2568 13.6427 45.2568 16.8427C45.2568 19.9427 46.6568 21.8427 49.0568 21.8427C51.0568 21.8427 52.6568 20.1427 52.6568 16.8427C52.6568 14.0427 51.4567 11.8427 48.8567 11.8427ZM60.1568 0.542675H64.4568C64.7568 0.542675 64.8567 0.642674 64.8567 0.842674V8.04268C65.7567 7.74267 66.7567 7.64267 67.8567 7.64267C73.0567 7.64267 76.3567 11.3427 76.3567 16.0427C76.3567 22.6427 71.1568 25.8427 65.7568 25.8427C63.9568 25.8427 62.0568 25.6427 60.2568 25.0427C60.1568 25.0427 60.0568 24.8427 60.0568 24.7427V0.842674C59.8568 0.642674 59.9568 0.542675 60.1568 0.542675ZM71.2568 16.5427C71.2568 13.3427 69.3567 11.8427 66.8567 11.8427C65.7567 11.8427 65.2567 12.0427 64.8567 12.1427V21.7427C65.2567 21.8427 65.6568 21.8427 66.1568 21.8427C68.7568 21.8427 71.2568 20.2427 71.2568 16.5427ZM89.5568 18.1427H82.6568C82.8568 20.1427 84.2568 21.8427 87.6568 21.8427C89.1568 21.8427 90.6568 21.5427 91.9568 21.0427C92.0568 20.9427 92.1568 21.0427 92.1568 21.1427V24.4427C92.1568 24.7427 92.0568 24.8427 91.9568 24.9427C90.5568 25.5427 88.9568 25.9427 86.5568 25.9427C79.9568 25.9427 77.6568 21.4427 77.6568 17.0427C77.6568 12.1427 80.6568 7.74268 86.1568 7.74268C91.5568 7.74268 93.6568 11.8427 93.6568 15.3427C93.6568 16.4427 93.5568 17.3427 93.4568 17.6427C93.4568 17.8427 93.3568 17.8427 93.1568 17.9427C92.7568 18.0427 91.3568 18.1427 89.5568 18.1427ZM82.6568 14.6427H87.2568C88.3568 14.6427 88.9568 14.6427 89.0568 14.5427V14.3427C89.0568 13.4427 88.3568 11.5427 86.0568 11.5427C83.7568 11.5427 82.8568 13.2427 82.6568 14.6427ZM108.357 16.6427V25.3427C108.357 25.5427 108.257 25.6427 108.057 25.6427H103.657C103.457 25.6427 103.457 25.5427 103.457 25.3427V2.74268C103.457 2.54268 103.557 2.54268 103.757 2.54268H117.757C117.957 2.54268 118.057 2.64267 118.057 2.84267L118.457 6.64267C118.457 6.84267 118.357 6.94267 118.157 6.94267H108.357V12.3427H117.157C117.357 12.3427 117.457 12.4427 117.457 12.6427V16.3427C117.457 16.5427 117.357 16.6427 117.157 16.6427H108.357ZM120.057 25.2427V8.34267C120.057 8.14267 120.157 8.04268 120.357 8.04268H124.657C124.857 8.04268 124.957 8.04267 124.957 8.34267V25.2427C124.957 25.4427 124.857 25.5427 124.657 25.5427H120.357C120.257 25.5427 120.057 25.5427 120.057 25.2427ZM122.557 6.24268C120.857 6.24268 119.757 5.14267 119.757 3.44267C119.757 1.74267 120.957 0.642673 122.557 0.642673C124.257 0.642673 125.257 1.84267 125.257 3.44267C125.357 5.14267 124.257 6.24268 122.557 6.24268ZM128.257 8.04268H132.057C132.257 8.04268 132.357 8.14267 132.457 8.34267C132.657 8.84267 132.757 9.54267 132.857 10.3427C134.257 8.74267 136.257 7.74268 138.457 7.74268C138.657 7.74268 138.757 7.84268 138.757 8.04268V12.3427C138.757 12.5427 138.657 12.5427 138.357 12.5427C135.857 12.4427 133.857 13.2427 133.057 14.1427V25.3427C133.057 25.5427 132.957 25.6427 132.757 25.6427H128.457C128.257 25.6427 128.057 25.5427 128.057 25.3427V13.1427C128.057 11.5427 128.057 9.54267 127.857 8.34267C127.957 8.14267 128.057 8.04268 128.257 8.04268ZM151.357 18.1427H144.457C144.657 20.1427 146.057 21.8427 149.457 21.8427C150.957 21.8427 152.457 21.5427 153.757 21.0427C153.857 20.9427 153.957 21.0427 153.957 21.1427V24.4427C153.957 24.7427 153.857 24.8427 153.757 24.9427C152.357 25.5427 150.757 25.9427 148.357 25.9427C141.757 25.9427 139.457 21.4427 139.457 17.0427C139.457 12.1427 142.457 7.74268 147.957 7.74268C153.357 7.74268 155.457 11.8427 155.457 15.3427C155.457 16.4427 155.357 17.3427 155.257 17.6427C155.257 17.8427 155.157 17.8427 154.957 17.9427C154.457 18.0427 153.157 18.1427 151.357 18.1427ZM144.457 14.6427H149.057C150.157 14.6427 150.757 14.6427 150.857 14.5427V14.3427C150.857 13.4427 150.157 11.5427 147.857 11.5427C145.557 11.5427 144.657 13.2427 144.457 14.6427ZM158.457 12.1427H156.357C156.257 12.1427 156.157 12.0427 156.157 11.8427V8.34267C156.157 8.14267 156.257 8.14267 156.357 8.14267H158.457V7.54268C158.457 5.84268 158.657 4.64267 159.157 3.54268C160.057 1.54268 161.757 0.242676 164.657 0.242676C165.357 0.242676 166.057 0.342673 166.457 0.442673C166.657 0.542673 166.657 0.642674 166.657 0.842674V4.34267C166.657 4.44267 166.557 4.54268 166.357 4.54268C166.057 4.44268 165.657 4.44267 165.357 4.44267C164.057 4.44267 163.257 5.14267 163.257 7.14267V8.14267H166.257C166.457 8.14267 166.557 8.24267 166.557 8.34267V11.8427C166.557 12.0427 166.457 12.1427 166.257 12.1427H163.257V25.2427C163.257 25.4427 163.257 25.5427 162.857 25.5427H158.657C158.457 25.5427 158.357 25.4427 158.357 25.2427L158.457 12.1427ZM167.857 21.0427V0.942673C167.857 0.742673 167.957 0.642673 168.257 0.642673H172.457C172.657 0.642673 172.757 0.742673 172.757 0.942673V20.6427C172.757 21.6427 173.057 21.9427 173.957 21.9427C174.257 21.9427 174.357 21.9427 174.557 21.9427C174.657 21.9427 174.757 21.9427 174.757 22.1427V25.2427C174.757 25.4427 174.757 25.5427 174.557 25.6427C174.057 25.8427 173.457 25.9427 172.357 25.9427C169.857 25.9427 167.857 24.9427 167.857 21.0427ZM175.157 8.04268H179.857C180.057 8.04268 180.157 8.04268 180.257 8.24268C182.257 14.2427 183.357 17.9427 183.857 19.7427C185.057 16.0427 186.157 12.6427 187.457 8.24268C187.557 8.04268 187.657 8.04268 187.857 8.04268H192.057C192.257 8.04268 192.357 8.14267 192.257 8.34267C189.757 16.2427 185.857 25.9427 183.157 31.9427C183.057 32.1427 183.057 32.1427 182.657 32.2427L178.257 32.5427C178.057 32.5427 177.957 32.4427 178.057 32.2427C179.157 30.1427 180.157 27.8427 181.257 25.1427C181.357 24.9427 181.357 24.8427 181.257 24.5427C180.257 22.1427 176.957 13.7427 174.857 8.24268C174.757 8.24268 174.857 8.04268 175.157 8.04268Z" fill="#3AFE14"/>
</svg>
