<svg width="280" height="69" viewBox="0 0 280 69" fill="none" xmlns="http://www.w3.org/2000/svg">
<path d="M172.218 47.9276C169.395 47.9276 166.568 47.9276 163.652 47.9276C163.652 46.5239 163.652 45.1929 163.652 43.6856C161.835 45.4319 159.875 46.5836 157.564 47.3704C156.751 45.6549 155.947 43.9423 155.128 42.2361C154.872 41.7004 154.839 41.1693 155.022 40.6084C155.099 40.3741 155.145 40.1287 155.184 39.8851C155.318 39.0217 155.138 38.8145 154.283 38.6708C154.066 38.6344 153.882 38.4048 153.684 38.2639C153.715 38.1836 153.747 38.1033 153.779 38.0231C154.011 38.0231 154.245 38.0389 154.475 38.0203C156.156 37.8859 157.872 37.9139 159.51 37.5732C163.318 36.7817 164.994 32.3708 162.823 29.1032C161.961 27.8068 160.634 27.2543 159.183 26.9855C156.318 26.4553 153.433 26.4077 150.58 27.0051C146.542 27.8507 144.843 31.8211 146.91 35.4228C146.942 35.4797 146.964 35.5441 146.918 35.7569C146.592 35.6011 146.203 35.5124 145.951 35.2772C144.891 34.2879 143.563 34.2067 142.292 34.3784C141.608 34.4708 140.931 35.0644 140.372 35.5684C138.408 37.3389 137.091 39.4949 136.722 42.1624C136.711 42.2436 136.67 42.3201 136.57 42.6076C136.047 41.6593 135.519 40.8968 135.183 40.0577C133.081 34.8105 133.045 29.5335 135.307 24.3451C136.716 21.1139 139.257 18.9205 142.537 17.7007C148.229 15.5839 153.935 15.5764 159.51 18.1104C160.965 18.7712 162.247 19.8081 163.628 20.6855C163.628 16.0095 163.628 11.2289 163.628 6.39893C167.829 6.39893 171.939 6.39893 176.114 6.39893C176.114 19.2267 176.114 32.0292 176.114 45.0641" fill="#FF1180"/>
<path d="M176.113 46.2168C179.457 44.1858 182.931 42.6738 185.178 39.325C182.459 37.8868 179.584 37.7038 176.642 37.4528C176.642 36.4504 176.626 35.4648 176.662 34.4801C176.667 34.3644 176.968 34.1478 177.11 34.1646C178.716 34.3578 180.336 34.4978 181.912 34.8366C183.057 35.0821 184.176 35.5282 185.241 36.0238C186.17 36.455 186.707 37.2409 186.657 38.3562C186.637 38.8182 186.765 39.2896 186.844 39.7534C187.068 41.0601 186.464 42.0989 185.666 42.9986C184.853 43.9152 183.985 44.8224 183 45.5373C181.368 46.7208 179.641 47.7782 177.92 48.8348C174.662 50.834 171.378 52.7902 168.112 54.7764C167.346 55.2421 166.618 55.7722 165.847 56.2296C165.725 56.3024 165.327 56.1941 165.291 56.0896C164.759 54.5374 163.904 53.0609 164.291 51.296C164.464 50.511 164.419 49.6804 164.532 48.8786C164.556 48.7041 164.829 48.4428 165 48.4325C165.786 48.3849 166.578 48.4269 167.366 48.4045C167.766 48.3933 167.881 48.5641 167.853 48.93C167.803 49.6141 167.772 50.3001 167.726 51.1018C169.472 50.0453 171.104 49.056 172.738 48.0676" fill="#3AFE14"/>
<path d="M11.4436 11.5789C11.7703 11.5789 11.97 11.5789 12.1697 11.5789C16.6563 11.5789 21.1428 11.5892 25.6293 11.5658C26.1604 11.563 26.3601 11.7656 26.5347 12.2285C29.7313 20.705 32.9457 29.176 36.1564 37.6469C36.2479 37.8896 36.3412 38.1313 36.5083 38.57C37.0048 37.2652 37.4267 36.161 37.8457 35.056C40.7363 27.4278 43.6296 19.8006 46.5099 12.1678C46.6639 11.76 46.8365 11.564 47.32 11.5658C51.8737 11.5864 56.4284 11.578 60.9821 11.5798C61.1557 11.5798 61.3293 11.605 61.5795 11.6246C61.3331 12.2369 61.1137 12.7969 60.8832 13.3532C56.1988 24.6586 51.5088 35.9613 46.8384 47.2714C46.6237 47.7913 46.3577 47.9621 45.7977 47.9602C39.5976 47.9397 33.3975 47.9406 27.1983 47.9593C26.67 47.9612 26.4068 47.8184 26.1977 47.3116C21.3995 35.6878 16.5825 24.0716 11.7693 12.4544C11.6676 12.208 11.5836 11.956 11.4436 11.5789Z" fill="#FF1180"/>
<path d="M215.94 35.0448C215.679 35.2782 215.429 35.5246 215.158 35.7439C213.201 37.3194 211.247 38.8976 209.278 40.4572C208.03 41.4447 206.772 42.42 205.493 43.3674C203.746 44.6619 201.976 45.9266 200.209 47.1959C200.049 47.3116 199.852 47.3984 199.66 47.4442C194.93 48.5726 190.174 48.8927 185.393 47.811C184.418 47.5907 183.482 47.2024 182.477 46.8739C183.454 45.949 184.321 45.1164 185.2 44.2979C186.026 43.5288 186.818 42.7243 187.16 41.6211C187.316 41.118 187.378 40.5608 187.355 40.0326C187.316 39.1142 187.327 38.15 187.036 37.2998C186.816 36.6548 186.249 36.0407 185.684 35.6188C184.211 34.5203 182.394 34.3486 180.656 33.9911C180.311 33.9202 179.958 33.8828 179.412 33.7998C179.983 33.2818 180.399 32.8506 180.869 32.4884C182.844 30.9671 185.139 30.1616 187.547 29.6996C193.05 28.644 198.561 28.5386 204.063 29.7444C204.48 29.8359 204.892 29.9582 205.303 30.0776C205.705 30.1943 206.103 30.325 206.51 30.4519C206.763 29.163 205.859 27.8628 204.856 27.5016C203.893 27.1535 202.876 26.8418 201.862 26.7624C196.225 26.3219 190.652 26.8968 185.136 28.0579C184.387 28.2156 184.097 28.0467 183.799 27.3616C182.738 24.9247 181.596 22.5223 180.485 20.1068C180.393 19.9052 180.311 19.699 180.206 19.4535C180.361 19.3732 180.487 19.2818 180.628 19.2379C187.309 17.1808 194.116 15.9759 201.135 16.2643C203.936 16.3791 206.703 16.7422 209.377 17.6372C214.972 19.5086 218.064 23.4295 218.863 29.2255C218.926 29.6866 218.97 30.1495 219.031 30.6703C216.706 30.3287 214.488 30.4164 212.3 30.8411C209.771 31.3311 207.22 31.7782 204.757 32.509C201.859 33.3695 199.045 34.5184 196.191 35.5302C195.879 35.6412 195.539 35.6804 195.209 35.7364C193.97 35.9492 192.707 36.0678 191.498 36.3916C190.495 36.6595 190.078 37.3642 190.101 38.2312C190.122 39.0012 190.461 39.5379 191.201 39.761C191.778 39.9346 192.388 40.055 192.989 40.0848C197.416 40.3042 201.701 39.6004 205.854 38.0558C206.378 37.8607 206.733 37.6386 206.612 37.0076C206.544 36.652 206.716 36.498 207.077 36.4262C208.752 36.0911 210.417 35.7028 212.095 35.3799C213.326 35.1428 214.571 34.9795 215.81 34.7826C215.853 34.8694 215.897 34.9571 215.94 35.0448Z" fill="#FF1180"/>
<path d="M233.262 21.6458C236.32 17.6241 240.482 16.2623 245.247 16.2185C247.898 16.1942 250.509 16.5078 253.086 17.1266C253.434 17.2106 253.637 17.3114 253.635 17.7333C253.618 20.9122 253.626 24.0902 253.622 27.2691C253.622 27.3559 253.593 27.4437 253.561 27.6191C253.311 27.5669 253.08 27.523 252.85 27.4689C248.463 26.4469 244.06 26.2462 239.652 27.3037C237.393 27.845 235.42 28.9389 233.746 30.5694C233.395 30.911 233.249 31.2554 233.25 31.7501C233.268 36.8899 233.252 42.0298 233.274 47.1697C233.277 47.7549 233.138 47.9397 232.529 47.935C228.854 47.9061 225.18 47.9061 221.505 47.935C220.895 47.9397 220.757 47.7539 220.761 47.1706C220.787 43.3831 220.774 39.5957 220.774 35.8091C220.774 29.7266 220.784 23.6441 220.76 17.5615C220.757 16.9334 220.887 16.7131 221.563 16.7197C225.215 16.7533 228.867 16.7495 232.519 16.7215C233.118 16.7169 233.293 16.8802 233.274 17.4775C233.232 18.8663 233.262 20.2561 233.262 21.6458Z" fill="#FF1180"/>
<path d="M268.486 47.8997C264.017 47.8997 259.61 47.8997 255.164 47.8997C255.164 35.8018 255.164 23.7515 255.164 11.6396C259.598 11.6396 264.021 11.6396 268.486 11.6396C268.486 23.7095 268.486 35.7822 268.486 47.8997Z" fill="#FF1180"/>
<path d="M112.818 16.7738C112.818 18.4286 112.818 20.0377 112.818 21.7802C112.984 21.644 113.057 21.6057 113.1 21.545C115.338 18.4389 118.462 16.869 122.178 16.3977C125.731 15.9469 129.242 16.3081 132.707 17.1612C132.908 17.2106 133.188 17.5214 133.19 17.7128C133.219 20.9132 133.209 24.1145 133.205 27.3158C133.205 27.3812 133.177 27.4456 133.141 27.6042C132.909 27.5613 132.678 27.5277 132.452 27.4745C128.432 26.5178 124.383 26.3153 120.308 27.0554C117.651 27.538 115.298 28.6496 113.341 30.5498C112.978 30.9017 112.778 31.2592 112.818 31.7865C112.865 32.4352 112.829 33.0904 112.829 33.7325C111.763 34.0209 111.379 34.8525 111.281 35.756C111.124 37.2073 111.118 38.6745 111.043 40.1352C111.023 40.5365 110.985 40.9369 110.968 41.1833C110.284 41.2272 109.679 41.2346 109.082 41.313C108.552 41.383 108.01 41.4717 107.512 41.6574C106.774 41.9337 106.492 41.5557 106.161 40.9892C105.254 39.4408 104.665 37.7916 104.312 36.0369C104.105 35.0046 103.941 34.9608 102.904 34.8768C102.386 34.8348 101.883 34.6322 101.366 34.5305C101.065 34.4717 100.753 34.4698 100.384 34.4362C100.373 34.2318 100.352 34.0134 100.352 33.795C100.35 28.3621 100.358 22.9292 100.339 17.4962C100.337 16.9297 100.449 16.7169 101.074 16.7225C104.749 16.7533 108.423 16.7374 112.098 16.7393C112.316 16.7374 112.535 16.7589 112.818 16.7738Z" fill="#FF1180"/>
<path d="M191.212 60.3885C193.181 59.8295 195.033 59.3236 196.872 58.7738C198.159 58.3893 199.418 57.9124 200.706 57.5344C201.595 57.2731 202.521 57.1405 203.416 56.8969C204.577 56.5805 205.713 56.1624 206.88 55.8731C209.5 55.2225 212.121 54.5664 214.764 54.026C216.521 53.6667 218.318 53.5061 220.097 53.2513C221.047 53.1151 221.992 52.9051 222.947 52.8407C225.126 52.6932 227.31 52.5905 229.492 52.5187C230.583 52.4832 231.678 52.5616 232.771 52.5765C233.741 52.5896 234.077 52.8799 234.214 53.8561C234.307 54.5151 234.401 55.173 234.49 55.7993C233.732 56.1092 233.12 56.168 232.424 55.9281C231.856 55.7321 231.203 55.7881 230.59 55.7125C230.059 55.6472 229.533 55.5436 229.002 55.4801C228.888 55.4661 228.76 55.5445 228.643 55.5921C228.5 55.65 228.289 55.8124 228.235 55.7704C227.701 55.3373 227.148 55.7181 226.612 55.7135C225.547 55.7051 224.414 55.5259 223.438 55.8283C222.652 56.0718 221.881 56.0075 221.116 56.1689C219.65 56.4788 218.141 56.5861 216.651 56.7775C216.035 56.1951 215.568 57.372 214.963 56.9212C214.648 57.5512 213.985 57.2115 213.508 57.4177C213.251 57.5288 212.873 57.3617 212.432 57.3048C211.979 57.7687 211.293 58.1215 210.41 57.9871C210.265 57.9656 210.095 57.9992 209.959 58.0571C208.807 58.5489 207.618 58.9111 206.374 59.0539C206.135 59.0809 205.87 58.8877 205.527 58.7636C205.616 58.9409 205.679 59.066 205.767 59.2405C199.833 60.997 193.909 62.7508 187.933 64.5195C187.732 64.1909 187.521 63.9249 187.396 63.6216C187.2 63.1446 187.103 62.6696 186.644 62.2869C186.204 61.9201 186.402 61.3172 186.674 60.8533C187.868 58.814 189.52 57.1592 191.216 55.5501C192.319 54.5039 193.456 53.4921 194.607 52.4991C196.033 51.2699 197.454 50.0332 198.939 48.8777C200.633 47.5589 202.401 46.3335 204.126 45.0529C205.891 43.7416 207.641 42.4079 209.405 41.0937C210.447 40.3172 211.547 39.6116 212.54 38.7781C213.968 37.5807 215.325 36.2992 216.7 35.0411C216.873 34.8833 216.978 34.6528 217.247 34.2636C216.074 34.3485 215.078 34.3775 214.094 34.4997C210.4 34.958 206.782 35.7635 203.269 36.9927C201.211 37.7132 199.207 38.5877 197.14 39.2821C195.232 39.9233 193.28 39.7535 191.359 39.2224C191.221 39.1841 191.105 39.0656 190.847 38.9004C191.572 38.4552 192.175 37.9857 192.853 37.6861C194.936 36.7659 197.043 35.8988 199.151 35.0355C200.518 34.4755 201.885 33.9024 203.287 33.4395C204.733 32.9616 206.204 32.5173 207.697 32.2271C210.117 31.7576 212.553 31.3441 215.001 31.0707C216.231 30.9335 217.509 31.094 218.747 31.2564C219.11 31.304 219.544 31.7613 219.714 32.1365C220.014 32.7983 220.235 33.5319 220.299 34.2515C220.346 34.7779 220.201 35.392 219.947 35.8615C219 37.604 217.651 38.9937 216.007 40.1147C215.474 40.4787 215.059 41.0097 214.546 41.4083C213.352 42.3388 212.128 43.232 210.92 44.1467C209.998 44.8457 209.096 45.5728 208.16 46.2541C207.415 46.7973 206.621 47.2733 205.871 47.8109C205.405 48.1441 205 48.5623 204.533 48.8955C204.108 49.1997 203.627 49.4275 203.188 49.7149C202.912 49.8969 202.664 50.1237 202.41 50.3375C202.092 50.6053 201.787 50.8881 201.465 51.1504C200.788 51.7011 200.101 52.2396 199.423 52.7884C198.459 53.5705 197.485 54.3405 196.541 55.1479C195.886 55.7088 195.293 56.3416 194.643 56.9081C194.073 57.4047 193.292 57.7472 192.912 58.3511C192.53 58.9596 191.862 59.1407 191.502 59.6867C191.381 59.8715 191.327 60.1029 191.212 60.3885ZM200.823 48.4689C200.742 48.6845 200.663 48.8497 200.619 49.0233C200.583 49.1671 200.589 49.3211 200.576 49.4704C200.743 49.4564 200.925 49.4797 201.074 49.42C201.355 49.3052 201.621 49.1484 201.887 48.9991C202.06 48.902 202.285 48.8217 202.373 48.6687C202.5 48.4484 202.523 48.1684 202.608 47.8483C201.941 47.7391 201.608 48.2617 201.253 48.7461C201.115 48.6565 200.974 48.5651 200.823 48.4689ZM204.139 46.7003C204.569 46.6489 204.901 46.6601 205.191 46.5556C205.357 46.4959 205.455 46.2476 205.582 46.0843C205.374 46.0311 205.111 45.8724 204.97 45.9471C204.698 46.0899 204.493 46.3643 204.139 46.7003ZM195.588 53.3363C195.084 53.6555 194.584 53.9719 194.085 54.2883C194.088 54.3284 194.09 54.3695 194.094 54.4096C194.625 54.2444 195.155 54.0792 195.725 53.9028C195.681 53.7217 195.63 53.5127 195.588 53.3363ZM204.427 47.0372C204.407 46.9747 204.388 46.9131 204.368 46.8505C203.968 46.8683 203.567 46.8804 203.17 46.9168C203.144 46.9196 203.095 47.1809 203.122 47.1959C203.349 47.3135 203.603 47.4983 203.826 47.4712C204.041 47.4441 204.228 47.1903 204.427 47.0372Z" fill="#3AFE14"/>
<path d="M98.7458 34.3839C94.8548 34.3839 91.1056 34.3839 87.2472 34.3839C87.4114 34.0031 87.4973 33.6755 87.6765 33.4114C88.9094 31.6026 89.4246 29.6277 88.9906 27.4698C88.8842 26.9425 88.5221 26.4646 88.2645 25.9699C87.0773 23.6889 85.2526 22.399 82.63 22.3299C79.8748 22.2581 77.1541 22.4457 74.496 23.2465C71.9844 24.0034 69.4065 24.5793 66.9668 25.5182C64.2676 26.557 61.6794 27.8926 59.0698 29.1526C58.1953 29.5754 57.401 30.1634 56.3977 30.6123C56.6152 29.5007 56.7626 28.3686 57.0632 27.2803C58.3577 22.5987 61.5357 19.6923 65.9644 18.0105C69.0976 16.8205 72.3745 16.3809 75.699 16.2558C79.5201 16.113 83.316 16.3034 87.0241 17.3375C93.7842 19.2219 97.6548 23.7533 98.4677 30.743C98.6077 31.9405 98.6544 33.1482 98.7458 34.3839Z" fill="#FF1180"/>
<path d="M120.946 38.3974C120.522 39.5034 120.104 40.6122 119.673 41.7144C119.083 43.2218 118.474 44.7216 117.888 46.2299C116.927 48.6976 115.985 51.1719 115.017 53.6359C114.897 53.9392 114.689 54.2192 114.475 54.4694C114.375 54.586 114.162 54.6654 114.002 54.6616C113.28 54.6439 112.557 54.5916 111.836 54.5478C111.659 54.5375 111.484 54.5104 111.274 54.488C111.208 52.9452 111.075 51.4332 111.094 49.9222C111.125 47.3854 111.233 44.8486 111.343 42.3127C111.423 40.4731 111.518 38.6316 111.691 36.7995C111.755 36.1294 112.067 35.4826 112.261 34.8246C112.436 34.2328 113.014 34.3803 113.237 34.524C113.742 34.8516 114.157 34.7555 114.66 34.6174C114.85 34.5651 115.152 34.7527 115.338 34.9086C115.434 34.9898 115.418 35.2446 115.397 35.4144C115.293 36.2703 115.147 37.1206 115.059 37.9774C114.927 39.2504 114.816 40.5254 114.725 41.8022C114.64 43.0071 114.591 44.2148 114.526 45.4207C114.585 45.4412 114.646 45.4627 114.706 45.4832C114.933 45.0474 115.196 44.6264 115.38 44.1738C116.852 40.5319 118.282 36.8732 119.787 33.2454C120.223 32.1944 120.871 31.235 121.386 30.2139C121.56 29.8676 121.619 29.4644 121.732 29.0874C121.864 28.6478 122.092 28.5162 122.587 28.6282C123.066 28.7374 123.611 28.743 124.088 28.63C125.029 28.406 125.568 28.7766 125.346 29.6922C124.616 32.704 124.63 35.756 124.752 38.8183C124.787 39.676 124.855 40.5319 125.057 41.4158C125.35 40.5328 125.642 39.6499 125.936 38.767C126.389 37.4024 126.82 36.0295 127.315 34.6808C127.447 34.3234 127.785 34.0443 128.008 33.7148C128.076 33.615 128.114 33.4666 128.104 33.3452C127.99 32.0115 128.822 31.0782 129.556 30.1542C129.767 29.8891 130.432 29.9796 130.89 29.918C131.034 29.8984 131.271 29.9722 131.318 29.9031C131.774 29.2348 132.362 29.6866 132.755 29.8583C132.982 29.9582 133.082 30.6442 133.03 31.039C132.739 33.2482 133.019 35.4284 133.308 37.605C133.595 39.7591 133.876 41.9198 134.296 44.0496C134.769 46.4408 135.138 48.8694 136.096 51.1383C136.311 51.647 136.617 52.1304 136.949 52.5738C137.356 53.117 137.14 53.8888 136.469 54.0494C135.838 54.2006 135.2 54.3163 134.568 54.4628C134.114 54.5683 133.744 54.4703 133.568 54.0186C133.098 52.8043 132.609 51.5947 132.209 50.3562C131.834 49.1979 131.524 48.0154 131.262 46.8272C131.002 45.6456 130.835 44.4435 130.63 43.2498C130.325 41.4718 130.023 39.6928 129.719 37.9148C129.627 37.8448 129.535 37.7748 129.443 37.7039C129.41 37.8458 129.381 37.9886 129.341 38.1286C129.085 39.0386 128.84 39.9514 128.564 40.8548C128.287 41.7602 127.973 42.6543 127.684 43.555C127.288 44.7832 126.896 46.0124 126.51 47.2435C126.342 47.7783 126.208 48.3252 126.029 48.8563C125.752 49.6776 125.458 49.8046 124.594 49.7663C124.112 49.7448 123.622 49.91 123.133 49.9791C122.547 50.0612 122.235 49.8876 122.161 49.21C121.993 47.6775 121.691 46.1599 121.518 44.6283C121.383 43.4271 121.36 42.2128 121.288 41.0042C121.235 40.1436 121.183 39.284 121.131 38.4244C121.068 38.417 121.007 38.4067 120.946 38.3974ZM116.076 48.1684C116.38 47.5048 116.633 46.9523 116.964 46.2318C116.523 46.3718 116.285 46.4474 116.046 46.5239C116.058 46.5762 116.07 46.6284 116.082 46.6807C116.208 46.6807 116.334 46.6807 116.5 46.6807C116.363 47.1707 115.607 47.3714 116.076 48.1684Z" fill="#3AFE14"/>
<path d="M62.0619 53.1767C62.9673 52.4524 63.8829 51.7394 64.777 51.0002C67.3493 48.8712 70.0251 46.8506 72.4518 44.5658C75.6158 41.5856 78.665 38.4711 81.5919 35.2576C83.0162 33.6943 84.1213 31.8192 85.2329 30.0011C85.6967 29.2414 85.8293 28.2698 86.0607 27.3812C86.1914 26.881 85.9945 26.5506 85.4289 26.3975C83.7489 25.9439 82.0707 25.7628 80.3366 26.069C79.1923 26.2706 78.0079 26.264 76.8749 26.5039C75.4627 26.8026 74.0758 27.2347 72.6917 27.6547C71.0201 28.1615 69.3494 28.6786 67.7058 29.2656C66.7445 29.6091 65.8093 30.0496 64.9086 30.5322C63.5721 31.248 62.341 32.201 60.9466 32.7526C59.5205 33.3172 58.4443 34.3047 57.245 35.1512C56.9389 35.3678 56.7093 35.6916 56.4349 35.9558C55.8898 36.4803 55.6126 36.4476 55.2337 35.8064C55.1095 35.5974 55.0526 35.3472 54.9182 35.1466C54.7651 34.9188 54.5971 34.6622 54.3703 34.5306C53.745 34.1675 53.6442 33.6775 54.2117 33.2183C54.8202 32.7255 55.4623 32.2672 56.1185 31.8388C57.7695 30.7627 59.3674 29.5774 61.1118 28.6804C64.4111 26.9827 67.8439 25.5678 71.4401 24.5999C73.1985 24.1267 74.9606 23.6572 76.7386 23.2652C78.8125 22.8079 80.9311 22.7136 83.0423 22.877C85.1983 23.0431 86.5778 24.3414 87.7277 26.1072C88.7702 27.7088 88.8337 29.2983 88.2345 30.9839C87.9703 31.7268 87.5466 32.4166 87.1611 33.1119C86.7803 33.7979 86.3781 34.4755 85.9441 35.1288C85.5558 35.714 85.1395 36.2871 84.685 36.8228C83.6919 37.9932 82.7259 39.1944 81.6433 40.278C79.687 42.2362 77.6551 44.1187 75.6513 46.0292C74.8262 46.816 74.0095 47.6131 73.1546 48.3654C72.477 48.9618 71.7387 49.4891 71.0425 50.065C70.5357 50.484 70.069 50.9516 69.5594 51.366C68.7941 51.9886 67.9923 52.5682 67.2307 53.1954C66.373 53.9019 65.5526 54.6532 64.6958 55.3607C64.2571 55.7228 63.7643 56.0187 63.3145 56.3687C62.7871 56.7784 62.2999 57.2423 61.7586 57.6315C61.0633 58.1308 60.3259 58.5704 59.6213 59.0576C59.4542 59.1734 59.3711 59.4104 59.2059 59.5299C58.4471 60.0796 57.6277 60.5556 56.9239 61.167C56.5898 61.4582 56.4675 61.993 56.1763 62.5567C55.3195 61.6178 54.5075 60.7992 53.787 59.9079C53.4585 59.501 53.6489 59.0847 54.1221 58.7879C55.2589 58.0739 56.3807 57.3338 57.4905 56.5778C57.6762 56.4518 57.8526 56.2044 57.8909 55.987C58.1438 54.5524 58.3865 53.116 58.5797 51.6722C58.9325 49.0336 59.2479 46.3904 59.5793 43.7491C59.5923 43.6446 59.6101 43.541 59.6241 43.4448C60.6377 44.2307 61.6326 44.983 62.5977 45.7716C62.7302 45.8799 62.7787 46.1758 62.7582 46.3746C62.6061 47.867 62.4381 49.3584 62.2533 50.8471C62.1599 51.5984 62.0246 52.3442 61.9079 53.0927C61.9583 53.1207 62.0097 53.1487 62.0619 53.1767Z" fill="#3AFE14"/>
<path d="M85.3449 28.2445C85.1582 28.7382 85.0612 29.2142 84.8176 29.5978C83.8525 31.1145 82.8595 32.6153 81.8263 34.0862C81.6751 34.3009 81.2522 34.4194 80.9545 34.4213C77.3052 34.4437 73.6549 34.4353 70.0046 34.4353C69.762 34.4353 69.5193 34.4353 69.1702 34.4353C69.4586 35.4377 69.9598 36.1834 70.6654 36.7957C71.9469 37.9082 73.5065 38.3161 75.1417 38.4962C75.9397 38.584 76.7442 38.6101 77.6813 38.6726C76.7844 39.5985 76.0069 40.4898 75.138 41.2813C72.995 43.232 70.8157 45.1416 68.6336 47.0484C68.4282 47.2276 68.0577 47.404 67.83 47.3414C63.979 46.2728 60.6321 44.4117 58.5536 40.8557C57.8256 39.6106 57.4205 38.1733 56.9119 36.8078C56.8419 36.6202 56.9464 36.2553 57.0995 36.1153C58.3053 35.0158 59.5065 33.9266 61.0941 33.3405C61.8996 33.0428 62.6014 32.4697 63.363 32.0441C64.064 31.6521 64.7565 31.2246 65.4985 30.9278C67.5677 30.099 69.6537 29.3122 71.7481 28.5497C72.281 28.3556 72.8691 28.2193 73.4328 28.2146C77.1951 28.1857 80.9582 28.1997 84.7205 28.2016C84.8932 28.2006 85.0677 28.224 85.3449 28.2445Z" fill="#FF1180"/>
<path d="M148.773 42.8885C148.571 44.1923 148.458 45.7454 148.065 47.2238C147.61 48.9355 146.657 50.4177 144.984 51.2101C143.7 51.8186 142.343 52.0529 140.999 51.2745C140.513 50.9935 140.014 50.7341 139.516 50.4765C137.962 49.6729 137.574 48.1693 137.32 46.6507C137.014 44.8242 136.981 42.979 137.491 41.1655C138.259 38.4402 139.859 36.3533 142.307 34.9243C142.42 34.8581 142.569 34.7853 142.686 34.8049C143.869 34.9981 145.132 34.972 145.965 36.1032C146.1 36.287 146.518 36.2338 146.747 36.3813C147.61 36.9375 147.891 37.8653 148.087 38.7827C148.357 40.0521 148.52 41.3429 148.773 42.8885ZM144.477 38.8443C141.498 40.9061 140.328 45.7016 141.392 48.5884C142.788 48.0713 143.665 47.0204 144.264 45.7426C145.309 43.5092 144.941 41.2057 144.477 38.8443Z" fill="#3AFE14"/>
<path d="M108.205 45.8108C108.452 46.2756 108.606 46.7068 108.88 47.04C109.181 47.4068 109.063 47.6962 108.856 47.9911C108.604 48.3532 108.379 48.1012 108.125 47.9435C108.009 47.8716 107.797 47.9183 107.64 47.9575C107.32 48.0378 107.008 48.1526 106.691 48.2468C106.111 48.4195 105.804 48.203 105.603 47.6224C105.163 46.3494 105.126 46.3064 103.791 46.5444C101.548 46.9448 99.3122 47.3919 97.0872 47.8782C96.1781 48.077 95.3082 48.4522 94.4085 48.706C94.079 48.7994 93.716 48.7742 93.323 48.8068C92.8022 48.0536 93.5601 47.516 93.7076 46.8384C93.5022 46.7712 93.3006 46.705 93.1074 46.6415C93.1382 45.5607 93.477 45.136 94.3889 44.8738C95.4613 44.5658 96.3209 44.1299 96.6466 42.8335C97.132 40.9034 97.888 39.0414 98.4956 37.1402C98.699 36.5046 99.0584 36.1191 99.6445 35.7672C100.422 35.3015 101.086 34.7667 101.994 35.4284C102.067 35.4826 102.214 35.4406 102.326 35.4378C103.602 35.4042 103.783 35.5703 103.953 36.8023C104.215 38.71 105.104 40.3686 106.098 41.972C106.232 42.1895 106.642 42.3939 106.887 42.3575C107.77 42.2268 108.646 42.0206 109.509 41.7826C110.165 41.6015 110.836 42.0607 110.758 42.7411C110.686 43.3627 110.527 43.974 110.446 44.5947C110.377 45.1248 110.113 45.3778 109.581 45.4478C109.167 45.5019 108.765 45.6578 108.205 45.8108ZM103.089 42.8811C102.443 41.5744 101.891 40.4619 101.34 39.3494C101.283 39.3512 101.226 39.3531 101.17 39.355C100.737 40.7279 100.305 42.0999 99.8442 43.5624C100.963 43.3282 101.976 43.1154 103.089 42.8811Z" fill="#3AFE14"/>
<path d="M153.093 47.3209C152.96 48.3597 152.785 49.3948 152.709 50.4373C152.647 51.296 152.21 51.6348 151.394 51.3557C150.959 51.2064 150.514 51.0617 150.062 50.9964C149.467 50.9114 149.154 50.652 149.23 50.0238C149.31 49.3565 149.346 48.6808 149.476 48.0228C149.827 46.2354 150.175 44.4453 150.61 42.6776C150.826 41.803 150.577 41.0452 150.34 40.2528C150.185 39.7366 150.015 39.2205 149.926 38.6922C149.799 37.9381 150.31 37.4976 151.045 37.6301C151.452 37.7038 151.878 37.7561 152.286 37.7225C152.799 37.6805 153.093 37.8214 153.219 38.346C153.355 38.9162 153.486 39.5453 154.355 39.2616C154.407 39.2448 154.688 39.5957 154.65 39.689C154.057 41.132 154.442 42.4321 155.14 43.7164C155.682 44.7113 156.173 45.7333 156.692 46.7413C156.998 47.3358 157.314 47.9248 157.552 48.3765C157.95 48.0928 158.262 47.81 158.626 47.6224C159.48 47.1809 160.359 46.7852 161.223 46.3726C161.223 47.4282 161.221 48.4838 161.224 49.5385C161.228 50.7714 161.185 52.0062 161.253 53.2354C161.356 55.1012 161.529 56.9632 161.688 58.8261C161.729 59.3096 161.393 59.555 160.792 59.4776C160.195 59.401 159.594 59.3665 158.995 59.3152C158.517 59.2741 158.213 59.1164 158.181 58.5424C158.099 57.0621 157.961 55.5837 157.834 54.1062C157.82 53.9401 157.781 53.7068 157.668 53.6302C156.468 52.8136 155.937 51.4901 155.179 50.3468C154.524 49.3602 153.964 48.313 153.361 47.2929C153.272 47.3022 153.182 47.3116 153.093 47.3209Z" fill="#3AFE14"/>
<path d="M74.1328 48.2822C75.2257 47.2891 76.3065 46.3511 77.336 45.3599C78.918 43.8377 80.4991 42.3126 82.0148 40.725C83.2403 39.4407 84.3668 38.0631 85.5363 36.7257C85.5951 36.6575 85.6343 36.539 85.7033 36.5194C86.0515 36.4195 86.4061 36.3019 86.7599 36.2954C86.8336 36.2935 86.9801 36.7303 86.9857 36.9674C87.0651 40.2555 87.1192 43.5446 87.1995 46.8327C87.2079 47.1743 87.1705 47.3853 86.7963 47.4711C82.6775 48.4147 78.5101 48.6957 74.3008 48.4017C74.2653 48.3989 74.2327 48.355 74.1328 48.2822Z" fill="#FF1180"/>
<path d="M87.5272 34.9459C88.7144 34.9459 89.8344 34.9459 91.1243 34.9459C91.1243 35.6021 91.1093 36.2405 91.1271 36.8779C91.2223 40.3369 91.3035 43.7977 91.4379 47.2547C91.4901 48.5997 91.6507 49.9418 91.8028 51.2802C91.8495 51.6955 92.1089 52.0922 92.1257 52.5029C92.1416 52.8874 92.0595 53.3457 91.8476 53.6518C91.6208 53.9803 91.2372 53.9215 90.9236 53.5874C90.8452 53.5043 90.5736 53.5809 90.3981 53.6173C90.2404 53.6499 90.0939 53.7694 89.9389 53.7778C88.5949 53.8459 88.6603 53.8273 88.3775 52.4963C87.5104 48.4093 87.6803 44.2643 87.6065 40.1315C87.5776 38.5346 87.5263 36.9386 87.4889 35.3426C87.4852 35.2334 87.5085 35.1233 87.5272 34.9459Z" fill="#3AFE14"/>
<path d="M219.043 47.8716C215.076 47.8716 211.148 47.8716 207.221 47.8716C211.213 44.7561 215.327 41.8422 219.043 38.2302C219.043 41.5081 219.043 44.659 219.043 47.8716Z" fill="#FF1180"/>
<path d="M91.6348 36.2889C93.8188 36.2889 95.944 36.2889 98.1644 36.2889C97.4196 40.2547 95.4689 43.316 91.8905 45.4599C91.8046 42.3677 91.7216 39.3792 91.6348 36.2889Z" fill="#FF1180"/>
<path d="M178.978 43.8368C178.064 42.5824 177.727 41.1796 177.628 39.7078C177.515 38.0474 177.546 37.9587 179.173 38.22C180.761 38.4748 182.316 38.9303 183.883 39.3074C184.006 39.3363 184.11 39.439 184.219 39.5052C183.789 40.629 181.586 42.4536 178.978 43.8368Z" fill="#FF1180"/>
<path d="M158.584 37.2175C158.958 35.1931 159.26 33.3134 159.662 31.4551C159.92 30.2642 160.322 30.1167 161.477 30.4621C161.776 30.5517 162.138 30.4826 162.462 30.4341C162.896 30.3687 163.184 30.6674 163.098 31.0967C162.868 32.2485 162.611 33.3974 162.456 34.5594C162.372 35.1913 162.135 35.6617 161.636 36.0294C160.772 36.6659 159.811 37.0402 158.584 37.2175Z" fill="#3AFE14"/>
<path d="M147.91 36.611C148.533 36.9302 149.086 37.213 149.487 37.4192C149.487 38.1575 149.293 38.865 149.523 39.3867C150.31 41.1731 150.084 42.9194 149.638 44.7095C149.383 45.7324 149.23 46.7815 149.013 47.8147C148.954 48.0975 148.944 48.4998 148.36 48.272C149.601 44.3651 149.49 40.4927 147.91 36.611Z" fill="#FF1180"/>
<path d="M100.401 47.6989C100.709 47.6345 101.015 47.5617 101.324 47.5076C102.252 47.3442 103.179 47.1753 104.109 47.0316C104.816 46.9224 104.931 47.0409 105.007 47.8641C103.479 47.8641 101.953 47.8641 100.427 47.8641C100.418 47.809 100.41 47.754 100.401 47.6989Z" fill="#FF1180"/>
<path d="M109.869 47.9882C109.571 47.2705 109.358 46.759 109.118 46.1841C109.578 46.045 110.078 45.8938 110.566 45.7463C110.566 46.3735 110.628 46.983 110.531 47.5663C110.499 47.7567 110.054 47.8781 109.869 47.9882Z" fill="#FF1180"/>
<path d="M84.4163 26.7932C85.5708 26.8987 85.6091 26.9444 85.386 28.0075C85.0491 27.5856 84.7672 27.2319 84.4163 26.7932Z" fill="#FF1180"/>
<path d="M144.071 39.843C144.724 42.5198 144.392 44.8784 142.872 47.1053C142.568 46.9793 142.186 46.8533 141.841 46.6629C141.7 46.5845 141.548 46.3642 141.548 46.2083C141.549 43.8143 142.407 41.7517 144.071 39.843Z" fill="#FF1180"/>
<path d="M102.279 42.4974C101.731 42.6178 101.242 42.7242 100.637 42.8577C100.882 42.1288 101.09 41.5109 101.349 40.7418C101.68 41.3681 101.944 41.8656 102.279 42.4974Z" fill="#FF1180"/>
</svg>
