<svg width="750" height="184" viewBox="0 0 750 184" fill="none" xmlns="http://www.w3.org/2000/svg">
<path d="M461.297 128.378C453.737 128.378 446.165 128.378 438.352 128.378C438.352 124.618 438.352 121.053 438.352 117.015C433.487 121.693 428.237 124.778 422.047 126.885C419.87 122.29 417.715 117.703 415.522 113.133C414.835 111.698 414.747 110.275 415.237 108.773C415.442 108.145 415.567 107.488 415.67 106.835C416.03 104.523 415.547 103.968 413.257 103.583C412.677 103.485 412.185 102.87 411.652 102.493C411.737 102.278 411.822 102.063 411.907 101.848C412.53 101.848 413.155 101.89 413.772 101.84C418.275 101.48 422.87 101.555 427.257 100.643C437.457 98.5225 441.947 86.7075 436.132 77.955C433.825 74.4825 430.27 73.0025 426.382 72.2825C418.71 70.8625 410.98 70.735 403.34 72.335C392.522 74.6 387.972 85.235 393.507 94.8825C393.595 95.035 393.652 95.2075 393.53 95.7775C392.657 95.36 391.615 95.1225 390.94 94.4925C388.1 91.8425 384.542 91.625 381.14 92.085C379.307 92.3325 377.492 93.9225 375.997 95.2725C370.735 100.015 367.207 105.79 366.22 112.935C366.19 113.153 366.08 113.358 365.812 114.128C364.412 111.588 362.997 109.545 362.097 107.298C356.467 93.2425 356.37 79.1075 362.43 65.21C366.202 56.555 373.01 50.68 381.795 47.4125C397.042 41.7425 412.325 41.7225 427.26 48.51C431.155 50.28 434.59 53.0575 438.29 55.4075C438.29 42.8825 438.29 30.0775 438.29 17.14C449.542 17.14 460.55 17.14 471.735 17.14C471.735 51.5 471.735 85.7925 471.735 120.708" fill="#FF1180"/>
<path d="M471.732 123.795C480.687 118.355 489.992 114.305 496.012 105.335C488.73 101.482 481.027 100.992 473.147 100.32C473.147 97.635 473.105 94.995 473.202 92.3575C473.215 92.0475 474.022 91.4675 474.402 91.5125C478.702 92.03 483.042 92.405 487.265 93.3125C490.33 93.97 493.327 95.165 496.182 96.4925C498.67 97.6475 500.107 99.7525 499.975 102.74C499.92 103.977 500.262 105.24 500.475 106.482C501.075 109.982 499.457 112.765 497.32 115.175C495.142 117.63 492.817 120.06 490.177 121.975C485.807 125.145 481.18 127.977 476.572 130.807C467.845 136.162 459.047 141.402 450.3 146.722C448.247 147.97 446.297 149.39 444.232 150.615C443.905 150.81 442.84 150.52 442.745 150.24C441.317 146.082 439.027 142.127 440.065 137.4C440.527 135.297 440.407 133.072 440.71 130.925C440.775 130.457 441.505 129.757 441.965 129.73C444.07 129.602 446.19 129.715 448.302 129.655C449.372 129.625 449.68 130.082 449.607 131.062C449.472 132.895 449.39 134.732 449.265 136.88C453.942 134.05 458.315 131.4 462.69 128.752" fill="#3AFE14"/>
<path d="M30.6525 31.0151C31.5275 31.0151 32.0625 31.0151 32.5975 31.0151C44.615 31.0151 56.6325 31.0426 68.65 30.9801C70.0725 30.9726 70.6075 31.5151 71.075 32.7551C79.6375 55.4601 88.2475 78.1501 96.8475 100.84C97.0925 101.49 97.3425 102.138 97.79 103.313C99.12 99.8176 100.25 96.8601 101.372 93.9001C109.115 73.4676 116.865 53.0376 124.58 32.5926C124.992 31.5001 125.455 30.9751 126.75 30.9801C138.947 31.0351 151.147 31.0126 163.345 31.0176C163.81 31.0176 164.275 31.0851 164.945 31.1376C164.285 32.7776 163.697 34.2776 163.08 35.7676C150.532 66.0501 137.97 96.3251 125.46 126.62C124.885 128.013 124.172 128.47 122.672 128.465C106.065 128.41 89.4575 128.413 72.8525 128.463C71.4375 128.468 70.7325 128.085 70.1725 126.728C57.32 95.5926 44.4175 64.4776 31.525 33.3601C31.2525 32.7001 31.0275 32.0251 30.6525 31.0151Z" fill="#FF1180"/>
<path d="M578.41 93.87C577.712 94.495 577.043 95.155 576.315 95.7425C571.075 99.9625 565.84 104.19 560.565 108.368C557.223 111.013 553.852 113.625 550.427 116.163C545.747 119.63 541.008 123.018 536.275 126.418C535.845 126.728 535.317 126.96 534.802 127.083C522.135 130.105 509.395 130.963 496.587 128.065C493.977 127.475 491.47 126.435 488.777 125.555C491.395 123.078 493.718 120.848 496.073 118.655C498.285 116.595 500.405 114.44 501.323 111.485C501.74 110.138 501.905 108.645 501.845 107.23C501.74 104.77 501.767 102.188 500.99 99.91C500.4 98.1825 498.882 96.5375 497.367 95.4075C493.422 92.465 488.555 92.005 483.9 91.0475C482.975 90.8575 482.03 90.7575 480.568 90.535C482.098 89.1475 483.213 87.9925 484.47 87.0225C489.76 82.9475 495.908 80.79 502.358 79.5525C517.098 76.725 531.86 76.4425 546.597 79.6725C547.715 79.9175 548.817 80.245 549.917 80.565C550.995 80.8775 552.063 81.2275 553.153 81.5675C553.83 78.115 551.407 74.6325 548.722 73.665C546.142 72.7325 543.418 71.8975 540.703 71.685C525.603 70.505 510.675 72.045 495.9 75.155C493.892 75.5775 493.118 75.125 492.32 73.29C489.478 66.7625 486.418 60.3275 483.443 53.8575C483.195 53.3175 482.975 52.765 482.695 52.1075C483.11 51.8925 483.448 51.6475 483.825 51.53C501.72 46.02 519.953 42.7925 538.755 43.565C546.258 43.8725 553.668 44.845 560.833 47.2425C575.818 52.255 584.1 62.7575 586.24 78.2825C586.41 79.5175 586.528 80.7575 586.69 82.1525C580.463 81.2375 574.522 81.4725 568.66 82.61C561.887 83.9225 555.053 85.12 548.455 87.0775C540.693 89.3825 533.158 92.46 525.513 95.17C524.675 95.4675 523.765 95.5725 522.883 95.7225C519.563 96.2925 516.18 96.61 512.94 97.4775C510.255 98.195 509.138 100.083 509.2 102.405C509.255 104.468 510.163 105.905 512.145 106.503C513.69 106.968 515.325 107.29 516.935 107.37C528.792 107.958 540.27 106.073 551.395 101.935C552.798 101.413 553.75 100.818 553.425 99.1275C553.242 98.175 553.702 97.7625 554.67 97.57C559.157 96.6725 563.617 95.6325 568.112 94.7675C571.41 94.1325 574.743 93.695 578.062 93.1675C578.177 93.4 578.295 93.635 578.41 93.87Z" fill="#FF1180"/>
<path d="M624.81 57.98C633 47.2075 644.147 43.56 656.912 43.4425C664.012 43.3775 671.007 44.2175 677.91 45.875C678.842 46.1 679.385 46.37 679.38 47.5C679.335 56.015 679.355 64.5275 679.345 73.0425C679.345 73.275 679.267 73.51 679.182 73.98C678.512 73.84 677.892 73.7225 677.277 73.5775C665.525 70.84 653.732 70.3025 641.925 73.135C635.875 74.585 630.59 77.515 626.105 81.8825C625.165 82.7975 624.775 83.72 624.777 85.045C624.825 98.8125 624.782 112.58 624.842 126.347C624.85 127.915 624.477 128.41 622.845 128.397C613.002 128.32 603.16 128.32 593.317 128.397C591.682 128.41 591.315 127.912 591.325 126.35C591.395 116.205 591.36 106.06 591.36 95.9175C591.36 79.625 591.385 63.3325 591.322 47.04C591.315 45.3575 591.662 44.7675 593.472 44.785C603.255 44.875 613.037 44.865 622.82 44.79C624.422 44.7775 624.892 45.215 624.842 46.815C624.73 50.535 624.81 54.2575 624.81 57.98Z" fill="#FF1180"/>
<path d="M719.157 128.302C707.187 128.302 695.382 128.302 683.475 128.302C683.475 95.8975 683.475 63.62 683.475 31.1775C695.352 31.1775 707.2 31.1775 719.157 31.1775C719.157 63.5075 719.157 95.845 719.157 128.302Z" fill="#FF1180"/>
<path d="M302.193 44.9301C302.193 49.3626 302.193 53.6726 302.193 58.3401C302.635 57.9751 302.833 57.8726 302.948 57.7101C308.943 49.3901 317.31 45.1851 327.263 43.9226C336.78 42.7151 346.185 43.6826 355.465 45.9676C356.005 46.1001 356.755 46.9326 356.76 47.4451C356.838 56.0176 356.81 64.5926 356.8 73.1676C356.8 73.3426 356.725 73.5151 356.628 73.9401C356.008 73.8251 355.388 73.7351 354.783 73.5926C344.015 71.0301 333.17 70.4876 322.255 72.4701C315.138 73.7626 308.835 76.7401 303.593 81.8301C302.62 82.7726 302.085 83.7301 302.19 85.1426C302.318 86.8801 302.22 88.6351 302.22 90.3551C299.365 91.1276 298.338 93.3551 298.075 95.7751C297.655 99.6626 297.638 103.593 297.438 107.505C297.383 108.58 297.283 109.653 297.235 110.313C295.405 110.43 293.783 110.45 292.185 110.66C290.765 110.848 289.313 111.085 287.98 111.583C286.003 112.323 285.248 111.31 284.36 109.793C281.93 105.645 280.353 101.228 279.408 96.5276C278.853 93.7626 278.413 93.6451 275.635 93.4201C274.248 93.3076 272.9 92.7651 271.518 92.4926C270.71 92.3351 269.875 92.3301 268.885 92.2401C268.858 91.6926 268.8 91.1076 268.8 90.5226C268.795 75.9701 268.818 61.4176 268.765 46.8651C268.76 45.3476 269.06 44.7776 270.735 44.7926C280.578 44.8751 290.42 44.8326 300.263 44.8376C300.848 44.8326 301.433 44.8901 302.193 44.9301Z" fill="#FF1180"/>
<path d="M512.175 161.755C517.45 160.258 522.41 158.903 527.335 157.43C530.783 156.4 534.155 155.123 537.605 154.11C539.987 153.41 542.467 153.055 544.865 152.403C547.975 151.555 551.018 150.435 554.143 149.66C561.16 147.918 568.18 146.16 575.26 144.713C579.967 143.75 584.78 143.32 589.545 142.638C592.09 142.273 594.622 141.71 597.18 141.538C603.017 141.143 608.865 140.868 614.71 140.675C617.633 140.58 620.567 140.79 623.495 140.83C626.092 140.865 626.992 141.643 627.36 144.258C627.607 146.023 627.86 147.785 628.097 149.463C626.067 150.293 624.43 150.45 622.565 149.808C621.042 149.283 619.295 149.433 617.653 149.23C616.23 149.055 614.82 148.778 613.398 148.608C613.093 148.57 612.75 148.78 612.437 148.908C612.055 149.063 611.487 149.498 611.345 149.385C609.912 148.225 608.432 149.245 606.997 149.233C604.145 149.21 601.11 148.73 598.495 149.54C596.39 150.193 594.325 150.02 592.275 150.453C588.348 151.283 584.307 151.57 580.315 152.083C578.665 150.523 577.415 153.675 575.795 152.468C574.95 154.155 573.175 153.245 571.898 153.798C571.208 154.095 570.195 153.648 569.015 153.495C567.8 154.738 565.962 155.683 563.597 155.323C563.21 155.265 562.755 155.355 562.39 155.51C559.305 156.828 556.12 157.798 552.787 158.18C552.147 158.253 551.438 157.735 550.518 157.403C550.758 157.878 550.925 158.213 551.162 158.68C535.267 163.385 519.4 168.083 503.392 172.82C502.855 171.94 502.287 171.228 501.952 170.415C501.427 169.138 501.17 167.865 499.94 166.84C498.76 165.858 499.292 164.243 500.02 163C503.217 157.538 507.642 153.105 512.185 148.795C515.14 145.993 518.185 143.283 521.27 140.623C525.088 137.33 528.895 134.018 532.872 130.923C537.41 127.39 542.145 124.108 546.765 120.678C551.495 117.165 556.182 113.593 560.907 110.073C563.697 107.993 566.645 106.103 569.305 103.87C573.127 100.663 576.762 97.2301 580.447 93.8601C580.91 93.4376 581.192 92.8201 581.912 91.7776C578.77 92.0051 576.103 92.0826 573.465 92.4101C563.573 93.6376 553.88 95.7951 544.47 99.0876C538.957 101.018 533.59 103.36 528.055 105.22C522.942 106.938 517.715 106.483 512.57 105.06C512.2 104.958 511.887 104.64 511.197 104.198C513.14 103.005 514.755 101.748 516.57 100.945C522.15 98.4801 527.795 96.1576 533.44 93.8451C537.102 92.3451 540.763 90.8101 544.518 89.5701C548.393 88.2901 552.333 87.1001 556.333 86.3226C562.813 85.0651 569.338 83.9576 575.895 83.2251C579.19 82.8576 582.612 83.2876 585.93 83.7226C586.902 83.8501 588.065 85.0751 588.52 86.0801C589.323 87.8526 589.915 89.8176 590.088 91.7451C590.213 93.1551 589.825 94.8001 589.143 96.0576C586.607 100.725 582.993 104.448 578.59 107.45C577.163 108.425 576.05 109.848 574.677 110.915C571.477 113.408 568.2 115.8 564.965 118.25C562.495 120.123 560.077 122.07 557.572 123.895C555.575 125.35 553.45 126.625 551.44 128.065C550.192 128.958 549.107 130.078 547.857 130.97C546.717 131.785 545.43 132.395 544.255 133.165C543.515 133.653 542.85 134.26 542.17 134.833C541.317 135.55 540.5 136.308 539.637 137.01C537.825 138.485 535.985 139.928 534.17 141.398C531.587 143.493 528.977 145.555 526.45 147.718C524.695 149.22 523.107 150.915 521.365 152.433C519.837 153.763 517.747 154.68 516.73 156.298C515.705 157.928 513.915 158.413 512.952 159.875C512.627 160.37 512.482 160.99 512.175 161.755ZM537.92 129.828C537.702 130.405 537.49 130.848 537.372 131.313C537.275 131.698 537.292 132.11 537.257 132.51C537.705 132.473 538.193 132.535 538.59 132.375C539.345 132.068 540.058 131.648 540.77 131.248C541.233 130.988 541.835 130.773 542.07 130.363C542.41 129.773 542.472 129.023 542.7 128.165C540.912 127.873 540.022 129.273 539.07 130.57C538.7 130.33 538.322 130.085 537.92 129.828ZM546.8 125.09C547.952 124.953 548.842 124.983 549.62 124.703C550.062 124.543 550.325 123.878 550.667 123.44C550.11 123.298 549.405 122.873 549.028 123.073C548.298 123.455 547.75 124.19 546.8 125.09ZM523.898 142.865C522.548 143.72 521.207 144.568 519.87 145.415C519.877 145.523 519.885 145.633 519.895 145.74C521.318 145.298 522.737 144.855 524.262 144.383C524.145 143.898 524.01 143.338 523.898 142.865ZM547.572 125.993C547.52 125.825 547.467 125.66 547.415 125.493C546.342 125.54 545.27 125.573 544.205 125.67C544.135 125.678 544.005 126.378 544.077 126.418C544.685 126.733 545.365 127.228 545.963 127.155C546.538 127.083 547.04 126.403 547.572 125.993Z" fill="#3AFE14"/>
<path d="M264.498 92.1001C254.075 92.1001 244.033 92.1001 233.698 92.1001C234.138 91.0801 234.368 90.2026 234.848 89.4951C238.15 84.6501 239.53 79.3601 238.368 73.5801C238.083 72.1676 237.113 70.8876 236.423 69.5626C233.243 63.4526 228.355 59.9976 221.33 59.8126C213.95 59.6201 206.663 60.1226 199.543 62.2676C192.815 64.2951 185.91 65.8376 179.375 68.3526C172.145 71.1351 165.213 74.7126 158.223 78.0876C155.88 79.2201 153.753 80.7951 151.065 81.9976C151.648 79.0201 152.043 75.9876 152.848 73.0726C156.315 60.5326 164.828 52.7476 176.69 48.2426C185.083 45.0551 193.86 43.8776 202.765 43.5426C213 43.1601 223.168 43.6701 233.1 46.4401C251.208 51.4876 261.575 63.6251 263.753 82.3476C264.128 85.5551 264.253 88.7901 264.498 92.1001Z" fill="#FF1180"/>
<path d="M323.962 102.85C322.827 105.813 321.707 108.783 320.552 111.735C318.972 115.773 317.34 119.79 315.77 123.83C313.197 130.44 310.675 137.068 308.08 143.668C307.76 144.48 307.202 145.23 306.63 145.9C306.362 146.213 305.79 146.425 305.362 146.415C303.427 146.368 301.492 146.228 299.56 146.11C299.087 146.083 298.617 146.01 298.055 145.95C297.877 141.818 297.522 137.768 297.572 133.72C297.655 126.925 297.945 120.13 298.24 113.338C298.455 108.41 298.707 103.478 299.172 98.57C299.342 96.775 300.18 95.0425 300.7 93.28C301.167 91.695 302.715 92.09 303.312 92.475C304.665 93.3525 305.777 93.095 307.125 92.725C307.635 92.585 308.442 93.0875 308.94 93.505C309.197 93.7225 309.155 94.405 309.1 94.86C308.82 97.1525 308.43 99.43 308.192 101.725C307.84 105.135 307.542 108.55 307.3 111.97C307.07 115.198 306.94 118.433 306.765 121.663C306.925 121.718 307.087 121.775 307.247 121.83C307.855 120.663 308.56 119.535 309.052 118.323C312.995 108.568 316.827 98.7675 320.857 89.05C322.025 86.235 323.762 83.665 325.14 80.93C325.607 80.0025 325.765 78.9225 326.067 77.9125C326.42 76.735 327.032 76.3825 328.357 76.6825C329.64 76.975 331.1 76.99 332.377 76.6875C334.9 76.0875 336.342 77.08 335.747 79.5325C333.792 87.6 333.83 95.775 334.157 103.978C334.25 106.275 334.432 108.568 334.975 110.935C335.76 108.57 336.54 106.205 337.327 103.84C338.542 100.185 339.697 96.5075 341.022 92.895C341.375 91.9375 342.28 91.19 342.877 90.3075C343.06 90.04 343.162 89.6425 343.135 89.3175C342.83 85.745 345.06 83.245 347.025 80.77C347.59 80.06 349.37 80.3025 350.597 80.1375C350.985 80.085 351.617 80.2825 351.745 80.0975C352.965 78.3075 354.54 79.5175 355.592 79.9775C356.202 80.245 356.47 82.0825 356.33 83.14C355.55 89.0575 356.3 94.8975 357.075 100.728C357.842 106.498 358.595 112.285 359.722 117.99C360.987 124.395 361.977 130.9 364.542 136.978C365.117 138.34 365.937 139.635 366.827 140.823C367.917 142.278 367.34 144.345 365.542 144.775C363.852 145.18 362.142 145.49 360.45 145.883C359.235 146.165 358.242 145.903 357.772 144.693C356.512 141.44 355.202 138.2 354.13 134.883C353.127 131.78 352.297 128.613 351.595 125.43C350.897 122.265 350.45 119.045 349.902 115.848C349.085 111.085 348.275 106.32 347.462 101.558C347.215 101.37 346.967 101.183 346.722 100.993C346.632 101.373 346.555 101.755 346.45 102.13C345.762 104.568 345.107 107.013 344.367 109.433C343.625 111.858 342.785 114.253 342.01 116.665C340.95 119.955 339.9 123.248 338.865 126.545C338.415 127.978 338.057 129.443 337.577 130.865C336.835 133.065 336.047 133.405 333.735 133.303C332.442 133.245 331.13 133.688 329.82 133.873C328.25 134.093 327.415 133.628 327.217 131.813C326.767 127.708 325.957 123.643 325.495 119.54C325.132 116.323 325.072 113.07 324.877 109.833C324.737 107.528 324.597 105.225 324.457 102.923C324.29 102.903 324.125 102.875 323.962 102.85ZM310.917 129.023C311.732 127.245 312.41 125.765 313.295 123.835C312.115 124.21 311.477 124.413 310.837 124.618C310.87 124.758 310.902 124.898 310.932 125.038C311.272 125.038 311.61 125.038 312.052 125.038C311.687 126.35 309.662 126.888 310.917 129.023Z" fill="#3AFE14"/>
<path d="M166.238 142.437C168.663 140.497 171.115 138.587 173.51 136.607C180.4 130.905 187.568 125.492 194.068 119.372C202.543 111.39 210.71 103.047 218.55 94.44C222.365 90.2525 225.325 85.23 228.303 80.36C229.545 78.325 229.9 75.7225 230.52 73.3425C230.87 72.0025 230.343 71.1175 228.828 70.7075C224.328 69.4925 219.833 69.0075 215.188 69.8275C212.123 70.3675 208.95 70.35 205.915 70.9925C202.133 71.7925 198.418 72.95 194.71 74.075C190.233 75.4325 185.758 76.8175 181.355 78.39C178.78 79.31 176.275 80.49 173.863 81.7825C170.283 83.7 166.985 86.2525 163.25 87.73C159.43 89.2425 156.548 91.8875 153.335 94.155C152.515 94.735 151.9 95.6025 151.165 96.31C149.705 97.715 148.963 97.6275 147.948 95.91C147.615 95.35 147.463 94.68 147.103 94.1425C146.693 93.5325 146.243 92.845 145.635 92.4925C143.96 91.52 143.69 90.2075 145.21 88.9775C146.84 87.6575 148.56 86.43 150.318 85.2825C154.74 82.4 159.02 79.225 163.693 76.8225C172.53 72.275 181.725 68.485 191.358 65.8925C196.068 64.625 200.788 63.3675 205.55 62.3175C211.105 61.0925 216.78 60.84 222.435 61.2775C228.21 61.7225 231.905 65.2 234.985 69.93C237.778 74.22 237.948 78.4775 236.343 82.9925C235.635 84.9825 234.5 86.83 233.468 88.6925C232.448 90.53 231.37 92.345 230.208 94.095C229.168 95.6625 228.053 97.1975 226.835 98.6325C224.175 101.767 221.588 104.985 218.688 107.887C213.448 113.132 208.005 118.175 202.638 123.292C200.428 125.4 198.24 127.535 195.95 129.55C194.135 131.147 192.158 132.56 190.293 134.102C188.935 135.225 187.685 136.477 186.32 137.587C184.27 139.255 182.123 140.807 180.083 142.487C177.785 144.38 175.588 146.392 173.293 148.287C172.118 149.257 170.798 150.05 169.593 150.987C168.18 152.085 166.875 153.327 165.425 154.37C163.563 155.707 161.588 156.885 159.7 158.19C159.253 158.5 159.03 159.135 158.588 159.455C156.555 160.927 154.36 162.202 152.475 163.84C151.58 164.62 151.253 166.052 150.473 167.562C148.178 165.047 146.003 162.855 144.073 160.467C143.193 159.377 143.703 158.262 144.97 157.467C148.015 155.555 151.02 153.572 153.993 151.547C154.49 151.21 154.963 150.547 155.065 149.965C155.743 146.122 156.393 142.275 156.91 138.407C157.855 131.34 158.7 124.26 159.588 117.185C159.623 116.905 159.67 116.627 159.708 116.37C162.423 118.475 165.088 120.49 167.673 122.602C168.028 122.892 168.158 123.685 168.103 124.217C167.695 128.215 167.245 132.21 166.75 136.197C166.5 138.21 166.138 140.207 165.825 142.212C165.96 142.287 166.098 142.362 166.238 142.437Z" fill="#3AFE14"/>
<path d="M228.603 75.6551C228.103 76.9776 227.843 78.2526 227.19 79.2801C224.605 83.3426 221.945 87.3626 219.178 91.3026C218.773 91.8776 217.64 92.1951 216.843 92.2001C207.068 92.2601 197.29 92.2376 187.513 92.2376C186.863 92.2376 186.213 92.2376 185.278 92.2376C186.05 94.9226 187.393 96.9201 189.283 98.5601C192.715 101.54 196.893 102.633 201.273 103.115C203.41 103.35 205.565 103.42 208.075 103.588C205.673 106.068 203.59 108.455 201.263 110.575C195.523 115.8 189.685 120.915 183.84 126.023C183.29 126.503 182.298 126.975 181.688 126.808C171.373 123.945 162.408 118.96 156.84 109.435C154.89 106.1 153.805 102.25 152.443 98.5926C152.255 98.0901 152.535 97.1126 152.945 96.7376C156.175 93.7926 159.393 90.8751 163.645 89.3051C165.803 88.5076 167.683 86.9726 169.723 85.8326C171.6 84.7826 173.455 83.6376 175.443 82.8426C180.985 80.6226 186.573 78.5151 192.183 76.4726C193.61 75.9526 195.185 75.5876 196.695 75.5751C206.773 75.4976 216.853 75.5351 226.93 75.5401C227.393 75.5376 227.86 75.6001 228.603 75.6551Z" fill="#FF1180"/>
<path d="M398.5 114.88C397.957 118.373 397.655 122.533 396.603 126.493C395.385 131.078 392.83 135.048 388.35 137.17C384.91 138.8 381.275 139.428 377.675 137.343C376.375 136.59 375.038 135.895 373.703 135.205C369.54 133.053 368.503 129.025 367.823 124.958C367.003 120.065 366.912 115.123 368.28 110.265C370.337 102.965 374.622 97.3751 381.18 93.5476C381.482 93.3701 381.88 93.1751 382.195 93.2276C385.363 93.7451 388.748 93.6751 390.978 96.7051C391.34 97.1976 392.46 97.0551 393.073 97.4501C395.385 98.9401 396.138 101.425 396.663 103.883C397.385 107.283 397.822 110.74 398.5 114.88ZM386.992 104.048C379.012 109.57 375.878 122.415 378.728 130.148C382.468 128.763 384.818 125.948 386.42 122.525C389.22 116.543 388.235 110.373 386.992 104.048Z" fill="#3AFE14"/>
<path d="M289.835 122.708C290.498 123.953 290.91 125.108 291.643 126C292.45 126.983 292.133 127.758 291.58 128.548C290.903 129.518 290.3 128.843 289.62 128.42C289.31 128.228 288.743 128.353 288.323 128.458C287.465 128.673 286.63 128.98 285.78 129.233C284.225 129.695 283.403 129.115 282.865 127.56C281.688 124.15 281.588 124.035 278.013 124.673C272.005 125.745 266.015 126.943 260.055 128.245C257.62 128.778 255.29 129.783 252.88 130.463C251.998 130.713 251.025 130.645 249.973 130.733C248.578 128.715 250.608 127.275 251.003 125.46C250.453 125.28 249.913 125.103 249.395 124.933C249.478 122.038 250.385 120.9 252.828 120.198C255.7 119.373 258.003 118.205 258.875 114.733C260.175 109.563 262.2 104.575 263.828 99.4825C264.373 97.78 265.335 96.7475 266.905 95.805C268.988 94.5575 270.768 93.125 273.198 94.8975C273.395 95.0425 273.788 94.93 274.088 94.9225C277.505 94.8325 277.99 95.2775 278.445 98.5775C279.148 103.688 281.53 108.13 284.19 112.425C284.55 113.008 285.648 113.555 286.305 113.458C288.67 113.108 291.018 112.555 293.328 111.918C295.085 111.433 296.882 112.663 296.673 114.485C296.48 116.15 296.055 117.788 295.838 119.45C295.653 120.87 294.945 121.548 293.52 121.735C292.413 121.88 291.335 122.298 289.835 122.708ZM276.133 114.86C274.4 111.36 272.923 108.38 271.448 105.4C271.295 105.405 271.143 105.41 270.99 105.415C269.833 109.093 268.675 112.768 267.44 116.685C270.438 116.058 273.15 115.488 276.133 114.86Z" fill="#3AFE14"/>
<path d="M410.07 126.752C409.715 129.535 409.245 132.308 409.042 135.1C408.875 137.4 407.705 138.307 405.52 137.56C404.355 137.16 403.162 136.772 401.952 136.597C400.357 136.37 399.52 135.675 399.722 133.992C399.937 132.205 400.035 130.395 400.382 128.633C401.322 123.845 402.255 119.05 403.42 114.315C403.997 111.972 403.332 109.942 402.697 107.82C402.282 106.437 401.825 105.055 401.587 103.64C401.247 101.62 402.615 100.44 404.585 100.795C405.675 100.992 406.815 101.132 407.91 101.042C409.282 100.93 410.07 101.307 410.407 102.712C410.772 104.24 411.122 105.925 413.45 105.165C413.59 105.12 414.342 106.06 414.24 106.31C412.652 110.175 413.685 113.657 415.555 117.097C417.005 119.763 418.32 122.5 419.71 125.2C420.53 126.792 421.377 128.37 422.015 129.58C423.08 128.82 423.917 128.062 424.89 127.56C427.18 126.377 429.532 125.317 431.847 124.212C431.847 127.04 431.842 129.868 431.85 132.693C431.86 135.995 431.745 139.302 431.927 142.595C432.202 147.592 432.667 152.58 433.092 157.57C433.202 158.865 432.302 159.522 430.692 159.315C429.095 159.11 427.485 159.018 425.88 158.88C424.6 158.77 423.785 158.347 423.7 156.81C423.48 152.845 423.11 148.885 422.77 144.928C422.732 144.483 422.627 143.857 422.325 143.652C419.11 141.465 417.687 137.92 415.657 134.857C413.905 132.215 412.402 129.41 410.787 126.677C410.55 126.702 410.31 126.727 410.07 126.752Z" fill="#3AFE14"/>
<path d="M198.57 129.327C201.498 126.667 204.393 124.155 207.15 121.5C211.388 117.422 215.623 113.337 219.683 109.085C222.965 105.645 225.983 101.955 229.115 98.3725C229.273 98.19 229.378 97.8725 229.563 97.82C230.495 97.5525 231.445 97.2375 232.393 97.22C232.59 97.215 232.983 98.385 232.998 99.02C233.21 107.827 233.355 116.637 233.57 125.445C233.593 126.36 233.493 126.925 232.49 127.155C221.458 129.682 210.295 130.435 199.02 129.647C198.925 129.64 198.838 129.522 198.57 129.327Z" fill="#FF1180"/>
<path d="M234.448 93.6051C237.628 93.6051 240.628 93.6051 244.083 93.6051C244.083 95.3626 244.043 97.0726 244.09 98.7801C244.345 108.045 244.563 117.315 244.923 126.575C245.063 130.178 245.493 133.773 245.9 137.358C246.025 138.47 246.72 139.533 246.765 140.633C246.808 141.663 246.588 142.89 246.02 143.71C245.413 144.59 244.385 144.433 243.545 143.538C243.335 143.315 242.608 143.52 242.138 143.618C241.715 143.705 241.323 144.025 240.908 144.048C237.308 144.23 237.483 144.18 236.725 140.615C234.403 129.668 234.858 118.565 234.66 107.495C234.583 103.218 234.445 98.9426 234.345 94.6676C234.335 94.3751 234.398 94.0801 234.448 93.6051Z" fill="#3AFE14"/>
<path d="M586.722 128.227C576.095 128.227 565.575 128.227 555.055 128.227C565.747 119.882 576.767 112.077 586.722 102.402C586.722 111.182 586.722 119.622 586.722 128.227Z" fill="#FF1180"/>
<path d="M245.45 97.2025C251.3 97.2025 256.993 97.2025 262.94 97.2025C260.945 107.825 255.72 116.025 246.135 121.768C245.905 113.485 245.683 105.48 245.45 97.2025Z" fill="#FF1180"/>
<path d="M479.405 117.42C476.957 114.06 476.055 110.303 475.79 106.36C475.488 101.913 475.57 101.675 479.927 102.375C484.18 103.058 488.348 104.278 492.545 105.288C492.873 105.365 493.153 105.64 493.443 105.818C492.293 108.828 486.39 113.715 479.405 117.42Z" fill="#FF1180"/>
<path d="M424.78 99.69C425.78 94.2675 426.59 89.2325 427.668 84.255C428.358 81.065 429.435 80.67 432.528 81.595C433.33 81.835 434.298 81.65 435.165 81.52C436.328 81.345 437.1 82.145 436.87 83.295C436.253 86.38 435.565 89.4575 435.15 92.57C434.925 94.2625 434.29 95.5225 432.955 96.5075C430.64 98.2125 428.065 99.215 424.78 99.69Z" fill="#3AFE14"/>
<path d="M396.188 98.0651C397.857 98.9201 399.338 99.6776 400.413 100.23C400.413 102.208 399.893 104.103 400.508 105.5C402.615 110.285 402.01 114.963 400.815 119.758C400.133 122.498 399.722 125.308 399.142 128.075C398.985 128.833 398.957 129.91 397.392 129.3C400.717 118.835 400.42 108.463 396.188 98.0651Z" fill="#FF1180"/>
<path d="M268.932 127.765C269.757 127.592 270.575 127.397 271.405 127.252C273.89 126.815 276.372 126.362 278.865 125.977C280.757 125.685 281.065 126.002 281.27 128.207C277.175 128.207 273.088 128.207 269 128.207C268.977 128.06 268.955 127.912 268.932 127.765Z" fill="#FF1180"/>
<path d="M294.293 128.54C293.493 126.618 292.923 125.248 292.28 123.708C293.513 123.335 294.853 122.93 296.16 122.535C296.16 124.215 296.325 125.848 296.065 127.41C295.98 127.92 294.788 128.245 294.293 128.54Z" fill="#FF1180"/>
<path d="M226.115 71.7676C229.207 72.0501 229.31 72.1726 228.712 75.0201C227.81 73.8901 227.055 72.9426 226.115 71.7676Z" fill="#FF1180"/>
<path d="M385.905 106.723C387.652 113.893 386.765 120.21 382.692 126.175C381.877 125.838 380.855 125.5 379.932 124.99C379.552 124.78 379.147 124.19 379.147 123.773C379.15 117.36 381.447 111.835 385.905 106.723Z" fill="#FF1180"/>
<path d="M273.962 113.833C272.492 114.155 271.183 114.44 269.562 114.798C270.22 112.845 270.778 111.19 271.47 109.13C272.358 110.808 273.065 112.14 273.962 113.833Z" fill="#FF1180"/>
</svg>
